<svg width="40" height="40" viewBox="0 0 40 40" fill="none" xmlns="http://www.w3.org/2000/svg">
<path d="M30.1042 34.4058L24.7022 22.7076L25.3942 22.2294L33.877 16.3689H23.2187L22.9895 15.6879L19.8421 6.33588L16.6307 16.3689H5.99113L15.1815 22.6535L14.8091 23.4276L9.55279 34.3535L19.7864 28.0025L30.1042 34.4058ZM27.2232 23.3965L33.1526 36.2378C33.3209 36.574 33.3076 36.9731 33.1171 37.2975C32.8039 37.8305 32.1126 38.006 31.5829 37.6773L19.7864 30.3563L8.00031 37.6709C7.66152 37.8811 7.23591 37.8923 6.88644 37.6999C6.35625 37.408 6.16179 36.7468 6.42453 36.2439L12.6345 23.3346L2.42613 16.3516C2.15601 16.1406 2 15.8174 2 15.4772C2 14.8712 2.48865 14.3689 3.10535 14.3689H15.1709L18.7681 3.13061C18.8723 2.80457 19.1218 2.54291 19.4468 2.42574C20.0323 2.2147 20.6684 2.529 20.868 3.11386L24.6558 14.3689H36.7351C37.085 14.3689 37.4123 14.5349 37.6201 14.8132C37.9787 15.2937 37.8913 15.9755 37.3677 16.3858L27.2232 23.3965Z" fill="#fff"/>
</svg>
