<svg xmlns="http://www.w3.org/2000/svg" xmlns:xlink="http://www.w3.org/1999/xlink"><symbol xmlns="http://www.w3.org/2000/svg" viewBox="0 0 24 24" id="apartment-24"><g fill="none" fill-rule="evenodd"><path d="M0 0h24v24H0z"/><path d="M22 2v20H2V2h20zm-2 2H4v16h5v-6h6v6h5V4zm-7 12h-2v4h2v-4zm0-6v2h-2v-2h2zm5 0v2h-2v-2h2zM8 10v2H6v-2h2zm5-4v2h-2V6h2zm5 0v2h-2V6h2zM8 6v2H6V6h2z" fill="currentColor" fill-rule="nonzero"/></g></symbol><symbol xmlns="http://www.w3.org/2000/svg" viewBox="0 0 24 24" id="arrow-enclosed-24"><g fill="currentColor"><path d="M12 19c-3.86 0-7-3.14-7-7s3.14-7 7-7 7 3.14 7 7-3.14 7-7 7m0-16c-4.962 0-9 4.038-9 9s4.038 9 9 9 9-4.038 9-9-4.038-9-9-9"/><path d="M14 12.022v-.043l.021.02-.021.023zm-2.217-2.325L13.049 11H7v2h6.049l-1.266 1.304 1.434 1.393L16.81 12l-3.593-3.696-1.434 1.393z"/></g></symbol><symbol xmlns="http://www.w3.org/2000/svg" viewBox="0 0 24 24" id="arrows-apart-24"><path d="M9.071 1.83L.48 9.461 9.071 17.3V13h7.933v-1.799l3.487 3.301-3.487 3.32v-1.796h-6.001v2h4.001v4.247l8.512-7.784-8.512-7.69V11H7.07v1.855L3.527 9.488 7.07 6.17V8h5.934V6H9.071z" fill="currentColor"/></symbol><symbol xmlns="http://www.w3.org/2000/svg" viewBox="0 0 24 24" id="attach_24"><g fill="none" fill-rule="evenodd"><path d="M0 0h24v24H0z"/><path d="M10.67 16.812c1.311 2.45 2.842 3.061 4.965 2.07 2.124-.99 2.64-2.555 1.628-5.083l-2.981-6.392 1.813-.845 3.002 6.443c1.411 3.519.519 6.228-2.616 7.69-3.136 1.462-5.785.404-7.599-2.988L4.647 8.625l-.04-.102c-.731-2.157.066-3.904 2.2-4.899 2.13-.993 3.985-.49 5.19 1.44l.058.107 4.235 9.082.044.112c.498 1.522.098 2.789-1.219 3.403-1.315.613-2.543.107-3.392-1.252l-.058-.107-2.98-6.392 1.812-.845 2.954 6.334c.334.522.518.59.82.45.3-.141.366-.325.18-.915L10.27 6.074c-.652-1.012-1.405-1.203-2.618-.637C6.442 6 6.113 6.69 6.485 7.832l4.185 8.98z" fill="currentColor" fill-rule="nonzero"/></g></symbol><symbol xmlns="http://www.w3.org/2000/svg" viewBox="0 0 24 24" id="atv-24"><g fill="none" fill-rule="evenodd"><path d="M0 0h24v24H0z"/><path d="M13.3 2.732L16.5 7h2.118l1.233 2.466c.64.067 1.263.225 1.852.468l.3.132-.853 1.81a4.692 4.692 0 00-2.007-.447c-.733 0-1.476.244-2.16.657l1.115 1.206a3.5 3.5 0 11-1.529 1.293l-1.106-1.196c-.833.976-1.4 2.202-1.458 3.408L14 17h-2a6.4 6.4 0 01.08-1h-1.494l-2.282-2.282-.859.89a3.48 3.48 0 01.55 1.7L8 16.5a3.5 3.5 0 11-2.074-3.197l.964-.999-.597-.597 1.414-1.414L11.415 14h1.29c.98-2.084 2.874-3.813 4.988-4.377L17.381 9H15.5l-.54-.72-4.054 3.04L8.585 9H3v1h2v2H1V7h8.414l1.68 1.679 2.666-2-1.06-1.412-1.253.627-.894-1.788 2.746-1.374zM19.5 15a1.5 1.5 0 100 3 1.5 1.5 0 000-3zm-15 0a1.5 1.5 0 100 3 1.5 1.5 0 000-3z" fill="currentColor" fill-rule="nonzero"/></g></symbol><symbol xmlns="http://www.w3.org/2000/svg" viewBox="0 0 24 24" id="baby-24"><g fill="none" fill-rule="evenodd"><path d="M0 0h24v24H0z"/><path d="M14.744 1.209l.181.042.143.045a2.722 2.722 0 011.74 3.15l-.042.167a2.722 2.722 0 01-3.087 1.928l-.004.014a6.81 6.81 0 102.411 1.205l-.217-.162 1.167-1.624A8.81 8.81 0 113.09 13.132a8.81 8.81 0 0110.733-8.6l.125.03.003-.009a.722.722 0 00.577-1.31l-.033-.018-.237.19a2.91 2.91 0 01-.27.192l-.136.078-.921-1.775.046-.032.157-.125c.246-.2.397-.307.622-.409.311-.141.645-.193.99-.135zM8.717 15.302a2.015 2.015 0 002.708.263l.139-.114 1.337 1.487c-.8.72-1.84 1.08-2.896 1.024a4.004 4.004 0 01-2.616-1.155l-.158-.167 1.486-1.338zm1.458-3.278l.013.149-1.998.093a.095.095 0 00-.184-.028L8 12.275l-1.998.093a2.095 2.095 0 014.173-.344zm4.695-.176l.012.15-1.998.092a.095.095 0 00-.184-.028l-.005.037-1.998.094a2.094 2.094 0 014.173-.345z" fill="currentColor" fill-rule="nonzero"/></g></symbol><symbol xmlns="http://www.w3.org/2000/svg" viewBox="0 0 24 24" id="bank-24"><path d="M5 18h2v-8H5zm-2 3h18v-2H3zm9-18.152L5.721 7H3v2h3.252L12 5.2 17.789 9H21V7.022h-2.693zM9 18h2v-8H9zm4 0h2v-8h-2zm4 0h2v-8h-2z" fill="currentColor"/></symbol><symbol xmlns="http://www.w3.org/2000/svg" viewBox="0 0 24 24" id="bankid-24"><path d="M17.627 17.352h1.533c1.183 0 1.533.876 1.417 1.6-.1.706-.667 1.514-1.7 1.514H17.16l.467-3.114zm1 2.374c.517 0 .817-.253.9-.808.067-.404-.067-.808-.633-.808h-.3l-.25 1.633.283-.017zm-2.6-2.374h1.083l-.483 3.098h-1.083zm-3.3 0h.934l-.234 1.532.9-.825h1.15l-1.15 1.027.917 1.38H14.06l-.717-1.11h-.017l-.166 1.11h-.933zm-3.116.708h.933l-.05.32c.3-.253.517-.354.817-.354.517 0 .767.32.683.858l-.25 1.582h-.933l.2-1.313c.033-.235-.033-.353-.217-.353-.15 0-.283.084-.416.252l-.217 1.398h-.933l.383-2.39zm-.883 2.423c-.467.034-.7-.017-.8-.219a1.54 1.54 0 01-.817.236c-.533 0-.716-.27-.666-.59.016-.15.1-.285.25-.403.283-.253 1.016-.286 1.3-.488.016-.219-.067-.303-.334-.303-.316 0-.566.1-1.016.404l.1-.707c.383-.286.75-.404 1.183-.404.55 0 1.033.219.933.825l-.1.69c-.033.235-.033.32.233.32l-.266.64zm-.8-1.06c-.25.151-.717.134-.767.454-.016.152.067.27.217.27s.333-.068.467-.169c-.017-.05 0-.118.016-.219l.067-.336zm-4.35-2.071h1.8c.767 0 .95.388.9.758-.05.286-.233.505-.583.64.433.168.6.42.533.824-.083.505-.517.876-1.083.876h-2.05l.483-3.098zm1.183 1.297c.35 0 .517-.186.55-.404.034-.236-.066-.404-.416-.404h-.317l-.133.808h.316zm-.2 1.346c.367 0 .567-.151.617-.454.033-.253-.1-.421-.45-.421h-.35l-.133.875h.317zM14.594 3.5h-4.466l-.6 3.82h.766c.417 0 .817-.184.984-.47a.505.505 0 00.083-.236c0-.152-.1-.286-.217-.354-.3-.218-.35-.454-.35-.622v-.085c.067-.403.6-.841 1.317-.841.433 0 .75.1.95.286.166.168.25.404.2.64-.067.286-.35.521-.517.64-.433.302-.383.572-.35.656.083.235.433.387.7.387h1.167c1.583.017 2.433.74 2.15 2.457-.25 1.582-1.45 2.272-2.884 2.29l-.6 3.652h.834c3.55 0 6.432-2.306 7.016-5.925.716-4.494-2.117-6.295-6.183-6.295zm-5.15 4.14h-.8c-.366 0-.85-.201-1-.589-.05-.134-.15-.589.467-1.026.217-.152.367-.32.383-.455a.353.353 0 00-.1-.353c-.116-.118-.383-.202-.716-.202-.567 0-.967.336-1 .572-.033.185.117.32.233.404.35.27.434.657.217 1.027-.233.37-.717.623-1.233.623h-.817c-.067.454-1.166 7.523-1.25 8.079h4.4c.017-.236.217-1.582.483-3.35l.733-4.73z" fill="currentColor"/></symbol><symbol xmlns="http://www.w3.org/2000/svg" viewBox="0 0 24 24" id="bell-24"><g fill="none" fill-rule="evenodd"><path d="M0 0h24v24H0z"/><path d="M12 2a2 2 0 012 2v.178c3.261.627 5 2.902 5 6.635v3.982l2.017 4.705h-6.058a3 3 0 01-5.918 0H2.983L5 14.795v-3.982c0-3.733 1.739-6.008 5-6.635V4a2 2 0 012-2zm.866 17.5h-1.732a1 1 0 001.732 0zM12 6c-3.455 0-5 1.497-5 4.813v4.392L6.017 17.5h11.966L17 15.205v-4.392C17 7.497 15.455 6 12 6z" fill="currentColor" fill-rule="nonzero"/></g></symbol><symbol xmlns="http://www.w3.org/2000/svg" viewBox="0 0 24 24" id="bills-coins-24"><g fill="none" fill-rule="evenodd"><path d="M0 0h24v24H0z"/><g fill="currentColor" fill-rule="nonzero"><path d="M18.296 3.474l.808 3.648 1.952-.432-1.22-5.511-11.195 1.93.34 1.97zM12 14.5a3.5 3.5 0 10-7 0 3.5 3.5 0 007 0zm-5 0a1.5 1.5 0 113 0 1.5 1.5 0 01-3 0zm4.842 8.508a2.75 2.75 0 100-5.5 2.75 2.75 0 000 5.5zm0-2a.75.75 0 110-1.5.75.75 0 010 1.5z"/><path d="M4.424 11.566l1.517-6.85 13.32 2.718-1.517 6.85-6.468-1.32-.4 1.96 8.395 1.714L21.652 5.88 4.413 2.362 2.033 13.12l4.133.844.4-1.96z"/></g></g></symbol><symbol xmlns="http://www.w3.org/2000/svg" viewBox="0 0 24 24" id="boat-24"><defs><path d="M17.477 16.52a3.807 3.807 0 002.866.09l.31-.114.694 1.876-.31.114a5.807 5.807 0 01-4.371-.138 3.807 3.807 0 00-2.866-.091l-.718.265a6 6 0 01-4.164 0l-.718-.265a3.807 3.807 0 00-2.866.09 5.807 5.807 0 01-4.37.14l-.311-.115.694-1.876.31.115c.93.344 1.959.311 2.866-.091a5.807 5.807 0 014.37-.14l.72.267a4 4 0 002.775 0l.718-.266a5.807 5.807 0 014.371.139zM11 5.974l6.52 1.484a2 2 0 011.393 2.742l-2.24 5.196-1.837-.792 2.24-5.196L11 8.026 4.924 9.408l2.24 5.196-1.836.792-2.24-5.196A2 2 0 014.48 7.458L11 5.974zM12 10v4h-2v-4h2zm-2-9a1 1 0 012 0v1h1.417a3 3 0 012.769 1.846l.737 1.77-1.846.769-.737-1.77A1 1 0 0013.417 4H8.583a1 1 0 00-.923.615l-.737 1.77-1.846-.77.737-1.769A3 3 0 018.584 2H10V1z" id="aka"/></defs><g fill="none" fill-rule="evenodd"><path d="M0 0h24v24H0z"/><use fill="currentColor" fill-rule="nonzero" xlink:href="#aka" transform="translate(1 2)"/></g></symbol><symbol xmlns="http://www.w3.org/2000/svg" viewBox="0 0 24 24" id="breifcase-first-aid-24"><g fill="currentColor"><path d="M13 10h-2v2H9v2h2v2h2v-2h2v-2h-2z"/><path d="M20 17.5c0 .271-.229.5-.5.5H19V8h.5c.271 0 .5.229.5.5v9zm-3 .5H7V8h10v10zM5 18h-.5a.507.507 0 01-.5-.5v-9c0-.271.229-.5.5-.5H5v10zm5-12V5h4v1h-4zm6 0V3H8v3H4.5A2.503 2.503 0 002 8.5v9C2 18.878 3.121 20 4.5 20h15c1.379 0 2.5-1.122 2.5-2.5v-9C22 7.122 20.879 6 19.5 6H16z"/></g></symbol><symbol xmlns="http://www.w3.org/2000/svg" viewBox="0 0 24 24" id="briefcase-24"><g fill="none" fill-rule="evenodd"><path d="M0 0h24v24H0z"/><path d="M16 3v3h3.5A2.5 2.5 0 0122 8.5v9a2.5 2.5 0 01-2.5 2.5h-15A2.5 2.5 0 012 17.5v-9A2.5 2.5 0 014.5 6H8V3h8zm4 7.999L17.333 13H17v5h2.5a.5.5 0 00.5-.5v-6.501zm-16 .002V17.5a.5.5 0 00.5.5H7v-5h-.333L4 11.001zM9 18h6v-5H9v5zM19.5 8h-15a.5.5 0 00-.5.5v.001L7.333 11h9.334L20 8.5a.5.5 0 00-.5-.5zM14 5h-4v1h4V5z" fill="currentColor" fill-rule="nonzero"/></g></symbol><symbol xmlns="http://www.w3.org/2000/svg" viewBox="0 0 24 24" id="calendar-24"><path d="M19 7H5V5.33c0-.181.161-.326.345-.33H8v1h2V5h4v1h2V5h2.634c.205.004.366.149.366.33V7zm0 11.662a.331.331 0 01-.346.338H5.345A.33.33 0 015 18.662V9h14v9.662zM16 3V2h-2v1h-4V2H8v1H5.325C4.021 3.026 3 4.05 3 5.33v13.332A2.317 2.317 0 005.345 21h13.309A2.317 2.317 0 0021 18.662V5.33c0-1.28-1.021-2.304-2.346-2.33H16z" fill="currentColor"/></symbol><symbol xmlns="http://www.w3.org/2000/svg" viewBox="0 0 24 24" id="calendar-check-24"><g fill="currentColor"><path d="M19 7H5V5.33c0-.181.161-.326.346-.33H8v1h2V5h4v1h2V5h2.634c.205.004.366.149.366.33V7zm0 11.662a.331.331 0 01-.346.338H5.346A.331.331 0 015 18.662V9h14v9.662zM16 3V2h-2v1h-4V2H8v1H5.325C4.021 3.026 3 4.05 3 5.33v13.332A2.317 2.317 0 005.346 21h13.308A2.317 2.317 0 0021 18.662V5.33c0-1.28-1.021-2.304-2.346-2.33H16z"/><path d="M16.484 11.709l-1.41-1.418-3.914 3.892-1.448-1.48-1.424 1.405 2.858 2.908z"/></g></symbol><symbol xmlns="http://www.w3.org/2000/svg" viewBox="0 0 24 24" id="calendar-cross-24"><g fill="currentColor"><path d="M19 7H5V5.33c0-.181.161-.326.346-.33H8v1h2V5h4v1h2V5h2.634c.205.004.366.149.366.33V7zm0 11.662a.331.331 0 01-.346.338H5.346A.331.331 0 015 18.662V9h14v9.662zM16 3V2h-2v1h-4V2H8v1H5.325C4.021 3.026 3 4.05 3 5.33v13.332A2.317 2.317 0 005.346 21h13.308A2.317 2.317 0 0021 18.662V5.33c0-1.28-1.021-2.304-2.346-2.33H16z"/><path d="M9.965 17.45L12 15.415l2.035 2.035 1.414-1.414L13.414 14l2-2.001L14 10.586l-2 2-2-2L8.586 12l2 2-2.035 2.036z"/></g></symbol><symbol xmlns="http://www.w3.org/2000/svg" viewBox="0 0 24 24" id="car-24"><g fill="none" fill-rule="evenodd"><path d="M0 0h24v24H0z"/><path d="M11.998 2c2.418-.001 4.13.212 5.294.605.939.318 1.59.785 1.935 1.384L21.733 8H23a1 1 0 010 2h-.673l.721 2.758-.004.271L23 18.5c0 1.666-1.392 3-3 3-1.439 0-2.707-1.095-2.956-2.499l-10.086.004A3.009 3.009 0 014 21.5c-1.632 0-3-1.14-3-3v-5.746L1.688 10H1a1 1 0 010-2h1.265l2.509-4.012c.346-.6 1-1.067 1.944-1.384C7.881 2.214 9.588 2 11.998 2zM12 4c-5.063.003-5.5 1-5.5 1L4 9l-1 4v1h12v2H3v2.5c0 .75.5 1 1 1s1-.406 1-1V17h14v1.5c0 .531.5 1 1 1s1-.438 1-1l.02-2.5H16v-2h5.036l.008-1L20 9l-2.5-4s-.438-1.003-5.5-1zm-5.5 6a1.5 1.5 0 110 3 1.5 1.5 0 010-3zm11 0a1.5 1.5 0 110 3 1.5 1.5 0 010-3zm-1.227-4.957L18.29 9H7V7h8.026l-.535-1.049 1.782-.908z" fill="currentColor" fill-rule="nonzero"/></g></symbol><symbol xmlns="http://www.w3.org/2000/svg" viewBox="0 0 24 24" id="car-damage-24"><g fill="none" fill-rule="evenodd"><path d="M0 0h24v24H0z"/><path d="M11.998 2c2.418-.001 4.13.212 5.294.605.939.318 1.59.785 1.935 1.384L21.733 8H23a1 1 0 010 2h-.673l.721 2.758-.004.271L23 18.5c0 1.666-1.392 3-3 3-1.439 0-2.707-1.095-2.956-2.499l-10.086.004A3.009 3.009 0 014 21.5c-1.632 0-3-1.14-3-3v-5.746L1.687 10H1a1 1 0 110-2h1.265l2.509-4.012c.346-.6 1-1.067 1.944-1.384C7.881 2.214 9.588 2 11.998 2zM12 4c-5.063.003-5.5 1-5.5 1L4 9l-1 4-.001 1H15v2H2.999L3 18.5c0 .75.5 1 1 1s1-.406 1-1V17h14v1.5c0 .531.5 1 1 1s1-.438 1-1l.044-5.5L20 9l-2.5-4s-.438-1.003-5.5-1zm8 10v2h-4v-2h4zM6.5 10a1.5 1.5 0 110 3 1.5 1.5 0 010-3zm11 0a1.5 1.5 0 110 3 1.5 1.5 0 010-3zM14 4.6l2.414 2.414H18v2h-2.414L14 7.428l-1.586 1.586H6v-2h5.586L14 4.6z" fill="currentColor" fill-rule="nonzero"/></g></symbol><symbol xmlns="http://www.w3.org/2000/svg" viewBox="0 0 24 24" id="caravan-24"><g fill="none" fill-rule="evenodd"><path d="M0 0h24v24H0z"/><path d="M19.693 5l3.396 9.057L21.617 17H23v2l-9.171.001a3 3 0 01-5.658 0L3.382 19 .94 14.116 3.22 5h16.473zM11 17a1 1 0 100 2 1 1 0 000-2zm7.306-10H4.781L3.06 13.883 4.618 17h3.553a3.001 3.001 0 015.658 0h5.552l1.529-3.058L18.306 7zM10 8v6H8v-4H7v5H5V8h5zm6 0v3h-2v-1h-2V8h4z" fill="currentColor" fill-rule="nonzero"/></g></symbol><symbol xmlns="http://www.w3.org/2000/svg" viewBox="0 0 24 24" id="card-24"><g fill="currentColor"><path d="M19.697 17H4.317C4.156 17 4 16.846 4 16.727V11h15.997v5.76a.205.205 0 01-.062.15.32.32 0 01-.238.09zm0-10c.083 0 .17.038.233.103a.22.22 0 01.067.17V9H4V7.272C4 7.153 4.155 7 4.318 7h15.379zm2.299.305a2.175 2.175 0 00-.628-1.592A2.342 2.342 0 0019.697 5H4.317C3.063 5 2 6.04 2 7.272v9.455C2 17.96 3.062 19 4.318 19h15.379a2.31 2.31 0 001.675-.7 2.171 2.171 0 00.625-1.573l-.001-9.422z"/><path d="M5.996 14h4v-2h-4z"/></g></symbol><symbol xmlns="http://www.w3.org/2000/svg" viewBox="0 0 24 24" id="card-block-24"><g fill="currentColor"><path d="M13.008 15H3.992C4.004 15 4 6.009 4 6.009 4 6.002 17.006 6 17.006 6 16.999 6 17 12.063 17 12.063h2V6.005A2 2 0 0017.006 4H3.994A2.003 2.003 0 002 6.009v8.982C2 16.101 2.9 17 3.992 17h9.016v-2zm0 0H3.992C4.004 15 4 6.009 4 6.009 4 6.002 17.006 6 17.006 6 16.999 6 17 12.063 17 12.063h2V6.005A2 2 0 0017.006 4H3.994A2.003 2.003 0 002 6.009v8.982C2 16.101 2.9 17 3.992 17h9.016v-2z"/><path d="M17.5 20a3.5 3.5 0 100-7 3.5 3.5 0 000 7zm0 2a5.5 5.5 0 110-11 5.5 5.5 0 010 11z"/><path d="M13.586 14L20 20.414 21.414 19 15 12.586zM3 10h15V8H3z"/></g></symbol><symbol xmlns="http://www.w3.org/2000/svg" viewBox="0 0 24 24" id="chat-24"><path d="M8.498 4A6.505 6.505 0 002 10.498a6.505 6.505 0 006.498 6.498h.804L14 21.15V15h-2v1.7l-1.876-1.704H8.498A4.503 4.503 0 014 10.498 4.503 4.503 0 018.498 6h7a4.503 4.503 0 014.498 4.498 4.503 4.503 0 01-4.498 4.498v2a6.505 6.505 0 006.498-6.498A6.505 6.505 0 0015.498 4h-7z" fill="currentColor"/></symbol><symbol xmlns="http://www.w3.org/2000/svg" viewBox="0 0 24 24" id="check-24"><path d="M16.907 6.6l-6.64 6.614-2.943-2.98L5.9 11.637l4.353 4.41 8.063-8.03z" fill="currentColor"/></symbol><symbol xmlns="http://www.w3.org/2000/svg" viewBox="0 0 24 24" id="check-enclosed-24"><g fill="currentColor"><path d="M12 5c-3.859 0-7 3.14-7 7s3.141 7 7 7 7-3.14 7-7-3.141-7-7-7m0 16c-4.963 0-9-4.038-9-9s4.037-9 9-9 9 4.038 9 9-4.037 9-9 9"/><path d="M10.76 16.147L7.2 12.542l1.424-1.405 2.15 2.177L15.411 8.7l1.41 1.418z"/></g></symbol><symbol xmlns="http://www.w3.org/2000/svg" viewBox="0 0 24 24" id="chevron-24"><path d="M10.014 6.6L8.6 8.014l4 4-4 4 1.414 1.414 4.001-4 1.413-1.415-1.413-1.413z" fill="currentColor"/></symbol><symbol xmlns="http://www.w3.org/2000/svg" viewBox="0 0 24 24" id="chevron-down-24"><path d="M17.6 10.014L16.186 8.6l-4 4-4-4-1.414 1.414 4 4.001 1.415 1.413 1.413-1.413z" fill="currentColor"/></symbol><symbol xmlns="http://www.w3.org/2000/svg" viewBox="0 0 24 24" id="chevron-left-24"><path d="M14.186 17.6l1.414-1.414-4-4 4-4-1.414-1.414-4.001 4-1.413 1.415 1.413 1.413z" fill="currentColor"/></symbol><symbol xmlns="http://www.w3.org/2000/svg" viewBox="0 0 24 24" id="chevron-right-24"><path d="M10.014 6.6L8.6 8.014l4 4-4 4 1.414 1.414 4.001-4 1.413-1.415-1.413-1.413z" fill="currentColor"/></symbol><symbol xmlns="http://www.w3.org/2000/svg" viewBox="0 0 24 24" id="chevron-up-24"><path d="M6.6 14.186L8.014 15.6l4-4 4 4 1.414-1.414-4-4.001-1.415-1.413-1.413 1.413z" fill="currentColor"/></symbol><symbol xmlns="http://www.w3.org/2000/svg" viewBox="0 0 24 24" id="circle-24"><path d="M12 2C6.477 2 2 6.477 2 12s4.477 10 10 10 10-4.477 10-10S17.523 2 12 2zm0 2a8 8 0 110 16 8 8 0 010-16z" fill="currentColor"/></symbol><symbol xmlns="http://www.w3.org/2000/svg" viewBox="0 0 24 24" id="circlediagram-24"><g fill="none" fill-rule="evenodd"><path d="M0 0h24v24H0z"/><path d="M13 4a9 9 0 11-9 9v-1h8V4h1zm1 2.07V14H6.07A7.002 7.002 0 0020 13a7.002 7.002 0 00-6-6.93zM11 2v9H2v-1a8 8 0 018-8h1zM9 4.083A6.005 6.005 0 004.083 9H9V4.083z" fill="currentColor" fill-rule="nonzero"/></g></symbol><symbol xmlns="http://www.w3.org/2000/svg" viewBox="0 0 24 24" id="clipboard-24"><g fill="currentColor"><path d="M19 18.662a.331.331 0 01-.346.338H5.346A.331.331 0 015 18.662V5.33c0-.181.161-.326.346-.33H7v4h10V5h1.634c.205.004.366.149.366.33v13.332zM9 5h2V3h2v2h2v2H9V5zm6-2V1H9v2H5.325C4.021 3.027 3 4.05 3 5.33v13.332A2.317 2.317 0 005.346 21h13.308A2.317 2.317 0 0021 18.662V5.33c0-1.28-1.021-2.303-2.346-2.33H15z"/><path d="M8 13h8v-2H8zm0 4h8v-2H8z"/></g></symbol><symbol xmlns="http://www.w3.org/2000/svg" viewBox="0 0 24 24" id="clock-24"><g fill="currentColor"><path d="M12 3c-4.961 0-9 4.039-9 9s4.039 9 9 9 9-4.039 9-9-4.039-9-9-9zm0 2c3.873 0 7 3.127 7 7s-3.127 7-7 7a6.99 6.99 0 01-7-7c0-3.873 3.127-7 7-7z"/><path d="M13 11.465l3.305 2.203-1.11 1.664L11 12.535V7h2z"/></g></symbol><symbol xmlns="http://www.w3.org/2000/svg" viewBox="0 0 24 24" id="coins-24"><g fill="none" fill-rule="evenodd"><path d="M0 0h24v24H0z"/><path d="M11 20v2H2v-2h9zm11 0v2h-9v-2h9zm-11-3v2H2v-2h9zm11 0v2h-9v-2h9zm-4.5-9a4.5 4.5 0 110 9 4.5 4.5 0 010-9zM11 14v2H2v-2h9zm6.5-4a2.5 2.5 0 100 5 2.5 2.5 0 000-5zM11 11v2H2v-2h9zm0-3v2H2V8h9zm2-3v2H4V5h9zm-2-3v2H2V2h9z" fill="currentColor" fill-rule="nonzero"/></g></symbol><symbol xmlns="http://www.w3.org/2000/svg" viewBox="0 0 24 24" id="common-camera-24"><g fill="currentColor"><path d="M9.704 6L8.378 8H4.744A.76.76 0 004 8.75v8.513c0 .4.338.737.744.737h14.512a.749.749 0 00.744-.737V8.75a.76.76 0 00-.744-.75h-3.634l-1.326-2H9.704zM8.399 4.35A.635.635 0 018.901 4a.644.644 0 01.066 0h6.066c.24 0 .46.136.568.35L16.696 6h2.56A2.76 2.76 0 0122 8.75v8.513A2.748 2.748 0 0119.256 20H4.744A2.748 2.748 0 012 17.263V8.75A2.76 2.76 0 014.744 6h2.56L8.4 4.35z"/><path d="M12 15a2.5 2.5 0 100-5 2.5 2.5 0 000 5zm0 2a4.5 4.5 0 110-9 4.5 4.5 0 010 9z"/></g></symbol><symbol xmlns="http://www.w3.org/2000/svg" viewBox="0 0 24 24" id="computer-24"><g fill="none" fill-rule="evenodd"><path d="M0 0h24v24H0z"/><path d="M20 19h-2v1a1 1 0 002 0v-1zm-1-2a1 1 0 00-1 1h2a1 1 0 00-1-1zm-7-3v2H6v-2h6zm3.954.424h1.303c.614 0 1.06.222 1.354.602A3 3 0 0122 18v2a3 3 0 01-6 0v-2c0-1.085.576-2.036 1.44-2.562a1.11 1.11 0 00-.183-.014h-1.303c-1.66 0-2.454-.713-2.454-2.424H9.999L10 14H8l-.001-1H2V2h14v11h-1.5c0 1.134.323 1.424 1.454 1.424zM14 4H4v7h10V4zm-4.3.868l.707.707-4.832 4.832-.707-.707L9.7 4.868zm-2.216.19l.696.717L5.69 8.19l-.696-.718 2.49-2.416z" fill="currentColor" fill-rule="nonzero"/></g></symbol><symbol xmlns="http://www.w3.org/2000/svg" viewBox="0 0 24 24" id="contact-header-24"><g fill="currentColor"><path d="M12 22.283c-1.535 0-2.775-1.258-2.775-2.804 0-1.547 1.24-2.805 2.776-2.805 1.535 0 2.775 1.258 2.775 2.805 0 1.546-1.24 2.804-2.775 2.804zm0-1.5c.702 0 1.276-.581 1.276-1.304 0-.723-.574-1.305-1.275-1.305-.702 0-1.276.582-1.276 1.305s.574 1.304 1.276 1.304zm0-19.365c2.735 0 5.295 1.224 7.053 3.295l-1.143.971c-1.478-1.74-3.622-2.766-5.91-2.766-3.218 0-6.071 2.005-7.227 4.95l-.115.402a7.939 7.939 0 00-.414 2.58c0 1.106.223 2.19.65 3.2l.44 1.042H4.051c-2.24 0-4.041-1.828-4.041-4.089 0-2.086 1.534-3.803 3.53-4.056C5.04 3.613 8.318 1.418 12 1.418zM1.51 11.003c0 1.088.65 2.012 1.575 2.397a9.82 9.82 0 01-.096-4.751 2.585 2.585 0 00-1.479 2.354z"/><path d="M19.228 7.868l1.444-.407.087.316c.329.944.498 2.001.498 3.072 0 3.504-1.922 6.718-4.897 8.312a8.56 8.56 0 01-2.276.845l-.319-1.466a7.072 7.072 0 001.881-.698c2.493-1.336 4.11-4.042 4.11-6.993 0-.907-.142-1.798-.427-2.622l-.101-.36z"/><path d="M8.137 5.034l1.449-.39c.062.232.278.642.72 1.067.775.746 1.955 1.203 3.67 1.203h5.974v1.5h-5.975c-2.095 0-3.65-.602-4.71-1.622-.66-.634-1-1.283-1.128-1.758zm6.215 7.96l1.069 1.053a4.86 4.86 0 01-3.471 1.456 4.86 4.86 0 01-3.471-1.456l1.068-1.053a3.36 3.36 0 002.403 1.009 3.36 3.36 0 002.402-1.01z"/><path d="M19.95 8.414v-1.5c2.24 0 4.041 1.828 4.041 4.09 0 2.26-1.802 4.088-4.041 4.088v-1.5c1.406 0 2.541-1.151 2.541-2.589 0-1.437-1.135-2.589-2.541-2.589z"/></g></symbol><symbol xmlns="http://www.w3.org/2000/svg" viewBox="0 0 24 24" id="contract-24"><defs><path d="M16.016 0v4.011h-2V2H2v15.982h12.016V15.98h2v4.002H0V0h16.016zm.962 3.895l3.71 3.816-7.463 7.464h-3.85l-.027-3.727 7.63-7.553zm-1.732 4.527l-3.892 3.854.007.9h1.035l3.801-3.803-.951-.951zm1.705-1.686l-.638.631.945.945.622-.62-.93-.956zM5.67 12.78c.93.546.966 1.4.547 2.555.687-.914 1.042-1.222 1.734-1.222.509 0 .892.278 1.095.711.109.233.149.42.207.826.017.116.03.193.04.252h2.333v1.5h-2.58c-.505 0-.88-.282-1.077-.714-.103-.227-.14-.402-.198-.808a14.157 14.157 0 00-.01-.071c-.11.128-.269.323-.475.602a30.7 30.7 0 01-.174.236c-.726.967-1.226 1.37-2.045 1.115-.655-.204-.9-.767-.796-1.404.05-.31.103-.455.388-1.155.057-.14.095-.237.13-.332.214-.572.21-.746.12-.798-.413-.244-.74.18-1.009 2.223L2.414 16.1c.387-2.941 1.482-4.364 3.258-3.32zM11 6v2H3V6h8zm0-3v2H3V3h8z" id="bla"/></defs><g fill="none" fill-rule="evenodd"><path d="M0 0h24v24H0z"/><use fill="currentColor" fill-rule="nonzero" xlink:href="#bla" transform="translate(2 2)"/></g></symbol><symbol xmlns="http://www.w3.org/2000/svg" viewBox="0 0 24 24" id="cross-24"><path d="M16.014 6.6l-4 4-4-4L6.6 8.014l3.999 4-3.999 4 1.414 1.414 4-4 4 4 1.414-1.414-4-4 4-4z" fill="currentColor"/></symbol><symbol xmlns="http://www.w3.org/2000/svg" viewBox="0 0 24 24" id="cross-enclosed-24"><g fill="currentColor"><path d="M12 5c-3.859 0-7 3.14-7 7s3.141 7 7 7 7-3.14 7-7-3.141-7-7-7m0 16c-4.963 0-9-4.038-9-9s4.037-9 9-9 9 4.038 9 9-4.037 9-9 9"/><path d="M16.425 15.01L13.414 12l3-3L15 7.586l-3 3-3-3L7.586 9l3 3-3.011 3.01 1.414 1.415 3.01-3.011 3.012 3.01z"/></g></symbol><symbol xmlns="http://www.w3.org/2000/svg" viewBox="0 0 24 24" id="cup-24"><g fill="none" fill-rule="evenodd"><path d="M0 0h24v24H0z"/><path d="M17 22H7v-2h1.2c.432 0 .8-.383.8-.875v-2.928a6.019 6.019 0 01-2.664-3.212A4 4 0 116 5V2h12v3a4 4 0 11-.337 7.986A6.013 6.013 0 0115 16.196v2.93c0 .492.368.875.8.875H17v2zm-5-5a6.04 6.04 0 01-1-.083v2.208c0 .305-.046.6-.133.876h2.266a2.943 2.943 0 01-.133-.876v-2.208A6.04 6.04 0 0112 17zm4-13H8v1h4v2H8v4a4 4 0 108 0V4zm2 3v4a2 2 0 100-4zM6 7a2 2 0 100 4V7z" fill="currentColor" fill-rule="nonzero"/></g></symbol><symbol xmlns="http://www.w3.org/2000/svg" viewBox="0 0 24 24" id="damage-24"><defs><path d="M2 18h2v2H0V0h18v20h-7v-2h5V2H2v16zm7 0v2H6v-2h3zM7.925 9.865l3.717 2.312-.823 2.302L14 15.963V18h-2v-.763L8.323 15.52l.893-2.498-1.427-.888-1.424.665H2v-2h3.921l2.004-.935zM7 2v.854l2.252.76.754 1.529h3.763v3.952l2.224 1.79.004 2.542-4.228-3.379V7.143H8.763l-.988-1.914L5 4.289V2h2z" id="bpa"/></defs><g fill="none" fill-rule="evenodd"><path d="M0 0h24v24H0z"/><use fill="currentColor" fill-rule="nonzero" xlink:href="#bpa" transform="translate(3 2)"/></g></symbol><symbol xmlns="http://www.w3.org/2000/svg" viewBox="0 0 24 24" id="digital-services-24"><g fill="none" fill-rule="evenodd"><path d="M0 0h24v24H0z"/><path d="M15.222 2c1.682 0 2.7.993 2.774 2.652l.004.194V11h1.222c1.663 0 2.7.928 2.774 2.507l.004.185v5.616C22 21 20.949 22 19.222 22h-2.444C15.05 22 14 21 14 19.308V15h-3v2h2v2H7v-2h2v-2H4.778c-1.682 0-2.7-.993-2.774-2.652L2 12.154V4.846c0-1.709.957-2.766 2.587-2.842L4.777 2h10.445zm4 11l-2.566.002c-.54.017-.656.163-.656.69l.002 5.723c.018.474.175.585.776.585h2.444c.644 0 .778-.128.778-.692v-5.616c0-.564-.134-.692-.778-.692zM18 17a1 1 0 110 2 1 1 0 010-2zM15.34 4.002L15.223 4H4.778c-.583 0-.755.139-.776.716L4 4.846v7.308c0 .64.134.822.66.844l.118.002h9.287c.206-1.03.893-1.706 1.934-1.924L16 4.846c0-.64-.134-.822-.66-.844z" fill="currentColor" fill-rule="nonzero"/></g></symbol><symbol xmlns="http://www.w3.org/2000/svg" viewBox="0 0 24 24" id="document-24"><defs><path d="M18 20V6.742L15.552 4H6v16h12zM16.448 2L20 5.979V22H4V2h12.448zM16 13H8v2h8v-2zm0-3H8v2h8v-2zm-2-3H8v2h6V7z" id="bra"/></defs><g fill="none" fill-rule="evenodd"><path d="M0 0h24v24H0z"/><use fill="currentColor" fill-rule="nonzero" xlink:href="#bra"/></g></symbol><symbol xmlns="http://www.w3.org/2000/svg" viewBox="0 0 24 24" id="dog-24"><defs><path d="M8.228.822c2.83.708 3.942 2.999 3.942 5.263 0 .716-.236 1.346-.68 1.788 2.025 2.12 3.205 4.291 3.508 6.508.64-.243.983-.804.983-1.758h2c0 2.165-1.202 3.481-2.96 3.819-.102.886-.344 1.897-.723 3.035l-.228.683H1.453v-1.905c0-1.372.921-2.53 2.179-2.887V8.991h2v6.263h.453v2H4.453a1 1 0 00-.996.906h9.158c.309-1.052.46-1.932.46-2.632 0-2.287-1.235-4.624-3.779-7.017-1.42-.181-2.032-1.318-2.032-3.152h2c0 1.042.086 1.179.453 1.179.371 0 .453-.098.453-.453 0-.483-.123-1.133-.402-1.71-.392-.806-1.03-1.364-2.025-1.612-1.556-.39-2.606-.06-3.365.999l-.299.417H2v.718c0 1.209 1.532 2.02 2.898 1.365l.864 1.804C3.136 9.324 0 7.663 0 4.896V2.18h3.083C4.333.747 6.104.291 8.228.822zm1.489 10.074c.636 0 1.247.189 1.766.535l-1.112 1.663a1.18 1.18 0 10-1.036 2.098l-.647 1.892a3.18 3.18 0 011.029-6.188z" id="bsa"/></defs><g fill="none" fill-rule="evenodd"><path d="M0 0h24v24H0z"/><use fill="currentColor" fill-rule="nonzero" xlink:href="#bsa" transform="translate(3 1.813)"/></g></symbol><symbol xmlns="http://www.w3.org/2000/svg" viewBox="0 0 24 24" id="download-24"><g fill="none" fill-rule="evenodd"><path d="M0 0h24v24H0z"/><path d="M4 17v3h16v-3h2v5H2v-5h2zm9-15v12.238l4.3-4.299 1.414 1.415-6.707 6.707L5.3 11.354l1.414-1.415L11 14.224V2h2z" fill="currentColor" fill-rule="nonzero"/></g></symbol><symbol xmlns="http://www.w3.org/2000/svg" viewBox="0 0 24 24" id="e-invoice-24"><g fill="none" fill-rule="evenodd"><path d="M0 0h24v24H0z"/><path d="M22 2v19.553l-5.838-2.655L12 21.135l-4.163-2.237L2 21.553V2h20zm-2 2H4v14.446l3.912-1.779 4.087 2.197 4.089-2.197L20 18.446V4zm-8.076 2c2.74 0 3.87 2.114 3.278 5.232h-4.82c.126 1.254.825 1.791 1.954 1.791.842 0 1.791-.25 2.544-.573l.25 1.774c-.877.483-1.88.77-2.884.77C9.792 14.994 8 13.274 8 10.39 8 7.38 10.007 6 11.924 6zm.018 1.81c-.896 0-1.541.734-1.577 1.88h2.92c.072-1.164-.376-1.88-1.343-1.88z" fill="currentColor" fill-rule="nonzero"/></g></symbol><symbol xmlns="http://www.w3.org/2000/svg" viewBox="0 0 24 24" id="ellipsis-enclosed-24"><g fill="currentColor"><path d="M14.75 18.436v.004h-.009c-.842.36-1.769.56-2.741.56-.972 0-1.899-.2-2.741-.56H9.16v-.047a7.042 7.042 0 01-3.6-3.652A6.954 6.954 0 015 12c0-.972.2-1.898.56-2.74a7.034 7.034 0 013.6-3.652V5.56h.099a6.98 6.98 0 015.482 0h.009v.005a7.038 7.038 0 013.69 3.695c.36.842.56 1.768.56 2.74 0 .973-.2 1.899-.56 2.74a7.038 7.038 0 01-3.69 3.696m3.69-12.71a8.967 8.967 0 00-12.88 0 8.963 8.963 0 000 12.548c.055.056.11.112.166.166A8.962 8.962 0 0012 21a8.962 8.962 0 006.274-2.56c.056-.054.111-.11.166-.166a8.965 8.965 0 000-12.547"/><path d="M9.16 10.801a1.497 1.497 0 00-.85-.24c-.9 0-1.53.63-1.53 1.44 0 .81.72 1.44 1.53 1.44.322 0 .613-.104.85-.275.359-.259.59-.679.59-1.166 0-.507-.211-.943-.59-1.199M12 10.56c-.81 0-1.44.63-1.44 1.44 0 .81.63 1.44 1.44 1.44.81 0 1.44-.63 1.44-1.44 0-.81-.63-1.44-1.44-1.44m3.69 0c-.368 0-.687.109-.94.289a1.39 1.39 0 00-.59 1.15c0 .463.238.86.59 1.123.265.197.592.318.94.318.81 0 1.53-.63 1.53-1.44 0-.81-.72-1.44-1.53-1.44"/></g></symbol><symbol xmlns="http://www.w3.org/2000/svg" viewBox="0 0 24 24" id="envelope-24"><g fill="currentColor"><path d="M3.75 18h16.5V6H3.75v12zM22 4v16H2V4h20z"/><path d="M12.038 11.675L4.37 5.058 3.015 6.53l9.028 7.867 8.94-7.867-1.358-1.468zm9.028 5.769l-4.3-4.57-1.442 1.386 4.3 4.57zM4.465 18.779l4.328-4.519-1.442-1.386-4.327 4.519z"/></g></symbol><symbol xmlns="http://www.w3.org/2000/svg" viewBox="0 0 24 24" id="external-link-24"><g fill="currentColor"><path d="M15 3v2h2.586l-5.293 5.294 1.414 1.414L19 6.415V9h2V3z"/><path d="M3 4v17h17.001l-.007-9.001-2 .002.005 7H5V6h7V4z"/></g></symbol><symbol xmlns="http://www.w3.org/2000/svg" viewBox="0 0 24 24" id="family-24"><g fill="none" fill-rule="evenodd"><path d="M0 0h24v24H0z"/><g fill="currentColor" fill-rule="nonzero"><path d="M9 12a4 4 0 113.036-6.604l1.518-1.303a6 6 0 101.338 2.767l-.156-.81h-4.723c-.553 0-1.241-.503-1.587-1.226l-1.804.863C7.28 7.062 8.63 8.05 10.013 8.05H13A4 4 0 019 12z"/><path d="M16 19a4 4 0 100-8 4 4 0 000 8zm0-2a2 2 0 110-4 2 2 0 010 4zM4 22v-6.55c0-.994.724-1.826 2.389-2.529L5.61 11.08C3.276 12.064 2 13.532 2 15.449V22h2z"/><path d="M12 22v-1.138c0-1.712.704-2.577 2.2-2.882l-.4-1.96c-2.43.496-3.8 2.18-3.8 4.842V22h2zm7.248 0v-1.138c0-1.546-.888-2.546-2.248-2.893l.495-1.938c2.198.562 3.753 2.312 3.753 4.831V22h-2z"/></g></g></symbol><symbol xmlns="http://www.w3.org/2000/svg" viewBox="0 0 24 24" id="farm-24"><g fill="none" fill-rule="evenodd"><path d="M0 0h24v24H0z"/><path d="M2 22v-2h.999v-7.555l-.33.298-1.338-1.486L12 1.655l10.669 9.602-1.338 1.486-.332-.3V20H22v2H2zM12 4.345l-7.001 6.3L5 20h2.999L8 12.11h8L15.999 20H19l-.001-9.356L12 4.345zM13.999 16l-3 4h3v-4zm-1.083-1.89L10 14.112 9.999 18l2.917-3.89zM12 7a2 2 0 012 2v1h-4V9a2 2 0 012-2z" fill="currentColor" fill-rule="nonzero"/></g></symbol><symbol xmlns="http://www.w3.org/2000/svg" viewBox="0 0 24 24" id="flag-24"><path d="M17 13.088c-1.655.159-2.846-.291-4.195-.804C11.273 11.702 9.547 11.06 7 11.24v-5.9c2.12-.338 3.55.233 5.052.847 1.376.563 2.914 1.187 4.948 1.039v5.86zm.795-7.991c-2.067.43-3.42-.12-4.986-.76C11.253 3.7 9.501 2.999 7 3.32V2.5H5v18.033h2v-7.287c2.184-.186 3.605.343 5.094.908 1.26.478 2.55.969 4.223.969.577 0 1.199-.058 1.88-.195l.803-.162V4.844l-1.205.253z" fill="currentColor"/></symbol><symbol xmlns="http://www.w3.org/2000/svg" viewBox="0 0 24 24" id="fund-assortment-24"><g fill="none" fill-rule="evenodd"><path d="M0 0h24v24H0z"/><path d="M4 2v18h18v2H2V2h2zm12.044 10.86l5.47 3.283-1.028 1.714-4.53-2.717-5.91 2.955-5.417-2.167.742-1.856 4.583 1.832 6.09-3.044zm4.249-9.567l1.414 1.414-5.437 5.437L10.2 8.12l-4.574 3.66-1.25-1.56L9.8 5.88l5.929 1.975 4.564-4.562z" fill="currentColor" fill-rule="nonzero"/></g></symbol><symbol xmlns="http://www.w3.org/2000/svg" viewBox="0 0 24 24" id="gear-24"><g fill="currentColor"><path d="M11.501 13.31a1.088 1.088 0 111.087-1.087c0 .599-.487 1.087-1.087 1.087m0-4.174a3.09 3.09 0 00-3.087 3.087 3.09 3.09 0 003.087 3.087 3.09 3.09 0 003.087-3.087 3.09 3.09 0 00-3.087-3.087"/><path d="M16.623 12.861l-.244.649a6.495 6.495 0 01-1.119 1.892l-.455.538.947 1.636-1.503.879-.958-1.654-.715.159c-.808.179-1.515.158-2.124.006l-.731-.183-.968 1.672-1.503-.879.964-1.665-.501-.542c-.541-.586-.881-1.155-1.067-1.79l-.211-.718H4.5v-1.727h1.879l.244-.649a6.508 6.508 0 011.119-1.892l.455-.537-.948-1.636 1.504-.88.958 1.654.715-.159a4.688 4.688 0 012.124-.006l.731.183.968-1.672 1.504.88-.964 1.664.5.542c.542.587.881 1.155 1.067 1.79l.212.718h1.934v1.727h-1.879zm3.879 2V9.134h-2.49a6.358 6.358 0 00-.772-1.293l1.241-2.143L13.524 2.8l-1.246 2.153a6.77 6.77 0 00-1.552.002L9.478 2.8 4.521 5.698l1.255 2.168a8.648 8.648 0 00-.749 1.268H2.5v5.727h2.49c.198.447.454.876.772 1.293L4.52 18.297l4.958 2.898 1.247-2.153c.507.058 1.037.06 1.552-.002l1.247 2.155 4.958-2.898-1.256-2.168c.287-.403.539-.83.749-1.268h2.527z"/></g></symbol><symbol xmlns="http://www.w3.org/2000/svg" viewBox="0 0 24 24" id="gravestones-24"><g fill="none" fill-rule="evenodd"><path d="M0 0h24v24H0z"/><g fill="currentColor" fill-rule="nonzero"><path d="M12.6 8.083l.4-.174.4.174c3.659 1.597 5.6 3.715 5.6 6.372V22H7v-7.545c0-2.657 1.941-4.775 5.6-6.372zM9 14.455V20h8v-5.545c0-1.63-1.269-3.088-4-4.358-2.731 1.27-4 2.728-4 4.358z"/><path d="M4 16v-5.545c0-1.63 1.269-3.088 4.002-4.359 2.71 1.242 4.01 2.47 4.01 3.452h2c0-2.084-1.964-3.873-5.612-5.465L8 3.91l-.4.174C3.941 5.68 2 7.798 2 10.455V18h6.002v-2H4zM16.154 4.074C18.741 4.992 20 6.608 20 8.5V13h-2.27v2H22V8.5c0-2.898-1.981-5.312-5.605-6.454l-.357-.112-.344.15c-1.33.58-2.564 1.456-3.414 2.339l1.44 1.387c.602-.624 1.48-1.268 2.434-1.736z"/></g></g></symbol><symbol xmlns="http://www.w3.org/2000/svg" viewBox="0 0 24 24" id="growth-arrow-24"><defs><path d="M22 5v6h-2l-.001-2.605-6.82 6.743-3.4-3.269-6.086 5.852-1.386-1.442 7.472-7.184 3.38 3.25L18.565 7H16V5h6z" id="cea"/></defs><g fill="none" fill-rule="evenodd"><path d="M0 0h24v24H0z"/><use fill="currentColor" fill-rule="nonzero" xlink:href="#cea"/></g></symbol><symbol xmlns="http://www.w3.org/2000/svg" viewBox="0 0 24 24" id="guide-24"><g fill="currentColor" fill-rule="evenodd"><path d="M11 22.001h2V2h-2z"/><path d="M12 4v2.001h6.172l1 1-1 1H14V10h5l3-2.999L19 4zM5 7l-3 3 3 3h5v-1.999H5.829L4.828 10l1.001-1H12V7zm3 13h8v2H8z"/></g></symbol><symbol xmlns="http://www.w3.org/2000/svg" viewBox="0 0 24 24" id="heart-24"><path d="M8.127 6.515c-.809 0-1.618.3-2.22.902A3.115 3.115 0 005 9.637c0 .848.322 1.636.907 2.22L12 17.952l6.093-6.093A3.112 3.112 0 0019 9.638c0-.847-.322-1.636-.907-2.221-1.204-1.204-3.238-1.203-4.441 0L12 9.072l-1.652-1.654a3.135 3.135 0 00-2.221-.902zM12 20.779l-7.507-7.507A5.097 5.097 0 013 9.638a5.1 5.1 0 011.493-3.635 5.147 5.147 0 017.269 0l.238.239.238-.24a5.146 5.146 0 017.269 0A5.1 5.1 0 0121 9.639c0 1.38-.53 2.672-1.493 3.634L12 20.779z" fill="currentColor"/></symbol><symbol xmlns="http://www.w3.org/2000/svg" viewBox="0 0 24 24" id="heartbeat-24"><path d="M4.394 4.892c.245-.252.575-.392.93-.392.353 0 .683.14.929.392L7.5 6.176l1.248-1.284c.49-.504 1.368-.504 1.858 0 .526.54.526 1.453.001 1.993L7.5 10.08 4.394 6.885a1.458 1.458 0 010-1.993zM7.5 12.95l4.54-4.672c1.28-1.318 1.28-3.463 0-4.782C10.85 2.273 8.764 2.2 7.5 3.32a3.263 3.263 0 00-2.176-.82c-.9 0-1.738.354-2.364.998-1.28 1.318-1.28 3.463 0 4.78l4.54 4.673zm13.07 2.065L17.02 9.1l-4.92 7.874-1.988-3.97-2.598 4.011h-5.51v2H8.6l1.288-1.989 2.018 4.03 5.079-8.126 2.45 4.085h2.568v-2z" fill="currentColor"/></symbol><symbol xmlns="http://www.w3.org/2000/svg" viewBox="0 0 24 24" id="house-24"><g fill="currentColor"><path d="M12.002 4.25L4 10.367V20h2v-8.645l6.002-4.588L18 11.355V20h2v-9.633z"/><path d="M9 13v7h2v-5h2v5h2v-7z"/></g></symbol><symbol xmlns="http://www.w3.org/2000/svg" viewBox="0 0 24 24" id="house-sun-24"><g fill="currentColor"><path d="M19 2h-2c0 2.757 2.243 5 5 5V5c-1.682 0-3-1.318-3-3zm-4.327 5.913l1.414 1.414 2.12-2.12-1.414-1.414zM13 4h3V2h-3zm7 7h2V8h-2zm-9.998-4.259L3 12.094V21h2v-7.918l5.002-3.823L15 13.082V21h2v-8.906z"/><path d="M7 21h2v-5h2v5h2v-7H7z"/></g></symbol><symbol xmlns="http://www.w3.org/2000/svg" viewBox="0 0 24 24" id="id-card-24"><g fill="currentColor"><path d="M20 16.2c0 .394-.344.8-.8.8-9.05.02-13.85.02-14.4 0-.347 0-.8-.39-.8-.8V7.8c0-.441.359-.8.8-.8h14.4c.441 0 .8.359.8.8v8.4zM4.8 5a2.794 2.794 0 00-2.672 2.008A2.77 2.77 0 002 7.8v8.4C2 17.813 3.313 19 4.8 19h14.4c1.613 0 2.8-1.25 2.8-2.8V7.8C22 6.256 20.744 5 19.2 5H4.8z"/><path d="M9.5 9v1c-.55 0-1 .45-1 1 0 .551.45 1 1 1s1-.449 1-1c0-.55-.45-1-1-1V9zm0 0V8c1.655 0 3 1.345 3 3 0 1.656-1.345 3-3 3s-3-1.344-3-3c0-1.655 1.345-3 3-3v1z"/><path d="M14.5 17h-2a3 3 0 00-6 0h-2a5 5 0 1110 0zm-.5-6h4V9h-4zm0 3h4v-2h-4z"/></g></symbol><symbol xmlns="http://www.w3.org/2000/svg" viewBox="0 0 24 24" id="id-sign-24"><g fill="none" fill-rule="evenodd"><path d="M0 0h24v24H0z"/><path d="M21.305 13.28l1.39 1.44-7.943 7.668-4.445-4.267 1.386-1.442 3.055 2.932 6.557-6.33zM8.5 2a3.75 3.75 0 013.392 5.352 8.501 8.501 0 011.813 2.027c.6.951 1.006 2.266 1.24 3.954l.048.368.078.651-.566.331c-1.548.906-3.302 1.234-6.001 1.234-2.57 0-4.282-.295-5.775-1.102l-.234-.132-.566-.331.078-.651c.225-1.866.645-3.303 1.288-4.322A8.535 8.535 0 015.108 7.35 3.75 3.75 0 018.5 2zm2.086 6.866l-.087.057A3.732 3.732 0 018.5 9.5a3.733 3.733 0 01-2.085-.632 6.526 6.526 0 00-1.429 1.578c-.36.573-.649 1.417-.85 2.527l-.047.281.203.085c.972.384 2.16.554 3.843.575l.369.003c1.876 0 3.163-.167 4.204-.578l.202-.085-.047-.281c-.182-1.01-.436-1.799-.753-2.364l-.096-.163a6.57 6.57 0 00-1.428-1.58zM8.5 4a1.75 1.75 0 100 3.5 1.75 1.75 0 000-3.5z" fill="currentColor" fill-rule="nonzero"/></g></symbol><symbol xmlns="http://www.w3.org/2000/svg" viewBox="0 0 24 24" id="image-doc-24"><g fill="none" fill-rule="evenodd"><path d="M0 0h24v24H0z"/><path d="M22 2v20H2V2h20zM7.957 13.457L4 17.414V20h9.773l-5.816-6.543zM15 15.415l-1.391 1.39L16.449 20h3.136L15 15.415zM20 4H4v10.584l4.043-4.041 4.234 4.764L15 12.586l5 4.999V4zm-8 1a3 3 0 110 6 3 3 0 010-6zm0 2a1 1 0 100 2 1 1 0 000-2z" fill="currentColor" fill-rule="nonzero"/></g></symbol><symbol xmlns="http://www.w3.org/2000/svg" viewBox="0 0 24 24" id="info-enclosed-24"><g fill="currentColor"><path d="M12 19c-3.859 0-7-3.14-7-7 0-1.128.274-2.19.75-3.135C6.903 6.577 9.268 5 12 5s5.097 1.577 6.25 3.865c.476.945.75 2.007.75 3.135 0 3.86-3.141 7-7 7m6.25-13.462a8.96 8.96 0 00-12.5 0A8.97 8.97 0 003 12c0 4.962 4.037 9 9 9s9-4.038 9-9a8.97 8.97 0 00-2.75-6.462"/><path d="M11 10.8V17h2v-6.2zm1-4.05a1.25 1.25 0 100 2.5 1.25 1.25 0 000-2.5"/></g></symbol><symbol xmlns="http://www.w3.org/2000/svg" viewBox="0 0 24 24" id="lightbulb-24"><g fill="none" fill-rule="evenodd"><path d="M0 0h24v24H0z"/><path d="M14 20v2h-4v-2h4zm1-3v2H9v-2h6zM12 6c3.596 0 5 1.423 5 5 0 1.095-.325 2.02-.976 3.144l-.858 1.432c-.145.252-.163.313-.166.386V16h-2c0-.469.151-.907.433-1.428l.12-.216c.044-.074.091-.154.145-.241l.447-.723c.59-.972.855-1.656.855-2.392l-.005-.406c-.058-2.066-.616-2.564-2.787-2.593L12 8c-2.486 0-3 .522-3 3 0 .681.223 1.314.714 2.16l.588.957c.107.175.189.316.265.456.246.455.393.847.426 1.252L11 16H9l-.003-.073c-.016-.12-.126-.3-.851-1.49C7.382 13.181 7 12.192 7 11c0-3.577 1.404-5 5-5zm-6.5 4v2H3v-2h2.5zM21 10v2h-2.5v-2H21zM5.707 4.293L7.475 6.06 6.06 7.475 4.293 5.707l1.414-1.414zm12.653-.075l1.413 1.415-1.77 1.766-1.413-1.415 1.77-1.766zM13 2v2.5h-2V2h2z" fill="currentColor" fill-rule="nonzero"/></g></symbol><symbol xmlns="http://www.w3.org/2000/svg" viewBox="0 0 24 24" id="list-24"><g transform="translate(3 4)" fill="currentColor" fill-rule="evenodd"><path fill-rule="nonzero" d="M6 3h12V1H6zm0 6h12V7H6zm0 6h12v-2H6z"/><circle cx="2" cy="2" r="1.5"/><circle cx="2" cy="8" r="1.5"/><circle cx="2" cy="14" r="1.5"/></g></symbol><symbol xmlns="http://www.w3.org/2000/svg" viewBox="0 0 24 24" id="logout-24"><g fill="currentColor"><path d="M16.282 9.697L17.547 11h-6.05v2h6.05l-1.265 1.303 1.434 1.394L21.308 12l-3.592-3.696z"/><path d="M10.407 18a5.83 5.83 0 01-4.176-1.75c-2.313-2.344-2.313-6.157 0-8.5A5.83 5.83 0 0110.407 6a5.83 5.83 0 014.176 1.75l1.424-1.405A7.818 7.818 0 0010.408 4a7.818 7.818 0 00-5.6 2.345c-3.077 3.118-3.077 8.191 0 11.31a7.818 7.818 0 005.6 2.345 7.818 7.818 0 005.6-2.345l-1.424-1.405A5.83 5.83 0 0110.408 18"/></g></symbol><symbol xmlns="http://www.w3.org/2000/svg" viewBox="0 0 24 24" id="mc-24"><g fill="none" fill-rule="evenodd"><path d="M0 0h24v24H0z"/><path d="M15.814 3.42l5.05 7.08h-1.94c-.621 0-1.525.267-2.333.676l.707.708a3.938 3.938 0 11-1.507 1.322l-.793-.795c-.56.708-.933 1.622-.99 2.388L14 15v.414L12.414 17H9.278L7 14.721l-1.216 1.217-1.414-1.414 1.215-1.217-1.692-1.692H2v-2h2.722L10.106 15h1.479l.437-.437.003-.042c.15-1.463.955-3.094 2.153-4.138l.204-.168c.717-.564 1.635-1.036 2.542-1.34l.263-.085-3.001-4.208 1.628-1.162zM3.34 11.731l.811 1.828a1.938 1.938 0 102.502 2.675l.081-.174 1.854.752a3.938 3.938 0 11-5.464-4.976l.216-.105zm15.716 1.739c-.055 0-.109.002-.162.006l.814.816-1.414 1.414-1.032-1.032a1.938 1.938 0 101.794-1.205zM6.303 7l3 2h2.627l.083-.013c.458-.098.911-.491.979-.888L13 8h2c0 1.552-1.331 2.753-2.736 2.974l-.162.02L12 11H8.697l-3-2H2V7h4.303z" fill="currentColor" fill-rule="nonzero"/></g></symbol><symbol xmlns="http://www.w3.org/2000/svg" viewBox="0 0 24 24" id="menu-24"><path d="M5 8h14V6H5zm0 5h14v-2H5zm0 5h14v-2H5z" fill="currentColor"/></symbol><symbol xmlns="http://www.w3.org/2000/svg" viewBox="0 0 24 24" id="mobile-phone-24"><defs><path d="M14 17a3 3 0 01-3 3H3a3 3 0 01-3-3V3a3 3 0 013-3h8a3 3 0 013 3v14zm-2-3.5H2V17a1 1 0 001 1h8a1 1 0 001-1v-3.5zM7 14a1.5 1.5 0 110 3 1.5 1.5 0 010-3zm5-9.5H2v8h10v-8zM11 2H3a1 1 0 00-1 1v.5h10V3a1 1 0 00-1-1z" id="cta"/></defs><g fill="none" fill-rule="evenodd"><path d="M0 0h24v24H0z"/><use fill="currentColor" fill-rule="nonzero" xlink:href="#cta" transform="translate(5 2)"/></g></symbol><symbol xmlns="http://www.w3.org/2000/svg" viewBox="0 0 24 24" id="moped-24"><g fill="none" fill-rule="evenodd"><path d="M0 0h24v24H0z"/><path d="M3.388 14.234l1.077 1.685-.121.078-.04.04a1.24 1.24 0 00-.297.694L4 16.863c0 .678.518 1.214 1.14 1.214.306 0 .593-.129.806-.355l.042-.05.12-.236 1.784.904-.168.332-.092.148a3.111 3.111 0 01-2.492 1.257C3.398 20.077 2 18.63 2 16.863c0-.847.324-1.645.888-2.24l.146-.144.14-.108.214-.137zM20 14a3 3 0 110 6 3 3 0 010-6zm0 2a1 1 0 100 2 1 1 0 000-2zM16.66 4l3.003 7.008.099-.004L20 11h2v2h-2c-2.235 0-3.887 1.352-3.994 2.845L16 16v2H8.648L2 12.66V8h10v1c0 1.749-1.032 2.981-2.588 3.583.257.532.762.879 1.318.879.753 0 1.214-.454 1.265-1.299L12 12h2c0 2.017-1.325 3.462-3.27 3.462-1.525 0-2.832-1.026-3.308-2.474l-.183.008L7 13v-2c1.249 0 2.186-.357 2.659-.971L9.678 10H4v1.701L9.352 16H14c0-2.05 1.49-3.84 3.652-4.605L15.34 6H14V4h2.66z" fill="currentColor" fill-rule="nonzero"/></g></symbol><symbol xmlns="http://www.w3.org/2000/svg" viewBox="0 0 24 24" id="mortgage-24"><defs><path d="M6.5 12.733l5.5 4.278V21h-2v-3.01l-3.5-2.723L3 17.989V21H1v-3.99l5.5-4.277zM7.5 18v3h-2v-3h2zm7-5a2.5 2.5 0 110 5 2.5 2.5 0 010-5zm0 1.886a.614.614 0 100 1.228.614.614 0 000-1.228zM14.9.539l1.872 8.803-2.773.589L14 10a3 3 0 01-5.768 1.158L2.099 12.46.23 3.658 14.9.539zM11 9a1 1 0 100 2 1 1 0 000-2zm2.36-6.089L2.6 5.198l1.04 4.89 4.487-.954a3.001 3.001 0 015.145-1.093L14.4 7.8l-1.04-4.89z" id="cva"/></defs><g fill="none" fill-rule="evenodd"><path d="M0 0h24v24H0z"/><use fill="currentColor" fill-rule="nonzero" xlink:href="#cva" transform="translate(3 1)"/></g></symbol><symbol xmlns="http://www.w3.org/2000/svg" viewBox="0 0 24 24" id="notification-swish-24"><defs><path d="M5.041 15.452l.341-.42c2.318.652 4.869-.193 6.425-2.095 2.082-2.558 1.725-6.424-.892-8.566l-.476-.357 2.164-2.535.438.329C14.904 3.288 16 5.534 16 8c0 4.438-3.562 8-8 8a8.063 8.063 0 01-2.959-.548zm-2.027-1.205A8.002 8.002 0 010 8c0-4.438 3.562-8 8-8 1.151 0 2.246.219 3.233.712l-.361.398C8.384.336 5.75 1.042 4.133 3.062c-2.082 2.618-1.665 6.366.952 8.567l.476.357-2.164 2.589-.383-.328z" id="cwa"/></defs><g fill="none" fill-rule="evenodd"><path d="M0 0h24v24H0z"/><use fill="currentColor" fill-rule="nonzero" xlink:href="#cwa" transform="translate(4 4)"/></g></symbol><symbol xmlns="http://www.w3.org/2000/svg" viewBox="0 0 24 24" id="padlock-24"><defs><path d="M12.456 6.948a4 4 0 10-8 0v2h-2v-2a6 6 0 1112 0v2h2v11.974h-16V8.948h12v-2zm2 4h-12v7.974h12v-7.974zm-6 1a1.5 1.5 0 011.157 2.456L11 18H6l1.307-3.588a1.5 1.5 0 011.15-2.464z" id="cxa"/></defs><g fill="none" fill-rule="evenodd"><path d="M0 0h24v24H0z"/><use fill="currentColor" fill-rule="nonzero" xlink:href="#cxa" transform="translate(3.544 1.052)"/></g></symbol><symbol xmlns="http://www.w3.org/2000/svg" viewBox="0 0 24 24" id="paper-24"><path d="M5 3v18h14l-.005-12.414L13.414 3H5zm2 2h4v6h5.996L17 19H7V5zm6 .415L16.581 9H13V5.415z" fill="currentColor"/></symbol><symbol xmlns="http://www.w3.org/2000/svg" viewBox="0 0 24 24" id="parasol-24"><g fill="none" fill-rule="evenodd"><path d="M0 0h24v24H0z"/><path d="M0 0h24v24H0z"/><path d="M22.059 18v2c-1.538 0-2.811.253-3.829.748l-.25.129c-1.282.703-2.834 1.072-4.647 1.118l-.392.005H2v-2h10.941c1.538 0 2.811-.253 3.829-.748l.25-.129c1.282-.703 2.834-1.072 4.647-1.118l.392-.005zM9.48 7.145a1 1 0 011.038 0l6.176 3.75a1 1 0 01.42.511l.824 2.25A1 1 0 0117 15h-5.727a1 1 0 01-.274-.038L11 19H9v-4.038a1 1 0 01-.14.03L8.728 15H3a1 1 0 01-.94-1.344l.824-2.25a1 1 0 01.42-.51zM10 9.17l-5.358 3.253L4.43 13h3.95l1.002-.786a1 1 0 011.123-.077l.113.077 1.001.786h3.95l-.212-.578L10 9.169zM22 7v3h-2V7h2zm-4.54-1.817l1.414 1.414-2.122 2.121-1.414-1.414 2.121-2.121zM20 2a2 2 0 001.85 1.995L22 4v2a4 4 0 01-3.995-3.8L18 2h2zm-3 0v2h-3V2h3z" fill="currentColor" fill-rule="nonzero"/></g></symbol><symbol xmlns="http://www.w3.org/2000/svg" viewBox="0 0 24 24" id="payment-24"><defs><path d="M8.828 16.014a2.982 2.982 0 110 5.964 2.982 2.982 0 010-5.964zm12.827-2.88l1.406 1.422-7.129 7.046-3.44-3.525 1.432-1.396 2.034 2.083 5.697-5.63zm-12.827 4.88a.982.982 0 100 1.964.982.982 0 000-1.964zM17.469.503l1.25 4.332 1.064.227-2.23 10.485-7.903-1.68a3.38 3.38 0 01-6.133-1.303L.866 12 3.094 1.514 8.04 2.565 17.47.503zM6.846 10.605a1.378 1.378 0 100 2.756 1.378 1.378 0 000-2.756zM4.634 3.886L3.237 10.46l.537.115a3.379 3.379 0 016.45 1.37l5.79 1.23 1.396-6.573L4.634 3.886zm11.433-1.029l-3.28.717 3.715.79-.435-1.507z" id="daa"/></defs><g fill="none" fill-rule="evenodd"><path d="M0 0h24v24H0z"/><use fill="currentColor" fill-rule="nonzero" xlink:href="#daa" transform="translate(0 1)"/></g></symbol><symbol xmlns="http://www.w3.org/2000/svg" viewBox="0 0 24 24" id="pdf-doc-24"><g fill="none" fill-rule="evenodd"><path d="M0 0h24v24H0z"/><path d="M16.414 2L20 5.586V8h-2V6.414L15.586 4H6v16h11.998l-.005-3.998 2-.004.01 6.002H4V2h12.414zm-1.767 7.05c1.504 0 2.507 1.181 2.507 2.958 0 1.794-1.003 2.992-2.507 2.992h-1.904V9.05zm6.494 0v1.114h-1.93v1.606h1.718v1.114h-1.717V15h-1.199V9.05h3.128zm-11.11 0c1.173 0 1.981.867 1.981 2.159 0 1.258-.79 2.1-1.93 2.1h-.875v1.683H8V9.05zm4.599 1.147h-.689v3.655h.689c.799 0 1.326-.73 1.326-1.835 0-1.088-.527-1.82-1.326-1.82zm-4.548-.042h-.9v2.066h.9c.451 0 .774-.417.774-1.046 0-.612-.323-1.02-.774-1.02z" fill="currentColor" fill-rule="nonzero"/></g></symbol><symbol xmlns="http://www.w3.org/2000/svg" viewBox="0 0 24 24" id="pencil-24"><g fill="currentColor"><path d="M4 3v18h14.001l-.007-5.001-2 .002.005 3H6v-14h10V3z"/><path d="M19.778 7.967l-.739-.739-6.032 6.033V14h.739l6.032-6.033zM14.574 16h-3.567v-3.567L19.039 4.4l3.568 3.567L14.574 16z"/></g></symbol><symbol xmlns="http://www.w3.org/2000/svg" viewBox="0 0 24 24" id="pension-24"><defs><path d="M17.686 16.4H4.314L3.416 18h15.168l-.898-1.6zm1.171-2L22 20H0l3.143-5.6h15.714zM15.374 8l3.143 5.6H3.496L6.639 8h8.735zm-1.171 2H7.809l-.897 1.6H15.1l-.898-1.6zM11.016.002L15.058 7.2H6.954L11.016.002zm-.006 3.027L9.596 5.61h2.82L11.01 3.03z" id="dda"/></defs><g fill="none" fill-rule="evenodd"><path d="M0 0h24v24H0z"/><use fill="currentColor" fill-rule="nonzero" xlink:href="#dda" transform="translate(1 2)"/></g></symbol><symbol xmlns="http://www.w3.org/2000/svg" viewBox="0 0 24 24" id="pension-occupational-24"><defs><path d="M17.686 16.4H4.314L3.416 18h15.168l-.898-1.6zm1.171-2L22 20H0l3.143-5.6h15.714zM15.374 8l3.143 5.6H3.496L6.639 8h8.735zM10.999.002L14.957 7.2H7.022L11 .002zm.004 3.532L9.91 5.51h2.176l-1.082-1.975z" id="dea"/></defs><g fill="none" fill-rule="evenodd"><path d="M0 0h24v24H0z"/><use fill="currentColor" fill-rule="nonzero" xlink:href="#dea" transform="translate(1 2)"/></g></symbol><symbol xmlns="http://www.w3.org/2000/svg" viewBox="0 0 24 24" id="pension-private-24"><defs><path d="M17.686 16.4H4.314L3.416 18h15.168l-.898-1.6zm1.171-2L22 20H0l3.143-5.6h15.714zM15.374 8l3.143 5.6H3.496L6.639 8h8.735zm-1.171 2H7.809l-.897 1.6H15.1l-.898-1.6zM10.999.002L14.957 7.2H7.022L11 .002z" id="dfa"/></defs><g fill="none" fill-rule="evenodd"><path d="M0 0h24v24H0z"/><use fill="currentColor" fill-rule="nonzero" xlink:href="#dfa" transform="translate(1 2)"/></g></symbol><symbol xmlns="http://www.w3.org/2000/svg" viewBox="0 0 24 24" id="pension-state-24"><defs><path d="M18.857 14.4L22 20H0l3.143-5.6h15.714zM15.374 8l3.143 5.6H3.496L6.639 8h8.735zm-1.171 2H7.809l-.897 1.6H15.1l-.898-1.6zM10.999.002L14.957 7.2H7.022L11 .002zm-.02 3.017L9.341 5.857h3.273l-1.637-2.838z" id="dga"/></defs><g fill="none" fill-rule="evenodd"><path d="M0 0h24v24H0z"/><use fill="currentColor" fill-rule="nonzero" xlink:href="#dga" transform="translate(1 2)"/></g></symbol><symbol xmlns="http://www.w3.org/2000/svg" viewBox="0 0 24 24" id="percent-24"><path d="M16.5 20a3.5 3.5 0 100-7 3.5 3.5 0 000 7zm0-2a1.5 1.5 0 110-3 1.5 1.5 0 010 3zm-9-7a3.5 3.5 0 100-7 3.5 3.5 0 000 7zm0-2a1.5 1.5 0 110-3 1.5 1.5 0 010 3zm9.214-4.618l-11 14 1.572 1.236 11-14z" fill="currentColor"/></symbol><symbol xmlns="http://www.w3.org/2000/svg" viewBox="0 0 24 24" id="phone-24"><path d="M16.909 18.571a.388.388 0 00.17-.223.39.39 0 00-.016-.28l-1.613-3.076a.33.33 0 00-.205-.169.334.334 0 00-.264.026l-2.32 1.253-.908-.627c-.633-.437-1.262-1.21-1.886-2.404-.628-1.198-.9-2.125-.929-2.872l-.043-1.122.988-.532 1.38-.745c.113-.06.213-.388.154-.5L9.804 4.223a.33.33 0 00-.204-.171.327.327 0 00-.265.028l-1.783.962c-.298.16-.612.594-.817 1.264-.523 1.709-.295 4.264 1.49 7.67 1.315 2.508 2.771 4.085 4.196 4.963 1.169.72 2.196.867 2.707.591l1.78-.959zm.853 1.585l-1.781.96c-1.156.623-2.839.382-4.505-.645-1.264-.779-3.133-2.394-4.845-5.659C4.135 10.05 4.668 6.91 5.013 5.78c.335-1.093.932-1.916 1.685-2.321l1.783-.962a2.122 2.122 0 011.645-.165A2.129 2.129 0 0111.4 3.39l1.612 3.074c.517.983.089 2.391-.893 2.92l-1.381.745c.01.252.092.901.724 2.106.603 1.151 1.076 1.594 1.315 1.759l1.35-.73a2.136 2.136 0 011.646-.162 2.13 2.13 0 011.271 1.053l1.614 3.078c.26.495.31 1.094.143 1.642a2.184 2.184 0 01-1.038 1.281z" fill="currentColor"/></symbol><symbol xmlns="http://www.w3.org/2000/svg" viewBox="0 0 24 24" id="pin-24"><g fill="currentColor"><path d="M17.5 9.544C17.5 6.486 15.028 4 12 4S6.5 6.486 6.5 9.544c0 1.435.572 2.833 1.607 3.927l3.81 3.837h.165l3.813-3.84c1.04-1.107 1.605-2.498 1.605-3.924zm-.168 5.316l-4.417 4.448h-1.83L6.688 14.88C5.27 13.382 4.5 11.494 4.5 9.544 4.5 5.384 7.865 2 12 2s7.5 3.384 7.5 7.544c0 1.95-.77 3.838-2.168 5.316z"/><path d="M5 19v2h14v-2zm7-8.499c-.57 0-1-.43-1-1A.978.978 0 0112 8.5c.57 0 1 .43 1 1.001h2A2.969 2.969 0 0012 6.5c-1.682 0-3 1.318-3 3.001 0 1.682 1.318 3 3 3v-2z"/></g></symbol><symbol xmlns="http://www.w3.org/2000/svg" viewBox="0 0 24 24" id="plus-24"><path d="M11 6v5H6v2h5v5h2.001v-5H18v-2h-4.999V6z" fill="currentColor"/></symbol><symbol xmlns="http://www.w3.org/2000/svg" viewBox="0 0 24 24" id="pregnant-24"><g fill="none" fill-rule="evenodd"><path d="M0 0h24v24H0z"/><path d="M16 19.5v2.503h-2V19.5h2zM12 2a4 4 0 013.285 6.283c.99.492 1.644 1.37 1.71 2.523L17 11v4.5c0 1.859-1.191 2.922-2.818 2.996L14 18.5h-4a1 1 0 01-.117-1.993L10 16.5h4c.64 0 .956-.23.996-.859L15 15.5V11c0-.6-.44-1.003-1.28-1.133a.998.998 0 01-.335-.114c-.431.16-.898.247-1.385.247-.618 0-1.203-.14-1.725-.39l.142-.067c-1.085.498-1.383.817-1.414 1.338l-.003.1v1.061c.235-.02.478-.034.728-.04L10 12v2c-2.824 0-4 .94-4 3 0 1.995 1.104 2.94 3.74 2.997L10 20v2c-3.843 0-6-1.726-6-5 0-2.288 1.054-3.82 3-4.535V10.98c0-1.184.513-2.044 1.667-2.768A4 4 0 0112 2zm0 2a2 2 0 100 4 2 2 0 000-4z" fill="currentColor" fill-rule="nonzero"/></g></symbol><symbol xmlns="http://www.w3.org/2000/svg" viewBox="0 0 24 24" id="print-24"><g fill="none" fill-rule="evenodd"><path d="M0 0h24v24H0z"/><path d="M6 17H2v-5.5A3.5 3.5 0 015.5 8H6V2h12v6h.5a3.5 3.5 0 013.5 3.5V17h-4v5H6v-5zm0-2v-2h12v2h2v-3.5a1.5 1.5 0 00-1.5-1.5h-13A1.5 1.5 0 004 11.5V15h2zm2-7h8V4H8v4zm0 7v5h8v-5H8z" fill="currentColor" fill-rule="nonzero"/></g></symbol><symbol xmlns="http://www.w3.org/2000/svg" viewBox="0 0 24 24" id="radio-enclosed-24"><g fill="currentColor"><path d="M12 5c-3.859 0-7 3.14-7 7s3.141 7 7 7 7-3.14 7-7-3.141-7-7-7m0 16c-4.963 0-9-4.038-9-9s4.037-9 9-9 9 4.038 9 9-4.037 9-9 9"/><path d="M12 13.44c-.81 0-1.44-.63-1.44-1.44 0-.81.63-1.44 1.44-1.44.81 0 1.44.63 1.44 1.44 0 .81-.63 1.44-1.44 1.44"/></g></symbol><symbol xmlns="http://www.w3.org/2000/svg" viewBox="0 0 24 24" id="radio-round-24"><g fill="currentColor"><path d="M12 5c-3.859 0-7 3.14-7 7s3.141 7 7 7 7-3.14 7-7-3.141-7-7-7m0 16c-4.963 0-9-4.038-9-9s4.037-9 9-9 9 4.038 9 9-4.037 9-9 9"/><path d="M12 13.5a1.5 1.5 0 100-3 1.5 1.5 0 000 3zm0 2.5a4 4 0 110-8 4 4 0 010 8z"/></g></symbol><symbol xmlns="http://www.w3.org/2000/svg" viewBox="0 0 24 24" id="rv-24"><g fill="none" fill-rule="evenodd"><path d="M0 0h24v24H0z"/><path d="M20.765 4l2.264 8.358L21.807 18l-.979.001A2.998 2.998 0 0118 20a3.001 3.001 0 01-2.829-2l-5.342.001a3 3 0 01-5.658 0L2.193 18 .971 12.358 3.235 4h17.53zM7 16a1 1 0 100 2 1 1 0 000-2zm11 0a1 1 0 100 2 1 1 0 000-2zm1.234-10H4.765L3.41 11H7v2H3.156l.65 3h.365a3.001 3.001 0 015.658 0h5.342a3.001 3.001 0 015.203-.834l.596-2.755L20.316 10H17V8h2.775l-.541-2zM15 8v7h-2v-5h-1v5h-2V8h5z" fill="currentColor" fill-rule="nonzero"/></g></symbol><symbol xmlns="http://www.w3.org/2000/svg" viewBox="0 0 24 24" id="save-24"><g fill="none" fill-rule="evenodd"><path d="M0 0h24v24H0z"/><path d="M17.77 3l-.06 4.213A7.18 7.18 0 0119.702 10H22v6h-2.292c-.394 1.006-.997 1.662-1.943 2.093L17.753 22h-4.869v-2.217H10.54V22H5.722v-3.391c-1.922-1.307-3.257-3.686-3.257-6.055 0-.64.072-1.265.208-1.863A2.997 2.997 0 011 8c0-1.665 1.35-3 2.998-3v2c-.584 0-1.045.455-1.045 1 0 .32.16.61.41.794 1.095-2.12 3.098-3.577 5.484-3.577h3.715C13.475 3.631 14.616 3 16.78 3h.992zm-1.983 2.065c-.88.149-1.275.58-1.767 1.597l-.27.555H8.848c-2.469 0-4.428 2.412-4.428 5.337 0 1.823 1.17 3.743 2.742 4.609l.514.283V20h.912v-2.217h6.25V20h.969l.01-3.356.698-.21c.943-.285 1.272-.647 1.544-1.692l.193-.742h1.796v-2h-1.793l-.195-.739c-.284-1.075-.983-2.076-1.903-2.753l-.414-.305.045-3.138zM14.186 9v2H9.302V9h4.884z" fill="currentColor" fill-rule="nonzero"/></g></symbol><symbol xmlns="http://www.w3.org/2000/svg" viewBox="0 0 24 24" id="screen-24"><path d="M20 15.5c0 .271-.229.5-.5.5h-15a.507.507 0 01-.5-.5v-9c0-.271.229-.5.5-.5h15c.271 0 .5.229.5.5v9zM4.5 4A2.503 2.503 0 002 6.5v9C2 16.878 3.122 18 4.5 18H11v1H7v2h10v-2h-4v-1h6.5c1.378 0 2.5-1.122 2.5-2.5v-9C22 5.122 20.878 4 19.5 4h-15z" fill="currentColor"/></symbol><symbol xmlns="http://www.w3.org/2000/svg" viewBox="0 0 24 24" id="search-24"><path d="M19.638 20.954l-3.804-3.803 1.317-1.316 3.803 3.803zM10.354 4.862a5.499 5.499 0 00-5.492 5.493 5.499 5.499 0 005.492 5.492 5.499 5.499 0 005.493-5.492 5.499 5.499 0 00-5.493-5.493m0 12.847C6.3 17.71 3 14.41 3 10.355 3 6.299 6.3 3 10.354 3c4.056 0 7.355 3.3 7.355 7.355 0 4.055-3.3 7.354-7.355 7.354" fill="currentColor"/></symbol><symbol xmlns="http://www.w3.org/2000/svg" viewBox="0 0 24 24" id="share-24"><defs><path d="M15 0a4 4 0 11-2.921 6.732l-4.2 2.291a4.008 4.008 0 010 1.954l4.2 2.29a4 4 0 11-.96 1.756l-4.198-2.29a4 4 0 110-5.465l4.2-2.291A4 4 0 0115 0zm0 14a2 2 0 100 4 2 2 0 000-4zM4 8a2 2 0 100 4 2 2 0 000-4zm11-6a2 2 0 100 4 2 2 0 000-4z" id="dta"/></defs><g fill="none" fill-rule="evenodd"><path d="M0 0h24v24H0z"/><path d="M0 0h24v24H0z"/><use fill="currentColor" fill-rule="nonzero" xlink:href="#dta" transform="translate(2 2)"/></g></symbol><symbol xmlns="http://www.w3.org/2000/svg" viewBox="0 0 24 24" id="shield-24"><g fill="none" fill-rule="evenodd"><path d="M0 0h24v24H0z"/><g fill="currentColor" fill-rule="nonzero"><path d="M6.273 2h11.454c0 1.636 1.637 3.273 3.273 3.273v7.363c0 3.819-3 7.091-9 9.819-6-2.728-9-6-9-9.819V5.273c1.636 0 3.273-1.637 3.273-3.273zM5 6.825v5.811c0 2.72 2.21 5.275 7 7.608 4.79-2.333 7-4.888 7-7.608v-5.81A5.788 5.788 0 0116.175 4h-8.35A5.788 5.788 0 015 6.825z"/><path d="M8.43 9.352l5.727 5.728 1.414-1.415-5.728-5.727z"/><path d="M9.843 15.08l5.728-5.728-1.414-1.414-5.728 5.727z"/></g></g></symbol><symbol xmlns="http://www.w3.org/2000/svg" viewBox="0 0 24 24" id="smalltruck-24"><g fill="none" fill-rule="evenodd"><path d="M0 0h24v24H0z"/><path d="M17 3v11H4.219l.281 1.401a2.982 2.982 0 011.324-.396L6 15c1.306 0 2.417.835 2.83 2h6.34A3.001 3.001 0 0120 15.765v-3.569L18.71 9H18V7h2.06L22 11.806V19h-1.171a3 3 0 01-5.658 0H8.829A3 3 0 013 18l.003.115L2.18 14H2V3h15zm1 14a1 1 0 100 2 1 1 0 000-2zM6 17a1 1 0 100 2 1 1 0 000-2zm9-12H4v7h11V5z" fill="currentColor" fill-rule="nonzero"/></g></symbol><symbol xmlns="http://www.w3.org/2000/svg" viewBox="0 0 24 24" id="snailmail-24"><g fill="none" fill-rule="evenodd"><path d="M0 0h24v24H0z"/><path d="M17 2v2h-2v6.82h-2L12.999 8H9.263c.277.647.392 1.437.336 2.351L9.598 18h10.401L20 10.535C20 8.698 19.407 8 18 8h-1V6h1c2.59 0 3.999 1.659 4 4.535V20l-9.001-.001L13 22h-2l-.001-2.001L2 20v-2l5.598-.001.003-7.709C7.703 8.627 7.212 8.016 5.859 8h-.106l-.104.003C4.373 8.048 3.905 8.675 4 10.35V16H2l.002-5.591C1.85 7.774 3.062 6.177 5.4 6.014V6H13V2h4z" fill="currentColor" fill-rule="nonzero"/></g></symbol><symbol xmlns="http://www.w3.org/2000/svg" viewBox="0 0 24 24" id="snowmobile-24"><g fill="none" fill-rule="evenodd"><path d="M0 0h24v24H0z"/><path d="M12.707 3.293l8.44 8.44-1.865 1.957-.092.085 1.746 1.75c.302-.226.676-.56 1.175-1.052l.182-.18 1.414 1.414c-1.27 1.27-2.001 1.829-2.827 2.096-.448.144-.775.185-1.47.195l-.42.002h-3.932v-2l3.526-.002-1.073-1.072a1.87 1.87 0 01-.363.067l-.15.007h-2l.004-2h1.973l.033-.006c.073-.024.224-.127.62-.492l.24-.225.484-.51-2.853-2.852L13.414 11H5.75c-.134 0-.436.19-.538.36l-.029.062-1.923-.549c.297-1.038 1.37-1.79 2.331-1.867L5.75 9h5.835l-1.292-1.293 1.414-1.414L13.5 8.085l.585-.585-2.792-2.793 1.414-1.414zM11.37 12c1.502 0 2.63 1.383 2.63 3s-1.127 3-2.63 3H4.63C3.129 18 2 16.617 2 15s1.128-3 2.63-3zm0 2H4.631C4.333 14 4 14.408 4 15c0 .592.333 1 .63 1h6.74c.298 0 .63-.408.63-1 0-.592-.332-1-.63-1z" fill="currentColor" fill-rule="nonzero"/></g></symbol><symbol xmlns="http://www.w3.org/2000/svg" viewBox="0 0 24 24" id="star-24"><defs><path id="dya" d="M18 17.593V.1H0v17.493z"/></defs><g transform="translate(3 2.5)" fill="none" fill-rule="evenodd"><mask id="dyb" fill="#fff"><use xlink:href="#dya"/></mask><path d="M9 11.92c.21 0 .42.065.597.196l2.441 1.815-.95-2.955a.999.999 0 01.36-1.11l2.498-1.842-3.065.007h-.002a1 1 0 01-.953-.698L9 4.411l-.926 2.922a1.01 1.01 0 01-.955.698l-3.065-.007 2.5 1.841a.999.999 0 01.358 1.111l-.95 2.955 2.441-1.815c.178-.13.387-.197.597-.197m4.944 5.674a.998.998 0 01-.596-.197L9 14.166l-4.348 3.23a1 1 0 01-1.548-1.109l1.684-5.238-4.38-3.226A1.001 1.001 0 011 6.018h.002l5.388.012L8.047.798a1 1 0 011.906 0L11.61 6.03l5.388-.012H17a1 1 0 01.593 1.805l-4.38 3.226 1.683 5.238a.999.999 0 01-.952 1.306" fill="currentColor" fill-rule="nonzero" mask="url(#dyb)"/></g></symbol><symbol xmlns="http://www.w3.org/2000/svg" viewBox="0 0 24 24" id="sustainability-24"><g fill="none" fill-rule="evenodd"><path d="M0 0h24v24H0z"/><path d="M21.227 1.5l.15 1.393c.415 3.85.623 6.853.623 9.016C22 15.284 18.885 18 16.06 18c-1.07 0-2.03-.269-2.862-.8l-3.351 5.332-1.694-1.064 1.196-1.906-.105.093-4.335-5 1.511-1.31.334.384c-.08-.35-.258-.731-.557-1.132-.613-.826-1.449-1.54-2.515-2.143-.527 2.49-.45 4.157.13 4.961.338.47.8.61 1.602.409l.485 1.94c-1.554.388-2.862-.003-3.71-1.18-1.12-1.553-1.12-4.145-.157-7.836l.296-1.133 1.073.469c1.9.83 3.373 1.936 4.402 3.32 1.113 1.497 1.236 3.083.655 4.29l1.926 2.222 3.417-5.438-1.674-2.99 1.746-.977 1.14 2.038 1.552-2.466 1.693 1.064-1.525 2.424H19v2h-3.524l-1.214 1.934c.513.332 1.104.495 1.797.495C17.837 16 20 14.114 20 11.91c0-1.816-.155-4.286-.466-7.404-3.75 1.78-6.173 3.046-7.232 3.773-1.466 1.007-1.786 3.482-.466 4.843l-1.435 1.393c-2.203-2.27-1.696-6.191.769-7.885 1.297-.89 4.208-2.39 8.788-4.536l1.269-.594z" fill="currentColor" fill-rule="nonzero"/></g></symbol><symbol xmlns="http://www.w3.org/2000/svg" viewBox="0 0 24 24" id="tag-24"><g fill="currentColor"><path d="M5.414 13.004L11 18.59l8.004-8.003L19 7.419l-2.415-2.415-3.167-.003-8.004 8.003zm5.586 8a.997.997 0 01-.707-.293l-7-7a.999.999 0 010-1.414l9.004-9.004A1 1 0 0113.004 3h.001l3.996.004c.265 0 .518.105.706.293l3 3a1 1 0 01.293.706l.004 3.996c0 .266-.106.521-.293.708l-9.004 9.004a.997.997 0 01-.707.293z"/><path d="M15 11a1.961 1.961 0 01-1.548-.71 1.395 1.395 0 01-.323-.516C13 9.516 13 9.258 13 9c0-1.097.903-2 2-2s2 .903 2 2-.903 2-2 2"/></g></symbol><symbol xmlns="http://www.w3.org/2000/svg" viewBox="0 0 24 24" id="text-1-round-24"><g fill="currentColor"><path d="M12 19c-3.86 0-7-3.14-7-7s3.14-7 7-7 7 3.14 7 7-3.14 7-7 7m0-16c-4.962 0-9 4.038-9 9s4.038 9 9 9 9-4.038 9-9-4.038-9-9-9"/><path d="M12.926 7.705h-2.638v1.403h1.007v5.614h-1.15V16.1h3.968v-1.38h-1.187z"/></g></symbol><symbol xmlns="http://www.w3.org/2000/svg" viewBox="0 0 24 24" id="text-2-round-24"><g fill="currentColor"><path d="M12 5c-3.86 0-7 3.14-7 7s3.14 7 7 7 7-3.14 7-7-3.14-7-7-7m0 16c-4.962 0-9-4.038-9-9s4.038-9 9-9 9 4.038 9 9-4.038 9-9 9"/><path d="M11.307 10.175H9.88c-.012-1.643.85-2.59 2.267-2.59 1.967 0 2.89 2.386 1.523 4.617l-1.427 2.338h2.183v1.56h-4.63v-.384l2.483-4.186c.239-.408.515-.887.515-1.379 0-.684-.252-1.032-.72-1.032-.503 0-.767.361-.767 1.056"/></g></symbol><symbol xmlns="http://www.w3.org/2000/svg" viewBox="0 0 24 24" id="text-3-round-24"><g fill="currentColor"><path d="M12 5c-3.86 0-7 3.14-7 7s3.14 7 7 7 7-3.14 7-7-3.14-7-7-7m0 16c-4.962 0-9-4.038-9-9s4.038-9 9-9 9 4.038 9 9-4.038 9-9 9"/><path d="M11.083 13.641c.024.624.42 1.032.996 1.032.563 0 .947-.504.947-1.27-.024-1.345-1.115-1.536-1.991-1.345v-.252l1.188-2.674H9.872V7.704h4.545v.252l-1.427 2.94c1.128.226 1.643 1.33 1.643 2.493 0 1.703-1.007 2.831-2.53 2.831-1.476 0-2.471-1.03-2.507-2.579h1.487z"/></g></symbol><symbol xmlns="http://www.w3.org/2000/svg" viewBox="0 0 24 24" id="tractor-24"><g fill="none" fill-rule="evenodd"><path d="M0 0h24v24H0z"/><path d="M7.309 13.735a4.074 4.074 0 110 8.147 4.074 4.074 0 010-8.147zM15.8 2a3.235 3.235 0 013.226 2.988l.01.247L19.034 9h1.968v7.311a3.235 3.235 0 11-2-.89L19.003 11h-4.501l-3.05-5.883h-6.51v5.76a7.252 7.252 0 019.432 5.516l.04.237-1.975.307a5.251 5.251 0 00-9.678-1.91l-.119.207-1.754-.96a7.264 7.264 0 012.053-2.355l.001-8.801h9.726L15.717 9h1.318V5.235a1.236 1.236 0 00-1.094-1.227L15.8 4V2zM7.309 15.735a2.074 2.074 0 100 4.147 2.074 2.074 0 000-4.147zm11.456 1.677a1.235 1.235 0 100 2.47 1.235 1.235 0 000-2.47z" fill="currentColor" fill-rule="nonzero"/></g></symbol><symbol xmlns="http://www.w3.org/2000/svg" viewBox="0 0 24 24" id="trailer-24"><g fill="none" fill-rule="evenodd"><path d="M0 0h24v24H0z"/><path d="M17 15h-6.171a3.001 3.001 0 01-5.658.001L2 15V8h20v3h-2l-.001-1H17v5zm-9-2a1 1 0 100 2 1 1 0 000-2zm-4-3v3h1.17a3.001 3.001 0 015.66 0H15v-3H4z" fill="currentColor" fill-rule="nonzero"/></g></symbol><symbol xmlns="http://www.w3.org/2000/svg" viewBox="0 0 24 24" id="trash-24"><path d="M6 8l1 13h10l1-13H6zm2.174 2h7.652l-.666 9H8.84l-.666-9zM6 5v2h12V5zm4 0h4V3h-4z" fill="currentColor"/></symbol><symbol xmlns="http://www.w3.org/2000/svg" viewBox="0 0 24 24" id="travel-24"><defs><path d="M17.664 11.26l3.599.752.102.563c.192 1.048-.227 1.95-1.158 2.568l-.11.072-4.377 1.248-2.819 3.044-4.168 1.326.628-2.51h-5.05L.313 14.656l4.433-1.291 1.991 1.114.872-.257-1.369-1.21 3.397-.996 3.295.638 4.732-1.393zm.07 1.752l-11.202 3.3-1.994-1.116-.85.248 1.285 1.18h4.014l.912-.448.04-.02.016.03 1.594.399-.426 1.703.835-.265 2.838-3.065 4.57-1.302c.11-.083.191-.165.247-.252l-1.878-.392zm-8.039.237l-1.032.303.304.27 1.462-.431-.734-.142zm3.75-4.087a1.428 1.428 0 110 2.856 1.428 1.428 0 010-2.856zm0 1a.428.428 0 100 .856.428.428 0 000-.856zm-4.33-4.344a2.297 2.297 0 110 4.594 2.297 2.297 0 010-4.594zM7.475 0c1.72 0 3.167 1.17 3.59 2.757a3.376 3.376 0 012.317 5.137l-1.69-1.07a1.375 1.375 0 00-1.163-2.11h-1.34v-1a1.714 1.714 0 00-3.429 0v1.003l-1.002-.003a1.37 1.37 0 00-1.373 1.372c0 .76.616 1.376 1.375 1.376h1.304v2H4.76a3.375 3.375 0 01-.894-6.629A3.716 3.716 0 017.475 0zm1.64 7.318a.797.797 0 100 1.594.797.797 0 000-1.594z" id="eha"/></defs><g fill="none" fill-rule="evenodd"><path d="M0 0h24v24H0z"/><use fill="currentColor" fill-rule="nonzero" xlink:href="#eha" transform="translate(.59 1.403)"/></g></symbol><symbol xmlns="http://www.w3.org/2000/svg" viewBox="0 0 24 24" id="triangle-24"><path d="M8 6.837v10.335l8.15-5.168L8 6.837zM6 3.2l13.886 8.804L6 20.808V3.2z" fill="currentColor"/></symbol><symbol xmlns="http://www.w3.org/2000/svg" viewBox="0 0 24 24" id="umbrella-24"><path d="M12 9.814a5.007 5.007 0 00-3.5-1.443c-1.438 0-2.438.473-3.11.957a2.58 2.58 0 01.221-.58c.972-2.02 4.002-3.413 6.343-3.413 2.32 0 5.386 1.402 6.395 3.396.111.2.21.4.3.597-.727-.58-2-.957-3.149-.957A5.007 5.007 0 0012 9.814zM13 2h-2v1.4c-3.937.482-8 3.902-8 8.042a1 1 0 001.871.492c.536-.95 2.568-1.563 3.629-1.563 1.022 0 1.932.525 2.5 1.39V19c0 .292-.224.53-.5.53s-.5-.238-.5-.53H8c0 1.394 1.122 2.53 2.5 2.53 1.325 0 2.402-1.053 2.484-2.374l.016-7.42c.562-.834 1.516-1.366 2.5-1.366 1.094 0 3.077.584 3.629 1.562a1.001 1.001 0 001.871-.49c0-4.112-4.057-7.51-8-8.03V2z" fill="currentColor"/></symbol><symbol xmlns="http://www.w3.org/2000/svg" viewBox="0 0 24 24" id="user-24"><defs><path d="M8.723 3.51a8.7 8.7 0 016.418 2.816L13.67 7.68a6.723 6.723 0 101.512 2.681H10.01c-2.159 0-4.47-1.245-5.125-3.032l1.878-.688c.33.899 1.854 1.72 3.247 1.72h6.56l.253.628a8.723 8.723 0 11-8.1-5.48zm1.808 11.474l1.299 1.52c-.886.757-1.972 1.177-3.118 1.177-1.134 0-2.21-.412-3.09-1.154l1.288-1.53c.528.446 1.151.684 1.802.684.658 0 1.287-.243 1.819-.697zm1-4.203c1.19 0 2.154.965 2.154 2.154h-1.5a.654.654 0 10-1.308 0h-1.5c0-1.19.965-2.154 2.154-2.154zm-5.616 0c1.19 0 2.154.965 2.154 2.154h-1.5a.654.654 0 10-1.309 0h-1.5c0-1.19.965-2.154 2.155-2.154zm13.552-5.743l.81 1.828-2.695 1.195-.811-1.828 2.696-1.195zm-2.298-2.664l1.362 1.464-2.078 1.935-1.362-1.464 2.078-1.935zM14.143.56l1.774.925L14.552 4.1l-1.773-.925L14.143.56z" id="eka"/></defs><g fill="none" fill-rule="evenodd"><path d="M0 0h24v24H0z"/><use fill="currentColor" fill-rule="nonzero" xlink:href="#eka" transform="translate(2 1)"/></g></symbol><symbol xmlns="http://www.w3.org/2000/svg" viewBox="0 0 24 24" id="user-happy-24"><defs><path d="M9.994 0a9.968 9.968 0 017.353 3.226L15.876 4.58a7.994 7.994 0 101.763 3.07l-6.146-.001c-2.451 0-5.078-1.415-5.814-3.423l1.878-.688c.41 1.12 2.25 2.11 3.936 2.11h7.529l.252.629a9.969 9.969 0 01.714 3.716c0 5.52-4.475 9.994-9.994 9.994C4.474 19.988 0 15.513 0 9.994 0 4.474 4.474 0 9.994 0zm3.01 12.989l1.418 1.41a6.229 6.229 0 01-4.428 1.841 6.229 6.229 0 01-4.422-1.834l1.416-1.413a4.23 4.23 0 003.006 1.247 4.23 4.23 0 003.01-1.251zm-.012-4.739a2.249 2.249 0 012.249 2.249h-1.5a.749.749 0 10-1.498 0h-1.5a2.249 2.249 0 012.249-2.249zm-5.996 0a2.249 2.249 0 012.249 2.249h-1.5a.749.749 0 10-1.498 0h-1.5A2.249 2.249 0 016.996 8.25z" id="ela"/></defs><g fill="none" fill-rule="evenodd"><path d="M0 0h24v24H0z"/><use fill="currentColor" fill-rule="nonzero" xlink:href="#ela" transform="translate(2 2)"/></g></symbol><symbol xmlns="http://www.w3.org/2000/svg" viewBox="0 0 24 24" id="wallet-24"><path d="M22 10h-1V7H6v2h13v1h-2v2h3v2h-3v2h2v2H5.89a.89.89 0 01-.89-.89V6.89A.89.89 0 015.89 6H19V4H5.89A2.893 2.893 0 003 6.89v10.22A2.893 2.893 0 005.89 20H21v-4h1v-6z" fill="currentColor"/></symbol><symbol xmlns="http://www.w3.org/2000/svg" viewBox="0 0 24 24" id="wallet-minus-24"><g fill="currentColor"><path d="M3 16c0-2.206 1.794-4 4-4s4 1.794 4 4-1.794 4-4 4-4-1.794-4-4zm19-7h-1V6H7v2h12v1h-1v2h2v2h-2v2h1v1h-6c0-3.309-2.691-6-6-6-.341 0-.674.035-1 .09v-4.2A.89.89 0 016.89 5H19V3H6.89A2.893 2.893 0 004 5.89v4.922A5.999 5.999 0 001 16c0 3.309 2.691 6 6 6 2.607 0 4.824-1.673 5.65-4H21v-3h1V9z"/><path d="M4 15v2h6v-2z"/></g></symbol><symbol xmlns="http://www.w3.org/2000/svg" viewBox="0 0 24 24" id="wallet-plus-24"><g fill="currentColor"><path d="M3 16c0-2.206 1.794-4 4-4s4 1.794 4 4-1.794 4-4 4-4-1.794-4-4zm19-7h-1V6H7v2h12v1h-1v2h2v2h-2v2h1v1h-6c0-3.309-2.691-6-6-6-.341 0-.674.035-1 .09v-4.2A.89.89 0 016.89 5H19V3H6.89A2.893 2.893 0 004 5.89v4.922A5.999 5.999 0 001 16c0 3.309 2.691 6 6 6 2.607 0 4.824-1.673 5.65-4H21v-3h1V9z"/><path d="M8 13H6v2H4v2h2v2h2v-2h2v-2H8z"/></g></symbol></svg>