<svg width="218" height="281" viewBox="0 0 218 281" fill="none" xmlns="http://www.w3.org/2000/svg">
<path d="M205.229 250.819C208.062 251.035 214.685 256.078 215.292 263.317" stroke="#EFF4F9" stroke-width="3" stroke-linejoin="round"/>
<path d="M194.74 251.685C192.78 248.945 190.412 241.372 194.226 236.601C198.038 231.834 202.828 233.221 203.51 235.25C204.557 238.361 196.655 241.202 195.171 251.009C195.171 251.009 199.694 237.886 211.004 239.309C216.378 239.984 216.902 244.711 212.016 245.092C206.353 245.53 201.187 248.11 195.171 251.009C195.171 251.009 210.695 241.701 215.291 247.424C217.789 250.536 215.107 252.812 212.389 251.884C208.824 250.667 200.723 250.37 196.42 251.379" stroke="#EFF4F9" stroke-width="3" stroke-linejoin="round"/>
<path d="M40.8457 235.351C35.6809 232.511 28.1798 236.446 28.3891 230.719C28.5906 225.105 36.6259 222.874 40.8457 233.119" stroke="#E30613" stroke-width="3"/>
<path d="M42.0801 235.352C47.245 232.512 55.6522 236.34 54.5354 230.72C53.5253 225.622 47.2944 226.324 42.0801 233.12" stroke="#E30613" stroke-width="3"/>
<path d="M10.0586 278.162H24.3366V237.278H59.0261V251.076" stroke="#EFF4F9" stroke-width="3"/>
<path d="M41.6814 278.066V235.316C39.3257 230.988 34.8707 220.235 43.5807 218.307C49.4243 217.014 49.6309 223.12 45.7062 227.64C42.8761 230.902 42.087 233.694 41.6814 235.316" stroke="#E30613" stroke-width="3"/>
<path d="M127.613 172.774C117.924 177.629 108.393 179.62 108.393 179.62" stroke="#E30613" stroke-width="3"/>
<path d="M105.974 200.115C114.884 205.423 126.271 208.349 140.632 208.711" stroke="#E30613" stroke-width="3"/>
<path d="M141.163 225.622C127.513 236.331 110.638 241.873 98.1836 242.862" stroke="#E30613" stroke-width="3"/>
<path d="M92.3065 252.381C83.8915 252.381 77.125 244.744 77.125 244.744C77.125 244.744 88.3479 236.873 99.4904 223.888" stroke="#EFF4F9" stroke-width="3"/>
<path d="M90.7803 216.583C97.5975 210.834 105.005 202.027 108.628 196.254" stroke="#EFF4F9" stroke-width="3"/>
<path d="M98.8613 193.657C106.66 184.525 115.897 167.037 117.923 153.241" stroke="#EFF4F9" stroke-width="3"/>
<path d="M138.992 242.148L153.777 260.612C153.777 260.612 145.675 267.916 119.748 267.916C93.8164 267.916 85.7148 260.612 85.7148 260.612L100.502 242.148" stroke="#EFF4F9" stroke-width="3"/>
<path d="M147.187 252.381C155.601 252.381 162.367 244.744 162.367 244.744C162.367 244.744 151.146 236.873 140.003 223.888" stroke="#EFF4F9" stroke-width="3"/>
<path d="M148.713 216.583C141.895 210.834 134.49 202.027 130.864 196.254" stroke="#EFF4F9" stroke-width="3"/>
<path d="M140.632 193.657C132.835 184.525 123.597 167.037 121.571 153.241" stroke="#EFF4F9" stroke-width="3"/>
<path fill-rule="evenodd" clip-rule="evenodd" d="M119.728 129.758L123.985 138.396L133.505 139.783L126.616 146.508L128.242 156.003L119.728 151.518L111.215 156.003L112.84 146.508L105.952 139.783L115.471 138.396L119.728 129.758Z" stroke="#E30613" stroke-width="3"/>
<path fill-rule="evenodd" clip-rule="evenodd" d="M114.953 221.79C114.953 219.103 112.774 216.922 110.092 216.922C107.407 216.922 105.229 219.103 105.229 221.79C105.229 224.478 107.407 226.659 110.092 226.659C112.774 226.659 114.953 224.478 114.953 221.79Z" stroke="#E30613" stroke-width="3"/>
<path fill-rule="evenodd" clip-rule="evenodd" d="M135.074 253.307C135.074 250.621 132.897 248.439 130.214 248.439C127.53 248.439 125.352 250.621 125.352 253.307C125.352 255.995 127.53 258.177 130.214 258.177C132.897 258.177 135.074 255.995 135.074 253.307Z" stroke="#EFF4F9" stroke-width="3"/>
<path fill-rule="evenodd" clip-rule="evenodd" d="M127.376 188.246C127.376 185.559 125.198 183.378 122.516 183.378C119.831 183.378 117.652 185.559 117.652 188.246C117.652 190.934 119.831 193.115 122.516 193.115C125.198 193.115 127.376 190.934 127.376 188.246Z" stroke="#EFF4F9" stroke-width="3"/>
<path d="M85.3086 228.69V238.175" stroke="#EFF4F9" stroke-width="3"/>
<path d="M85.3086 224.334V225.767" stroke="#E30613" stroke-width="3" stroke-linecap="round"/>
<path d="M126.024 218.038V226.55" stroke="#EFF4F9" stroke-width="3"/>
<path d="M126.024 213.682V215.115" stroke="#E30613" stroke-width="3" stroke-linecap="round"/>
<path d="M136.559 176.587V187.915" stroke="#EFF4F9" stroke-width="3"/>
<path d="M136.559 172.231V173.665" stroke="#E30613" stroke-width="3" stroke-linecap="round"/>
<path d="M157.729 231.834V240.346" stroke="#EFF4F9" stroke-width="3"/>
<path d="M157.729 227.479V228.913" stroke="#E30613" stroke-width="3" stroke-linecap="round"/>
<path d="M109.515 252.732V261.244" stroke="#EFF4F9" stroke-width="3"/>
<path d="M109.515 248.377V249.809" stroke="#E30613" stroke-width="3" stroke-linecap="round"/>
<path d="M114.481 268.118V278.262H34.8711" stroke="#EFF4F9" stroke-width="3"/>
<path d="M125.216 268.118V278.262H155.601" stroke="#EFF4F9" stroke-width="3"/>
<path d="M91.9961 264.057V278.162" stroke="#EFF4F9" stroke-width="3"/>
<path d="M49.0498 278.162V251.075H86.1066" stroke="#EFF4F9" stroke-width="3"/>
<path d="M49.0498 268.118L69.0024 251.075" stroke="#EFF4F9" stroke-width="3"/>
<path d="M72.9658 278.287L89.628 264.057" stroke="#EFF4F9" stroke-width="3"/>
<path d="M87.1336 218.133H67.5801V249.812" stroke="#EFF4F9" stroke-width="3"/>
<path fill-rule="evenodd" clip-rule="evenodd" d="M166.027 278.162H206.352V253.308H166.027V278.162Z" stroke="#E30613" stroke-width="3"/>
<path d="M194.227 278.162V253.306" stroke="#EFF4F9" stroke-width="3" stroke-linecap="square"/>
<path d="M206.352 264.669H166.027" stroke="#EFF4F9" stroke-width="3" stroke-linecap="square"/>
<path d="M163.975 233.377H184.908V253.306" stroke="#E30613" stroke-width="3"/>
<path d="M170.593 233.377C168.026 229.906 164.253 221.085 167.218 217.394C169.985 213.945 175.321 216.379 173.429 223.143C171.539 229.906 171.738 231.125 171.738 231.125C171.738 231.125 172.888 222.293 178.965 221.655C185.041 221.017 185.516 227.83 181.599 229.57C177.95 231.186 173.429 233.377 173.429 233.377" stroke="#E30613" stroke-width="3" stroke-linejoin="round"/>
<path d="M119.765 117.606V106.06" stroke="#EFF4F9" stroke-width="3"/>
<path d="M137.528 125.144L145.681 116.98" stroke="#EFF4F9" stroke-width="3"/>
<path d="M144.768 139.809H156.297" stroke="#EFF4F9" stroke-width="3"/>
<path d="M142.104 157.6L150.256 165.765" stroke="#EFF4F9" stroke-width="3"/>
<path d="M101.929 125.144L93.7783 116.98" stroke="#EFF4F9" stroke-width="3"/>
<path d="M94.6876 139.809H83.1592" stroke="#EFF4F9" stroke-width="3"/>
<path d="M97.3512 157.6L89.2002 165.765" stroke="#EFF4F9" stroke-width="3"/>
<path d="M192.061 25.4414L200.68 36.6309" stroke="#E30613" stroke-width="3"/>
<path d="M122.651 29.7451L135.64 33.9183" stroke="#E30613" stroke-width="3"/>
<path d="M186.974 25.1895L181.328 41.8455" stroke="#E30613" stroke-width="3"/>
<path d="M114.136 32.4385L116.297 46.1983" stroke="#E30613" stroke-width="3"/>
<path d="M16.6917 91.9251C11.8432 88.7438 9.99608 82.7117 11.3357 77.5771C11.3357 77.5771 5.93171 76.1878 3.71582 74.4437L8.71879 71.6091L11.6045 68.6611L14.864 69.4157L14.5006 74.4037C14.5006 74.4037 26.2031 70.8545 31.9914 73.8971C37.7783 76.9385 38.6688 83.8515 38.6688 83.8515" stroke="#EFF4F9" stroke-width="3"/>
<path d="M43.3574 55.4297C44.4141 55.7352 45.411 56.3045 46.2431 57.139C46.8999 57.798 47.3906 58.5577 47.7177 59.3685C50.1841 58.4698 55.0534 58.4724 58.7971 61.1817" stroke="#EFF4F9" stroke-width="3"/>
<path fill-rule="evenodd" clip-rule="evenodd" d="M38.2546 67.6119L43.4848 55.3065C43.4848 55.3065 36.7617 51.94 28.9446 57.2987C22.0229 62.04 16.1127 57.4827 15.3779 56.4852C15.3779 56.4852 20.2395 63.7333 24.8996 64.7013C29.5313 65.664 33.8138 64.8492 38.2546 67.6119Z" stroke="#E30613" stroke-width="3"/>
<path d="M43.1406 84.2575C40.2781 79.9682 38.2441 76.6215 39.6914 70.5522C39.6914 70.5522 41.2933 68.0827 46.6052 66.6736C51.9197 65.2615 56.2917 64.0095 60.0419 66.1254" stroke="#EFF4F9" stroke-width="3"/>
<path d="M40.1748 118.418L78.2978 80.1765C86.5279 71.9233 82.1532 67.3271 82.1532 67.3271" stroke="#EFF4F9" stroke-width="3"/>
<path d="M50.2646 98.1602L55.3156 103.228" stroke="#EFF4F9" stroke-width="3"/>
<path d="M65.5381 82.8418L70.589 87.9086" stroke="#EFF4F9" stroke-width="3"/>
<path fill-rule="evenodd" clip-rule="evenodd" d="M42.3218 106.128C42.3218 106.128 71.5695 76.7916 72.695 75.6624C72.386 72.7838 71.7409 69.2116 68.737 65.7769C66.281 62.9756 62.7696 62.1464 60.0436 66.1249C56.9138 70.6904 59.4607 75.0822 54.2371 79.7597C49.1926 84.273 45.9552 85.0344 37.1526 83.6236C28.8576 82.2942 21.674 85.1305 15.7299 93.161C15.2132 93.857 15.5417 94.8476 16.3802 95.0504C19.1322 95.7145 24.5544 97.3609 27.9477 100.615C30.4012 102.966 34.1306 106.367 37.5044 107.414C39.2062 107.942 41.0612 107.392 42.3218 106.128Z" stroke="#E30613" stroke-width="3"/>
<path fill-rule="evenodd" clip-rule="evenodd" d="M14.708 54.3417C14.0966 53.7285 13.1049 53.7285 12.4947 54.3417C11.8833 54.9537 11.8833 55.9483 12.4947 56.5619C13.1049 57.1739 14.0966 57.1739 14.708 56.5619C15.3181 55.9483 15.3181 54.9537 14.708 54.3417Z" stroke="#EFF4F9" stroke-width="3"/>
<path d="M94.54 42.7669C96.0497 38.5162 96.5027 36.5497 100.807 35.387C106.148 33.9456 121.201 31.4137 122.652 29.7444C124.105 28.0752 125.053 24.0205 125.053 24.0205" stroke="#EFF4F9" stroke-width="3"/>
<path d="M121.44 18.2065C123.589 19.1078 125.873 19.225 127.14 18.8025C128.294 18.4184 133.334 17.165 133.334 17.165L143.527 20.805L142.66 24.2357C142.353 25.4532 141.248 26.2917 139.999 26.2624L135.475 26.1505C135.475 26.1505 137.32 35.573 132.984 39.973" stroke="#EFF4F9" stroke-width="3"/>
<path d="M135.735 1.95341L132.769 1.74541C128.64 1.45608 125.04 4.53061 124.665 8.66275C124.413 11.4375 125.691 14.1291 127.999 15.6839L131.28 17.8961" stroke="#EFF4F9" stroke-width="3"/>
<path d="M124.665 8.66309L133.611 9.33109" stroke="#EFF4F9" stroke-width="3"/>
<path d="M119.704 46.7334C115.983 47.3001 114.171 47.2786 111.174 50.1851C108.175 53.0921 107.883 54.7399 97.3854 56.1869C97.3854 56.1869 94.6736 61.8626 88.8672 63.7813" stroke="#EFF4F9" stroke-width="3"/>
<path d="M124.034 42.2305L123.702 49.7223C123.702 49.7223 132.242 47.8438 135.839 47.417C135.839 47.417 136.53 52.4798 135.517 54.6225" stroke="#EFF4F9" stroke-width="3"/>
<path d="M99.0645 55.9391C100.407 53.7496 101.55 47.9564 100.486 42.4043" stroke="#EFF4F9" stroke-width="3"/>
<path d="M161.105 26.2067C164.173 22.9052 165.366 21.2799 169.778 21.9267C175.253 22.7294 190.068 26.396 192.061 25.4414C194.055 24.4866 196.53 21.1426 196.53 21.1426" stroke="#EFF4F9" stroke-width="3"/>
<path d="M195.515 14.3682C197.131 16.0508 199.181 17.0655 200.51 17.1827C201.722 17.2895 206.845 18.1456 206.845 18.1456L214.761 25.544L212.608 28.348C211.845 29.3403 210.498 29.6736 209.364 29.1482L205.253 27.243C205.253 27.243 203.223 36.6292 197.499 38.944C197.499 38.944 203.324 42.1095 204.956 44.4802C206.586 46.8494 207.93 52.1159 207.93 52.1159" stroke="#EFF4F9" stroke-width="3"/>
<path d="M215.066 5.13833L212.423 3.76633C208.75 1.85847 204.229 3.2478 202.249 6.889C200.92 9.337 201.027 12.3183 202.529 14.6625L204.669 17.9997" stroke="#EFF4F9" stroke-width="3"/>
<path d="M202.25 6.89062L210.196 11.0628" stroke="#EFF4F9" stroke-width="3"/>
<path d="M182.635 39.8622C178.994 38.901 177.342 38.1637 173.439 39.637C169.537 41.1116 168.619 42.5065 158.409 39.6585C158.409 39.6585 153.674 43.7877 147.586 43.2382" stroke="#EFF4F9" stroke-width="3"/>
<path d="M188.393 37.4521L186.195 44.3028C186.195 44.3028 193.707 45.8708 197.175 46.9108C197.175 46.9108 195.81 51.8347 194.031 53.3975" stroke="#EFF4F9" stroke-width="3"/>
<path d="M160.05 40.0989C162.149 38.6256 165.489 33.7604 166.708 28.2402" stroke="#EFF4F9" stroke-width="3"/>
<path d="M68.7373 65.7772C75.8082 58.3973 111.678 25.3505 184.364 32.7638" stroke="#E30613" stroke-width="3"/>
<path d="M64.1582 39.9603C75.2843 31.9124 87.8268 25.1631 101.876 20.1123" stroke="#EFF4F9" stroke-width="3"/>
<path d="M62.1035 51.6932C67.8164 47.0387 73.941 42.7415 80.49 38.8652" stroke="#EFF4F9" stroke-width="3"/>
</svg>
