<svg width="341" height="341" viewBox="0 0 341 341" fill="none" xmlns="http://www.w3.org/2000/svg">
<path d="M164.28 186.71C162.5 182.82 163.21 178.06 166.41 174.85C174.75 166.51 189.33 166.85 189.33 166.85C189.33 166.85 189.67 181.43 181.33 189.77C177.21 193.89 170.53 193.89 166.41 189.77" stroke="#EFF4F9" stroke-width="3"/>
<path d="M189.33 166.859L158.67 197.519" stroke="#EFF4F9" stroke-width="3"/>
<path d="M169.56 172.27L171.97 184.22" stroke="#EFF4F9" stroke-width="3"/>
<path d="M186.95 180.57L177.51 178.67" stroke="#EFF4F9" stroke-width="3"/>
<path d="M142.1 199.82C138.84 194.19 136.98 187.66 136.98 180.69C136.98 163.79 147.94 149.45 163.13 144.39" stroke="#EFF4F9" stroke-width="3" stroke-miterlimit="10"/>
<path d="M208.371 199.819C201.751 211.249 189.391 218.949 175.231 218.949C165.591 218.949 156.781 215.379 150.051 209.489" stroke="#EFF4F9" stroke-width="3" stroke-miterlimit="10"/>
<path d="M175.23 142.43C196.36 142.43 213.49 159.56 213.49 180.69C213.49 183.32 213.23 185.88 212.72 188.36" stroke="#EFF4F9" stroke-width="3" stroke-miterlimit="10"/>
<path d="M182.45 151.34L175.23 142.43L184.14 135.22" stroke="#EFF4F9" stroke-width="3" stroke-miterlimit="10"/>
<path d="M146.21 189.12L142.1 199.82L131.4 195.71" stroke="#EFF4F9" stroke-width="3" stroke-miterlimit="10"/>
<path d="M197.051 201.609L208.371 199.819L210.161 211.139" stroke="#EFF4F9" stroke-width="3" stroke-miterlimit="10"/>
<path d="M220.83 144.38C223.59 147.85 225.97 151.64 227.9 155.68" stroke="#EFF4F9" stroke-width="3" stroke-miterlimit="10"/>
<path d="M158.94 124.72C164.11 123.22 169.58 122.41 175.24 122.41C185.99 122.41 196.06 125.32 204.7 130.39" stroke="#EFF4F9" stroke-width="3" stroke-miterlimit="10"/>
<path d="M175.23 70.3195C177.66 70.3195 179.63 68.3496 179.63 65.9195C179.63 63.4895 177.66 61.5195 175.23 61.5195C172.8 61.5195 170.83 63.4895 170.83 65.9195C170.83 68.3496 172.8 70.3195 175.23 70.3195Z" stroke="#EFF4F9" stroke-width="3" stroke-miterlimit="10"/>
<path d="M168.16 73.1302L152.16 89.4202L150.23 87.7702L158.94 71.6502C160.61 68.5602 163.62 66.4202 167.09 65.8502L170.84 65.2402" stroke="#EFF4F9" stroke-width="3" stroke-miterlimit="10"/>
<path d="M172.531 56.1898L166.421 34.1898L168.811 33.3398L178.421 48.9398C180.261 51.9298 180.611 55.6098 179.371 58.8898L178.021 62.4398" stroke="#EFF4F9" stroke-width="3" stroke-miterlimit="10"/>
<path d="M185.02 68.4502L207.13 74.1602L206.67 76.6502L188.35 77.1702C184.84 77.2702 181.48 75.7302 179.26 73.0102L176.86 70.0702" stroke="#EFF4F9" stroke-width="3" stroke-miterlimit="10"/>
<path d="M173.351 102.189L172.311 122.479" stroke="#EFF4F9" stroke-width="3" stroke-miterlimit="10"/>
<path d="M178.16 122.479L177.12 102.189" stroke="#EFF4F9" stroke-width="3" stroke-miterlimit="10"/>
<path d="M177.121 102.19L177.031 100.42H173.441L173.351 102.19H177.121Z" stroke="#EFF4F9" stroke-width="3" stroke-miterlimit="10"/>
<path d="M176.73 94.4196L175.93 78.8096H174.54L173.74 94.4196H176.73Z" stroke="#EFF4F9" stroke-width="3" stroke-miterlimit="10"/>
<path d="M203.99 245.17L200.08 248.81L207.59 256.87L223.09 262.3C223.96 262.61 224.93 262.4 225.6 261.77L233.03 254.85" stroke="#EFF4F9" stroke-width="3" stroke-miterlimit="10"/>
<path d="M221.371 248.17L210.811 258" stroke="#EFF4F9" stroke-width="3" stroke-miterlimit="10"/>
<path d="M237.771 213.72L241.15 210.57L248.65 218.63" stroke="#EFF4F9" stroke-width="3" stroke-miterlimit="10"/>
<path d="M216.58 233.46L225.04 225.58" stroke="#EFF4F9" stroke-width="3" stroke-miterlimit="10"/>
<path d="M206.47 235.221C204.52 237.041 204.41 240.101 206.23 242.051C208.05 244.001 211.11 244.111 213.06 242.291C215.01 240.471 215.12 237.411 213.3 235.461C211.48 233.511 208.42 233.401 206.47 235.221Z" stroke="#EFF4F9" stroke-width="3" stroke-miterlimit="10"/>
<path d="M227.51 215.62C225.56 217.44 225.45 220.5 227.27 222.45C229.09 224.4 232.15 224.51 234.1 222.69C236.05 220.87 236.16 217.81 234.34 215.86C232.53 213.91 229.46 213.8 227.51 215.62Z" stroke="#EFF4F9" stroke-width="3" stroke-miterlimit="10"/>
<path d="M252.728 214.172L221.875 242.904L237.624 259.816L268.477 231.084L252.728 214.172Z" stroke="#EFF4F9" stroke-width="3" stroke-miterlimit="10"/>
<path d="M55.7305 162.31L63.8005 155.73V163.53L71.8705 156.94" stroke="#EFF4F9" stroke-width="2.8" stroke-miterlimit="10"/>
<path d="M60.7998 183.821L68.8698 177.241V185.031L88.2498 169.221" stroke="#EFF4F9" stroke-width="2.8" stroke-miterlimit="10"/>
<path d="M54.2803 194.11C52.3403 194.82 50.9504 196.68 50.9504 198.87C50.9504 201.67 53.2204 203.94 56.0204 203.94C58.8204 203.94 61.0904 201.67 61.0904 198.87V179.68C61.0904 176.4 58.4304 173.74 55.1504 173.74C51.8704 173.74 49.2104 176.4 49.2104 179.68C49.2104 180.03 49.2504 180.37 49.3104 180.71C49.2804 180.71 49.2504 180.71 49.2104 180.71C44.3204 180.71 40.3604 184.67 40.3604 189.56C40.3604 193.99 43.6104 197.66 47.8604 198.31" stroke="#EFF4F9" stroke-width="3" stroke-miterlimit="10"/>
<path d="M61.0098 199.66L80.3198 183.92" stroke="#EFF4F9" stroke-width="3" stroke-miterlimit="10"/>
<path d="M63.7998 173.4L83.3798 157.42" stroke="#EFF4F9" stroke-width="3" stroke-miterlimit="10"/>
<path d="M73.4004 173.531L81.3404 167.051" stroke="#EFF4F9" stroke-width="3" stroke-miterlimit="10"/>
<path d="M68.8701 201.27L76.1101 195.36" stroke="#EFF4F9" stroke-width="3" stroke-miterlimit="10"/>
<path d="M44.2802 177.38C39.7002 177.38 35.9902 173.67 35.9902 169.09C35.9902 164.88 39.1302 161.4 43.1902 160.87C43.1902 160.87 43.1602 160.46 43.1602 160.25C43.1602 156.84 45.9302 154.07 49.3402 154.07C52.7502 154.07 55.5202 156.84 55.5202 160.25V172.87" stroke="#EFF4F9" stroke-width="3" stroke-miterlimit="10"/>
<path d="M102.866 163.289L100.082 172.57L108.961 175.234L111.745 165.952L102.866 163.289Z" stroke="#EFF4F9" stroke-width="3" stroke-miterlimit="10"/>
<path d="M124.96 151.18L108.02 146.1L105.25 155.35L120.75 160" stroke="#EFF4F9" stroke-width="3" stroke-miterlimit="10"/>
<path d="M111.32 129.229L81.8301 152.669L93.5501 188.469" stroke="#EFF4F9" stroke-width="3" stroke-miterlimit="10"/>
<path d="M103.3 135.64L130.18 143.7" stroke="#EFF4F9" stroke-width="3" stroke-miterlimit="10"/>
<path d="M93.4898 151.539L89.2598 154.899L90.9398 160.029" stroke="#EFF4F9" stroke-width="3" stroke-miterlimit="10"/>
<path d="M204.189 130.079L230.699 115.159" stroke="#EFF4F9" stroke-width="3" stroke-miterlimit="10"/>
<path d="M196.75 125.489L223.25 110.569" stroke="#EFF4F9" stroke-width="3" stroke-miterlimit="10"/>
<path d="M206.97 110.96L229.31 124.72" stroke="#EFF4F9" stroke-width="3" stroke-miterlimit="10"/>
<path d="M198.13 115.93L220.48 129.69" stroke="#EFF4F9" stroke-width="3" stroke-miterlimit="10"/>
<path d="M189.3 120.899L211.64 134.659L238.15 119.749L215.8 105.979L189.3 120.899Z" stroke="#EFF4F9" stroke-width="3" stroke-miterlimit="10"/>
<path d="M215.319 140.12L244.529 123.68" stroke="#EFF4F9" stroke-width="3" stroke-miterlimit="10"/>
<path d="M225.04 150.399L228.96 132.449" stroke="#EFF4F9" stroke-width="3" stroke-miterlimit="10"/>
<path d="M148.08 62.4797C148.33 60.4897 148.81 58.5397 149.48 56.6797" stroke="#EFF4F9" stroke-width="3" stroke-miterlimit="10"/>
<path d="M153.23 82.2097C151.29 79.5897 149.79 76.5797 148.86 73.2497C148.3 71.2297 147.98 69.1997 147.88 67.1797" stroke="#EFF4F9" stroke-width="3" stroke-miterlimit="10"/>
<path d="M200.331 76.8301C198.181 81.7701 194.591 86.0501 189.931 89.0101" stroke="#EFF4F9" stroke-width="3" stroke-miterlimit="10"/>
<path d="M172.13 38.7298C180.35 37.7798 188.38 40.6398 194.14 46.1298" stroke="#EFF4F9" stroke-width="3" stroke-miterlimit="10"/>
<path d="M294.55 174.44C299.858 174.44 304.16 170.137 304.16 164.83C304.16 159.522 299.858 155.22 294.55 155.22C289.243 155.22 284.94 159.522 284.94 164.83C284.94 170.137 289.243 174.44 294.55 174.44Z" stroke="#EFF4F9" stroke-width="3" stroke-miterlimit="10"/>
<path d="M293.311 155.3C293.731 158.39 294.961 162.83 300.191 165.23C300.191 165.23 300.311 169.22 295.441 171.01" stroke="#EFF4F9" stroke-width="3" stroke-miterlimit="10"/>
<path d="M261.08 162.63L262.87 175.88" stroke="#EFF4F9" stroke-width="3" stroke-miterlimit="10" stroke-linejoin="bevel"/>
<path d="M281.9 170.42L275.13 167.46L261.97 169.24" stroke="#EFF4F9" stroke-width="3" stroke-miterlimit="10" stroke-linejoin="bevel"/>
<path d="M280.87 162.81L275.13 167.46" stroke="#EFF4F9" stroke-width="3" stroke-miterlimit="10"/>
<path d="M229.83 160.259C230.57 162.239 231.21 164.279 231.73 166.359L275.99 160.529L275.94 160.139C267.73 155.929 255.42 156.889 251.6 158.189" stroke="#EFF4F9" stroke-width="3" stroke-miterlimit="10"/>
<path d="M241.191 178.42L233.51 179.43C233.56 181.69 233.481 183.93 233.271 186.14" stroke="#EFF4F9" stroke-width="3" stroke-miterlimit="10"/>
<path d="M262.09 180.899C270.93 181.339 273.85 178.819 277.8 174.299L277.71 173.609L257.96 176.209" stroke="#EFF4F9" stroke-width="3" stroke-miterlimit="10"/>
<path d="M257.21 176.529L259.06 176.609C260.69 176.679 261.95 178.049 261.88 179.679L261.77 182.279C261.7 183.909 260.33 185.169 258.7 185.099L256.85 185.019" stroke="#EFF4F9" stroke-width="3" stroke-miterlimit="10"/>
<path d="M256.533 192.428L257.509 169.109L241.733 168.449L240.757 191.768L256.533 192.428Z" stroke="#EFF4F9" stroke-width="3" stroke-miterlimit="10"/>
<path d="M256.54 192.44L252.33 188.5C251.19 187.44 250.58 185.93 250.64 184.38L250.8 180.52L250.96 176.66C251.02 175.11 251.76 173.66 252.99 172.69L257.51 169.12" stroke="#EFF4F9" stroke-width="3" stroke-miterlimit="10"/>
<path d="M90.3906 178.709L117.271 186.769C115.991 174.659 118.481 162.049 125.201 150.799C132.211 139.069 142.681 130.699 154.541 126.209C153.271 122.409 153.241 119.449 155.341 115.939" stroke="#EFF4F9" stroke-width="3" stroke-miterlimit="10"/>
<path d="M122.6 124.04C130.189 124.04 136.34 117.888 136.34 110.3C136.34 102.711 130.189 96.5596 122.6 96.5596C115.012 96.5596 108.86 102.711 108.86 110.3C108.86 117.888 115.012 124.04 122.6 124.04Z" stroke="#EFF4F9" stroke-width="3" stroke-miterlimit="10"/>
<path d="M123.53 111.55L140.33 134.02" stroke="#EFF4F9" stroke-width="3" stroke-miterlimit="10"/>
<path d="M125.86 131.169L136.45 128.829" stroke="#EFF4F9" stroke-width="3" stroke-miterlimit="10"/>
<path d="M274.25 132.06C275.25 130.27 275.35 128.18 274.34 126.5C273.28 124.75 271.48 124.27 269.3 123.89C269.97 121.79 270.39 119.97 269.33 118.21C268.32 116.53 266.42 115.65 264.37 115.7" stroke="#EFF4F9" stroke-width="3" stroke-miterlimit="10"/>
<path d="M70.9101 122.591C74.9583 122.591 78.2401 119.309 78.2401 115.261C78.2401 111.212 74.9583 107.931 70.9101 107.931C66.8618 107.931 63.5801 111.212 63.5801 115.261C63.5801 119.309 66.8618 122.591 70.9101 122.591Z" stroke="#EFF4F9" stroke-width="3" stroke-miterlimit="10"/>
<path d="M60.3897 108.45L53.9697 104.29" stroke="#EFF4F9" stroke-width="3" stroke-miterlimit="10"/>
<path d="M87.8499 126.23L81.4199 122.07" stroke="#EFF4F9" stroke-width="3" stroke-miterlimit="10"/>
<path d="M58.6499 117.88L51.1699 119.48" stroke="#EFF4F9" stroke-width="3" stroke-miterlimit="10"/>
<path d="M90.6402 111.04L83.1602 112.64" stroke="#EFF4F9" stroke-width="3" stroke-miterlimit="10"/>
<path d="M64.0895 125.78L59.9395 132.2" stroke="#EFF4F9" stroke-width="3" stroke-miterlimit="10"/>
<path d="M81.8797 98.3203L77.7197 104.74" stroke="#EFF4F9" stroke-width="3" stroke-miterlimit="10"/>
<path d="M73.5303 127.521L75.1303 135.001" stroke="#EFF4F9" stroke-width="3" stroke-miterlimit="10"/>
<path d="M66.6797 95.5303L68.2797 103.01" stroke="#EFF4F9" stroke-width="3" stroke-miterlimit="10"/>
<path d="M298.69 212.71L300.84 203.6C302.28 197.5 298.5 191.39 292.4 189.94C291.52 189.73 290.64 189.64 289.77 189.65L283.84 182.2L282.12 192.62C280.5 194.11 279.28 196.08 278.74 198.38L276.59 207.49C275.15 213.59 278.93 219.7 285.03 221.15C291.13 222.59 297.24 218.81 298.69 212.71Z" stroke="#EFF4F9" stroke-width="3" stroke-miterlimit="10"/>
<path d="M290.461 200.44C291.289 200.44 291.961 199.769 291.961 198.94C291.961 198.112 291.289 197.44 290.461 197.44C289.633 197.44 288.961 198.112 288.961 198.94C288.961 199.769 289.633 200.44 290.461 200.44Z" fill="#EFF4F9" stroke="#EFF4F9" stroke-width="3" stroke-miterlimit="10"/>
<path d="M288.91 207.021C289.739 207.021 290.41 206.349 290.41 205.52C290.41 204.692 289.739 204.021 288.91 204.021C288.082 204.021 287.41 204.692 287.41 205.52C287.41 206.349 288.082 207.021 288.91 207.021Z" fill="#EFF4F9" stroke="#EFF4F9" stroke-width="3" stroke-miterlimit="10"/>
<path d="M287.351 213.591C288.179 213.591 288.851 212.919 288.851 212.091C288.851 211.262 288.179 210.591 287.351 210.591C286.522 210.591 285.851 211.262 285.851 212.091C285.851 212.919 286.522 213.591 287.351 213.591Z" fill="#EFF4F9"/>
<path d="M150.05 128.12C150.05 128.12 147.69 122.88 144.7 121.13" stroke="#EFF4F9" stroke-width="3" stroke-miterlimit="10"/>
<path d="M232.38 192.18C227.85 214.83 210.19 232.75 187.67 237.64" stroke="#EFF4F9" stroke-width="3" stroke-miterlimit="10"/>
<path d="M131.551 230.26L137.031 224.71C135.841 223.67 134.691 222.59 133.591 221.47" stroke="#EFF4F9" stroke-width="3" stroke-miterlimit="10"/>
<path d="M126.15 224.929L131.63 219.379C130.61 218.229 129.65 217.049 128.73 215.829" stroke="#EFF4F9" stroke-width="3" stroke-miterlimit="10"/>
<path d="M170.571 245.26L170.701 238.79C168.831 238.65 166.991 238.41 165.181 238.1" stroke="#EFF4F9" stroke-width="3" stroke-miterlimit="10"/>
<path d="M176.261 245.38L176.401 238.95C178.221 238.91 180.021 238.79 181.801 238.59" stroke="#EFF4F9" stroke-width="3" stroke-miterlimit="10"/>
<path d="M181.36 297.93C181.47 292.91 177.49 288.76 172.47 288.65C167.45 288.54 163.3 292.52 163.19 297.54" stroke="#EFF4F9" stroke-width="3" stroke-miterlimit="10"/>
<path d="M181.26 281.97C183.35 283.18 185.15 284.79 186.56 286.66C186.56 286.66 183.5 289.24 182.31 295.62C181.4 300.51 180.46 302.65 178.04 304.76C176.42 306.09 174.33 306.87 172.07 306.82C169.81 306.77 167.76 305.9 166.2 304.5C163.87 302.29 163.03 300.11 162.33 295.18C161.42 288.75 158.48 286.04 158.48 286.04C160.39 283.72 162.92 281.87 165.85 280.75" stroke="#E30613" stroke-width="3" stroke-miterlimit="10"/>
<path d="M163.19 297.529C166.24 298.019 169.05 299.369 170.39 301.209C170.39 301.209 173.7 295.589 181.38 296.709" stroke="#E30613" stroke-width="3" stroke-miterlimit="10"/>
<path d="M172.9 245.31L168.86 245.22C166.68 258.36 164.96 267.94 169 271.78C168.47 279.05 166.44 282.39 168.38 284.91" stroke="#EFF4F9" stroke-width="3" stroke-miterlimit="10"/>
<path d="M172.9 245.31L177.98 245.42C179.59 258.65 180.89 268.29 176.68 271.95C176.89 279.24 178.77 282.66 176.73 285.1" stroke="#EFF4F9" stroke-width="3" stroke-miterlimit="10"/>
<path d="M176.68 271.949L168.99 271.779" stroke="#EFF4F9" stroke-width="3" stroke-miterlimit="10"/>
<path d="M176.73 285.1C180.29 281.67 187.72 277.8 194.83 283.48" stroke="#EFF4F9" stroke-width="3" stroke-miterlimit="10"/>
<path d="M129.381 297.579C134.401 297.579 138.471 293.51 138.471 288.489C138.471 283.469 134.401 279.399 129.381 279.399C124.361 279.399 120.291 283.469 120.291 288.489C120.291 293.51 124.361 297.579 129.381 297.579Z" stroke="#EFF4F9" stroke-width="3" stroke-miterlimit="10"/>
<path d="M128.061 297.47L128.501 292.3C124.001 291.28 120.101 285.72 123.561 281.5" stroke="#EFF4F9" stroke-width="3" stroke-miterlimit="10"/>
<path d="M131.591 292.68C133.111 292.86 138.491 292.37 138.471 288.59" stroke="#EFF4F9" stroke-width="3" stroke-miterlimit="10"/>
<path d="M168.371 284.91C164.961 281.32 161.271 266.86 157.371 265.83C153.621 267.67 140.601 277.46 140.601 277.46L139.651 277.05L157.131 236.09C158.931 236.68 160.761 237.18 162.631 237.59" stroke="#EFF4F9" stroke-width="3" stroke-miterlimit="10"/>
<path d="M107.091 256.65C110.973 256.65 114.121 253.502 114.121 249.62C114.121 245.737 110.973 242.59 107.091 242.59C103.208 242.59 100.061 245.737 100.061 249.62C100.061 253.502 103.208 256.65 107.091 256.65Z" stroke="#EFF4F9" stroke-width="3" stroke-miterlimit="10"/>
<path d="M100.19 250.909C103.29 249.519 108.76 248.379 113 253.419" stroke="#EFF4F9" stroke-width="3" stroke-miterlimit="10"/>
<path d="M103.17 255.63C100.14 258.7 101.52 262.47 103.86 263.82C108.18 266.31 113.83 259.94 119.27 258.69C118.6 255.28 116.38 254.09 116.38 254.09" stroke="#EFF4F9" stroke-width="3" stroke-miterlimit="10"/>
<path d="M88.9902 239.35L94.8402 243.25" stroke="#EFF4F9" stroke-width="3" stroke-miterlimit="10"/>
<path d="M87.4707 249.77L94.3707 248.39" stroke="#EFF4F9" stroke-width="3" stroke-miterlimit="10"/>
<path d="M98.0107 233.939L99.4007 240.829" stroke="#EFF4F9" stroke-width="3" stroke-miterlimit="10"/>
<path d="M117.77 231.59C116.16 234.52 114.42 237.28 112.66 239.06L111.54 238.68C111.54 238.68 112.7 229.89 108.32 224.71" stroke="#EFF4F9" stroke-width="3" stroke-miterlimit="10"/>
<path d="M123.541 239.56C124.011 239.28 124.501 239 124.991 238.72C128.491 236.74 132.241 234.95 134.871 233.54L128.851 227.59L122.831 221.64C121.451 224.29 119.701 228.06 117.761 231.58L121.811 235.59" stroke="#E30613" stroke-width="3" stroke-miterlimit="10"/>
<path d="M123.54 239.56C121.19 240.96 119.05 242.44 117.58 243.92L117.85 244.91C117.85 244.91 125.19 247.49 126.76 254.73C126.08 263.35 129.58 272.75 129.58 272.75L130.45 273.46L148.01 232.21C146.37 231.34 144.77 230.39 143.22 229.37" stroke="#EFF4F9" stroke-width="3" stroke-miterlimit="10"/>
<path d="M102.801 216.36C105.855 216.36 108.331 213.884 108.331 210.83C108.331 207.776 105.855 205.3 102.801 205.3C99.7464 205.3 97.2705 207.776 97.2705 210.83C97.2705 213.884 99.7464 216.36 102.801 216.36Z" stroke="#EFF4F9" stroke-width="3" stroke-miterlimit="10"/>
<path d="M119.43 209.32L122.95 206.45C122.18 204.88 121.47 203.27 120.84 201.61C120.21 199.96 119.65 198.3 119.18 196.64C117.18 196.09 110.4 196.44 106.07 204.5C109.68 207.54 113.67 203.33 116.81 206.96" stroke="#EFF4F9" stroke-width="3" stroke-miterlimit="10"/>
<path d="M121.9 213.71L126.07 209.93" stroke="#EFF4F9" stroke-width="3" stroke-miterlimit="10"/>
<path d="M108.641 211.489C110.951 211.319 113.961 212.669 117.481 211.109" stroke="#EFF4F9" stroke-width="3" stroke-miterlimit="10"/>
<path d="M224.011 281.04C218.171 280.17 215.561 286.72 221.991 294.61C230.441 288.93 229.851 281.91 224.011 281.04Z" stroke="#EFF4F9" stroke-width="3" stroke-miterlimit="10"/>
<path d="M223.001 287.83L224.581 277.26" stroke="#EFF4F9" stroke-width="3" stroke-miterlimit="10"/>
<path d="M210.32 282.089C207.56 289.279 211.16 297.339 218.35 300.099C225.54 302.859 233.6 299.259 236.36 292.069C238.77 285.769 236.31 278.799 230.83 275.319L230.75 267.729L225.56 273.319C219.18 272.279 212.73 275.809 210.32 282.089Z" stroke="#EFF4F9" stroke-width="3" stroke-miterlimit="10"/>
<path d="M235.87 73.6095C235.82 71.0895 236.53 68.5295 238.06 66.2895C241.98 60.5495 249.81 59.0695 255.55 62.9795C260.85 66.5995 262.52 73.5495 259.66 79.1195" stroke="#EFF4F9" stroke-width="3" stroke-miterlimit="10"/>
<path d="M253.86 77.3599C255.69 77.2199 257.58 77.6799 259.22 78.7899C263.04 81.3999 264.03 86.6099 261.42 90.4299C258.81 94.2499 253.6 95.2399 249.78 92.6299L230.17 79.2499C227.26 77.2599 226.5 73.2899 228.49 70.3699C230.37 67.6099 234.03 66.7899 236.89 68.3999" stroke="#EFF4F9" stroke-width="3" stroke-miterlimit="10"/>
<path d="M63.08 246.979C62.21 248.839 62.25 250.929 63.37 252.529C64.55 254.199 66.38 254.559 68.58 254.789C68.05 256.929 67.76 258.78 68.94 260.45C70.07 262.06 72.02 262.799 74.06 262.609" stroke="#EFF4F9" stroke-width="3" stroke-miterlimit="10"/>
<path d="M65.2199 217.84C63.9999 219.49 63.6199 221.55 64.4099 223.34C65.2299 225.21 66.9599 225.92 69.0699 226.58C68.1299 228.58 67.4799 230.33 68.3099 232.2C69.0999 234 70.8699 235.11 72.9099 235.33" stroke="#EFF4F9" stroke-width="3" stroke-miterlimit="10"/>
<path d="M104.3 64.06L103.34 68.5L98.9004 67.54C95.4204 66.79 91.9904 68.99 91.2404 72.47C90.4904 75.95 92.6904 79.38 96.1704 80.13L100.61 81.09L113.21 83.82L115.94 71.23L116.9 66.79C117.65 63.31 115.45 59.88 111.97 59.13C108.49 58.38 105.06 60.58 104.3 64.06Z" stroke="#E30613" stroke-width="3" stroke-miterlimit="10"/>
</svg>
