<svg width="302" height="231" viewBox="0 0 302 231" fill="none" xmlns="http://www.w3.org/2000/svg">
<path d="M271.711 140.058L282.129 136.067" stroke="#E30613" stroke-width="3"/>
<path d="M273.152 132.744L283.571 128.753" stroke="#E30613" stroke-width="3"/>
<path d="M274.593 125.427L285.012 121.436" stroke="#E30613" stroke-width="3"/>
<path d="M212.381 95.8867C216.274 106.516 218.398 117.997 218.398 129.974C218.398 140.15 216.865 149.967 214.017 159.208" stroke="#EFF4F9" stroke-width="3"/>
<path d="M81.0596 38.4629C92.8154 33.5499 105.72 30.8359 119.258 30.8359C136.056 30.8359 151.878 35.0149 165.742 42.3869" stroke="#EFF4F9" stroke-width="3"/>
<path d="M28.4277 90.1867C33.7744 77.9987 41.502 67.0897 51.0234 58.0547" stroke="#EFF4F9" stroke-width="3"/>
<path d="M70.3057 178.693L67.4844 195.589" stroke="#EFF4F9" stroke-width="3"/>
<path d="M186.172 152.088L194.196 104.036C194.236 103.796 194.259 103.557 194.267 103.321" stroke="#EFF4F9" stroke-width="3"/>
<path d="M126.879 198.775L171.68 206.254C174.608 206.744 177.378 204.766 177.866 201.838L184.079 164.627" stroke="#EFF4F9" stroke-width="3"/>
<path d="M194.315 168.596L186.699 214.212C186.211 217.14 183.44 219.117 180.513 218.627L72.1082 200.53C69.1815 200.04 67.2039 197.271 67.6922 194.343C68.1815 191.414 70.951 189.438 73.8777 189.927L87.6512 192.226" stroke="#EFF4F9" stroke-width="3"/>
<path d="M204.329 108.613L196.624 154.76" stroke="#EFF4F9" stroke-width="3"/>
<path fill-rule="evenodd" clip-rule="evenodd" d="M192.353 75.958C192.353 72.116 189.234 68.998 185.393 68.998C181.552 68.998 178.433 72.116 178.433 75.958C178.433 79.799 181.552 82.918 185.393 82.918C189.234 82.918 192.353 79.799 192.353 75.958Z" stroke="#EFF4F9" stroke-width="3"/>
<path fill-rule="evenodd" clip-rule="evenodd" d="M181.039 49.4423C181.039 47.8803 179.772 46.6123 178.21 46.6123C176.648 46.6123 175.379 47.8803 175.379 49.4423C175.379 51.0043 176.648 52.2723 178.21 52.2723C179.772 52.2723 181.039 51.0043 181.039 49.4423Z" stroke="#E30613" stroke-width="3"/>
<path d="M172.069 105.467C175.052 106.25 178.213 106.529 181.482 106.196C200.99 104.199 229.367 86.9069 229.367 86.9069L223.381 76.9319L219.17 74.9369L219.835 70.5029L215.622 64.5169L210.301 58.0879" stroke="#E30613" stroke-width="3"/>
<path d="M166.282 45.4482C160.089 50.8092 154.416 56.8962 151.553 62.9652C148.577 69.2682 148.304 76.1872 150.031 82.6112" stroke="#E30613" stroke-width="3"/>
<path d="M196.637 34.2795L193.896 30.3765L191.458 27.9365C191.162 28.0365 184.854 31.5495 177.221 36.9435" stroke="#E30613" stroke-width="3"/>
<path d="M156.54 81.9747C154.671 77.4607 152.221 65.6607 166.925 53.8027" stroke="#EFF4F9" stroke-width="3"/>
<path d="M177.602 100.209C181.431 100.592 187.096 99.3584 192.611 97.5664" stroke="#EFF4F9" stroke-width="3"/>
<path fill-rule="evenodd" clip-rule="evenodd" d="M209.776 65.3802C208.048 66.1932 206.761 66.5702 204.95 66.4972C201.096 66.3412 198.1 63.0902 198.255 59.2352C198.413 55.3832 201.664 52.3862 205.518 52.5432C206.53 52.5842 207.481 52.8432 208.333 53.2662C207.011 41.4362 206.236 32.1582 206.236 32.1582C190.754 36.4102 164.729 38.0152 164.729 38.0152C167.859 48.3492 171.575 93.2322 171.575 93.2322C180.725 91.0892 203.165 88.4102 213.296 87.6932C211.954 80.9852 210.8 73.3522 209.776 65.3802Z" stroke="#EFF4F9" stroke-width="3"/>
<path d="M175.135 161.157C165.541 183.713 143.177 199.528 117.12 199.528C82.3174 199.528 54.1045 171.314 54.1045 136.511C54.1045 101.708 82.3174 73.4941 117.12 73.4941C151.923 73.4941 180.137 101.708 180.137 136.511C180.137 141.2 179.625 145.77 178.653 150.168" stroke="#EFF4F9" stroke-width="3"/>
<path d="M168.453 158.197C159.995 178.192 140.197 192.222 117.12 192.222C86.3526 192.222 61.4102 167.28 61.4102 136.512C61.4102 129.397 62.7442 122.593 65.1758 116.339" stroke="#EFF4F9" stroke-width="3"/>
<path d="M171.742 125.498C172.456 129.059 172.83 132.741 172.83 136.512C172.83 140.577 172.395 144.541 171.568 148.357" stroke="#EFF4F9" stroke-width="3"/>
<path d="M69.5977 107.426C79.3926 91.4538 97.0137 80.8008 117.121 80.8008C141.792 80.8008 162.718 96.8388 170.042 119.056" stroke="#EFF4F9" stroke-width="3"/>
<path fill-rule="evenodd" clip-rule="evenodd" d="M158.993 145.146L156.214 153.818C156.214 153.818 213.362 175.989 217.095 177.418C220.828 178.846 226.909 178.032 228.752 172.277C230.595 166.524 226.121 162.326 222.253 161.32C218.385 160.314 158.993 145.146 158.993 145.146Z" stroke="#EFF4F9" stroke-width="3"/>
<path d="M207.206 163.092C207.206 163.092 215.635 165.079 218.742 165.914C222.117 166.821 223.931 168.611 223.267 171.046" stroke="#EFF4F9" stroke-width="3"/>
<path d="M105.419 165.133C104.557 166.011 104.062 166.674 103.955 167.89C103.765 170.068 106.166 172.679 109.593 171.483C114.437 169.792 117.428 162.631 110.15 155.487C102.873 148.343 95.7695 151.466 94.168 156.341C93.0352 159.788 95.6904 162.142 97.8643 161.91C99.0784 161.781 99.7324 161.274 100.593 160.396" stroke="#EFF4F9" stroke-width="3"/>
<path d="M106.787 163.954C106.787 163.954 100.205 169.317 96.6914 174.895L93.8438 172.1L90.9951 169.306C96.5088 165.687 101.748 159.009 101.748 159.009" stroke="#EFF4F9" stroke-width="3"/>
<path d="M98.2612 121.9C97.6557 120.83 97.1547 120.171 96.016 119.732C93.975 118.947 90.8031 120.533 91.0053 124.157C91.2914 129.28 97.3481 134.133 106.224 129.112C115.101 124.092 114.062 116.401 109.82 113.516C106.819 111.475 103.824 113.378 103.445 115.53C103.234 116.732 103.545 117.5 104.147 118.571C104.665 119.496 105.219 120.327 105.219 120.327" stroke="#EFF4F9" stroke-width="3"/>
<path d="M99.0163 123.543C99.0163 123.543 95.6806 115.735 91.29 110.816L94.7646 108.853L98.2372 106.888C98.8378 108.823 99.7243 110.815 100.663 112.646" stroke="#EFF4F9" stroke-width="3"/>
<path fill-rule="evenodd" clip-rule="evenodd" d="M125.392 160.643C125.392 158.091 125.711 152.924 128.964 149.67C128.964 149.67 136.588 151.105 139.746 156.177C139.746 156.177 137.45 162.111 133.367 164.311C131.36 164.013 127.744 162.649 125.392 160.643Z" stroke="#E30613" stroke-width="3"/>
<path fill-rule="evenodd" clip-rule="evenodd" d="M114.791 97.8767C116.459 103.657 120.776 104.904 122.446 105.31C122.446 105.31 127.814 102.006 126.575 94.5737C122.722 92.9217 116.625 94.5137 114.791 97.8767Z" stroke="#EFF4F9" stroke-width="3"/>
<path fill-rule="evenodd" clip-rule="evenodd" d="M75.5703 143.915C73.2139 142.768 71.4619 140.955 70.4951 139.021C70.4951 139.021 71.9863 135.739 75.6914 134.128C75.6914 134.128 80.0401 135.337 80.7656 139.928C79.4365 141.86 77.5703 143.392 75.5703 143.915Z" stroke="#EFF4F9" stroke-width="3"/>
<path d="M85.4746 146.654C86.4043 145.18 87.5283 142.183 87.4072 139.404" stroke="#E30613" stroke-width="3"/>
<path d="M151.823 131.763C151.205 126.825 151.329 118.551 152.317 112.5" stroke="#EFF4F9" stroke-width="3"/>
<path d="M137.252 117.81C138.734 115.957 141.574 109.166 141.821 105.585" stroke="#EFF4F9" stroke-width="3"/>
<path d="M124.518 134.571C129.122 128.432 137.309 125.362 142.937 125.873" stroke="#EFF4F9" stroke-width="3"/>
<path d="M79.3584 109.074C83.1465 103.871 87.9824 99.4789 93.5576 96.2129" stroke="#E30613" stroke-width="3"/>
<path d="M143.397 175.093C138.65 178.332 133.275 180.718 127.492 182.03" stroke="#EFF4F9" stroke-width="3"/>
<path d="M136.006 140.918C140.662 142.83 145.318 147.069 147.729 150.978" stroke="#EFF4F9" stroke-width="3"/>
<path fill-rule="evenodd" clip-rule="evenodd" d="M82.1426 74.209C82.1426 73.956 81.9375 73.75 81.6836 73.75C81.4297 73.75 81.2236 73.956 81.2236 74.209C81.2236 74.463 81.4297 74.669 81.6836 74.669C81.9375 74.669 82.1426 74.463 82.1426 74.209Z" stroke="#EFF4F9" stroke-width="3"/>
<path fill-rule="evenodd" clip-rule="evenodd" d="M75.7363 69.9473C75.7363 69.6943 75.5303 69.4883 75.2764 69.4883C75.0225 69.4883 74.8174 69.6943 74.8174 69.9473C74.8174 70.2013 75.0225 70.4073 75.2764 70.4073C75.5303 70.4073 75.7363 70.2013 75.7363 69.9473Z" stroke="#EFF4F9" stroke-width="3"/>
<path fill-rule="evenodd" clip-rule="evenodd" d="M80.1445 77.4121C80.1445 77.1581 79.9385 76.9531 79.6846 76.9531C79.4317 76.9531 79.2256 77.1581 79.2256 77.4121C79.2256 77.6651 79.4317 77.8711 79.6846 77.8711C79.9385 77.8711 80.1445 77.6651 80.1445 77.4121Z" stroke="#EFF4F9" stroke-width="3"/>
<path fill-rule="evenodd" clip-rule="evenodd" d="M88.874 71.2217C88.874 70.9677 88.668 70.7617 88.4141 70.7617C88.1611 70.7617 87.9551 70.9677 87.9551 71.2217C87.9551 71.4757 88.1611 71.6807 88.4141 71.6807C88.668 71.6807 88.874 71.4757 88.874 71.2217Z" stroke="#E30613" stroke-width="3"/>
<path d="M78.0683 85.7332C77.0419 87.4202 75.0419 88.3752 72.9911 87.9782C70.3564 87.4672 68.6337 84.9182 69.1444 82.2832" stroke="#EFF4F9" stroke-width="3"/>
<path d="M65.8555 98.5889C55.6016 93.3059 48.5869 82.6129 48.5869 70.2829C48.5869 52.7099 62.834 38.4639 80.4082 38.4639C97.9824 38.4639 112.229 52.7099 112.229 70.2829C112.229 71.3819 112.172 72.4679 112.064 73.5369" stroke="#EFF4F9" stroke-width="3"/>
<path d="M98.207 51.6025C102.197 55.4055 104.97 60.4735 105.883 66.1635" stroke="#EFF4F9" stroke-width="3"/>
<path d="M56.1094 78.9775C55.1377 76.2605 54.6074 73.3335 54.6074 70.2835C54.6074 56.0335 66.1592 44.4805 80.4092 44.4805C84.4697 44.4805 88.3115 45.4185 91.7295 47.0905" stroke="#EFF4F9" stroke-width="3"/>
<path d="M69.2704 73.1653C66.9081 73.1653 64.9941 71.2503 64.9941 68.8903C64.9941 66.5283 66.9081 64.6143 69.2704 64.6143C70.6142 64.6143 71.8144 65.2343 72.5985 66.2053" stroke="#EFF4F9" stroke-width="3"/>
<path d="M71.6402 58.6083C65.5748 57.0423 63.4918 63.4523 65.8082 66.1633" stroke="#EFF4F9" stroke-width="3"/>
<path d="M79.0483 57.2745C79.0483 54.6495 76.9203 52.5215 74.2953 52.5215C71.6703 52.5215 68.5854 54.1675 69.35 58.3645" stroke="#EFF4F9" stroke-width="3"/>
<path d="M84.4286 59.9133C83.54 57.6193 80.3192 55.8813 76.8066 58.3653" stroke="#EFF4F9" stroke-width="3"/>
<path d="M96.7559 76.5024C97.2324 74.6564 96.5449 72.7934 95.1651 71.6554C96.2207 70.7844 96.9063 69.4814 96.9063 68.0064C96.9063 66.8214 96.457 65.7524 95.7402 64.9194C97.2041 64.1094 98.207 62.5674 98.207 60.7764C98.207 58.1514 96.0791 56.0234 93.4541 56.0234C90.8281 56.0234 88.9668 57.3124 88.7002 60.7764" stroke="#EFF4F9" stroke-width="3"/>
<path d="M64.8117 69.3105C63.3098 69.7915 62.0764 70.9985 61.6535 72.6405C60.9983 75.1835 62.5285 77.7746 65.0705 78.4296C66.384 78.7686 67.7043 78.5155 68.7707 77.8495C69.7317 78.8815 70.9904 80.3216 74.1809 80.0516C73.9553 83.1076 77.6047 86.4626 81.6838 84.3966" stroke="#EFF4F9" stroke-width="3"/>
<path d="M83.1408 67.2213C82.5569 66.6403 82.134 65.8853 81.9621 65.0163C81.5061 62.7003 83.0158 60.4513 85.3313 59.9953C87.6486 59.5393 89.8967 61.0483 90.3528 63.3663C90.5236 64.2333 90.4182 65.0923 90.0988 65.8503" stroke="#E30613" stroke-width="3"/>
<path d="M167.703 216.49C153.378 224.529 136.853 229.113 119.258 229.113C69.7266 229.113 28.6787 192.787 21.3018 145.323" stroke="#EFF4F9" stroke-width="3"/>
<path d="M208.133 173.951C203.239 183.822 196.749 192.763 189.001 200.432" stroke="#EFF4F9" stroke-width="3"/>
<path d="M96.3164 42.8093C103.641 40.8863 111.33 39.8623 119.258 39.8623C130.165 39.8623 140.619 41.7993 150.296 45.3513" stroke="#EFF4F9" stroke-width="3"/>
<path d="M152.316 213.829C142.081 217.867 130.928 220.086 119.258 220.086C111.6 220.086 104.166 219.131 97.0674 217.333" stroke="#EFF4F9" stroke-width="3"/>
<path d="M87.9541 214.501C83.6621 212.911 79.5244 211.003 75.5693 208.807" stroke="#EFF4F9" stroke-width="3"/>
<path d="M42.127 176.593C38.3818 170.409 35.3604 163.741 33.1777 156.703" stroke="#EFF4F9" stroke-width="3"/>
<path fill-rule="evenodd" clip-rule="evenodd" d="M235.035 212.338L279.17 103.525C280.042 101.375 282.484 100.331 284.64 101.187C286.473 101.912 287.559 103.811 287.258 105.757L280.819 147.422C279.434 156.381 274.113 164.252 266.315 168.875L262.413 171.189C261.597 171.672 260.968 172.417 260.626 173.302L244.188 215.958C243.204 218.511 240.326 219.772 237.782 218.763C235.241 217.755 234.008 214.87 235.035 212.338Z" stroke="#EFF4F9" stroke-width="3"/>
<path d="M267.527 160.709C267.527 160.709 272.796 157.343 275.572 146.281" stroke="#EFF4F9" stroke-width="3"/>
<path fill-rule="evenodd" clip-rule="evenodd" d="M265.614 112.07C265.614 110.61 264.428 109.424 262.968 109.424C261.508 109.424 260.322 110.61 260.322 112.07C260.322 113.53 261.508 114.716 262.968 114.716C264.428 114.716 265.614 113.53 265.614 112.07Z" stroke="#EFF4F9" stroke-width="3"/>
<path fill-rule="evenodd" clip-rule="evenodd" d="M253.878 124.138C253.878 123.825 253.624 123.57 253.31 123.57C252.997 123.57 252.742 123.825 252.742 124.138C252.742 124.451 252.997 124.705 253.31 124.705C253.624 124.705 253.878 124.451 253.878 124.138Z" stroke="#EFF4F9" stroke-width="3"/>
<path fill-rule="evenodd" clip-rule="evenodd" d="M226.611 102.662C226.611 102.349 226.356 102.095 226.043 102.095C225.729 102.095 225.475 102.349 225.475 102.662C225.475 102.976 225.729 103.23 226.043 103.23C226.356 103.23 226.611 102.976 226.611 102.662Z" stroke="#EFF4F9" stroke-width="3"/>
<path fill-rule="evenodd" clip-rule="evenodd" d="M300.416 40.9985C300.416 19.6695 283.1 2.35352 261.771 2.35352C240.443 2.35352 223.127 19.6695 223.127 40.9985C223.127 62.3265 240.443 79.6435 261.771 79.6435C283.1 79.6435 300.416 62.3265 300.416 40.9985Z" stroke="#EFF4F9" stroke-width="3"/>
<path fill-rule="evenodd" clip-rule="evenodd" d="M293.739 40.9992C293.739 23.3562 279.416 9.03223 261.772 9.03223C244.129 9.03223 229.805 23.3562 229.805 40.9992C229.805 58.6422 244.129 72.9662 261.772 72.9662C279.416 72.9662 293.739 58.6422 293.739 40.9992Z" stroke="#EFF4F9" stroke-width="3"/>
<path d="M280.577 34.9268C281.194 36.8398 281.528 38.8798 281.528 40.9988C281.528 51.9088 272.683 60.7538 261.773 60.7538C256.317 60.7538 251.379 58.5428 247.804 54.9678" stroke="#EFF4F9" stroke-width="3"/>
<path d="M261.772 21.2441C267.227 21.2441 272.166 23.4551 275.741 27.0291" stroke="#EFF4F9" stroke-width="3"/>
<path d="M39.6846 126.392C33.1611 136.364 28.7061 148.989 27.4238 154.05L31.501 157.087L37.5518 155.614C37.5518 155.614 43.1055 139.05 50.5654 124.534L47.5742 119.973" stroke="#EFF4F9" stroke-width="3"/>
<path d="M28.1875 119.323C29.2276 119.042 32.5088 118.341 33.5488 118.096" stroke="#EFF4F9" stroke-width="3"/>
<path d="M9.87399 113.803C7.66409 114.79 5.48439 115.917 3.38869 117.205L2.35449 122.288L7.46879 126.746C7.46879 126.746 11.6777 124.847 17.5205 122.73" stroke="#EFF4F9" stroke-width="3"/>
<path d="M43.2167 106.873C41.8876 106.975 31.0663 107.144 20.2939 110.109" stroke="#EFF4F9" stroke-width="3"/>
<path d="M22.6484 127.699C16.1504 121.47 9.18456 113.916 6.45996 108.268L8.72166 103.462L14.832 103.25C14.832 103.25 23.4922 114.428 29.8135 121.156" stroke="#EFF4F9" stroke-width="3"/>
<path d="M33.9483 136.614C33.0703 135.884 32.166 135.118 31.2451 134.326" stroke="#EFF4F9" stroke-width="3"/>
<path d="M54.2695 141.113C50.4219 144.012 45.8233 145.932 40.8652 146.543" stroke="#EFF4F9" stroke-width="3"/>
<path d="M31.9785 91.2748C34.5205 90.7728 37.1758 90.6178 39.8877 90.8578C49.6953 91.7248 57.8731 97.5498 62.169 105.645" stroke="#EFF4F9" stroke-width="3"/>
<path d="M13.9531 103.463C15.127 101.665 16.5 100.014 18.0381 98.54" stroke="#EFF4F9" stroke-width="3"/>
<path d="M15.1406 135.71C13.0049 132.906 11.3926 129.697 10.4326 126.238" stroke="#EFF4F9" stroke-width="3"/>
<path d="M30.1162 145.785C27.7012 145.136 25.4268 144.176 23.3301 142.954" stroke="#EFF4F9" stroke-width="3"/>
<path d="M47.7481 108.951C33.876 115.454 15.3555 133.414 9.32031 143.601L11.3477 148.989L17.9727 149.575C17.9727 149.575 31.5664 130.696 52.6104 116.354L53.9414 112.16" stroke="#E30613" stroke-width="3"/>
<path d="M62.0772 105.473C52.1865 97.8953 30.4629 89.6553 17.3301 87.6143L13.8906 92.5383L14.0947 97.7863C27.2559 99.9523 45.8047 106.872 58.044 114.53" stroke="#EFF4F9" stroke-width="3"/>
</svg>
