<svg width="370" height="200" viewBox="0 0 370 200" fill="none" xmlns="http://www.w3.org/2000/svg">
<path d="M269.93 85.7902C272.923 85.7902 275.35 83.3636 275.35 80.3702C275.35 77.3768 272.923 74.9502 269.93 74.9502C266.936 74.9502 264.51 77.3768 264.51 80.3702C264.51 83.3636 266.936 85.7902 269.93 85.7902Z" stroke="#EFF4F9" stroke-width="3" stroke-miterlimit="10"/>
<path d="M254.95 93.0604C256.64 93.0604 258.01 91.6904 258.01 90.0004C258.01 88.3104 256.64 86.9404 254.95 86.9404C253.26 86.9404 251.89 88.3104 251.89 90.0004C251.89 91.6904 253.26 93.0604 254.95 93.0604Z" stroke="#EFF4F9" stroke-width="3" stroke-miterlimit="10"/>
<path d="M186.97 60.3994L179.62 63.1594L170.04 37.6294L212.63 21.6494L222.21 47.1794L197.77 56.3494" stroke="#EFF4F9" stroke-width="3" stroke-miterlimit="10"/>
<path d="M192.41 64.2397C195.592 64.2397 198.17 61.6609 198.17 58.4797C198.17 55.2986 195.592 52.7197 192.41 52.7197C189.229 52.7197 186.65 55.2986 186.65 58.4797C186.65 61.6609 189.229 64.2397 192.41 64.2397Z" stroke="#EFF4F9" stroke-width="3" stroke-miterlimit="10"/>
<path d="M208.191 34.37C209.881 34.37 211.251 33 211.251 31.31C211.251 29.62 209.881 28.25 208.191 28.25C206.501 28.25 205.131 29.62 205.131 31.31C205.131 33 206.501 34.37 208.191 34.37Z" stroke="#EFF4F9" stroke-width="3" stroke-miterlimit="10"/>
<path d="M199.23 37.7294C200.92 37.7294 202.29 36.3594 202.29 34.6694C202.29 32.9794 200.92 31.6094 199.23 31.6094C197.54 31.6094 196.17 32.9794 196.17 34.6694C196.17 36.3594 197.54 37.7294 199.23 37.7294Z" stroke="#EFF4F9" stroke-width="3" stroke-miterlimit="10"/>
<path d="M191.381 33.6201L194.011 40.6301" stroke="#EFF4F9" stroke-width="3" stroke-miterlimit="10"/>
<path d="M206.04 24.1198L201.46 14.8398L160.65 34.9498L172.71 59.4098L177.35 57.1198" stroke="#EFF4F9" stroke-width="3" stroke-miterlimit="10"/>
<path d="M63.5998 61.96H28.0898" stroke="#EFF4F9" stroke-width="3" stroke-miterlimit="10"/>
<path d="M116.6 45.4002C123.39 38.6102 125.08 26.5002 116.84 17.0302C106.18 4.79024 89.66 10.6802 85.33 13.8102C81.76 8.94024 75.99 5.74023 69.49 5.74023C60.46 5.74023 52.86 11.8402 50.57 20.1402C49.35 19.8102 48.08 19.6202 46.76 19.6202C38.69 19.6202 32.14 26.1602 32.14 34.2302C32.14 36.4202 32.64 38.5002 33.5 40.3702C29.27 44.0602 26.65 49.5502 26.83 55.6502C27.15 66.2402 36.12 74.5302 46.71 74.5302H105.71C114.52 74.5302 122.07 67.7802 122.54 58.9802C122.56 58.6702 122.56 58.3502 122.56 58.0402C122.56 53.3502 121.03 49.8202 116.59 45.3902" stroke="#EFF4F9" stroke-width="3" stroke-miterlimit="10" stroke-linecap="square"/>
<path d="M69.8996 68.2602C73.379 68.2602 76.1996 65.4395 76.1996 61.9602C76.1996 58.4808 73.379 55.6602 69.8996 55.6602C66.4202 55.6602 63.5996 58.4808 63.5996 61.9602C63.5996 65.4395 66.4202 68.2602 69.8996 68.2602Z" stroke="#EFF4F9" stroke-width="3" stroke-miterlimit="10"/>
<path d="M52.8997 61.9605H49.1497C47.4197 61.9605 45.7597 61.2505 44.5497 60.0005L42.0797 57.4405C39.4897 54.7505 39.0197 50.6505 40.9297 47.4405L48.5597 34.6405C50.5397 31.3105 54.1297 29.2705 57.9997 29.2705H103.52C105.67 29.2705 107.41 31.0105 107.41 33.1605V58.0705C107.41 60.2205 105.67 61.9605 103.52 61.9605H83.0397V37.7705H95.2697V61.9605" stroke="#EFF4F9" stroke-width="3" stroke-miterlimit="10"/>
<path d="M89.1699 43.9199V49.9999" stroke="#E30613" stroke-width="3" stroke-miterlimit="10" stroke-linecap="round"/>
<path d="M59.2795 51.0605H39.7695" stroke="#EFF4F9" stroke-width="3" stroke-miterlimit="10"/>
<path d="M107.42 51.0605H95.2803" stroke="#EFF4F9" stroke-width="3" stroke-miterlimit="10"/>
<path d="M73.0298 36.4805H56.5498V44.3005H73.0298V36.4805Z" stroke="#EFF4F9" stroke-width="3" stroke-miterlimit="10"/>
<path d="M89.6696 93.0804C92.906 93.0804 95.5296 90.4567 95.5296 87.2204C95.5296 83.984 92.906 81.3604 89.6696 81.3604C86.4332 81.3604 83.8096 83.984 83.8096 87.2204C83.8096 90.4567 86.4332 93.0804 89.6696 93.0804Z" stroke="#EFF4F9" stroke-width="3" stroke-miterlimit="10"/>
<path d="M102.72 99.9901C104.283 99.9901 105.55 98.723 105.55 97.1601C105.55 95.5971 104.283 94.3301 102.72 94.3301C101.157 94.3301 99.8896 95.5971 99.8896 97.1601C99.8896 98.723 101.157 99.9901 102.72 99.9901Z" stroke="#EFF4F9" stroke-width="3" stroke-miterlimit="10"/>
<path d="M192.63 13.5102C176.96 7.77017 159.3 15.3602 152.57 31.0502C146.43 45.3702 151.47 61.6302 163.77 69.9802L162.11 85.9502L174.77 74.7002C188.72 77.7302 203.34 70.8702 209.92 57.6502" stroke="#EFF4F9" stroke-width="3" stroke-miterlimit="10"/>
<path d="M266.45 57.8893C269.587 57.8893 272.13 55.3463 272.13 52.2093C272.13 49.0723 269.587 46.5293 266.45 46.5293C263.313 46.5293 260.77 49.0723 260.77 52.2093C260.77 55.3463 263.313 57.8893 266.45 57.8893Z" stroke="#EFF4F9" stroke-width="3" stroke-miterlimit="10"/>
<path d="M315.289 57.8893C318.426 57.8893 320.969 55.3463 320.969 52.2093C320.969 49.0723 318.426 46.5293 315.289 46.5293C312.152 46.5293 309.609 49.0723 309.609 52.2093C309.609 55.3463 312.152 57.8893 315.289 57.8893Z" stroke="#EFF4F9" stroke-width="3" stroke-miterlimit="10"/>
<path d="M275.739 54.4492H305.999" stroke="#EFF4F9" stroke-width="3" stroke-miterlimit="10"/>
<path d="M324.009 53.6996L328.069 51.7696L328.679 45.2696C323.899 42.2696 319.899 40.2197 314.449 38.5597C312.929 38.0997 307.379 37.8396 301.649 37.8496L289.949 30.1396" stroke="#EFF4F9" stroke-width="3" stroke-miterlimit="10"/>
<path d="M296.39 39.79H286.72C275.41 39.79 272.31 37.72 270.88 36.79H250.71V42.89L248.27 45.1L249.92 49.41C250.9 51.98 253.37 53.68 256.13 53.68H257.63" stroke="#EFF4F9" stroke-width="3" stroke-miterlimit="10"/>
<path d="M250.71 42.8896H256.65" stroke="#EFF4F9" stroke-width="3" stroke-miterlimit="10"/>
<path d="M277.029 39.0693L275.739 42.8893L279.669 50.8193" stroke="#EFF4F9" stroke-width="3" stroke-miterlimit="10"/>
<path d="M281.35 44.9492H286.03" stroke="#EFF4F9" stroke-width="3" stroke-miterlimit="10"/>
<path d="M278.069 33.4395L281.349 39.6095" stroke="#EFF4F9" stroke-width="3" stroke-miterlimit="10"/>
<path d="M321.44 26.99C321.44 13.99 311.64 5.56999 298.72 5.75999C291.02 5.87999 284.16 9.34999 279.72 14.95C277.32 12.02 273.67 10.15 269.58 10.15C262.34 10.15 256.47 16.02 256.47 23.26C256.47 23.51 256.49 23.75 256.51 23.99C245.86 25.43 237.65 34.55 237.65 45.59C237.65 57.63 247.41 67.4 259.46 67.4H318.58C329.9 67.4 339.6 58.14 339.59 46.82C339.59 36.74 331.79 26.98 321.45 26.98" stroke="#EFF4F9" stroke-width="3" stroke-miterlimit="10" stroke-linecap="square"/>
<path d="M55.1206 112.49C55.8406 111.5 56.2706 110.29 56.2706 108.97C56.2706 105.68 53.6006 103.01 50.3106 103.01C47.0206 103.01 44.3506 105.68 44.3506 108.97C44.3506 110.56 44.9706 112.01 45.9906 113.08" stroke="#E30613" stroke-width="3" stroke-miterlimit="10"/>
<path d="M146.991 79.7207C146.831 82.3607 146.361 85.8607 143.521 87.9007" stroke="#E30613" stroke-width="3" stroke-miterlimit="10"/>
<path d="M121.29 107.21C123.84 109.22 127.06 110.41 130.55 110.41C138.83 110.41 145.54 103.7 145.54 95.4202C145.54 90.8002 143.45 86.6602 140.16 83.9102" stroke="#EFF4F9" stroke-width="3" stroke-miterlimit="10"/>
<path d="M209.28 90.7002C206.91 93.3502 205.48 96.8502 205.48 100.68C205.48 108.41 211.33 114.77 218.84 115.59" stroke="#EFF4F9" stroke-width="3" stroke-miterlimit="10"/>
<path d="M120.111 106.181C117.371 102.541 117.111 94.1406 121.911 89.8206C125.531 86.5606 127.881 86.7006 134.441 86.4806C134.441 86.4806 142.991 85.5406 142.351 76.8906" stroke="#E30613" stroke-width="3" stroke-miterlimit="10"/>
<path d="M127.641 86.9002C129.751 86.9002 136.151 84.1702 136.151 75.7402C129.171 77.0402 124.591 77.0402 121.361 78.8302C116.621 81.4602 115.551 85.3402 115.551 95.4102C115.551 100.2 117.791 104.46 121.281 107.2" stroke="#E30613" stroke-width="3" stroke-miterlimit="10"/>
<path d="M127.7 101.38C130.79 100.58 136.02 100.28 138.94 100.83C138.94 100.83 137.66 105.74 133.61 105.9C128.98 106.08 127.69 101.39 127.69 101.39L127.7 101.38Z" stroke="#EFF4F9" stroke-width="3" stroke-miterlimit="10"/>
<path d="M133.34 125.86L126.34 115.94C126.34 115.94 121.53 116.9 119.16 118.73C116.79 120.56 109.64 130.81 107.92 142.66C107.92 142.66 114.88 142.72 117.46 142.66C119.43 142.61 121.29 137.93 123.28 136.98C124.44 136.43 126.68 136.81 128.42 137.06" stroke="#EFF4F9" stroke-width="3" stroke-miterlimit="10"/>
<path d="M123.54 128.91H137.7V135.58C137.7 139.49 134.53 142.66 130.62 142.66C126.71 142.66 123.54 139.49 123.54 135.58V128.91Z" stroke="#EFF4F9" stroke-width="3" stroke-miterlimit="10"/>
<path d="M137.7 128.91H139.98C142.36 128.91 144.29 130.84 144.29 133.22C144.29 135.6 142.36 137.53 139.98 137.53H137.7" stroke="#EFF4F9" stroke-width="3" stroke-miterlimit="10"/>
<path d="M131.28 122.761L135.6 116.221C137.37 116.701 141.24 118.571 143.21 120.911C145.79 123.971 150.58 136.221 151.76 142.661H150.62C148.07 138.131 147.19 134.911 144.28 134.711" stroke="#EFF4F9" stroke-width="3" stroke-miterlimit="10"/>
<path d="M40.0303 148.29H198.32" stroke="#EFF4F9" stroke-width="3" stroke-miterlimit="10"/>
<path d="M133.41 162.58C134.19 165.88 137.05 177.98 137.69 192.75H144.28" stroke="#EFF4F9" stroke-width="3" stroke-miterlimit="10"/>
<path d="M120.631 148.29C120.631 148.29 119.421 154.09 119.311 162.59H128.671" stroke="#EFF4F9" stroke-width="3" stroke-miterlimit="10"/>
<path d="M112 179.37L118.8 183.3C124.01 171.17 127.52 163.87 132.7 155.99C132.7 155.99 137.41 157.78 141.02 162.37H142.07C142.07 162.37 142.1 155.21 140.99 151.11" stroke="#EFF4F9" stroke-width="3" stroke-miterlimit="10"/>
<path d="M72.9505 106.181C72.9505 106.181 68.7405 105.641 67.1405 107.211C65.5405 108.781 63.4305 112.491 63.4305 112.491H49.7505C42.9705 112.491 37.4805 117.981 37.4805 124.761C37.4805 129.851 40.6205 134.411 45.3805 136.221L45.6505 136.321L42.5305 142.691H47.3205L52.8905 137.701H64.6805L68.9005 142.691H73.6905L71.4205 135.311C75.6305 133.631 83.3005 129.311 83.3005 119.221H78.5805C78.5805 119.221 74.7005 113.911 70.0705 112.901" stroke="#EFF4F9" stroke-width="3" stroke-miterlimit="10"/>
<path d="M37.4803 124.76H35.3603C32.7203 124.76 30.5703 122.62 30.5703 119.97C30.5703 119.4 30.6703 118.85 30.8503 118.34" stroke="#EFF4F9" stroke-width="3" stroke-miterlimit="10"/>
<path d="M184.62 138.99C187.1 137.58 188.93 136.75 188.93 136.75C191.58 138.1 192.96 140.23 194.97 140.23H210.12C216.44 131.99 217.86 127.51 220.21 125.57C222.22 123.9 224.34 124.14 226.16 124.56L221.13 150.01C219.82 156.61 214.04 161.37 207.31 161.37H190.2C187.15 171.96 186.31 180.66 185.99 192.76H179.16" stroke="#EFF4F9" stroke-width="3" stroke-miterlimit="10"/>
<path d="M165.44 173.15L170.37 177.87C176.45 168.35 182.81 160.01 186.71 156.17C186.71 156.17 193.43 155.99 203.92 157.07" stroke="#EFF4F9" stroke-width="3" stroke-miterlimit="10"/>
<path d="M193.28 194.25C193.28 188.89 197.03 167.08 197.03 167.08H217.74C222.55 167.08 226.59 163.49 227.16 158.72L230.69 129.15" stroke="#EFF4F9" stroke-width="3" stroke-miterlimit="10"/>
<path d="M225.63 194.251C225.63 191.981 221.91 177.58 220.41 171.84C220 170.26 219.73 168.651 219.61 167.021" stroke="#EFF4F9" stroke-width="3" stroke-miterlimit="10"/>
<path d="M63.9905 148.29V192.75H50.3105" stroke="#EFF4F9" stroke-width="3" stroke-miterlimit="10"/>
<path d="M174.36 148.29V194.25" stroke="#EFF4F9" stroke-width="3" stroke-miterlimit="10"/>
<path d="M69.9902 192.75H123.99" stroke="#EFF4F9" stroke-width="3" stroke-miterlimit="10"/>
<path d="M178.86 128.99H192V136.86C192 140.06 189.4 142.65 186.21 142.65H184.65C181.45 142.65 178.86 140.05 178.86 136.86V128.99Z" stroke="#EFF4F9" stroke-width="3" stroke-miterlimit="10"/>
<path d="M178.86 128.99H177.09C174.82 128.99 172.98 130.83 172.98 133.1C172.98 135.37 174.82 137.21 177.09 137.21H178.86" stroke="#EFF4F9" stroke-width="3" stroke-miterlimit="10"/>
<path d="M187.561 122.94C184.171 121.47 184.251 117.75 185.811 115.5C187.371 113.25 189.791 113.06 189.791 110.05C189.791 105.81 185.161 106.59 187.971 101.23" stroke="#EFF4F9" stroke-width="3" stroke-miterlimit="10"/>
<path d="M215.03 133.56C210.81 130.44 210.02 125.85 211.52 122.6C215.53 113.87 225.7 118.77 223.99 97.1299" stroke="#EFF4F9" stroke-width="3" stroke-miterlimit="10"/>
<path d="M232.55 86.7198C231.39 84.6698 230.31 83.0398 228.73 82.1698C227.15 81.2998 217.83 80.4598 213.38 82.3298C208.93 84.1998 203.03 90.1698 202.26 94.5798C201.55 98.6198 202.54 100.88 205.68 103.18" stroke="#EFF4F9" stroke-width="3" stroke-miterlimit="10"/>
<path d="M213.381 82.3301C210.831 84.5301 206.301 92.3001 212.101 98.5501C216.961 103.79 224.171 101.31 224.171 101.31" stroke="#EFF4F9" stroke-width="3" stroke-miterlimit="10"/>
<path d="M235.46 129.58C239.31 130.5 244.44 128.94 245.45 124.05C246.46 119.16 242.21 116.82 242.21 116.82C242.21 116.82 246.32 114.06 245.45 109.38C244.6 104.83 240.23 103.64 238.95 100.45C236.7 94.8201 238.45 91.7001 234.12 88.3701" stroke="#EFF4F9" stroke-width="3" stroke-miterlimit="10"/>
<path d="M216.64 108.43C213.64 110.81 209.28 110.67 207.19 107.65" stroke="#EFF4F9" stroke-width="3" stroke-miterlimit="10"/>
<path d="M295.87 163.46C297.48 165.18 299.43 166.33 302.39 166.11C308.88 165.61 310.6 157.1 310.54 155.67" stroke="#EFF4F9" stroke-width="3" stroke-miterlimit="10"/>
<path d="M301.5 162.08L304.88 142.15L324.81 145.54L301.5 162.08Z" stroke="#E30613" stroke-width="3" stroke-miterlimit="10"/>
<path d="M287.34 148.48C294.807 148.48 300.86 142.427 300.86 134.96C300.86 127.494 294.807 121.44 287.34 121.44C279.873 121.44 273.82 127.494 273.82 134.96C273.82 142.427 279.873 148.48 287.34 148.48Z" stroke="#EFF4F9" stroke-width="3" stroke-miterlimit="10"/>
<path d="M268.98 124.42C267.64 123.16 265.83 122.38 263.84 122.38C259.7 122.38 256.34 125.74 256.34 129.88C256.34 133.3 258.63 136.18 261.76 137.09C261.76 137.09 260.24 141.28 263.78 143.88C267.32 146.48 273.01 144.54 274.6 139.49" stroke="#EFF4F9" stroke-width="3" stroke-miterlimit="10"/>
<path d="M264.82 122.351C264.82 120.061 267.56 116.791 272.09 117.861C276.38 118.871 277.29 123.941 276.65 126.911" stroke="#EFF4F9" stroke-width="3" stroke-miterlimit="10"/>
<path d="M288.67 121.5C287.27 116.79 290.52 113.24 294.74 113.74C298.42 114.18 299.48 117.6 299.64 118.85C301.73 118.72 308.38 119.96 308.1 127.67C307.84 134.86 300.88 135.57 300.88 135.57" stroke="#EFF4F9" stroke-width="3" stroke-miterlimit="10"/>
<path d="M274.6 139.48C284.97 142.42 294.57 135.25 293.3 122.82" stroke="#EFF4F9" stroke-width="3" stroke-miterlimit="10"/>
<path d="M289.55 142.51C291.5 143.74 296.63 144.97 299.5 140.88" stroke="#EFF4F9" stroke-width="3" stroke-miterlimit="10"/>
<path d="M262.609 192.75L266.229 186.83H289.919C289.919 184.54 286.969 184.11 281.759 182.92C277.199 181.88 274.309 181.47 273.669 178.36C272.489 172.58 280.699 154.7 280.699 154.7C283.349 156.17 283.659 164.05 287.259 164.77C290.529 165.42 295.759 158.23 298.679 155.14L305.149 155.25" stroke="#EFF4F9" stroke-width="3" stroke-miterlimit="10"/>
<path d="M295.5 186.83H303.08C302.91 179.49 287.75 177.86 286.51 172.15H274.3" stroke="#EFF4F9" stroke-width="3" stroke-miterlimit="10"/>
<path d="M288.3 154.38C290.65 156.04 292.18 158.48 293.73 160.71" stroke="#EFF4F9" stroke-width="3" stroke-miterlimit="10"/>
<path d="M322.979 177.961H314.109V186.831H322.979V177.961Z" stroke="#EFF4F9" stroke-width="3" stroke-miterlimit="10"/>
<path d="M322.979 169.091H314.109V177.961H322.979V169.091Z" stroke="#EFF4F9" stroke-width="3" stroke-miterlimit="10"/>
<path d="M343.17 177.961H334.3V186.831H343.17V177.961Z" stroke="#EFF4F9" stroke-width="3" stroke-miterlimit="10"/>
<path d="M340.13 169.091H331.26V177.961H340.13V169.091Z" stroke="#EFF4F9" stroke-width="3" stroke-miterlimit="10"/>
<path d="M306 97.4102V107.16" stroke="#EFF4F9" stroke-width="3" stroke-miterlimit="10"/>
<path d="M316.73 117.891H326.48" stroke="#EFF4F9" stroke-width="3" stroke-miterlimit="10"/>
<path d="M313.59 110.31L320.48 103.41" stroke="#EFF4F9" stroke-width="3" stroke-miterlimit="10"/>
</svg>
