<svg xmlns="http://www.w3.org/2000/svg" xmlns:xlink="http://www.w3.org/1999/xlink"><symbol xmlns="http://www.w3.org/2000/svg" viewBox="0 0 32 32" id="apartment-32"><g fill="none" fill-rule="evenodd"><path d="M0 0h32v32H0z"/><path d="M29 2v26h1v2H2v-2h1V2h26zm-2 2H5v24h8v-8h6v8h8V4zM17 22h-2v6h2v-6zm-6-2v5H6v-5h5zm15 0v5h-5v-5h5zM9 22H8v1h1v-1zm15 0h-1v1h1v-1zm-13-9v5H6v-5h5zm15 0v5h-5v-5h5zm-7 0v5h-6v-5h6zM9 15H8v1h1v-1zm15 0h-1v1h1v-1zm-7 0h-2v1h2v-1zm-6-9v5H6V6h5zm15 0v5h-5V6h5zm-7 0v5h-6V6h6zM9 8H8v1h1V8zm15 0h-1v1h1V8zm-7 0h-2v1h2V8z" fill="currentColor" fill-rule="nonzero"/></g></symbol><symbol xmlns="http://www.w3.org/2000/svg" viewBox="0 0 32 32" id="arrow-enclosed-32"><g fill="currentColor" fill-rule="evenodd"><path d="M16 27C9.935 27 5 22.065 5 16S9.935 5 16 5s11 4.935 11 11-4.935 11-11 11m0-24C8.832 3 3 8.832 3 16s5.832 13 13 13 13-5.832 13-13S23.168 3 16 3"/><path d="M16.033 12.197L18.757 15H10v2h8.757l-2.724 2.802 1.435 1.395L22.518 16l-5.05-5.198z"/></g></symbol><symbol xmlns="http://www.w3.org/2000/svg" viewBox="0 0 32 32" id="arrows-apart-32"><path fill="currentColor" d="M12 3.8L1.47 13 12 22.484v-5.5h10v-2.868L27.451 19 22 23.81v-2.825h-8v2h6v5.174L30.517 19 20 9.74v5.245H10v3.024L4.498 13 10 8.17v2.815h8v-2h-6z" fill-rule="evenodd"/></symbol><symbol xmlns="http://www.w3.org/2000/svg" viewBox="0 0 32 32" id="arrows-apart2-32"><path d="M11.8 8.857v-5.19L1.493 13.483 11.8 21.977V17h10.4v-2.737l5.293 4.362-5.293 5.042v-2.524h-7.5v2h5.5v5.19l10.307-9.816L20.2 10.023V15H9.8v2.737l-5.293-4.362L9.8 8.333v2.524h7.5v-2z" fill="currentColor"/></symbol><symbol xmlns="http://www.w3.org/2000/svg" viewBox="0 0 32 32" id="attach-32"><g fill="none" fill-rule="evenodd"><path d="M0 0h32v32H0z"/><path d="M18.75 19.797c.302.877.226 1.233-.1 1.385-.322.15-.64-.013-1.15-.86l-4.145-8.886-1.812.845 4.166 8.934.047.089c.991 1.664 2.306 2.358 3.739 1.69 1.432-.668 1.745-2.122 1.105-3.95L15.016 7.056l-.047-.089c-1.427-2.395-3.464-3.163-5.774-2.086-2.312 1.078-3.023 3.134-2.077 5.758l5.581 11.98c2.236 4.278 5.187 5.794 8.584 4.21 3.396-1.584 4.132-4.819 2.31-9.24L19.41 8.613l-1.813.845 4.166 8.934c1.436 3.489.966 5.556-1.325 6.624-2.29 1.068-4.176.1-5.945-3.284L8.965 9.878c-.577-1.614-.248-2.567 1.076-3.185 1.315-.613 2.266-.265 3.184 1.255l5.525 11.849z" fill="currentColor" fill-rule="nonzero"/></g></symbol><symbol xmlns="http://www.w3.org/2000/svg" viewBox="0 0 32 32" id="atv-32"><g fill="none" fill-rule="evenodd"><path d="M0 0h32v32H0z"/><path d="M17.331 4.835L22.47 11h3.066l2.101 3.149c.643.118 1.27.306 1.87.56l.326.146-.852 1.809A6.969 6.969 0 0026 16a6.967 6.967 0 00-3.772 1.102l1.265 1.37a4.5 4.5 0 11-1.549 1.27l-1.23-1.331a6.971 6.971 0 00-1.71 4.348L19 23h-2c0-.338.019-.672.055-1h-2.47l-3.371-3.372-1.12 1.163c.529.7.858 1.562.901 2.497L11 22.5a4.5 4.5 0 11-2.44-4.002l1.239-1.285-1.506-1.506 1.414-1.414L15.415 20h2.097a9.008 9.008 0 017.645-5.961L24.464 13h-2.932l-1.538-1.846-7.308 4.177L10.464 12H4v2h3v2H2v-6h9.535l1.779 2.668 5.379-3.074-2.025-2.43-2.352.785-.632-1.898 3.647-1.216zM25.5 20a2.5 2.5 0 100 5 2.5 2.5 0 000-5zm-19 0a2.5 2.5 0 100 5 2.5 2.5 0 000-5z" fill="currentColor" fill-rule="nonzero"/></g></symbol><symbol xmlns="http://www.w3.org/2000/svg" viewBox="0 0 32 32" id="baby-32"><g fill="none" fill-rule="evenodd"><path d="M0 0h32v32H0z"/><path d="M19.75 2.288l.135.033.035.008-.001.002.152.047a3.368 3.368 0 012.17 3.926l-.049.185a3.368 3.368 0 01-3.785 2.39l-.006.022a9.752 9.752 0 00-2.54-.334c-5.378 0-9.739 4.36-9.739 9.739 0 5.378 4.361 9.739 9.74 9.739 5.378 0 9.738-4.36 9.738-9.74a9.72 9.72 0 00-3.811-7.727l-.25-.186 1.167-1.624a11.723 11.723 0 014.894 9.538c0 6.483-5.255 11.739-11.739 11.739-6.483 0-11.739-5.256-11.739-11.74 0-6.482 5.256-11.738 11.74-11.738.893 0 1.775.1 2.633.297l.078.02.005-.013a1.367 1.367 0 00.882-2.587l-.092-.032-.076-.014c-.18-.018-.347.05-.402.108l-.017.027c-.055.19-.028.265.297.216l.207-.04.424 1.955c-2.112.457-3.306-1.1-2.85-2.685.329-1.138 1.606-1.775 2.799-1.531zM16.618 23.17l1.414 1.415a5.134 5.134 0 01-3.639 1.505 5.131 5.131 0 01-3.452-1.328l-.187-.177 1.414-1.415c.598.598 1.394.92 2.225.92.762 0 1.494-.271 2.072-.776l.153-.144zm-3.057-5.144l.013.164-1.998.093a.505.505 0 00-1.006-.044l-.004.092-1.997.093a2.505 2.505 0 014.992-.398zm6.455-.242l.013.165-1.998.093a.505.505 0 00-1.006-.045l-.004.092-1.997.094a2.505 2.505 0 014.992-.399z" fill="currentColor" fill-rule="nonzero"/></g></symbol><symbol xmlns="http://www.w3.org/2000/svg" viewBox="0 0 32 32" id="bell-32"><g fill="none" fill-rule="evenodd"><path d="M0 0h32v32H0z"/><path d="M14 26a2 2 0 104 0h2a4 4 0 11-8 0zm2-24a2 2 0 012 2v.13c4.584.636 7 3.582 7 8.62v7.378L27.517 26H4.483L7 20.128V12.75c0-5.037 2.416-7.983 6.999-8.62L14 4a2 2 0 012-2zm0 4c-4.788 0-7 2.143-7 6.75v6.75h12.004v2H8.587L7.517 24h16.966L23 20.539V12.75C23 8.143 20.788 6 16 6z" fill="currentColor" fill-rule="nonzero"/></g></symbol><symbol xmlns="http://www.w3.org/2000/svg" viewBox="0 0 32 32" id="bills-coins-32"><path d="M23.684 19.035l-7.281-1.58c0-.034.01-.064.01-.097a4.314 4.314 0 00-4.31-4.309 4.314 4.314 0 00-3.971 2.641l-1.75-.359 1.93-8.918 17.24 3.698-1.868 8.924zm-11.58.632a2.31 2.31 0 01-2.31-2.309 2.311 2.311 0 012.31-2.309 2.312 2.312 0 012.309 2.31 2.311 2.311 0 01-2.31 2.308zM23.689 4.863l.636 2.94-7.266-1.559 6.63-1.38zm2.78 3.4L25.225 2.5 12.229 5.208l-5.45-1.17-2.78 12.846 3.828.785c.162 2.23 2.007 3.998 4.277 3.998 1.638 0 3.049-.93 3.777-2.279l9.348 2.028 2.689-12.842-1.448-.31zM16.22 27.093c-.511 0-.902-.18-1.284-.62a.831.831 0 01-.174-.274l-.054-.13c-.057-.116-.06-.276-.06-.55 0-.852.72-1.572 1.573-1.572.854 0 1.574.72 1.574 1.573 0 .852-.72 1.573-1.574 1.573m0-5.146a3.576 3.576 0 00-3.573 3.573c0 .365 0 .859.24 1.38.132.357.357.71.582.93a3.523 3.523 0 002.75 1.263 3.577 3.577 0 003.575-3.573 3.577 3.577 0 00-3.574-3.573" fill="currentColor"/></symbol><symbol xmlns="http://www.w3.org/2000/svg" viewBox="0 0 32 32" id="boat-32"><g fill="currentColor"><path d="M22.79 6.652c.246.16.438.346.583.56.057.085.103.168.146.256a4.396 4.396 0 01.087.197l1.826 4.698-1.864.724c-.71-1.827-.71-1.827-1.795-4.628l-.015-.03c-.06-.133-.024-.078-.056-.1-.475-.307-1.96-.54-4.84-.54h-1.716c-2.874.004-4.36.238-4.839.546-.035.023 0-.028-.056.093l-1.819 4.677-1.864-.725c.712-1.83.712-1.83 1.864-4.783.015-.034.037-.084.058-.127a1.95 1.95 0 01.148-.257c.146-.214.34-.4.587-.56.804-.517 2.305-.795 4.92-.853V4.425c0-1.047.815-1.925 1.858-1.925 1.044 0 1.86.878 1.86 1.925v1.373c2.621.054 4.125.333 4.927.854zM1.456 27.483l1.088-1.678a3.446 3.446 0 003.763.03 6.983 6.983 0 017.7-.028l-1.086 1.68c-1.705-1.104-3.816-1.096-5.529.03a5.452 5.452 0 01-5.936-.034zm11.443 0l1.088-1.678a3.446 3.446 0 003.764.03 6.983 6.983 0 017.7-.028l-1.087 1.68c-1.705-1.104-3.816-1.096-5.529.03a5.452 5.452 0 01-5.936-.034zm11.437 0l1.089-1.678a3.452 3.452 0 003.777.022l1.07 1.69a5.452 5.452 0 01-5.936-.034zM27.7 14.836c.347.573.396 1.292.114 1.949L24.27 24.18l-1.804-.864 3.526-7.356a.115.115 0 00-.006-.093l-.092-.006-9.898-1.352-9.837 1.344-.181.008c.02.026.018.068.015.063l3.524 7.364-1.805.863-3.539-7.398A2.112 2.112 0 014.3 14.83c.36-.593.983-.962 1.662-.969l10.034-1.37 10.108 1.38a1.932 1.932 0 011.596.965z"/><path d="M15 16h2v6.608h-2z"/></g></symbol><symbol xmlns="http://www.w3.org/2000/svg" viewBox="0 0 32 32" id="briefcase-32"><g fill="none" fill-rule="evenodd"><path d="M0 0h32v32H0z"/><path d="M22 4v4h5.5a2.5 2.5 0 012.5 2.5v15a2.5 2.5 0 01-2.5 2.5h-23A2.5 2.5 0 012 25.5v-15A2.5 2.5 0 014.5 8H10V4h12zm6 9.079L24.35 16H7.65L4 13.08V25.5a.5.5 0 00.5.5H8V16h2v10h12V16h2v10h3.5a.5.5 0 00.5-.5V13.079zM18 16v2h-4v-2h4zm9.5-6h-23a.5.5 0 00-.5.5v.02L8.35 14h15.3L28 10.519V10.5a.5.5 0 00-.5-.5zM20 6h-8v2h8V6z" fill="currentColor" fill-rule="nonzero"/></g></symbol><symbol xmlns="http://www.w3.org/2000/svg" viewBox="0 0 32 32" id="briefcase-first-aid-32"><defs><path d="M4.5 10a.5.5 0 00-.5.5v15a.5.5 0 00.5.5h23a.5.5 0 00.5-.5v-15a.5.5 0 00-.5-.5h-23zM22 4v4h5.5a2.5 2.5 0 012.5 2.5v15a2.5 2.5 0 01-2.5 2.5h-23A2.5 2.5 0 012 25.5v-15A2.5 2.5 0 014.5 8H10V4h12zM8 10H6v16h2V10zm18 0h-2v16h2V10zm-9 4h-2v3h-3v2h3v3h2v-3h3v-2h-3v-3zm3-8h-8v2h8V6z" id="ala"/></defs><g fill="none" fill-rule="evenodd"><path d="M0 0h32v32H0z"/><use fill="currentColor" fill-rule="nonzero" xlink:href="#ala"/></g></symbol><symbol xmlns="http://www.w3.org/2000/svg" viewBox="0 0 32 32" id="calendar-32"><path d="M24.693 27H7.306C6.561 27 6 26.459 6 25.742V13h20v12.742c0 .717-.562 1.258-1.307 1.258M7.306 6H10v2h2V6h8v2h2V6h2.658c.753.025 1.342.57 1.342 1.24V11H6V7.24c0-.67.59-1.215 1.306-1.24m17.387-2H22V2h-2v2h-8V2h-2v2H7.271c-1.834.064-3.27 1.487-3.27 3.24v18.502C4 27.569 5.451 29 7.305 29h17.387C26.547 29 28 27.569 28 25.742V7.24c0-1.753-1.438-3.176-3.307-3.24" fill="currentColor" fill-rule="evenodd"/></symbol><symbol xmlns="http://www.w3.org/2000/svg" viewBox="0 0 32 32" id="calendar-check-32"><g fill="currentColor" fill-rule="evenodd"><path d="M24.693 27H7.306C6.561 27 6 26.459 6 25.742V13h20v12.742c0 .717-.562 1.258-1.307 1.258M7.306 6H10v2h2V6h8v2h2V6h2.658c.753.025 1.342.57 1.342 1.24V11H6V7.24c0-.67.59-1.215 1.306-1.24m17.387-2H22V2h-2v2h-8V2h-2v2H7.271c-1.834.064-3.27 1.487-3.27 3.24v18.502C4 27.569 5.451 29 7.305 29h17.387C26.547 29 28 27.569 28 25.742V7.24c0-1.753-1.438-3.176-3.307-3.24"/><path d="M14.531 21.183l-2.819-2.869-1.424 1.406 4.23 4.296 7.35-7.307-1.41-1.418z"/></g></symbol><symbol xmlns="http://www.w3.org/2000/svg" viewBox="0 0 32 32" id="calendar-cross-32"><g fill="currentColor" fill-rule="evenodd"><path d="M24.693 27H7.306C6.561 27 6 26.459 6 25.741V13h20v12.741c0 .718-.562 1.259-1.307 1.259M7.306 6H10v2h2V6l8-.001V8h2V5.999h2.658C25.411 6.025 26 6.57 26 7.24V11H6V7.24c0-.67.59-1.215 1.306-1.24m17.387-2H22V2h-2v2l-8 .001V2h-2v2.001H7.271c-1.834.063-3.27 1.486-3.27 3.239v18.501C4 27.568 5.451 29 7.305 29h17.387C26.547 29 28 27.568 28 25.741V7.24c0-1.753-1.438-3.176-3.307-3.24"/><path d="M19.996 14.585l-3.996 4-3.995-4-1.415 1.413L14.587 20l-4.008 4.012 1.415 1.413L16 21.415l3.996 4 1.415-1.413L17.413 20l3.998-4.002z"/></g></symbol><symbol xmlns="http://www.w3.org/2000/svg" viewBox="0 0 32 32" id="car-32"><g fill="currentColor"><path d="M6 16.5c0-.827.673-1.5 1.5-1.5s1.5.673 1.5 1.5S8.327 18 7.5 18 6 17.327 6 16.5zm17 0c0-.827.673-1.5 1.5-1.5s1.5.673 1.5 1.5-.673 1.5-1.5 1.5-1.5-.673-1.5-1.5zM9 11.027v2h15.658l-2.655-5.246-1.784.903 1.185 2.343z"/><path d="M30 14c0 .025-.333.033-.778.033C28.333 14.033 27 14 27 14l1.044 4L28 19h-6v2h6v2h-1v3h-2v-3H7v3H5v-3H4v-2h16v-2H4v-1l1-4s-1.333.033-2.222.033C2.333 14.033 2 14.025 2 14v-1c0-.968 4-1 4-1l2-4s1.687-1.996 8-2c6.406 0 8 2 8 2l2 4s4 .032 4 1v1zm-4.336-7c-.57-.813-3.039-3-9.664-3-6.625.004-9.38 2.344-9.768 3l-1.315 3.019C2.75 10.089 0 10.661 0 13v1c0 .672.45 1.961 2.147 2.025.08.003.176.005.284.006l-.37 1.484-.06.239V23c0 .746.407 1.396 1.012 1.74L3 26a2 2 0 002 2h2a2 2 0 002-2v-1h14v1a2 2 0 002 2h2a2 2 0 002-2l.016-1.276A2 2 0 0030 23v-2c0-.04-.01-.078-.012-.118L30 19.013v-1.264l-.05-.254-.38-1.464c.107-.001.203-.003.283-.006C31.551 15.961 32 14.672 32 14v-1c0-2.339-2.684-2.91-4.917-2.981L25.664 7z"/></g></symbol><symbol xmlns="http://www.w3.org/2000/svg" viewBox="0 0 32 32" id="car-damage-32"><g fill="none" fill-rule="evenodd"><path d="M0 0h32v32H0z"/><path d="M16 4c6.625 0 9.094 2.187 9.664 3l1.419 3.019C29.316 10.09 32 10.661 32 13v1c0 .672-.449 1.961-2.147 2.025-.08.003-.176.005-.283.006l.38 1.464.05.254v1.264l-.012 1.869L30 21v2a2 2 0 01-.984 1.724L29 26a2 2 0 01-2 2h-2a2 2 0 01-2-2v-1H9v1a2 2 0 01-2 2H5a2 2 0 01-2-2l.013-1.26A1.998 1.998 0 012.001 23v-5.246l.06-.239.37-1.484a10.325 10.325 0 01-.284-.006C.45 15.961 0 14.672 0 14v-1c0-2.339 2.75-2.911 4.917-2.981L6.232 7C6.62 6.344 9.375 4.004 16 4zm0 2c-5.717.004-7.64 1.641-7.952 1.95l-.031.032L8 8l-2 4h-.054C5.467 12.01 2 12.1 2 13v1c0 .025.333.033.778.033C3.667 14.033 5 14 5 14l-1 4v1h14v2H4v2h1v3h2v-3h18v3h2v-3h1l.044-5L27 14s1.333.033 2.222.033c.445 0 .778-.008.778-.033v-1c0-.901-3.467-.991-3.946-1H26l-2-4s-.014-.017-.044-.048l-.043-.044C23.506 7.515 21.576 6 16 6zm8.414 13l2.266 2.258-1.414 1.414L23.586 21H20v-2h4.414zM7.5 15c.827 0 1.5.673 1.5 1.5S8.327 18 7.5 18 6 17.327 6 16.5 6.673 15 7.5 15zm17 0c.827 0 1.5.673 1.5 1.5s-.673 1.5-1.5 1.5-1.5-.673-1.5-1.5.673-1.5 1.5-1.5zm-6.961-8.146l.923 1.28 3.563-.47L24.59 13H9v-2h12.41l-.56-1.164-3.312.437-1.622-2.249 1.623-1.17z" fill="currentColor" fill-rule="nonzero"/></g></symbol><symbol xmlns="http://www.w3.org/2000/svg" viewBox="0 0 32 32" id="caravan-32"><g fill="none" fill-rule="evenodd"><path d="M0 0h32v32H0z"/><path d="M15 19a3 3 0 110 6 3 3 0 010-6zM26.744 6l3.314 11.047L28.477 21H30v2l-2.323-.001V23H19v-2h7.322l1.619-4.048L25.256 8H5.496l-1.465 8.887L5.677 21H11v2H4.323l-2.355-5.887L3.798 6h22.946zM15 21a1 1 0 100 2 1 1 0 000-2zm-4-11v10H9v-8.001H8V20H6V10h5zm7 6v2h-4v-2h4zm4-6v5h-8v-5h8zm-2 2h-4v1h4v-1z" fill="currentColor" fill-rule="nonzero"/></g></symbol><symbol xmlns="http://www.w3.org/2000/svg" viewBox="0 0 32 32" id="card-32"><g fill="currentColor" fill-rule="evenodd"><path d="M26.803 22.688c-.187.2-.471.312-.8.312H6.016C5.493 23 5 22.557 5 22.09V14h21.995v8.162a.685.685 0 01-.192.525zM6.015 9h19.989c.302 0 .599.124.793.333.082.087.216.27.197.575V12H5V9.909c0-.468.493-.91 1.015-.91zm22.976.98a2.648 2.648 0 00-.73-2.01A3.086 3.086 0 0026.004 7H6.014C4.382 7 3 8.332 3 9.907V22.09C3 23.666 4.38 25 6.015 25h19.989c.876 0 1.7-.348 2.263-.952.52-.559.778-1.28.727-1.959L28.99 9.98z"/><path d="M6.994 18h6v-2h-6z"/></g></symbol><symbol xmlns="http://www.w3.org/2000/svg" viewBox="0 0 32 32" id="card-block-32"><g fill="currentColor"><path d="M3 9v2h22V9zm9 6v-2H6v2z"/><path d="M16 21H5c-.552 0-1-.447-1-.994V7.994c0-.55.443-.994.991-.994H23.01c.55 0 .991.442.991 1.006V16h2V8.006A2.991 2.991 0 0023.009 5H4.99A2.991 2.991 0 002 7.994v12.012A2.998 2.998 0 005 23h11v-2z"/><path d="M16.586 17l9.765 9.765 1.414-1.414L18 15.586z"/><path d="M22.5 27a5.5 5.5 0 100-11 5.5 5.5 0 000 11zm0 2a7.5 7.5 0 110-15 7.5 7.5 0 010 15z"/></g></symbol><symbol xmlns="http://www.w3.org/2000/svg" viewBox="0 0 32 32" id="chat-32"><path d="M27.544 7.813C25.787 6.025 23.258 5 20.604 5h-9.162C6.172 5 2.024 8.951 2 14.004 2.024 19.132 5.947 23 11.125 23h1.44L19 29.407v-8.323h-2v3.508L13.393 21h-2.268C7.015 21 4.02 18.054 4 14.004 4.02 10.011 7.219 7 11.442 7h9.163c2.12 0 4.129.807 5.512 2.215 1.265 1.286 1.915 2.935 1.883 4.802.033 1.846-.65 3.576-1.922 4.871A7.154 7.154 0 0121 21v2a9.172 9.172 0 006.505-2.71A8.687 8.687 0 0030 14.017c.04-2.347-.831-4.55-2.456-6.204" fill="currentColor" fill-rule="evenodd"/></symbol><symbol xmlns="http://www.w3.org/2000/svg" viewBox="0 0 32 32" id="check-32"><path d="M24.49 9.8L13.481 20.768l-5.557-5.615L6.5 16.557l6.967 7.045 12.432-12.384z" fill="currentColor" fill-rule="evenodd"/></symbol><symbol xmlns="http://www.w3.org/2000/svg" viewBox="0 0 32 32" id="check-bold-32"><path d="M24.072 9.534L13.77 19.794l-4.85-4.907-2.131 2.11 6.967 7.046 12.432-12.384z" fill="currentColor" fill-rule="evenodd"/></symbol><symbol xmlns="http://www.w3.org/2000/svg" viewBox="0 0 32 32" id="check-enclosed-32"><g fill="currentColor" fill-rule="evenodd"><path d="M16 27C9.935 27 5 22.065 5 16S9.935 5 16 5s11 4.935 11 11-4.935 11-11 11m0-24C8.832 3 3 8.832 3 16s5.832 13 13 13 13-5.832 13-13S23.168 3 16 3"/><path d="M14.545 18.593l-3.287-3.342-1.424 1.404 4.697 4.772 8.037-7.99-1.41-1.418z"/></g></symbol><symbol xmlns="http://www.w3.org/2000/svg" viewBox="0 0 32 32" id="chevron-32"><path d="M13.414 7.51L12 8.924l7.071 7.071-7.07 7.073 1.414 1.414 7.071-7.072 1.413-1.415-1.413-1.413z" fill="currentColor" fill-rule="evenodd"/></symbol><symbol xmlns="http://www.w3.org/2000/svg" viewBox="0 0 32 32" id="chevron-down-32"><path d="M24.492 13.374l-1.414-1.414-7.072 7.071-7.072-7.07-1.414 1.414 7.071 7.071 1.415 1.413 1.413-1.413z" fill="currentColor" fill-rule="evenodd"/></symbol><symbol xmlns="http://www.w3.org/2000/svg" viewBox="0 0 32 32" id="chevron-left-32"><path d="M18.485 7.51L19.9 8.924l-7.071 7.071 7.07 7.073-1.414 1.414-7.071-7.072L10 15.995l1.413-1.413z" fill="currentColor" fill-rule="evenodd"/></symbol><symbol xmlns="http://www.w3.org/2000/svg" viewBox="0 0 32 32" id="chevron-right-32"><path d="M13.414 7.51L12 8.924l7.071 7.071-7.07 7.073 1.414 1.414 7.071-7.072 1.413-1.415-1.413-1.413z" fill="currentColor" fill-rule="evenodd"/></symbol><symbol xmlns="http://www.w3.org/2000/svg" viewBox="0 0 32 32" id="chevron-up-32"><path d="M24.492 18.621l-1.414 1.414-7.072-7.07-7.072 7.07L7.52 18.62l7.071-7.07 1.415-1.414 1.413 1.413z" fill="currentColor" fill-rule="evenodd"/></symbol><symbol xmlns="http://www.w3.org/2000/svg" viewBox="0 0 32 32" id="circle-32"><defs><path d="M14 0c7.732 0 14 6.268 14 14s-6.268 14-14 14S0 21.732 0 14 6.268 0 14 0zm0 2C7.373 2 2 7.373 2 14s5.373 12 12 12 12-5.373 12-12S20.627 2 14 2z" id="bda"/></defs><g fill="none" fill-rule="evenodd"><path d="M0 0h32v32H0z"/><use fill="currentColor" fill-rule="nonzero" xlink:href="#bda" transform="translate(2 2)"/></g></symbol><symbol xmlns="http://www.w3.org/2000/svg" viewBox="0 0 32 32" id="circlediagram-32"><g fill="none" fill-rule="evenodd"><path d="M0 0h32v32H0z"/><path d="M17 4c7.18 0 13 5.82 13 13s-5.82 13-13 13S4 24.18 4 17v-1h12V4h1zm1 2.045V18H6.045C6.55 23.607 11.262 28 17 28c6.075 0 11-4.925 11-11 0-5.738-4.393-10.45-10-10.955zM15 2v13H2v-1C2 7.373 7.373 2 14 2h1zm-2 2.05A10.003 10.003 0 004.05 13H13V4.05z" fill="currentColor" fill-rule="nonzero"/></g></symbol><symbol xmlns="http://www.w3.org/2000/svg" viewBox="0 0 32 32" id="clipboard-32"><g fill="currentColor"><path d="M25 26.19c0 .461-.355.81-.826.81H7.826C7.355 27 7 26.651 7 26.19V7.805c0-.439.372-.79.826-.8H11V11h10V7.007h3.153c.475.01.847.36.847.8V26.19zM15 4h2v3h2v2h-6V7h2V4zm4 1.006V2h-6v3.006H7.806C6.232 5.04 5 6.27 5 7.806V26.19C5 27.765 6.241 29 7.826 29h16.348C25.759 29 27 27.765 27 26.19V7.805c0-1.537-1.232-2.767-2.826-2.8H19z"/><path d="M11 16h10v-2H11zm0 4h10v-2H11zm0 4h10v-2H11z"/></g></symbol><symbol xmlns="http://www.w3.org/2000/svg" viewBox="0 0 32 32" id="clock-32"><g fill="currentColor"><path d="M16 3C8.834 3 3 8.834 3 16s5.834 13 13 13 13-5.834 13-13S23.166 3 16 3zm0 2c6.087 0 11 4.913 11 11s-4.913 11-11 11S5 22.087 5 16 9.913 5 16 5z"/><path d="M22.08 19.796l-1.285 1.533L15 16.466V8h2v7.534z"/></g></symbol><symbol xmlns="http://www.w3.org/2000/svg" viewBox="0 0 32 32" id="coins-32"><g fill="none" fill-rule="evenodd"><path d="M0 0h32v32H0z"/><path d="M15 28v2H4v-2h11zm6.5-15a8.5 8.5 0 110 17 8.5 8.5 0 010-17zm0 2a6.5 6.5 0 100 13 6.5 6.5 0 000-13zM13 25v2H4v-2h9zm14-3.5a5.5 5.5 0 01-5.5 5.5v-2a3.5 3.5 0 003.5-3.5h2zM12 22v2H4v-2h8zm0-3v2H4v-2h8zm1-3v2H4v-2h9zm2-3v2H4v-2h11zm4-3v2H4v-2h15zm2-3v2H6V7h15zm-4-3v2H2V4h15z" fill="currentColor" fill-rule="nonzero"/></g></symbol><symbol xmlns="http://www.w3.org/2000/svg" viewBox="0 0 32 32" id="computer-32"><g fill="none" fill-rule="evenodd"><path d="M0 0h32v32H0z"/><path d="M26 23a2 2 0 00-2 2v2a2 2 0 104 0v-2a2 2 0 00-2-2zm1 1v2h-2v-2h2zm-3.857-5h1.428c1.34 0 2.122.802 2.35 1.966l.026.147A4.002 4.002 0 0130 25v2a4 4 0 11-8 0v-2a4.002 4.002 0 012.904-3.848c-.05-.127-.132-.152-.333-.152h-1.428C21.093 21 20 20.07 20 18h-4v2h3v2H8v-2h3v-2H2V2h23v16h-3c0 .888.132 1 1.143 1zM14 18h-1v2h1v-2zm9-14H4v12h19V4zM10.347 5.514L11.76 6.93l-4.831 4.83-1.415-1.414 4.833-4.833zm-3.211-.816l1.393 1.436-2.49 2.416-1.393-1.435 2.49-2.417z" fill="currentColor" fill-rule="nonzero"/></g></symbol><symbol xmlns="http://www.w3.org/2000/svg" viewBox="0 0 32 32" id="contact-menu-32"><g fill="currentColor"><path d="M15.994 28.78c-1.917 0-3.466-1.571-3.466-3.502 0-1.93 1.549-3.501 3.466-3.501 1.917 0 3.466 1.57 3.466 3.501 0 1.93-1.549 3.502-3.466 3.502zm0-2c.806 0 1.466-.67 1.466-1.502s-.66-1.501-1.466-1.501c-.806 0-1.466.669-1.466 1.501 0 .833.66 1.502 1.466 1.502zm0-23.575c3.356 0 6.495 1.5 8.652 4.042l-1.524 1.294c-1.783-2.1-4.369-3.336-7.128-3.336-3.881 0-7.324 2.419-8.715 5.962l-.141.495c-.328.941-.5 2.016-.5 3.11 0 1.337.27 2.645.785 3.864l.587 1.389H6.317c-2.775 0-5.007-2.264-5.007-5.065 0-2.566 1.875-4.683 4.324-5.018 1.85-4.064 5.858-6.737 10.36-6.737zM3.31 14.96a3.06 3.06 0 001.7 2.764 12.123 12.123 0 01-.11-5.47 3.064 3.064 0 00-1.59 2.706z"/><path d="M24.709 11.167l1.925-.542.105.38c.403 1.158.61 2.455.61 3.768 0 4.298-2.357 8.24-6.006 10.195-.87.475-1.82.826-2.794 1.037l-.425-1.954a8.524 8.524 0 002.267-.842c3.006-1.611 4.959-4.875 4.959-8.436 0-1.095-.172-2.17-.518-3.168l-.123-.438z"/><path d="M11.207 7.716l1.931-.52c.072.268.328.754.853 1.26.927.892 2.342 1.44 4.407 1.44h7.352v2h-7.352c-2.573 0-4.487-.742-5.794-2-.816-.784-1.238-1.588-1.397-2.18zm7.588 9.606l1.425 1.405a6.003 6.003 0 01-4.288 1.798 6.003 6.003 0 01-4.287-1.798l1.425-1.405a4.003 4.003 0 002.862 1.203 4.003 4.003 0 002.863-1.203z"/><path d="M25.672 11.896v-2c2.774 0 5.006 2.264 5.006 5.064 0 2.8-2.232 5.065-5.006 5.065v-2c1.663 0 3.006-1.363 3.006-3.065s-1.343-3.064-3.006-3.064z"/></g></symbol><symbol xmlns="http://www.w3.org/2000/svg" viewBox="0 0 32 32" id="contact-menu-32_copy"><g fill="currentColor"><path d="M15.994 28.78c-1.917 0-3.466-1.571-3.466-3.502 0-1.93 1.549-3.501 3.466-3.501 1.917 0 3.466 1.57 3.466 3.501 0 1.93-1.549 3.502-3.466 3.502zm0-2c.806 0 1.466-.67 1.466-1.502s-.66-1.501-1.466-1.501c-.806 0-1.466.669-1.466 1.501 0 .833.66 1.502 1.466 1.502zm0-23.575c3.356 0 6.495 1.5 8.652 4.042l-1.524 1.294c-1.783-2.1-4.369-3.336-7.128-3.336-3.881 0-7.324 2.419-8.715 5.962l-.141.495c-.328.941-.5 2.016-.5 3.11 0 1.337.27 2.645.785 3.864l.587 1.389H6.317c-2.775 0-5.007-2.264-5.007-5.065 0-2.566 1.875-4.683 4.324-5.018 1.85-4.064 5.858-6.737 10.36-6.737zM3.31 14.96a3.06 3.06 0 001.7 2.764 12.123 12.123 0 01-.11-5.47 3.064 3.064 0 00-1.59 2.706z"/><path d="M24.709 11.167l1.925-.542.105.38c.403 1.158.61 2.455.61 3.768 0 4.298-2.357 8.24-6.006 10.195-.87.475-1.82.826-2.794 1.037l-.425-1.954a8.524 8.524 0 002.267-.842c3.006-1.611 4.959-4.875 4.959-8.436 0-1.095-.172-2.17-.518-3.168l-.123-.438z"/><path d="M11.207 7.716l1.931-.52c.072.268.328.754.853 1.26.927.892 2.342 1.44 4.407 1.44h7.352v2h-7.352c-2.573 0-4.487-.742-5.794-2-.816-.784-1.238-1.588-1.397-2.18zm7.588 9.606l1.425 1.405a6.003 6.003 0 01-4.288 1.798 6.003 6.003 0 01-4.287-1.798l1.425-1.405a4.003 4.003 0 002.862 1.203 4.003 4.003 0 002.863-1.203z"/><path d="M25.672 11.896v-2c2.774 0 5.006 2.264 5.006 5.064 0 2.8-2.232 5.065-5.006 5.065v-2c1.663 0 3.006-1.363 3.006-3.065s-1.343-3.064-3.006-3.064z"/></g></symbol><symbol xmlns="http://www.w3.org/2000/svg" viewBox="0 0 32 32" id="contract-32"><g fill="currentColor" fill-rule="evenodd"><path fill-rule="nonzero" d="M7 27V5h16v5h2V3H5v26h20v-5h-2v3z"/><path fill-rule="nonzero" d="M10 11h10V9H10zm0 4h10v-2H10zm0 4h7v-2h-7zm3 6h7v-2h-7z"/><path d="M26.378 13.214l-8.364 8.364v1.414h1.414l8.364-8.364-1.414-1.414zm-6.121 11.778h-4.243V20.75l10.364-10.364 4.243 4.242-10.364 10.364z" fill-rule="nonzero"/><path d="M24.914 13.5l2.829 2.828-1.415 1.414-2.828-2.828z"/></g></symbol><symbol xmlns="http://www.w3.org/2000/svg" viewBox="0 0 32 32" id="cross-32"><path d="M22.286 8.3l-6.28 6.281-6.281-6.28-1.414 1.413 6.281 6.282L8.3 22.29l1.414 1.414 6.292-6.293 6.28 6.282 1.414-1.414-6.281-6.282L23.7 9.714z" fill="currentColor" fill-rule="evenodd"/></symbol><symbol xmlns="http://www.w3.org/2000/svg" viewBox="0 0 32 32" id="cross-enclosed-32"><g fill="currentColor" fill-rule="evenodd"><path d="M16 27C9.935 27 5 22.065 5 16S9.935 5 16 5s11 4.935 11 11-4.935 11-11 11m0-24C8.832 3 3 8.832 3 16s5.832 13 13 13 13-5.832 13-13S23.168 3 16 3"/><path d="M20.364 10.222L16 14.586l-4.364-4.364-1.414 1.414L14.586 16l-4.375 4.375 1.414 1.414L16 17.414l4.364 4.364 1.414-1.414L17.414 16l4.364-4.364z"/></g></symbol><symbol xmlns="http://www.w3.org/2000/svg" viewBox="0 0 32 32" id="cup-32"><g fill="none" fill-rule="evenodd"><path d="M0 0h32v32H0z"/><path d="M23 30H9v-2h2c1.132 0 2-.76 2-1.625v-3.887A9.004 9.004 0 017 14c-2.68 0-5-2.003-5-4.5C2 6.992 4.195 5 6.857 5H7V2h18v3c2.734 0 5 1.983 5 4.5S27.734 14 25 14a9.004 9.004 0 01-6 8.488v3.887c0 .866.868 1.625 2 1.625h2v2zm-7-7c-.338 0-.671-.019-1-.055v3.43c0 .588-.152 1.14-.421 1.626h2.842A3.341 3.341 0 0117 26.375v-3.43A9.099 9.099 0 0116 23zm7-19H9v1h6v2H9v7a7 7 0 0014 0V4zm2 3v5c1.684 0 3-1.151 3-2.5S26.684 7 25 7zM7 7h-.143C5.26 7 4 8.142 4 9.5 4 10.822 5.365 12 7 12V7z" fill="currentColor" fill-rule="nonzero"/></g></symbol><symbol xmlns="http://www.w3.org/2000/svg" viewBox="0 0 32 32" id="damage-32"><defs><path d="M11 26v2H7v-2h4zm6-2.671l-4.808-2.314 1.177-3.398-2.296-1.474-1.988.957H2V26h3v2H0V0h24v28H13v-2h4v-2.671zM22 2H10v2.492l2.938.975.986 1.962h4.691v4.803L22 14.926V2zm0 24v-8.518l-5.385-4.286V9.43h-3.924l-1.168-2.324L8 5.936V2H2v13.1h6.629l2.584-1.243 4.561 2.926-1.109 3.202L19 22.071V26h3z" id="bpa"/></defs><g fill="none" fill-rule="evenodd"><path d="M0 0h32v32H0z"/><use fill="currentColor" fill-rule="nonzero" xlink:href="#bpa" transform="translate(4 2)"/></g></symbol><symbol xmlns="http://www.w3.org/2000/svg" viewBox="0 0 32 32" id="digital-services-32"><g fill="none" fill-rule="evenodd"><path d="M0 0h32v32H0z"/><path d="M20 4c1.818 0 2.92 1.036 2.996 2.8L23 7v6h3c1.818 0 2.92 1.036 2.996 2.8L29 16v9c0 1.886-1.114 3-3 3h-5c-1.886 0-3-1.114-3-3v-6h-4v2h3v2H9v-2h3v-2H6c-1.818 0-2.92-1.036-2.996-2.8L3 16V7c0-1.818 1.036-2.92 2.8-2.996L6 4h14zm6 11h-5c-.781 0-1 .219-1 1v9c0 .781.219 1 1 1h5c.781 0 1-.219 1-1v-9c0-.781-.219-1-1-1zm-2.5 7a1.5 1.5 0 110 3 1.5 1.5 0 010-3zM20 6H6c-.735 0-.972.194-.998.868L5 7v9c0 .735.194.972.868.998L6 17h12v-1c0-1.818 1.036-2.92 2.8-2.996L21 13V7c0-.735-.194-.972-.868-.998L20 6z" fill="currentColor" fill-rule="nonzero"/></g></symbol><symbol xmlns="http://www.w3.org/2000/svg" viewBox="0 0 32 32" id="document-32"><g fill="currentColor" fill-rule="evenodd"><path d="M6 3v26h20l-.007-20.914L20.915 3H6zm2 2h12.085l3.908 3.915L24 27H8V5z"/><path d="M11 13h10v-2H11zm0 4h10v-2H11zm0 4h10v-2H11z"/></g></symbol><symbol xmlns="http://www.w3.org/2000/svg" viewBox="0 0 32 32" id="dog-32"><g fill="currentColor"><path d="M16.308 23.281l-.458 1.947c-1.88-.442-3.24-2.102-3.24-4.06A4.17 4.17 0 0116.779 17c.876 0 1.731.29 2.46.795l-1.137 1.645a2.353 2.353 0 00-1.323-.44 2.17 2.17 0 00-2.169 2.169c0 1.015.708 1.88 1.698 2.112zM11.97 27v2H6v-3.7c0-1.302.937-2.3 2.192-2.3H12v2H8.192c-.121 0-.192.076-.192.3V27h3.97zM6.156 7.016l-.134.685a2.82 2.82 0 00.396 1.808c.806 1.42 2.622 1.898 4.074 1.074l.987 1.74c-2.404 1.363-5.444.563-6.788-1.805a4.83 4.83 0 01-.642-3.14l.459-2.362H7.98a6.752 6.752 0 015.025-2.227c3.541 0 6.687 2.744 6.995 6.281v1.092c0 1.588-1.485 2.864-3.084 2.864-1.59 0-2.916-1.277-2.916-2.864V9h2v1.162c0 .465.414.864.916.864.556 0 1.084-.453 1.084-.864v-.363l.004-.64c-.211-2.397-2.474-4.37-4.999-4.37-1.5 0-2.884.692-3.765 1.836l-.3.39H6.156z"/><path d="M9 14h2v10.91H9zm17.332 4.719h2a5.619 5.619 0 01-5.608 5.609v-2a3.619 3.619 0 003.608-3.61z"/><path d="M21.723 23.327c0-4.088-1.945-7.9-5.164-10.357l1.213-1.59c3.708 2.829 5.951 7.226 5.951 11.947 0 1.774-.278 3.453-.834 5.01l-.237.663H11.866v-2h9.355c.334-1.149.502-2.376.502-3.673z"/></g></symbol><symbol xmlns="http://www.w3.org/2000/svg" viewBox="0 0 32 32" id="e-invoice-32"><g fill="none" fill-rule="evenodd"><path d="M0 0h32v32H0z"/><path d="M29 3v25.563l-7.463-3.445L16 28.139l-5.538-3.021L3 28.563V3h26zm-2.001 2h-22v20.437l5.538-2.556L16 25.861l5.463-2.98 5.536 2.556V5zM15.924 9c2.74 0 3.87 2.114 3.278 5.232h-4.82c.126 1.254.825 1.791 1.954 1.791.842 0 1.791-.25 2.544-.573l.25 1.774c-.877.483-1.88.77-2.884.77-2.454 0-4.246-1.72-4.246-4.604C12 10.38 14.007 9 15.924 9zm.018 1.81c-.896 0-1.541.734-1.577 1.88h2.92c.072-1.164-.376-1.88-1.343-1.88z" fill="currentColor" fill-rule="nonzero"/></g></symbol><symbol xmlns="http://www.w3.org/2000/svg" viewBox="0 0 32 32" id="ellipsis-enclosed-32"><g fill="currentColor" fill-rule="evenodd"><path d="M16 27C9.935 27 5 22.065 5 16S9.935 5 16 5s11 4.935 11 11-4.935 11-11 11m0-24C8.832 3 3 8.832 3 16s5.832 13 13 13 13-5.832 13-13S23.168 3 16 3"/><path d="M10.149 14c-1.157 0-1.967.835-1.967 1.909s.926 1.909 1.967 1.909S12 16.983 12 15.908C12 14.836 11.306 14 10.149 14m11.818 0C20.81 14 20 14.835 20 15.909s.926 1.909 1.967 1.909 1.851-.835 1.851-1.91c0-1.073-.694-1.908-1.85-1.908m-5.91.09c-1.157 0-1.967.836-1.967 1.91 0 1.074.926 1.909 1.967 1.909s1.851-.835 1.851-1.91c0-1.073-.694-1.908-1.851-1.908"/></g></symbol><symbol xmlns="http://www.w3.org/2000/svg" viewBox="0 0 32 32" id="external-link-32"><g fill="currentColor" fill-rule="evenodd"><path d="M19 5v2h4.598l-8.235 8.296 1.42 1.408L25 8.427V13h2V5z"/><path d="M4 7v21h21V16h-2v10H6V9h10V7z"/></g></symbol><symbol xmlns="http://www.w3.org/2000/svg" viewBox="0 0 32 32" id="facebook-32"><g fill="currentColor"><path d="M4 4v24h24V4H4zM2 2h28v28H2V2z"/><path d="M14.012 24.984V16.97H12v-2.91h2.012v-2.146c0-2.49 1.521-3.846 3.743-3.846 1.063 0 1.978.079 2.245.114v2.603h-1.54c-1.21 0-1.443.575-1.443 1.417v1.858h2.881l-.375 2.91h-2.506v8.015h-3.005z"/></g></symbol><symbol xmlns="http://www.w3.org/2000/svg" viewBox="0 0 32 32" id="family-32"><g fill="none" fill-rule="evenodd"><path d="M0 0h32v32H0z"/><path d="M12.5 2a7.983 7.983 0 016.072 2.791l-1.517 1.303a6 6 0 101.437 3.575h-4.574c-1.769 0-3.528-1.285-4.387-3.08l1.804-.863c.547 1.142 1.643 1.943 2.583 1.943H20.2l.156.811c.095.498.144 1.006.144 1.52a7.968 7.968 0 01-1.907 5.184 5.5 5.5 0 018.404 6.616A6.002 6.002 0 0130 27v3h-2v-3c0-1.523-.86-2.882-2.166-3.556A5.483 5.483 0 0122 25a5.482 5.482 0 01-3.834-1.556A4.002 4.002 0 0016 27v3h-2v-3a6.002 6.002 0 013.003-5.2 5.481 5.481 0 01-.503-2.3c0-1.287.442-2.47 1.182-3.407A7.958 7.958 0 0112.5 18a7.97 7.97 0 01-5.283-1.993l.212-.104C5.084 17.017 4 18.42 4 20.175V30H2v-9.825c0-2.396 1.332-4.317 3.858-5.713A8 8 0 0112.5 2zM22 16a3.5 3.5 0 100 7 3.5 3.5 0 000-7z" fill="currentColor" fill-rule="nonzero"/></g></symbol><symbol xmlns="http://www.w3.org/2000/svg" viewBox="0 0 32 32" id="farm-32"><g fill="none" fill-rule="evenodd"><path d="M0 0h32v32H0z"/><path d="M19 1.643l12.676 11.62-1.352 1.474L29 13.522V28h1v2H2v-2h2.889v-1.666a4.508 4.508 0 01-1.947-.952l-.182-.161a4.483 4.483 0 01-1.43-3.285c0-2.486 2.023-4.5 4.516-4.5 1.198 0 2.322.469 3.155 1.28L9 13.522l-1.324 1.215-1.352-1.474L19 1.643zM9 25.157a4.51 4.51 0 01-2.11 1.158L6.888 28h2.11zM19 4.356l-8 7.333V28h3v-8.89h10V28h3V17H13v-2h14v-3.31l-8-7.334zm0 21.647L17.226 28h3.548L19 26.003zm3-3.375L20.337 24.5 22 26.37v-3.742zm-6 0v3.742l1.663-1.87L16 22.627zM5.846 19.436a2.508 2.508 0 00-2.515 2.5c0 .7.29 1.352.793 1.823a2.512 2.512 0 001.722.677c.76 0 1.463-.336 1.96-.93l.193-.219v-2.481l-.304-.563-.058-.063a2.51 2.51 0 00-1.605-.737zm14.829 1.674h-3.35L19 22.995l1.675-1.885zM19 8a4 4 0 014 4v1h-8v-1a4 4 0 014-4zm0 2c-.703 0-1.321.363-1.678.91l-.054.09h3.463l-.053-.089a2 2 0 00-1.529-.906z" fill="currentColor" fill-rule="nonzero"/></g></symbol><symbol xmlns="http://www.w3.org/2000/svg" viewBox="0 0 32 32" id="flag-32"><path d="M23 17.613c-2.189.27-3.725-.325-5.468-1.005-1.958-.763-4.175-1.612-7.532-1.263V7.397c2.91-.596 4.78.184 6.758 1.014 1.808.76 3.678 1.543 6.242 1.276v7.926zm.789-10.074c-2.606.56-4.298-.15-6.257-.972-1.99-.836-4.247-1.758-7.532-1.193V4H8v24h2V17.351c2.986-.355 4.848.356 6.806 1.12 1.53.597 3.099 1.21 5.13 1.21.695 0 1.445-.073 2.266-.242l.798-.165V7.278l-1.211.261z" fill="currentColor" fill-rule="evenodd"/></symbol><symbol xmlns="http://www.w3.org/2000/svg" viewBox="0 0 32 32" id="gear-32"><g fill="currentColor" fill-rule="evenodd"><path d="M16.002 18.18a2.133 2.133 0 01-2.131-2.132c0-1.175.956-2.13 2.131-2.13 1.175 0 2.131.955 2.131 2.13a2.133 2.133 0 01-2.131 2.131m0-6.262a4.135 4.135 0 00-4.131 4.131 4.135 4.135 0 004.131 4.131 4.135 4.135 0 004.131-4.13 4.135 4.135 0 00-4.131-4.132"/><path d="M23.787 18.456a10.262 10.262 0 01-1.765 2.985l-.455.537 1.494 2.58-3.119 1.824-1.503-2.597-.715.159a7.575 7.575 0 01-1.722.199 7.116 7.116 0 01-1.696-.193l-.73-.183-1.515 2.615-3.118-1.823 1.51-2.61-.5-.54c-.867-.94-1.41-1.856-1.713-2.884l-.21-.718H5v-3.591h2.973l.244-.65a10.262 10.262 0 011.765-2.984l.454-.538-1.493-2.58 3.118-1.823 1.505 2.598.715-.16a7.477 7.477 0 011.721-.2c.603 0 1.19.068 1.696.195l.731.183 1.513-2.616 3.12 1.823-1.51 2.609.5.54c.865.94 1.41 1.857 1.712 2.885l.211.718h3.03v3.59H24.03l-.244.65zm5.217 1.35v-7.59h-3.567a8.935 8.935 0 00-1.428-2.397l1.781-3.076L19.218 2.9l-1.785 3.085a9.548 9.548 0 00-2.859.004l-1.788-3.09-6.572 3.844 1.797 3.104a12.37 12.37 0 00-1.4 2.369H3v7.59h3.566a8.946 8.946 0 001.428 2.398l-1.78 3.077 6.571 3.842 1.786-3.084a9.477 9.477 0 002.858-.005l1.788 3.089 6.572-3.842-1.797-3.105c.556-.74 1.03-1.542 1.4-2.37h3.611z"/></g></symbol><symbol xmlns="http://www.w3.org/2000/svg" viewBox="0 0 32 32" id="globe-32"><g fill="currentColor"><path d="M9.303 20.654c-3.937-3.936-3.937-10.403 0-14.34L7.888 4.9c-4.717 4.718-4.717 12.45 0 17.169 4.718 4.718 12.451 4.718 17.17 0l-1.415-1.415c-3.937 3.937-10.403 3.937-14.34 0z"/><path d="M25.78 24.295l1.403-1.426-4.154-4.085-1.402 1.426zM10.115 8.63l1.414-1.414L7.444 3.13 6.03 4.545z"/><path d="M24.999 13.648A8.5 8.5 0 108 13.352a8.5 8.5 0 0017 .296zM10 13.387a6.5 6.5 0 1112.998.226A6.5 6.5 0 0110 13.387zM15 30h2v-5h-2z"/><path d="M20 30v-2h-8v2z"/></g></symbol><symbol xmlns="http://www.w3.org/2000/svg" viewBox="0 0 28 29" id="gravestone-32"><path d="M15.836 10.28c3.899 1.803 6.253 4.04 6.947 6.72H26V9.727c0-2.54-1.94-4.758-6.02-6.639-2.235.95-3.944 2.295-4.888 3.54l-1.594-1.207c1.216-1.605 3.364-3.261 6.136-4.352l.388-.152.382.168C25.394 3.29 28 6.165 28 9.727V19h-5v10H7v-6H0V12.727C0 9.165 2.602 6.29 7.587 4.085l.404-.178.405.178c4.249 1.879 6.794 3.933 7.44 6.195zm-2.062.185c-.622-1.38-2.534-2.882-5.781-4.368C3.93 7.976 2 10.19 2 12.727V21h5v-2.273c0-3.361 2.32-6.111 6.774-8.262zM9 18.727V27h12v-8.273c0-2.537-1.933-4.75-6-6.63-4.067 1.88-6 4.093-6 6.63z" fill="currentColor"/></symbol><symbol xmlns="http://www.w3.org/2000/svg" viewBox="0 0 32 32" id="growth-arrow-32"><path fill="currentColor" d="M19.017 8v2h5.586l-7.586 7.586-5-5.001-8.707 8.708 1.414 1.414 7.293-7.293 5 5 9-9V17h2V8z" fill-rule="evenodd"/></symbol><symbol xmlns="http://www.w3.org/2000/svg" viewBox="0 0 32 32" id="guide-32"><g fill="currentColor" fill-rule="evenodd"><path d="M15 27h2V3h-2z"/><path d="M16 5v2.001h6.172L23.67 8.5 22.172 10H18v2h5l3.5-3.5L23 5zm0 8v2.001h8.172L25.67 16.5 24.172 18H18v2h7l3.5-3.5L25 13zm-2 2v-2H7.828L6.33 11.5 7.828 10H16V8H7l-3.5 3.5L7 15zm-3 12h10v2H11z"/></g></symbol><symbol xmlns="http://www.w3.org/2000/svg" viewBox="0 0 32 32" id="heart-32"><path d="M25.508 15.89l-9.493 9.492-9.493-9.492c-1.996-1.997-1.996-5.37 0-7.368 1-.998 2.341-1.498 3.684-1.498 1.342 0 2.685.5 3.684 1.498l2.125 2.125 2.125-2.125c2-1.996 5.371-1.995 7.368 0 1.997 1.997 1.997 5.371 0 7.368m1.414-8.782c-2.81-2.81-7.385-2.812-10.196 0l-.71.711-.712-.71c-2.812-2.813-7.387-2.81-10.196 0-2.81 2.81-2.81 7.384 0 10.195L16.015 28.21l10.907-10.906a7.154 7.154 0 002.094-5.099 7.151 7.151 0 00-2.094-5.097" fill="currentColor" fill-rule="evenodd"/></symbol><symbol xmlns="http://www.w3.org/2000/svg" viewBox="0 0 32 32" id="heartbeat-32"><path d="M5.762 5.767A2.575 2.575 0 017.612 5c.704 0 1.361.272 1.85.767L11 7.327l1.54-1.56c.974-.99 2.722-.99 3.698 0 1.013 1.027 1.013 2.762 0 3.789L11 14.868 5.762 9.556c-1.013-1.027-1.013-2.762 0-3.79zM11 17.715l6.662-6.755c1.794-1.82 1.794-4.778 0-6.597A4.559 4.559 0 0014.39 3a4.557 4.557 0 00-3.273 1.363L11 4.48l-.115-.117A4.561 4.561 0 007.611 3a4.559 4.559 0 00-3.273 1.363c-1.794 1.819-1.794 4.778 0 6.597L11 17.715zM28.614 20l-4.557-7.895-7.934 11.907-2.952-5.899L9.47 23H2v2h8.466l2.357-3.113 3.054 6.101 8.058-12.093L27.46 22h2.59v-2z" fill="currentColor" fill-rule="evenodd"/></symbol><symbol xmlns="http://www.w3.org/2000/svg" viewBox="0 0 32 32" id="house-32"><g fill="currentColor" fill-rule="evenodd"><path d="M16.004 3.74L3 13.681v14.318h2v-13.33l11.004-8.412L27 14.669v13.33h2V13.681z"/><path d="M12 18.009v10h2v-8h4v8h2v-10z"/></g></symbol><symbol xmlns="http://www.w3.org/2000/svg" viewBox="0 0 32 32" id="house-sun-32"><g fill="currentColor" fill-rule="evenodd"><path d="M24 3h-2c0 3.859 3.14 7 7 7V8c-2.804 0-5-2.196-5-5zm-5.313 8.86l1.41 1.418 3.086-3.069-1.41-1.418zM15.957 6H20V4h-4.043zM26 16h2v-4h-2zM3 17.95V29h2V18.95l7.684-5.772L20 18.934V29h2V17.964l-9.288-7.307z"/><path d="M9 29h2v-6h3v6h2v-8H9z"/></g></symbol><symbol xmlns="http://www.w3.org/2000/svg" viewBox="0 0 32 32" id="id-card-32"><g fill="currentColor"><path d="M27 21.6c0 .744-.657 1.4-1.4 1.4H6.203C5.531 23 5 22.313 5 21.6V10.4C5 9.628 5.628 9 6.4 9h19.2c.772 0 1.4.628 1.4 1.4v11.2zM6.4 7A3.404 3.404 0 003 10.4v11.2c0 1.533 1.531 3.38 3.203 3.38L25.6 25c1.806 0 3.4-1.672 3.4-3.4V10.4C29 8.526 27.475 7 25.6 7H6.4z"/><path d="M18 15h7v-2h-7zm0 4h7v-2h-7zm-6-2.507a1.498 1.498 0 010-2.993 1.498 1.498 0 010 2.993m0-4.993a3.5 3.5 0 00-3.496 3.497A3.5 3.5 0 0012 18.493a3.5 3.5 0 003.496-3.496A3.5 3.5 0 0012 11.5"/><path d="M18 23h-2a4 4 0 10-8 0H6a6 6 0 1112 0z"/></g></symbol><symbol xmlns="http://www.w3.org/2000/svg" viewBox="0 0 32 32" id="info-enclosed-32"><g fill="currentColor" fill-rule="evenodd"><path d="M15 23h2v-9h-2zm1.017-13.938a1.5 1.5 0 100 3 1.5 1.5 0 000-3"/><path d="M16 27C9.935 27 5 22.065 5 16S9.935 5 16 5s11 4.935 11 11-4.935 11-11 11m0-24C8.832 3 3 8.832 3 16s5.832 13 13 13 13-5.832 13-13S23.168 3 16 3"/></g></symbol><symbol xmlns="http://www.w3.org/2000/svg" viewBox="0 0 32 32" id="instagram-32"><g fill="currentColor" fill-rule="evenodd"><path d="M4 4v24h24V4H4zM2 2h28v28H2V2z" fill-rule="nonzero"/><path d="M13.332 15.997a2.666 2.666 0 105.331.001 2.666 2.666 0 00-5.331 0z"/><path d="M19.286 11.715a1 1 0 112-.001 1 1 0 01-2 0zM11.892 16a4.108 4.108 0 118.216 0 4.108 4.108 0 01-8.216 0zm11.688-5.24a3.91 3.91 0 00-.923-1.417 3.92 3.92 0 00-1.417-.923c-.509-.198-1.09-.333-1.942-.372C18.445 8.009 18.173 8 16 8s-2.445.01-3.298.048c-.852.039-1.433.174-1.942.372a3.92 3.92 0 00-1.417.923c-.445.444-.718.89-.923 1.417-.198.508-.333 1.09-.372 1.942C8.009 13.555 8 13.827 8 16s.01 2.445.048 3.298c.039.852.174 1.433.372 1.942.205.526.478.972.923 1.417.445.445.89.718 1.417.923.509.198 1.09.333 1.942.371.853.04 1.125.048 3.298.048s2.445-.009 3.298-.048c.852-.038 1.433-.173 1.942-.371a3.925 3.925 0 001.417-.923 3.92 3.92 0 00.923-1.417c.198-.509.333-1.09.372-1.942.039-.853.048-1.125.048-3.298s-.01-2.445-.048-3.298c-.039-.852-.174-1.434-.372-1.942z"/></g></symbol><symbol xmlns="http://www.w3.org/2000/svg" viewBox="0 0 32 32" id="institution-32"><path d="M7 21h2V11H7zm-4 6h26v-2H3zm2-3h22v-2H5zM15.99 3.9L7.798 8.014H4v2h4.273l7.738-3.887 8.107 3.887H28v-2h-3.428zM11 21h2V11h-2zm4 0h2V11h-2zm4 0h2V11h-2zm4 0h2V11h-2z" fill="currentColor" fill-rule="evenodd"/></symbol><symbol xmlns="http://www.w3.org/2000/svg" viewBox="0 0 32 32" id="letter-32"><g fill="currentColor"><path d="M5 24h22V8H5v16zM29 6v20H3V6h26z"/><path d="M16.038 16.962L4.678 6.587 3.322 8.06l12.72 11.625L28.679 8.057 27.321 6.59zm11.695 6.358l-5.5-6-1.466 1.36 5.5 6zm-22 1.36l5.5-6-1.466-1.36-5.5 6z"/></g></symbol><symbol xmlns="http://www.w3.org/2000/svg" viewBox="0 0 32 32" id="linkedin-32"><g fill="currentColor" fill-rule="evenodd"><path d="M4 4v24h24V4H4zM2 2h28v28H2V2z" fill-rule="nonzero"/><path d="M10.493 8.25a1.733 1.733 0 100 3.466 1.733 1.733 0 000-3.466zM14 13v9.621h2.99v-4.76c0-1.254.237-2.47 1.793-2.47 1.532 0 1.554 1.435 1.554 2.551v4.679h2.987v-5.277c0-2.591-.56-4.584-3.585-4.584-1.454 0-2.43.798-2.83 1.555h-.04V13H14zm-5 9.621h3V13H9z"/></g></symbol><symbol xmlns="http://www.w3.org/2000/svg" viewBox="0 0 32 32" id="list-32"><g transform="translate(4 7)" fill="currentColor" fill-rule="evenodd"><path fill-rule="nonzero" d="M7 3h16V1H7zm0 7h16V8H7zm0 7h16v-2H7z"/><circle cx="2" cy="2" r="1.5"/><circle cx="2" cy="9" r="1.5"/><circle cx="2" cy="16" r="1.5"/></g></symbol><symbol xmlns="http://www.w3.org/2000/svg" viewBox="0 0 32 32" id="login-bankid-32"><path d="M30.19 11.016c-.015.569-.099 1.13-.197 1.687a12.161 12.161 0 01-.662 2.344 11.224 11.224 0 01-1.58 2.79 10.604 10.604 0 01-3.207 2.76c-.852.477-1.746.828-2.684 1.065a9.62 9.62 0 01-1.359.252c-.243.023-.488.055-.733.068-.316.016-.634.021-.951.025-.36.003-.72 0-1.08 0H17.6l.904-5.994.38-.022a5.524 5.524 0 001.54-.313 3.964 3.964 0 001.644-1.101c.364-.411.626-.888.801-1.416a6.187 6.187 0 00.279-1.528c.03-.453 0-.898-.117-1.335-.184-.687-.577-1.205-1.185-1.543a3.591 3.591 0 00-1.102-.382 6.398 6.398 0 00-1.172-.098h-1.66c-.233 0-.458-.042-.672-.14a1.177 1.177 0 01-.404-.298c-.202-.23-.192-.547-.024-.821a1.72 1.72 0 01.457-.47c.192-.143.37-.3.523-.489.184-.225.313-.48.318-.779a1.087 1.087 0 00-.287-.774c-.226-.246-.513-.37-.823-.443a2.857 2.857 0 00-.947-.068c-.577.055-1.095.26-1.51.7-.195.206-.332.448-.354.747a1.03 1.03 0 00.096.493 1.5 1.5 0 00.468.568.92.92 0 01.283.335c.114.258.047.492-.095.713-.128.197-.3.344-.5.457a1.89 1.89 0 01-.796.251c-.124.01-.248.016-.373.018-.31.002-.621 0-.931 0h-.138c.011-.098.018-.183.03-.267.105-.688.212-1.377.316-2.064l.433-2.871c.05-.323.102-.646.15-.967.005-.036.005-.072.008-.106h7.82c.03.004.06.013.09.013.388.008.776.039 1.163.08.435.045.869.107 1.3.193.9.178 1.775.442 2.61.846.89.432 1.688.996 2.353 1.756.45.514.808 1.09 1.084 1.722.207.472.361.962.465 1.468.086.42.158.842.167 1.273.001.079.013.157.022.235v1.185c-.009.082-.021.163-.023.245zM5.127 8.78h.107c.372 0 .744.003 1.115 0 .388-.002.768-.07 1.124-.237.386-.178.708-.436.923-.823.283-.507.213-1.033-.17-1.441-.072-.075-.155-.14-.23-.21-.06-.055-.121-.108-.173-.17-.213-.262-.212-.54.003-.802.211-.256.482-.415.788-.51.46-.145.926-.132 1.389-.013.15.038.292.106.416.209a.625.625 0 01.132.78c-.131.238-.328.41-.54.567a2.344 2.344 0 00-.542.534 1.306 1.306 0 00-.257.85c.015.245.108.458.261.64.273.325.627.5 1.027.582.092.018.187.027.281.028.394.003.788.001 1.182.001h.135c-.018.142-.034.27-.053.397l-.197 1.284c-.084.54-.166 1.08-.248 1.622l-.257 1.704-.239 1.563c-.056.366-.124.73-.162 1.098-.077.748-.215 1.487-.322 2.23-.103.721-.212 1.44-.32 2.16-.055.366-.108.733-.164 1.098-.004.026-.013.052-.02.08H3.137l1.99-13.22M4.175 26.76c.173.023.6.018.731-.011.346-.077.562-.293.613-.666.044-.311-.102-.536-.4-.591-.136-.025-.279-.024-.418-.029-.109-.004-.218 0-.332 0l-.194 1.298m-.323 2.188c.024.005.039.01.053.01.208 0 .417.005.625-.004a.99.99 0 00.277-.057.718.718 0 00.396-.315c.074-.124.107-.26.125-.402.027-.217-.072-.423-.235-.509a.801.801 0 00-.37-.099h-.569c-.033 0-.065.007-.1.011-.07.46-.136.91-.202 1.365M2 29.64c.014-.04.034-.078.04-.119.08-.532.158-1.066.237-1.599l.178-1.178.199-1.33.105-.735c.035-.002.067-.008.1-.008.972-.001 1.947-.006 2.92.002.323.004.64.07.912.272.216.16.34.376.362.653.041.498-.151.879-.54 1.157-.075.053-.158.094-.236.14l-.11.065.22.115c.217.117.399.272.51.504.09.188.112.389.095.598a1.73 1.73 0 01-.2.696 1.64 1.64 0 01-1.105.834c-.146.034-.299.05-.449.05-1.079.004-2.158.002-3.238.002v-.119m7.532-.657c-.215.137-.452.246-.729.241-.185-.003-.357-.155-.328-.402a.482.482 0 01.272-.395c.115-.059.237-.103.357-.148.089-.033.181-.056.271-.087.088-.032.174-.07.275-.11l-.118.901m1.626-.265c-.105-.026-.156-.09-.156-.201-.001-.08 0-.159.012-.237.06-.428.135-.854.184-1.284a.999.999 0 00-.208-.775 1.16 1.16 0 00-.505-.346c-.341-.131-.697-.139-1.053-.116-.587.038-1.105.275-1.582.622-.038.027-.05.062-.056.108-.04.284-.085.568-.128.851l-.03.246.082-.048c.086-.058.17-.117.257-.173.295-.188.6-.354.944-.418.186-.035.374-.05.562-.01.182.037.273.14.288.326.007.078-.01.14-.09.17-.17.065-.337.139-.51.193-.317.1-.64.184-.958.283-.337.107-.614.302-.787.634a.952.952 0 00-.092.654c.077.348.325.503.633.584.058.015.116.033.174.05h.477c.259-.051.518-.1.759-.216.099-.047.195-.1.298-.153.082.13.19.231.333.28.095.033.196.051.294.076l.044.013h.546c.055-.011.088-.042.11-.1.1-.256.206-.51.308-.764.028-.067.054-.136.084-.21-.087-.014-.161-.021-.234-.04m16.664-.796c-.174.329-.455.509-.803.58-.266.056-.534.033-.82.034.126-.883.26-1.755.39-2.644.297-.004.587-.03.866.057.352.11.549.371.598.742.057.435-.03.85-.231 1.231m1.83-1.885a1.86 1.86 0 00-1.042-1.153 2.471 2.471 0 00-1.016-.209c-.81-.002-1.622 0-2.432 0h-.113l-.755 5.085h2.714a3 3 0 00.697-.074c.47-.112.877-.34 1.221-.69.295-.299.512-.653.66-1.05.23-.628.284-1.266.066-1.909M15.75 29.755c.008-.029.016-.054.02-.08l.119-.794c.081-.553.162-1.106.245-1.659.034-.226.051-.453.006-.68a.9.9 0 00-.479-.666c-.28-.145-.579-.144-.877-.107-.29.035-.548.168-.782.35l-.23.176.06-.48h-1.496l-.584 3.939h1.497c.007-.036.015-.066.02-.097l.17-1.144c.046-.316.091-.63.14-.946.007-.046.012-.098.037-.134.14-.199.313-.356.556-.393.213-.032.428.064.416.362a3.23 3.23 0 01-.037.351c-.065.449-.132.896-.198 1.343-.031.217-.063.435-.097.659h1.494m1.521-5.078c-.008.037-.015.067-.02.097l-.213 1.447-.308 2.066c-.058.388-.12.777-.174 1.167-.013.097-.05.196-.027.301h1.484l.27-1.797c.024.031.037.045.046.06.344.553.688 1.105 1.03 1.658.036.06.074.086.145.086.563-.004 1.128-.003 1.693-.003.025 0 .05-.002.099-.004L19.833 27.5c.61-.562 1.21-1.113 1.833-1.683-.065-.004-.101-.007-.137-.007-.496 0-.992.01-1.489-.005a.526.526 0 00-.418.174c-.32.319-.648.627-.975.938-.07.068-.144.134-.217.2.093-.818.224-1.622.335-2.438H17.27m5.245.001c-.253 1.699-.502 3.385-.752 5.073h1.72c.251-1.691.5-3.377.753-5.073h-1.721z" fill="currentColor" fill-rule="evenodd"/></symbol><symbol xmlns="http://www.w3.org/2000/svg" viewBox="0 0 32 32" id="login-device-32"><g fill="currentColor" fill-rule="evenodd"><path d="M21.869 4.924l.082-.92.082.006.08.008.081.01.08.012.08.015.079.016.078.02.078.02.077.023.076.025.075.026.074.03.074.03.073.032.071.035.071.036.07.038.07.04.067.042.067.043.065.045.065.047.064.048.062.05.061.051.06.053.059.055.058.056.056.057.055.06.054.06.052.061.051.064.05.064.048.066.047.067.046.069.044.07.042.07.041.072.04.073.038.075.036.075.035.077.033.077.031.08.03.079.028.08.026.082.024.083.023.083.02.085.02.085.017.085.015.087.013.088.011.087.01.089.007.089.005.09.003.09.001.082v16.966l-.001.083-.003.09-.005.09-.007.088-.01.089-.01.087-.014.088-.015.086-.017.086-.02.085-.02.085-.023.083-.024.083-.026.081-.028.08-.03.08-.031.08-.033.077-.035.077-.036.075-.038.075-.04.073-.04.072-.043.071-.044.07-.046.068-.047.067-.048.066-.05.064-.051.064-.052.061-.054.06-.055.06-.057.057-.057.056-.059.055-.06.053-.061.051-.062.05-.064.048-.065.047-.065.045-.067.043-.068.042-.069.04-.07.038-.07.036-.072.035-.073.032-.074.03-.074.03-.075.026-.076.025-.077.023-.078.02-.078.02-.08.016-.078.015-.08.012-.081.01-.081.008-.082.006-.082.003-.075.001H10.206l-.075-.001-.082-.003-.081-.006-.082-.008-.08-.01-.08-.012-.08-.015-.079-.016-.078-.02-.078-.02-.077-.023-.076-.025-.075-.026-.074-.03-.074-.03-.073-.032-.072-.035-.07-.036-.07-.038-.069-.04-.068-.042-.067-.043-.065-.045-.065-.047-.064-.048-.062-.05-.061-.051-.06-.053-.059-.055-.057-.056-.057-.057-.055-.06-.054-.06-.052-.062-.051-.063-.05-.064-.048-.066-.047-.067-.046-.068-.044-.07-.042-.071-.041-.072-.04-.073-.038-.075-.036-.075-.035-.077-.033-.078-.031-.078-.03-.08-.028-.08-.026-.082-.024-.083-.023-.084-.02-.084-.02-.085-.017-.086-.015-.086-.013-.087-.011-.088-.01-.089-.007-.089-.005-.09-.003-.09L7 24.484V7.517l.001-.083.003-.09.005-.09.007-.088.01-.089.01-.088.014-.087.015-.086.017-.086.02-.085.02-.085.023-.083.024-.083.026-.081.028-.08.03-.08.031-.08.033-.077.035-.077.036-.075.038-.075.04-.073.041-.072.042-.07.044-.07.046-.069.047-.067.048-.066.05-.064.051-.064.052-.061.054-.06.055-.06.056-.057.058-.056.06-.055.06-.053.06-.051.062-.05.064-.048.065-.047.065-.045.067-.043.068-.042.069-.04.07-.038.07-.036.072-.035.073-.032.074-.03.074-.03.075-.026.076-.025.077-.023.078-.02.078-.02.079-.016.08-.015.08-.012.08-.01.082-.008.081-.006.082-.003.075-.001h11.588l.075.001v.923zM9.949 6.002l-.05.004-.05.007-.05.01-.048.012-.047.015-.046.017-.045.02-.044.022-.043.024-.042.027-.041.03-.04.03-.038.034-.036.035-.035.037-.034.039-.031.04-.044.064-.04.068-.036.07-.03.073-.026.076-.021.077-.016.081-.01.083L9 7.083V24.88l.001.067.007.085.012.082.018.08.023.077.027.075.033.072.036.07.042.065.045.063.033.04.034.038.036.036.037.034.04.032.039.03.042.028.042.026.044.023.044.021.046.019.046.016.048.013.049.011.05.009.05.006.052.002H21.99l.06-.002.051-.004.05-.007.05-.01.048-.012.047-.015.046-.017.045-.02.044-.022.043-.025.042-.026.041-.03.04-.03.038-.034.036-.035.035-.037.034-.039.032-.04.044-.064.04-.068.035-.07.03-.073.026-.075.021-.079.016-.08.01-.083.006-.086V7.12l-.001-.067-.007-.085-.012-.082-.018-.08-.023-.077-.027-.075-.032-.072-.037-.07-.042-.065-.03-.043-.031-.04-.034-.04-.035-.036-.036-.035-.038-.034-.04-.03-.04-.03-.043-.027-.043-.024-.044-.022-.045-.02-.046-.017-.047-.015-.048-.012-.05-.01-.05-.007-.05-.004L21.99 6H10.01l-.06.002z"/><path d="M15 16a2 2 0 11-3.999.001A2 2 0 0115 16m4.121 2.05a2 2 0 11-.14-3.996 2 2 0 01.14 3.996zM15 21a2 2 0 11-3.999.001A2 2 0 0115 21m6 0a2 2 0 11-3.999.001A2 2 0 0121 21M11 11h10V9H11z"/></g></symbol><symbol xmlns="http://www.w3.org/2000/svg" viewBox="0 0 32 32" id="login-pincode-32"><g fill="currentColor" fill-rule="evenodd"><path d="M25 20V9H2v11h23zm-2-2v-7H4v7h19z"/><path d="M31.482 18.814l-8.826 8.826-4.403-4.404 1.515-1.515 2.888 2.888 7.31-7.31zM9 14.5a1.5 1.5 0 11-3 0 1.5 1.5 0 013 0m2.5 1.5a1.5 1.5 0 110-3 1.5 1.5 0 010 3zm5.5-1.5a1.5 1.5 0 11-3 0 1.5 1.5 0 013 0m4 0a1.5 1.5 0 11-3 0 1.5 1.5 0 013 0"/></g></symbol><symbol xmlns="http://www.w3.org/2000/svg" viewBox="0 0 32 32" id="logout-32"><g fill="currentColor" fill-rule="evenodd"><path d="M23.655 12l2.961 3.013H16v2h10.617l-2.96 3.012 1.425 1.403 5.32-5.415-5.319-5.415z"/><path d="M14.887 25.425a9.32 9.32 0 01-6.641-2.752c-3.663-3.673-3.663-9.648 0-13.32A9.316 9.316 0 0114.887 6.6c2.512 0 4.87.977 6.641 2.752l1.416-1.412a11.303 11.303 0 00-8.057-3.34A11.303 11.303 0 006.83 7.94c-4.44 4.451-4.44 11.694 0 16.145a11.303 11.303 0 008.057 3.34c3.047 0 5.908-1.186 8.057-3.34l-1.416-1.412a9.32 9.32 0 01-6.641 2.752"/></g></symbol><symbol xmlns="http://www.w3.org/2000/svg" viewBox="0 0 32 32" id="mc-32"><g fill="none" fill-rule="evenodd"><path d="M0 0h32v32H0z"/><path d="M20.768 5.36L27.135 13H25c-.987 0-2.167.596-3.22 1.467l.744.737a4.819 4.819 0 11-1.408 1.423l-.74-.735c-.774.964-1.311 2.026-1.37 2.941L19 19v.414L17.414 21h-4.828l-3.087-3.085-1.792 1.792-1.414-1.414L8.085 16.5l-2.501-2.501L3 14v-2h3.414l7 6.999h3.171l.437-.437.02-.168c.368-2.716 3.09-5.797 5.863-6.938l.256-.1-3.93-4.716 1.537-1.28zM4.862 14.726l.812 1.828a2.82 2.82 0 103.665 3.842l.092-.203 1.854.75a4.819 4.819 0 11-6.687-6.09l.264-.127zm20.31 1.686c-.42 0-.817.091-1.174.255l1.465 1.453-1.408 1.42-1.462-1.45a2.819 2.819 0 102.578-1.678zM8.289 9l4.928 3.109L17 12c1.206 0 1.932-.75 1.995-1.842L19 10h2c0 2.167-1.485 3.893-3.756 3.995l-4.579.131L7.71 11H3V9h5.29zM19 8v2h-2V8h2z" fill="currentColor" fill-rule="nonzero"/></g></symbol><symbol xmlns="http://www.w3.org/2000/svg" viewBox="0 0 32 32" id="menu-32"><path d="M7 11h18V8.999H7zm0 6h18v-2H7zm0 6h18v-2H7z" fill="currentColor" fill-rule="evenodd"/></symbol><symbol xmlns="http://www.w3.org/2000/svg" viewBox="0 0 32 32" id="menu-envelope-32"><g fill="currentColor"><path d="M5 24h22V8H5v16zM29 6v20H3V6h26z"/><path d="M16.038 16.962L4.678 6.587 3.322 8.06l12.72 11.625L28.679 8.057 27.321 6.59zm11.695 6.358l-5.5-6-1.466 1.36 5.5 6zm-22 1.36l5.5-6-1.466-1.36-5.5 6z"/></g></symbol><symbol xmlns="http://www.w3.org/2000/svg" viewBox="0 0 32 32" id="mobile-phone-32"><defs><path d="M15 0a3 3 0 013 3v22a3 3 0 01-3 3H3a3 3 0 01-3-3V3a3 3 0 013-3h12zm1 21H2v4a1 1 0 001 1h12a1 1 0 001-1v-4zm-7 1a1.5 1.5 0 110 3 1.5 1.5 0 010-3zM2 6v13h14V6H2zm0-2h14V3a1 1 0 00-1-1H3a1 1 0 00-1 1v1z" id="cxa"/></defs><g fill="none" fill-rule="evenodd"><path d="M0 0h32v32H0z"/><use fill="currentColor" fill-rule="nonzero" xlink:href="#cxa" transform="translate(7 2)"/></g></symbol><symbol xmlns="http://www.w3.org/2000/svg" viewBox="0 0 32 32" id="moped-32"><g fill="none" fill-rule="evenodd"><path d="M0 0h32v32H0z"/><path d="M26 17a4 4 0 110 8 4 4 0 010-8zm-22.326.955l1.07 1.69-.187.118-.072.073c-.27.299-.439.681-.477 1.096l-.008.18c0 1.035.808 1.864 1.793 1.864.5 0 .967-.213 1.303-.583l.062-.077.171-.333 1.78.91-.219.43-.093.148a3.762 3.762 0 01-3.004 1.505c-2.1 0-3.793-1.735-3.793-3.864 0-1.034.402-2.005 1.1-2.722l.155-.15.14-.108.279-.177zM26 19a2 2 0 100 4 2 2 0 000-4zM20.618 6l3.864 7.727c.22-.037.44-.06.662-.07l.219-.004c.51 0 1.148.047 1.917.141l.338.043-.264 1.983c-.842-.112-1.509-.167-1.991-.167-2.238 0-4.62 2.42-4.75 4.426l-.006.171v.355L19.477 22H9.632L2 15.497V10h13v1c0 2.148-1.523 3.998-3.568 4.953.631.626 1.664 1.047 2.84 1.047 2.093 0 3.492-.806 3.59-1.88l.005-.12h2c0 2.501-2.463 4-5.595 4-2.09 0-3.972-.952-4.897-2.43a6.78 6.78 0 01-.797.073l-.225.004v-2c1.872 0 3.675-1.078 4.358-2.465l.082-.182H4v2.573L10.369 20h8.153l.101-.124.002-.026c.188-2.13 1.84-4.347 3.95-5.462L19.381 8H17V6h3.618zm4.25 2.503l1.397 2.438-1.735.995-1.398-2.439 1.736-.994z" fill="currentColor" fill-rule="nonzero"/></g></symbol><symbol xmlns="http://www.w3.org/2000/svg" viewBox="0 0 32 32" id="navigation-accounts-32"><path d="M10 24V13.989L27 14l-.148-.011c.59.089 1.148.614 1.148 1.011v9c0 .448-.552 1-1 1H5c-.448 0-1-.552-1-1V7c0-.448.552-1 1-1h5c.448 0 1 .552 1 1v3h14c.578 0 .95.339 1.003 1.071L26 12l2 .281V11c-.13-1.86-1.382-3-3-3H13V7c0-1.552-1.448-3-3-3H5C3.448 4 2 5.448 2 7v17c0 1.552 1.448 3 3 3h22c1.552 0 3-1.448 3-3v-9c0-1.486-1.406-2.719-2.852-2.989L26.036 12H8v12c0 .499-.516 1-1 1h3v-1z" fill="currentColor"/></symbol><symbol xmlns="http://www.w3.org/2000/svg" viewBox="0 0 32 32" id="navigation-bank-32"><path d="M7 21h2V11H7zm-4 6h26v-2H3zm2-3h22v-2H5zM15.99 3.9L7.798 8.014H4v2h4.273l7.738-3.887 8.107 3.887H28v-2h-3.428zM11 21h2V11h-2zm4 0h2V11h-2zm4 0h2V11h-2zm4 0h2V11h-2z" fill="currentColor" fill-rule="evenodd"/></symbol><symbol xmlns="http://www.w3.org/2000/svg" viewBox="0 0 32 32" id="navigation-card-32"><g fill="currentColor"><path d="M4 22V9c0-.448.552-1 1-1h22c.448 0 1 .552 1 1v13c0 .448-.552 1-1 1H5c-.448 0-1-.552-1-1zm23 3c1.552 0 3-1.448 3-3V9c0-1.552-1.448-3-3-3H5C3.448 6 2 7.448 2 9v13c0 1.552 1.448 3 3 3h22z"/><path d="M4 10v2h24v-2zm8 7v-2H6v2z"/></g></symbol><symbol xmlns="http://www.w3.org/2000/svg" viewBox="0 0 32 32" id="navigation-filetransfer-32"><g fill="currentColor" fill-rule="evenodd"><path d="M17.974 10l3.197 3.198-6.125 6.579 1.154 1.154H12v-4.2l1.188 1.187 4.187-4.387-1.44-1.389-2.772 2.923L10 11.903v11.028h11.026l-3.196-3.197 6.125-6.579L22.801 12h4.2v4.201l-1.207-1.207-4.294 4.6 1.474 1.35 2.882-3.059L29 21.03V10z"/><path d="M19.414 3L5 3.001V29h19v-5h-2v3H7V5.002L18.584 5l2.852 2.812 1.415-1.414z"/></g></symbol><symbol xmlns="http://www.w3.org/2000/svg" viewBox="0 0 32 32" id="navigation-globe-32"><g fill="currentColor"><path d="M9.328 20.86c-3.937-3.938-3.937-10.404 0-14.34L7.913 5.104c-4.717 4.718-4.717 12.45 0 17.169 4.718 4.718 12.451 4.718 17.17 0l-1.415-1.415c-3.937 3.937-10.403 3.937-14.34 0z"/><path d="M25.78 24.295l1.403-1.426-4.154-4.085-1.402 1.426zM10.115 8.63l1.414-1.414L7.444 3.13 6.03 4.545z"/><path d="M24.999 13.648A8.5 8.5 0 108 13.352a8.5 8.5 0 0017 .296zM10 13.387a6.5 6.5 0 1112.998.226A6.5 6.5 0 0110 13.387zM15 30h2v-5h-2z"/><path d="M20 30v-2h-8v2z"/></g></symbol><symbol xmlns="http://www.w3.org/2000/svg" viewBox="0 0 32 32" id="navigation-home-32"><g fill="currentColor" fill-rule="evenodd"><path d="M16.004 3.74L3 13.681v14.318h2v-13.33l11.004-8.412L27 14.669v13.33h2V13.681z"/><path d="M12 18.009v10h2v-8h4v8h2v-10z"/></g></symbol><symbol xmlns="http://www.w3.org/2000/svg" viewBox="0 0 32 32" id="navigation-mortgage-32"><g fill="currentColor"><path d="M26.39 14.262L23.754 1.725l-20.77 4.42 2.72 12.535 10.166-2.214-.425-1.954-8.205 1.81-1.86-8.643 16.834-3.55 1.843 8.578-3.267.684.41 1.958z"/><path d="M22.5 14.25a3.75 3.75 0 10-7.5 0 3.75 3.75 0 007.5 0zm-5.5 0a1.75 1.75 0 113.5 0 1.75 1.75 0 01-3.5 0zm10.5 7a3.25 3.25 0 10-6.5 0 3.25 3.25 0 006.5 0zm-4.5 0a1.25 1.25 0 112.5 0 1.25 1.25 0 01-2.5 0zm-3 2.938l-7-5.456-7 5.456V30h2v-4.73l5-3.997 5 3.997V30h2z"/><path d="M12 30h2v-4h-2z"/></g></symbol><symbol xmlns="http://www.w3.org/2000/svg" viewBox="0 0 32 32" id="navigation-payment-32"><g fill="currentColor" fill-rule="evenodd"><path d="M30.482 20.814l-8.826 8.826-4.403-4.404 1.515-1.515 2.888 2.888 7.31-7.31z"/><path fill-rule="nonzero" d="M23.791 2.46l-13.72 2.667.382 1.964 11.836-2.263.984 4.35 1.95-.444z"/><path d="M4.336 15.135l1.987-8.796L24.214 10l-1.91 8.786s-8.45-1.908-9.459-2.112l-.396 1.96c.99.2 11.342 2.55 11.342 2.55l2.79-12.71-21.79-4.492-2.873 12.674 5.268 1.141.423-1.954-3.273-.708zM14.5 25A3.25 3.25 0 108 25a3.25 3.25 0 006.5 0zM10 25a1.25 1.25 0 112.5 0 1.25 1.25 0 01-2.5 0z" fill-rule="nonzero"/><path d="M13.5 16.25a3.75 3.75 0 10-7.5 0 3.75 3.75 0 007.5 0zm-5.5 0a1.75 1.75 0 113.5 0 1.75 1.75 0 01-3.5 0z" fill-rule="nonzero"/></g></symbol><symbol xmlns="http://www.w3.org/2000/svg" viewBox="0 0 32 32" id="navigation-pension-32"><path d="M16.004 3l-5.192 9h10.385l-5.193-9zm0 4.002L17.734 10h-3.459l1.729-2.998zM10.235 13l-4.038 7h19.615l-4.038-7H10.235zm1.155 2h9.228l1.731 3H9.66l1.73-3zm-5.77 6l-4.04 7.003L30.428 28l-4.039-7H5.62zm1.154 2h18.459l1.732 3-21.922.003L6.774 23z" fill="currentColor" fill-rule="evenodd"/></symbol><symbol xmlns="http://www.w3.org/2000/svg" viewBox="0 0 32 32" id="navigation-phone-32"><g fill="currentColor" fill-rule="evenodd"><path d="M9 5.319C9 4.628 9.625 4 10.308 4h11.384C22.375 4 23 4.628 23 5.319V26.68c0 .691-.624 1.319-1.308 1.319H10.308A1.31 1.31 0 019 26.681V5.32zM10.308 30h11.384C23.482 30 25 28.474 25 26.681V5.32C25 3.525 23.482 2 21.692 2H10.308C8.518 2 7 3.525 7 5.319V26.68A3.31 3.31 0 0010.308 30z" fill-rule="nonzero"/><path fill-rule="nonzero" d="M23 10V8H9v2zm0 13v-2H9v2z"/><path d="M16 24a1.5 1.5 0 110 3 1.5 1.5 0 010-3"/></g></symbol><symbol xmlns="http://www.w3.org/2000/svg" viewBox="0 0 32 32" id="navigation-piggybank-32"><g fill="currentColor"><path d="M3.753 11.845c-.476-.476-.476-1.33.002-1.809L2.339 8.624c-1.256 1.26-1.256 3.377 0 4.636 1.261 1.257 3.137 1.116 4.394-.142l-1.44-1.272c-.477.477-1.061.477-1.54 0z"/><path d="M22 22.37V26h-2v-3h-8.01v3H10v-3.63C7.901 21.366 6 18.843 6 16c0-3.16 2.859-6.03 5.99-6h6.499c.035-.078.063-.987 1.012-2C20.45 6.987 20.973 6.862 22 6.862v3.762c2 .625 2.906 2.157 3.154 4.376H28v2h-2.932C25 20.78 23.399 21.683 22 22.37zM29 19h1v-6h-3.233c-.289-1.558-1.444-3-2.767-3.563V5c-2.76 0-3.82 0-5.021 1-1.083.901-1.386 1.479-1.618 2H12c-.909.013-1.96.2-2.789.528C6.24 9.708 4 12.708 4 16c0 3.593 1.768 6.573 4 7.535V28h6v-3h4v3h6v-4.465c2-.963 3.06-3.018 3.062-4.535H29z"/><path d="M12.033 11.924v2H18v-2z"/></g></symbol><symbol xmlns="http://www.w3.org/2000/svg" viewBox="0 0 32 32" id="navigation-transfer-32"><path d="M20 25v4.204L30.519 20 20 10.796V15H10v1.83L4.52 12 10 7.23V9h9V7h-7V2.796L1.481 12 12 21.204V17h10v-1.821L27.473 20 22 24.802V23h-9v2z" fill="currentColor"/></symbol><symbol xmlns="http://www.w3.org/2000/svg" viewBox="0 0 32 32" id="navigation-umbrella-32"><g fill="currentColor"><path d="M17 6h-2c-4.57 0-8.865 3.854-9.809 8.236 1.329-1.007 3.017-1.509 4.878-1.509 2.311 0 4.47 1.062 5.938 2.796 1.492-1.7 3.788-2.796 5.993-2.796 1.879 0 3.511.473 4.789 1.434C25.803 9.824 21.506 6 17 6zm12 11.527h-2c-.957-1.995-2.76-2.8-5-2.8-1.886 0-3.968 1.146-5 2.8h-2c-1.032-1.654-2.867-2.8-4.93-2.8-2.064 0-4.042.778-5.07 2.8H3V16C3 10 8.562 4 15 4h2c6.375 0 12 6 12 12v1.527zm-14.209 9.552c-.306.503-.751.885-1.783.885s-1.935-.891-1.935-2.037H9.14c0 2.164 1.676 3.946 3.869 3.946C14.942 29.873 17 28.48 17 26c0-2.48-2 0-2 0s.097.575-.209 1.079z"/><path d="M15 16v10h2V16zm2-11V2h-2v3z"/></g></symbol><symbol xmlns="http://www.w3.org/2000/svg" viewBox="0 0 32 32" id="navigation-wages-32"><path d="M26 27.006H6.898C5.852 27.006 5 26.183 5 25.17V11.84c0-1.012.852-1.835 1.898-1.835h4.143l-2.144 2h-1.83v2H26v3h-3v2h4v3h-4v2h3v3zm-.32-16.978l-2.121 1.978h-11.73l8.395-7.83 5.456 5.852zM29 17.006h-1v-5h-1.508l2.014-1.88-8.183-8.776-7.137 6.656H6.898C4.749 8.006 3 9.726 3 11.84v13.33c0 2.115 1.749 3.835 3.898 3.835H28v-5h1v-7z" fill="currentColor" fill-rule="evenodd"/></symbol><symbol xmlns="http://www.w3.org/2000/svg" viewBox="0 0 32 32" id="notification-swish-32"><defs><path d="M6.931 21.247l.47-.578c3.187.896 6.694-.265 8.834-2.88 2.862-3.518 2.372-8.834-1.227-11.779l-.654-.49 2.975-3.486.602.452C20.493 4.521 22 7.609 22 11c0 6.102-4.898 11-11 11-1.356 0-2.713-.226-4.069-.753zM4.144 19.59A11.003 11.003 0 010 11C0 4.898 4.898 0 11 0c1.583 0 3.088.301 4.445.979l-.496.547C11.528.462 7.906 1.433 5.683 4.21c-2.863 3.6-2.29 8.753 1.309 11.78l.654.49-2.975 3.56-.527-.45z" id="dna"/></defs><g fill="none" fill-rule="evenodd"><path d="M0 0h32v32H0z"/><use fill="currentColor" fill-rule="nonzero" xlink:href="#dna" transform="translate(5 5)"/></g></symbol><symbol xmlns="http://www.w3.org/2000/svg" viewBox="0 0 32 32" id="padlock-32"><g fill="currentColor"><path d="M6 28V13.01h20V28H6zm18-2V15.01H8V26h16z"/><path d="M23.994 14.5V9.826C23.994 5.498 20.408 2 15.997 2S8 5.498 8 9.826V14.5h2V9.826C10 6.614 12.68 4 15.997 4c3.317 0 5.997 2.614 5.997 5.826V14.5h2z"/><path d="M21 14.542v-4.64C21 7.19 18.756 5 16 5s-5 2.19-5 4.903v4.64h2v-4.64C13 8.305 14.338 7 16 7s3 1.305 3 2.903v4.64h2zM17.492 22l-.712-2.15a.992.992 0 00.49-.851c0-.552-.459-.999-1.024-.999-.566 0-1.024.447-1.024.999 0 .36.196.675.49.85L15 22h2.492zm-4.27-3.001c0-1.668 1.365-2.999 3.024-2.999s3.024 1.331 3.024 2.999c0 .43-.093.844-.262 1.22L20.26 24h-8.029l1.252-3.782a2.968 2.968 0 01-.261-1.22z"/></g></symbol><symbol xmlns="http://www.w3.org/2000/svg" viewBox="0 0 32 32" id="paper-32"><path d="M6 3v26h20V10.584l-7.586-7.585H6zm2 2h9v6.998h7V27H8V5zm11 1.413l3.585 3.585H19V6.414z" fill="currentColor" fill-rule="evenodd"/></symbol><symbol xmlns="http://www.w3.org/2000/svg" viewBox="0 0 32 32" id="pdf-doc-32"><g fill="currentColor" fill-rule="evenodd"><path fill-rule="nonzero" d="M7 27V5h11.586L22 8.414V12h2V7.586L19.414 3H5v26h19.002l-.009-5.002-2 .004.005 2.998z"/><path d="M11.352 14.02v7.969h1.62V19.73h1.173c1.528 0 2.588-1.128 2.588-2.815 0-1.733-1.083-2.896-2.656-2.896h-2.725zm1.585 4.252v-2.77h1.208c.605 0 1.038.547 1.038 1.368 0 .844-.433 1.402-1.038 1.402h-1.208zm4.777-4.252V22h2.553c2.018 0 3.363-1.607 3.363-4.013 0-2.382-1.345-3.967-3.363-3.967h-2.553zm1.607 6.441v-4.902h.923c1.072 0 1.779.98 1.779 2.44 0 1.482-.707 2.462-1.779 2.462h-.923zm7.068-1.3h2.303v-1.493h-2.303v-2.155h2.588V14.02h-4.195V22h1.607v-2.839z"/></g></symbol><symbol xmlns="http://www.w3.org/2000/svg" viewBox="0 0 32 32" id="pencil-32"><g fill="currentColor" fill-rule="evenodd"><path d="M5 2.974v26h19v-10h-2v8H7v-22h15v-2z"/><path d="M26.364 7.228L16 17.592v1.415h1.414L27.778 8.643l-1.414-1.415zm-8.121 13.779H14v-4.243L26.364 4.4l4.243 4.243-12.364 12.364z" fill-rule="nonzero"/><path d="M24.414 7.6l2.829 2.828-1.415 1.414L23 9.014z"/></g></symbol><symbol xmlns="http://www.w3.org/2000/svg" viewBox="0 0 32 32" id="pension-32"><g fill="currentColor"><path d="M23.5 2H20v2h3.5zM30 7a5 5 0 01-5-5h2a3 3 0 003 3v2zm0 5V8.5h-2V12zm-6.636-1.91l2.475-2.476L24.425 6.2 21.95 8.675zM15 13.789l2-.002c0 .353.738 1.214 1.229 1.213l1.539.008c.1 0 .238-.149.238-.307v-1.117L12 8.5l-8 5.084v1.222c0 .141.052.194.17.194h1.58c.501-.001 1.244-.85 1.25-1.208l2 .015c0 .341.745 1.194 1.238 1.193h3.512c.49-.002 1.25-.874 1.25-1.211zM13.754 17H10.24c-.832.002-1.642-.449-2.244-1.074-.602.623-1.41 1.072-2.244 1.074h-1.58c-1.237.003-2.171-.96-2.173-2.192v-2.392l10-6.212 10.004 6.212v.583l.002 1.7c.001 1.23-.994 2.306-2.239 2.309L18.228 17c-.833.002-1.639-.451-2.237-1.08-.604.625-1.412 1.078-2.237 1.08z"/><path d="M11 16v11h2V16z"/><path d="M30 28c-1.375 0-2.4-.387-4.06-1.646-1.903-1.441-3.284-1.954-5.455-1.954-2.171 0-3.557.512-5.465 1.954C13.353 27.612 12.35 28 10.55 28H2v2h8.951c2.171 0 3.302-.512 5.21-1.953 1.668-1.26 2.523-1.647 4.324-1.647 1.8 0 2.652.387 4.312 1.645C26.7 29.487 27.83 30 30 30v-2z"/></g></symbol><symbol xmlns="http://www.w3.org/2000/svg" viewBox="0 0 32 32" id="pension-capital-32"><path d="M16.004 3l-5.192 9h10.385l-5.193-9zm-5.769 10l-4.038 7h19.615l-4.038-7H10.235zM5.62 21l-4.04 7.003L30.428 28l-4.039-7H5.62zm1.154 2h18.459l1.732 3-21.922.003L6.774 23z" fill="currentColor" fill-rule="evenodd"/></symbol><symbol xmlns="http://www.w3.org/2000/svg" viewBox="0 0 32 32" id="pension-occupational-32"><path d="M16.004 3l-5.192 9h10.385l-5.193-9zm0 4.002L17.734 10h-3.459l1.729-2.998zM10.235 13l-4.038 7h19.615l-4.038-7H10.235zM5.62 21l-4.04 7.003L30.428 28l-4.039-7H5.62zm1.154 2h18.459l1.732 3-21.922.003L6.774 23z" fill="currentColor" fill-rule="evenodd"/></symbol><symbol xmlns="http://www.w3.org/2000/svg" viewBox="0 0 32 32" id="pension-private-32"><path d="M16.004 3l-5.192 9h10.385l-5.193-9zm-5.769 10l-4.038 7h19.615l-4.038-7H10.235zm1.155 2h9.228l1.731 3H9.66l1.73-3zm-5.77 6l-4.04 7.003L30.428 28l-4.039-7H5.62zm1.154 2h18.459l1.732 3-21.922.003L6.774 23z" fill="currentColor" fill-rule="evenodd"/></symbol><symbol xmlns="http://www.w3.org/2000/svg" viewBox="0 0 32 32" id="pension-state-32"><path d="M16.004 3l-5.192 9h10.385l-5.193-9zm0 4.002L17.734 10h-3.459l1.729-2.998zM10.235 13l-4.038 7h19.615l-4.038-7H10.235zm1.155 2h9.228l1.731 3H9.66l1.73-3zm-5.77 6l-4.04 7.003L30.428 28l-4.039-7H5.62z" fill="currentColor" fill-rule="evenodd"/></symbol><symbol xmlns="http://www.w3.org/2000/svg" viewBox="0 0 32 32" id="percent-32"><path d="M21.5 27a4.5 4.5 0 100-9 4.5 4.5 0 000 9zm0-2a2.5 2.5 0 110-5 2.5 2.5 0 010 5zm-11-11a4.5 4.5 0 100-9 4.5 4.5 0 000 9zm0-2a2.5 2.5 0 110-5 2.5 2.5 0 010 5zm13.238-6.648l-17 20 1.524 1.296 17-20z" fill="currentColor"/></symbol><symbol xmlns="http://www.w3.org/2000/svg" viewBox="0 0 32 32" id="phone-32"><path d="M15.22 9.848c.142.277-.01.742-.292.888l-2.497 1.292-.122.17c-.418.578-.876 2.027.731 5.226 1.651 3.29 3.167 3.671 3.741 3.682l.223.004 2.506-1.297a.634.634 0 01.855.276l2.057 4.096c.144.287-.004.748-.289.895l-2.377 1.228c-.494.255-1.834.363-3.732-.853-1.42-.909-3.094-2.916-5.055-6.822C8.15 13.02 8.34 9.673 8.74 8.45c.28-.867.716-1.505 1.193-1.752l2.376-1.229a.619.619 0 01.485-.04c.164.053.29.162.369.318l2.058 4.102zM9.124 5.134c-.898.463-1.63 1.448-2.06 2.77-.465 1.432-.78 5.323 2.333 11.52 2.139 4.262 4.073 6.487 5.678 7.513 2.04 1.309 4.093 1.658 5.49.934l2.376-1.227a2.44 2.44 0 001.18-1.41 2.448 2.448 0 00-.125-1.837l-2.06-4.1A2.376 2.376 0 0020.54 18.1a2.385 2.385 0 00-1.838.15l-2.017 1.043c-.312-.149-1.087-.697-2.072-2.66-1.012-2.013-.974-2.964-.912-3.28l2.037-1.053c1.103-.573 1.61-2.149 1.053-3.245l-2.057-4.099a2.371 2.371 0 00-1.397-1.202 2.369 2.369 0 00-1.837.151L9.124 5.134z" fill="currentColor" fill-rule="evenodd"/></symbol><symbol xmlns="http://www.w3.org/2000/svg" viewBox="0 0 32 32" id="phone-landscape-32"><g fill="none" fill-rule="evenodd"><path d="M0 0h32v32H0z"/><path d="M28.152 19.91c0 4.231-2.19 6.534-6.235 6.713l.997.998-1.414 1.415-3.536-3.536 3.536-3.536 1.414 1.415-1.258 1.259c3.031-.057 4.424-1.493 4.493-4.49l.003-.239h2zM17.06 5.106a3 3 0 014.242 0l5.657 5.657a3 3 0 010 4.243l-12.02 12.02a3 3 0 01-4.243 0L5.04 21.371a3 3 0 010-4.243zm2.828 1.414a1 1 0 00-1.414 0L6.455 18.542a1 1 0 000 1.414l5.656 5.657a1 1 0 001.414 0l12.02-12.02a1 1 0 000-1.415zm-9.9 13.34a1.5 1.5 0 112.122 2.121 1.5 1.5 0 01-2.121-2.121zm.45-16.896l3.596 3.473-3.473 3.597-1.439-1.39 1.289-1.335c-3.092.084-4.486 1.544-4.502 4.57l.001.24-2 .034c-.073-4.225 2.07-6.565 6.1-6.82l-.962-.93 1.39-1.439z" fill="currentColor" fill-rule="nonzero"/></g></symbol><symbol xmlns="http://www.w3.org/2000/svg" viewBox="0 0 32 32" id="pin-32"><g fill="currentColor" fill-rule="evenodd"><path d="M8 12.796C8 8.496 11.579 5 15.978 5c4.398 0 7.976 3.497 7.976 7.796 0 2.015-.83 3.979-2.321 5.513l-5.655 5.54-5.639-5.524C8.831 16.774 8 14.81 8 12.795zm15.05 6.924c1.873-1.927 2.904-4.386 2.904-6.924C25.954 7.395 21.479 3 15.978 3 10.476 3 6 7.395 6 12.796c0 2.537 1.031 4.996 2.922 6.94L15.314 26H7v2h18v-2h-8.359l6.409-6.28z"/><path d="M15.977 14.913c-1.27 0-2.264-.956-2.264-2.177 0-1.22.995-2.177 2.264-2.177 1.27 0 2.264.957 2.264 2.177h2c0-2.343-1.872-4.177-4.263-4.177-2.392 0-4.265 1.834-4.265 4.177 0 2.342 1.873 4.177 4.265 4.177v-2z"/></g></symbol><symbol xmlns="http://www.w3.org/2000/svg" viewBox="0 0 32 32" id="plus-32"><path fill="currentColor" d="M15 8v7H8v2h7v7h2v-7h7v-2h-7V8z" fill-rule="evenodd"/></symbol><symbol xmlns="http://www.w3.org/2000/svg" viewBox="0 0 32 32" id="pregnant-32"><g fill="none" fill-rule="evenodd"><path d="M0 0h32v32H0z"/><path d="M21 25v5h-2v-5h2zM16 2a5.5 5.5 0 014.61 8.502c1.39.596 2.309 1.746 2.385 3.289L23 14v7a3.002 3.002 0 01-2.824 2.995L20 24h-5c-1.371 0-2.025-1.159-2-2.518.024-1.306.594-2.388 1.834-2.476L15 19l3-.001V15h2v6l-4.911-.001-.016.036a1.44 1.44 0 00-.066.34L15 21.52c-.004.184.02.344.058.45l.013.03H20c.512 0 .935-.387.993-.884L21 21v-7c0-.964-.669-1.63-1.852-1.868l-.142-.025A5.474 5.474 0 0116 13c-.996 0-1.93-.265-2.735-.727a2.353 2.353 0 00-1.258 1.911L12 14.36v.966c.219-.031.44-.05.665-.059l.23-.004v2c-2.592 0-4.895 2.288-4.895 4.77 0 1.094.43 2.126 1.2 2.93.767.801 2.013 1.29 3.413 1.347l.282.006v2c-.302 0-.6-.016-.895-.046V30h-2v-2.199c-.869-.332-1.638-.82-2.245-1.454C6.635 25.176 6 23.65 6 22.033c0-2.597 1.675-4.979 4-6.098V14.36c0-1.381.649-2.64 1.69-3.445A5.5 5.5 0 0116 2zm0 2a3.5 3.5 0 100 7 3.5 3.5 0 000-7z" fill="currentColor" fill-rule="nonzero"/></g></symbol><symbol xmlns="http://www.w3.org/2000/svg" viewBox="0 0 32 32" id="print-32"><g fill="none" fill-rule="evenodd"><path d="M0 0h32v32H0z"/><g fill="currentColor" fill-rule="nonzero"><path d="M4 20v-5.786C4 12.99 4.984 12 6.194 12h19.612c1.21 0 2.194.99 2.194 2.214V20h-5.824v2H30v-7.786C30 11.888 28.123 10 25.806 10H6.194C3.877 10 2 11.888 2 14.214V22h7.02v-2H4z"/><path d="M8 2h15v10H8V2zm2 2v6h11V4H10zM8 16h16v14H8V16zm2 2v10h12V18H10z"/><path d="M12 26h8.065v-2H12zm0-4h8.065v-2H12z"/></g></g></symbol><symbol xmlns="http://www.w3.org/2000/svg" viewBox="0 0 32 32" id="radio-enclosed-32"><g fill="currentColor" fill-rule="evenodd"><path d="M16 27C9.935 27 5 22.065 5 16S9.935 5 16 5s11 4.935 11 11-4.935 11-11 11m0-24C8.832 3 3 8.832 3 16s5.832 13 13 13 13-5.832 13-13S23.168 3 16 3"/><path d="M16.058 14.09c-1.157 0-1.967.836-1.967 1.91 0 1.074.926 1.909 1.967 1.909s1.851-.835 1.851-1.91c0-1.073-.694-1.908-1.851-1.908"/></g></symbol><symbol xmlns="http://www.w3.org/2000/svg" viewBox="0 0 32 32" id="radio-round-32"><g fill="currentColor" fill-rule="evenodd"><path d="M16 27C9.935 27 5 22.065 5 16S9.935 5 16 5s11 4.935 11 11-4.935 11-11 11m0-24C8.832 3 3 8.832 3 16s5.832 13 13 13 13-5.832 13-13S23.168 3 16 3"/><path d="M16 17.909a1.884 1.884 0 01-1.909-1.91c0-1.073.835-1.908 1.91-1.908 1.073 0 1.908.835 1.908 1.909A1.884 1.884 0 0116 17.909m0-7.818A5.915 5.915 0 0010.091 16a5.915 5.915 0 005.91 5.909 5.915 5.915 0 005.908-5.91A5.915 5.915 0 0016 10.092"/></g></symbol><symbol xmlns="http://www.w3.org/2000/svg" viewBox="0 0 32 32" id="rv-32"><g fill="none" fill-rule="evenodd"><path d="M0 0h32v32H0z"/><path d="M10 20a3 3 0 110 6 3 3 0 010-6zm13 0a3 3 0 110 6 3 3 0 010-6zm4.72-13l3.334 10-2.333 7H27v-2h.279l1.667-5.001L26.279 9H4.802l-1.555 6.999L6 16v2l-2.613-.001L4.72 22H6v2H3.28L.963 17.053 3.198 7H27.72zM10 22a1 1 0 100 2 1 1 0 000-2zm13 0a1 1 0 100 2 1 1 0 000-2zm-4 0v2h-5v-2h5zm0-11v10h-2v-8h-1v8h-2V11h5zm6.641 0l1.677 6H21v-6h4.641zm-1.518 2H23v2h1.682l-.559-2zM12 11v4h-2v-2H8v2H6v-4h6z" fill="currentColor" fill-rule="nonzero"/></g></symbol><symbol xmlns="http://www.w3.org/2000/svg" viewBox="0 0 32 32" id="save-32"><g fill="currentColor"><path d="M13.11 5.005c.14-.426.378-.819.703-1.147a2.872 2.872 0 014.094 0c.326.329.564.723.705 1.151l2.063.012a4.934 4.934 0 00-1.347-2.57 4.872 4.872 0 00-6.936 0 4.934 4.934 0 00-1.342 2.544l2.06.01zm13.015 11.074c0 2.548-.92 4.953-2.549 6.825l.83 6.096h-5.54l-1.035-2.762a10.148 10.148 0 01-3.928 0L12.87 29H7.33l.829-6.096a10.365 10.365 0 01-2.549-6.825c0-1.77.442-3.478 1.27-4.993L5.652 5.445l5.982 1.205a10.138 10.138 0 014.234-.923c1.479 0 2.915.318 4.234.923l5.982-1.205-1.229 5.64a10.38 10.38 0 011.27 4.994zm-4.658 6.153l.333-.348a8.366 8.366 0 002.325-5.805 8.376 8.376 0 00-1.188-4.317l-.203-.34.743-3.412-3.646.735-.307-.155a8.14 8.14 0 00-3.657-.863 8.14 8.14 0 00-3.657.863l-.307.155-3.646-.735L9 11.422l-.203.34a8.378 8.378 0 00-1.188 4.317c0 2.196.843 4.256 2.325 5.805l.333.348L9.62 27h1.863l1.186-3.165.892.262a8.173 8.173 0 004.614 0l.892-.262L20.252 27h1.863l-.648-4.768z"/><path d="M17.98 18.546c0-1.19-.952-2.152-2.12-2.152-1.168 0-2.12.961-2.12 2.152 0 1.19.951 2.151 2.12 2.151s2.12-.961 2.12-2.151zm2 0c0 2.29-1.842 4.151-4.12 4.151s-4.12-1.86-4.12-4.151c0-2.29 1.842-4.152 4.12-4.152s4.12 1.861 4.12 4.152zm-7.02-5.122c0-.102.078-.182.17-.182.092 0 .17.08.17.182h2c0-1.202-.97-2.182-2.17-2.182s-2.17.98-2.17 2.182h2zm5.46 0c0-.102.078-.182.17-.182.092 0 .17.08.17.182h2c0-1.202-.97-2.182-2.17-2.182s-2.17.98-2.17 2.182h2z"/></g></symbol><symbol xmlns="http://www.w3.org/2000/svg" viewBox="0 0 32 32" id="screen-32"><path d="M6.438 22.02A1.44 1.44 0 015 20.584V8.438a1.44 1.44 0 011.437-1.439h19.125A1.44 1.44 0 0127 8.439v12.146a1.44 1.44 0 01-1.438 1.436H6.438zm0-17.02A3.442 3.442 0 003 8.438v12.146a3.441 3.441 0 003.438 3.436H15V26H9v2h14v-2h-6v-1.98h8.563A3.44 3.44 0 0029 20.584V8.438a3.44 3.44 0 00-3.438-3.439H6.438z" fill="currentColor" fill-rule="evenodd"/></symbol><symbol xmlns="http://www.w3.org/2000/svg" viewBox="0 0 32 32" id="search-32"><path d="M26.07 27.485L21 22.415 22.414 21l5.071 5.07zM5.984 13.5c0 4.145 3.371 7.516 7.516 7.516 4.144 0 7.516-3.371 7.516-7.516S17.644 5.984 13.5 5.984c-4.145 0-7.516 3.371-7.516 7.516zM4 13.5C4 8.262 8.262 4 13.5 4S23 8.262 23 13.5c0 5.239-4.262 9.5-9.5 9.5S4 18.739 4 13.5z" fill="currentColor" fill-rule="evenodd"/></symbol><symbol xmlns="http://www.w3.org/2000/svg" viewBox="0 0 32 32" id="shield-32"><g fill="currentColor" fill-rule="evenodd"><path d="M23.25 4H8.75c0 1.912-1.798 3.75-3.75 3.75v9.492C5 24.062 16 29 16 29s11-4.938 11-11.758V7.75c-1.837 0-3.75-1.876-3.75-3.75m-1.581 2A6.393 6.393 0 0025 9.331v7.911c0 4.115-5.89 7.958-9 9.539-3.111-1.582-9-5.425-9-9.539v-7.88A6.072 6.072 0 0010.362 6h11.307"/><path fill-rule="nonzero" d="M11.5 12.414L12.914 11l7.657 7.657-1.414 1.414z"/><path fill-rule="nonzero" d="M19.157 11l1.414 1.414-7.657 7.657-1.414-1.414z"/></g></symbol><symbol xmlns="http://www.w3.org/2000/svg" viewBox="0 0 32 32" id="smalltruck-32"><g fill="none" fill-rule="evenodd"><path d="M0 0h32v32H0z"/><path d="M23 5v14H4.219l.6 3h1.216a3.251 3.251 0 016.186 0h8.289a3.251 3.251 0 016.186 0H28v-2.817L25.306 12H24v-2h2.693L30 18.819V24h-3.304a3.25 3.25 0 01-6.186 0h-8.29a3.25 3.25 0 01-6.186 0H3.181l-1-5H2V5h21zm.603 16.75a1.25 1.25 0 100 2.5 1.25 1.25 0 000-2.5zm-14.475 0a1.25 1.25 0 100 2.5 1.25 1.25 0 000-2.5zM21 7H4v10h17V7zm-3 7v2h-2v-2h2zM8 14v2H6v-2h2zm5 0v2h-2v-2h2z" fill="currentColor" fill-rule="nonzero"/></g></symbol><symbol xmlns="http://www.w3.org/2000/svg" viewBox="0 0 32 32" id="snailmail-32"><g fill="none" fill-rule="evenodd"><path d="M0 0h32v32H0z"/><g fill="currentColor" fill-rule="nonzero"><path d="M2 26h28v-2H2zM20 4h2V2h-4v11.343h2z"/><path d="M19 6H8v2h11zm-4 20v4h2v-4z"/><path d="M13 25V11a5 5 0 10-10 0v11h2V11a3 3 0 116 0v14h2zm17 0V11a5 5 0 00-5-5h-3v2h3a3 3 0 013 3v14h2z"/></g></g></symbol><symbol xmlns="http://www.w3.org/2000/svg" viewBox="0 0 32 32" id="snowmobile-32"><g fill="none" fill-rule="evenodd"><path d="M0 0h32v32H0z"/><path d="M15.37 18.029c1.502 0 2.63 1.382 2.63 3 0 1.617-1.127 3-2.63 3H4.63c-1.502 0-2.63-1.383-2.63-3s1.128-3 2.63-3zm2.337-10.736l9.69 9.69-2.251 2.363-.186.17 2.029 2.03c.418-.298.92-.792 1.713-1.61l.606-.629 1.442 1.386-.475.491c-2.411 2.482-3 2.798-5.076 2.815L20 24v-2l4.614-.001-1.308-1.307a3.2 3.2 0 01-1.128.3l-.215.008H19v-2h2.974a.99.99 0 00.438-.106c.31-.137.691-.394 1.128-.786l.19-.176.871-.915-3.603-3.602L18.414 16H7c-.343 0-.963.409-1.076.805l-.178.636-1.926-.535.18-.65c.358-1.252 1.688-2.173 2.844-2.25L7 14h10.584v-.001l-1-1L15 13v-2h2.414L19 12.585l.586-.585-3.292-3.293 1.414-1.414zM15.37 20.029H4.631c-.298 0-.631.407-.631 1 0 .592.333 1 .63 1h10.74c.298 0 .63-.408.63-1 0-.593-.332-1-.63-1z" fill="currentColor" fill-rule="nonzero"/></g></symbol><symbol xmlns="http://www.w3.org/2000/svg" viewBox="0 0 32 32" id="star-32"><path d="M19.588 17.253a.997.997 0 00-.359 1.111l1.664 5.178-4.296-3.193a1 1 0 00-1.194 0l-4.294 3.192 1.664-5.177a1.001 1.001 0 00-.36-1.11l-4.359-3.21 5.361.013h.002a.999.999 0 00.953-.7L16 8.213l1.631 5.146a1 1 0 00.953.699h.002l5.36-.012-4.358 3.209zm8.362-4.529a1.001 1.001 0 00-.95-.687h-.002l-7.682.017-2.363-7.456a1 1 0 00-1.906 0l-2.36 7.456-7.685-.017H5a1.002 1.002 0 00-.593 1.806l6.242 4.595-2.399 7.46a1 1 0 001.55 1.108l6.2-4.608 6.202 4.608a1.001 1.001 0 001.55-1.108l-2.399-7.46 6.24-4.595a1 1 0 00.357-1.119z" fill="currentColor" fill-rule="evenodd"/></symbol><symbol xmlns="http://www.w3.org/2000/svg" viewBox="0 0 28 30" id="sustainability-32"><g fill="none" fill-rule="evenodd"><path d="M-2-1h32v32H-2z"/><path d="M9.416 19.32l2.839 4.26 4.731-7.458-1.935-5.806 1.898-.632 1.42 4.26 2.963-4.672 1.689 1.071-2.466 3.887 3.17-.906.55 1.923-5.332 1.524-1.072 1.69c.696.36 1.489.539 2.392.539C22.888 19 26 16.442 26 13.455c0-2.43-.228-5.76-.685-9.987-5.41 2.411-8.893 4.12-10.404 5.099-2.156 1.396-2.617 4.752-.689 6.625l-1.393 1.434c-2.878-2.795-2.21-7.662.995-9.738 1.745-1.13 5.703-3.053 11.93-5.803l1.243-.549.154 1.35c.566 4.944.849 8.797.849 11.569C28 17.642 23.915 21 20.263 21c-1.286 0-2.447-.283-3.467-.846l-5.952 9.382-1.688-1.072 1.927-3.037-5.915-8.872 1.664-1.11 1.451 2.177c.91-.971 1.007-1.705.157-2.849-.892-1.2-2.993-2.111-6.307-2.64-.335 2.94-.032 5.017.838 6.224.483.67 1.202.831 2.416.429l.629 1.899c-1.982.656-3.624.288-4.667-1.16C.013 17.674-.31 14.785.286 10.852l.146-.967.97.124c4.376.56 7.26 1.71 8.643 3.572 1.706 2.296 1.172 3.984-.63 5.74z" fill="currentColor" fill-rule="nonzero"/></g></symbol><symbol xmlns="http://www.w3.org/2000/svg" viewBox="0 0 32 32" id="tag-32"><g fill="currentColor" fill-rule="evenodd"><path d="M14.914 25.664l-8.5-8.5L17.57 6h4.93L26 9.552v4.962l-11.086 11.15zm12.98-16.558a.996.996 0 00-.278-.66L23.75 4.31c-.184-.1-.439-.21-.705-.31H17.18a.938.938 0 00-.724.293L4.293 16.456a1 1 0 000 1.415l9.914 9.914a.996.996 0 001.414 0L27.7 15.622c.28-.195.385-.463.3-.74l-.107-5.776z"/><path d="M20.036 13.098c-.367 0-.648-.128-.937-.461a.5.5 0 01-.1-.156l-.055-.131c-.032-.064-.032-.209-.032-.376a1.14 1.14 0 011.124-1.124 1.14 1.14 0 011.124 1.124 1.14 1.14 0 01-1.124 1.124m0-4.248a3.127 3.127 0 00-3.124 3.124c0 .316 0 .744.212 1.205.116.315.315.627.51.816a3.076 3.076 0 002.402 1.103 3.127 3.127 0 003.124-3.124 3.127 3.127 0 00-3.124-3.124"/></g></symbol><symbol xmlns="http://www.w3.org/2000/svg" viewBox="0 0 32 32" id="text-1-round-32"><g fill="currentColor" fill-rule="evenodd"><path d="M16 27C9.935 27 5 22.065 5 16S9.935 5 16 5s11 4.935 11 11-4.935 11-11 11m0-24C8.832 3 3 8.832 3 16s5.832 13 13 13 13-5.832 13-13S23.168 3 16 3"/><path d="M16.979 10.5h-3.3v1.755h1.26v7.02H13.5V21h4.964v-1.725h-1.485z"/></g></symbol><symbol xmlns="http://www.w3.org/2000/svg" viewBox="0 0 32 32" id="text-2-round-32"><g fill="currentColor" fill-rule="evenodd"><path d="M16 27C9.935 27 5 22.065 5 16S9.935 5 16 5s11 4.935 11 11-4.935 11-11 11m0-24C8.832 3 3 8.832 3 16s5.832 13 13 13 13-5.832 13-13S23.168 3 16 3"/><path d="M18.04 16.125c1.71-2.79.555-5.774-1.905-5.774-1.77 0-2.85 1.184-2.835 3.239h1.785c0-.869.33-1.319.96-1.319.585 0 .9.434.9 1.29 0 .614-.345 1.214-.645 1.724l-3.105 5.235V21h5.79v-1.95h-2.73l1.785-2.925z"/></g></symbol><symbol xmlns="http://www.w3.org/2000/svg" viewBox="0 0 32 32" id="text-3-round-32"><g fill="currentColor" fill-rule="evenodd"><path d="M16 27C9.935 27 5 22.065 5 16S9.935 5 16 5s11 4.935 11 11-4.935 11-11 11m0-24C8.832 3 3 8.832 3 16s5.832 13 13 13 13-5.832 13-13S23.168 3 16 3"/><path d="M17.44 14.49l1.784-3.675V10.5H13.54v1.785h2.94l-1.485 3.345v.315c1.095-.24 2.46 0 2.49 1.68 0 .96-.48 1.59-1.185 1.59-.72 0-1.214-.51-1.245-1.29h-1.86c.046 1.935 1.29 3.225 3.136 3.225 1.904 0 3.165-1.41 3.165-3.54 0-1.455-.646-2.835-2.056-3.12"/></g></symbol><symbol xmlns="http://www.w3.org/2000/svg" viewBox="0 0 32 32" id="thumbs-down-32"><g fill="none" fill-rule="evenodd"><path d="M0 0h32v32H0z"/><path d="M9.847 28l.69-4.83 1.24-2.17H4v-6h.501L4.5 12h.501L5 9h.501L5.5 6h12.662L23 7.613V5h5v17h-5v-3h-1.381l-1.28 2.557-3.024 3.53L15.566 28H9.847zm15.154-8h1V7h-1v13zm-12.848 6h2.282l1.208-2.014.098-.137 2.92-3.405L20.382 17H23V9.721L17.837 8H7.501v.586L9.914 11H7.001v.586L9.421 14H6.5v.586L8.921 17H6v2h9.222l-2.76 4.833-.31 2.167z" fill="currentColor" fill-rule="nonzero"/></g></symbol><symbol xmlns="http://www.w3.org/2000/svg" viewBox="0 0 32 32" id="thumbs-up-32"><g fill="none" fill-rule="evenodd"><path d="M0 0h32v32H0z"/><path d="M22.153 4l-.69 4.83-1.24 2.17H28v6h-.501l.001 3h-.501L27 23h-.501l.001 3H13.838L9 24.387V27H4V10h5v3h1.381l1.28-2.557 3.024-3.53L16.434 4h5.719zM6.999 12h-1v13h1V12zm12.848-6h-2.282l-1.208 2.014-.098.137-2.92 3.405L11.618 15H9v7.279L14.163 24h10.336v-.586L22.086 21h2.913v-.586L22.579 18h2.92v-.586L23.079 15H26v-2h-9.222l2.76-4.833.31-2.167z" fill="currentColor" fill-rule="nonzero"/></g></symbol><symbol xmlns="http://www.w3.org/2000/svg" viewBox="0 0 32 32" id="trailer-32"><g fill="none" fill-rule="evenodd"><path d="M0 0h32v32H0z"/><path d="M10 16a3 3 0 110 6 3 3 0 010-6zm0 2a1 1 0 100 2 1 1 0 000-2zm20-6v3h-2v-1h-5.001L23 20h-9v-2l6.999-.001V14H20v-.001H4.999v4L6 18v2H3l-.001-5H2v-3h28z" fill="currentColor" fill-rule="nonzero"/></g></symbol><symbol xmlns="http://www.w3.org/2000/svg" viewBox="0 0 32 32" id="trash-32"><path d="M7 9l2 19h14l2-19H7zm2.222 2h13.556l-1.579 15H10.801L9.222 11zM13 3v3H7v2h10.01v.01l1-.01H25V6h-6.01l-.029-3h-5.96zm2 2h1.98l.01 1H15V5z" fill="currentColor" fill-rule="evenodd"/></symbol><symbol xmlns="http://www.w3.org/2000/svg" viewBox="0 0 32 32" id="travel-32"><g fill="currentColor"><path d="M13.463 27.146l-.617.17-8.192-.931-4.452-4.182 5.815-1.637 2.82 1.518 2.054-.6 14.976-4.376 5.131 1.103.167.572a3.094 3.094 0 01-2.102 3.837l-6.49 1.898-4.498 4.793-5.575 1.63.963-3.795zm.715-2.817l1.938.492-.816 3.217 1.69-.494 4.499-4.793.262-.077 6.752-1.974c.397-.116.679-.438.762-.816l-3.323-.714-14.49 4.233-2.84.83-2.83-1.523-1.63.459 1.387 1.304 7.148.812 1.342-.37.149-.586z"/><path d="M13.457 19.735l5.108 1.237.47-1.944-5.627-1.363-5.63 1.646 3.685 3.251 1.324-1.5-.964-.85zM20 15.494a.5.5 0 10-1 .012.5.5 0 001-.012zm2-.023a2.5 2.5 0 11-5 .058 2.5 2.5 0 015-.058zM10 1C7.592 1 5.558 2.595 5.097 4.743 2.78 5.138 1 7.027 1 9.333 1 11.931 3.257 14 6 14h2v-2H6c-1.676 0-3-1.214-3-2.667 0-1.452 1.324-2.666 3-2.666h1v-1C7 4.214 8.325 3 10 3c1.676 0 3 1.214 3 2.667v1h1c1.675 0 3 1.214 3 2.666 0 .438-.119.86-.345 1.24l1.72 1.022A4.41 4.41 0 0019 9.333c0-2.306-1.779-4.195-4.097-4.59C14.443 2.595 12.409 1 10 1z"/><path d="M14 12.5a1.5 1.5 0 10-3 0 1.5 1.5 0 003 0zm2 0a3.5 3.5 0 11-7 0 3.5 3.5 0 017 0z"/></g></symbol><symbol xmlns="http://www.w3.org/2000/svg" viewBox="0 0 32 32" id="triangle-32"><path d="M10 24.259l13.055-8.24L10 7.777v16.48zM8 4.15l18.802 11.868L8 27.886V4.15z" fill="currentColor"/></symbol><symbol xmlns="http://www.w3.org/2000/svg" viewBox="0 0 29 25" id="truck-32"><g fill="none" fill-rule="evenodd"><path d="M-1-4h32v32H-1z"/><path d="M23.504 10.64h3.306l.055 5.97A4.24 4.24 0 1120.5 20.2h-5.4v-1a6.56 6.56 0 00-12.874-1.787L.3 16.87a8.546 8.546 0 012.919-4.377V.118h12.857l3.317 10.522h2.111V5.173a1.29 1.29 0 00-.042-.307A1.16 1.16 0 0020.339 4V2a3.16 3.16 0 013.058 2.363c.069.263.107.542.107.81v5.467zM10.54 2.118V9h-2V2.118H5.219v9.191A8.561 8.561 0 0117.041 18.2h4.002a4.239 4.239 0 013.817-2.158l-.032-3.402h-6.901L14.61 2.118h-4.07zM8.539 24.52a5.32 5.32 0 110-10.64 5.32 5.32 0 010 10.64zm0-2a3.32 3.32 0 100-6.64 3.32 3.32 0 000 6.64zm16.2 0a2.24 2.24 0 100-4.48 2.24 2.24 0 000 4.48z" fill="currentColor" fill-rule="nonzero"/></g></symbol><symbol xmlns="http://www.w3.org/2000/svg" viewBox="0 0 32 32" id="twitter-32"><g fill="currentColor"><path d="M4 4v24h24V4H4zM2 2h28v28H2V2z"/><path d="M13.42 22.8c5.944 0 9.194-4.924 9.194-9.194 0-.09-.001-.178-.004-.267a.288.288 0 01.113-.238 6.555 6.555 0 001.279-1.283c.064-.085-.023-.202-.123-.164-.45.17-.924.29-1.416.357-.023.003-.035-.029-.015-.041a3.251 3.251 0 001.201-1.39.131.131 0 00-.18-.169 6.49 6.49 0 01-1.586.578.285.285 0 01-.258-.075 3.232 3.232 0 00-5.442 2.853.16.16 0 01-.169.188 9.17 9.17 0 01-6.262-3.139.198.198 0 00-.328.044 3.227 3.227 0 001.054 3.986c.024.018.011.057-.02.055a3.204 3.204 0 01-1.167-.301.131.131 0 00-.185.128 3.235 3.235 0 002.472 2.958c.028.006.027.047-.001.053a3.235 3.235 0 01-1.168.056.108.108 0 00-.116.144 3.237 3.237 0 002.678 2.054c.095.01.13.132.051.188a6.483 6.483 0 01-3.784 1.213H9.17c-.177 0-.237.237-.08.32a9.137 9.137 0 004.33 1.086"/></g></symbol><symbol xmlns="http://www.w3.org/2000/svg" viewBox="0 0 32 32" id="umbrella-32"><g fill="currentColor"><path d="M17 6h-2c-4.57 0-8.865 3.854-9.809 8.236 1.329-1.007 3.017-1.509 4.878-1.509 2.311 0 4.47 1.062 5.938 2.796 1.492-1.7 3.788-2.796 5.993-2.796 1.879 0 3.511.473 4.789 1.434C25.803 9.824 21.506 6 17 6zm12 11.527h-2c-.957-1.995-2.76-2.8-5-2.8-1.886 0-3.968 1.146-5 2.8h-2c-1.032-1.654-2.867-2.8-4.93-2.8-2.064 0-4.042.778-5.07 2.8H3V16C3 10 8.562 4 15 4h2c6.375 0 12 6 12 12v1.527zm-14.209 9.552c-.306.503-.751.885-1.783.885s-1.935-.891-1.935-2.037H9.14c0 2.164 1.676 3.946 3.869 3.946C14.942 29.873 17 28.48 17 26c0-2.48-2 0-2 0s.097.575-.209 1.079z"/><path d="M15 16v10h2V16zm2-11V2h-2v3z"/></g></symbol><symbol xmlns="http://www.w3.org/2000/svg" viewBox="0 0 32 32" id="user-32"><g fill="currentColor"><path d="M23.963 14.62c.346 1.043.537 2.203.537 3.38 0 5.81-4.705 10.5-10.5 10.5-5.775 0-10.5-4.725-10.5-10.5C3.5 12.19 8.205 7.5 14 7.5c3.094 0 5.981 1.35 7.993 3.672l1.511-1.31C21.117 7.107 17.681 5.5 14 5.5 7.102 5.5 1.5 11.083 1.5 18c0 6.88 5.62 12.5 12.5 12.5 6.898 0 12.5-5.583 12.5-12.5 0-1.394-.226-2.767-.657-4.058l-.31-.804-.249-.638h-8.588c-2.34 0-3.91-.545-4.89-1.42-.538-.479-.777-.927-.834-1.162l-1.944.47c.146.603.577 1.41 1.447 2.185 1.364 1.217 3.41 1.927 6.221 1.927h7.22l.047.12z"/><path d="M10.088 17.826c0-.181.135-.326.236-.326.1 0 .235.145.235.326h2c0-1.256-.998-2.326-2.235-2.326-1.238 0-2.236 1.07-2.236 2.326h2zm7.412 0c0-.181.135-.326.235-.326.1 0 .236.145.236.326h2c0-1.256-.998-2.326-2.236-2.326-1.237 0-2.235 1.07-2.235 2.326h2zm-.048 3.784a4.91 4.91 0 01-3.423 1.376 4.91 4.91 0 01-3.423-1.376l-1.389 1.438a6.91 6.91 0 004.812 1.938 6.91 6.91 0 004.813-1.938l-1.39-1.438zm2.76-16.46l.775-3.331-1.949-.453-.774 3.332zm4.143 2.276l2.132-2.698-1.569-1.24-2.132 2.698zm2.275 3.857l3.09-1.549-.897-1.788-3.09 1.55z"/></g></symbol><symbol xmlns="http://www.w3.org/2000/svg" viewBox="0 0 32 32" id="user-happy-32"><g fill="currentColor"><path d="M27 16c0 6.075-4.925 11-11 11S5 22.075 5 16 9.925 5 16 5a10.97 10.97 0 018.341 3.829l1.516-1.305A12.97 12.97 0 0016 3C8.82 3 3 8.82 3 16s5.82 13 13 13 13-5.82 13-13c0-1.461-.242-2.891-.71-4.246l-.188-.496-.244-.645h-9.089c-2.43 0-4.1-.638-5.194-1.678-.367-.35-.64-.72-.833-1.086a2.348 2.348 0 01-.176-.401l-1.933.515c.174.653.646 1.547 1.564 2.42 1.473 1.403 3.64 2.23 6.572 2.23h7.7C26.818 13.68 27 14.827 27 16z"/><path d="M20.293 20.293A6.048 6.048 0 0116 22.068a6.048 6.048 0 01-4.293-1.775l-1.414 1.414A8.048 8.048 0 0016 24.068c2.127 0 4.176-.83 5.707-2.36l-1.414-1.415zm-5.901-4.03h-2A.28.28 0 0012.13 16a.28.28 0 00-.263.263h-2c0-1.227 1.036-2.263 2.263-2.263 1.226 0 2.263 1.036 2.263 2.263m7.332 0h-2a.28.28 0 00-.263-.263.28.28 0 00-.263.263h-2c0-1.227 1.036-2.263 2.263-2.263 1.226 0 2.263 1.036 2.263 2.263"/></g></symbol><symbol xmlns="http://www.w3.org/2000/svg" viewBox="0 0 32 32" id="wallet-32"><path d="M29 14h-1V9H8.067v2H26v3h-3v2h4v3h-4v2h3v3H7.898C6.852 24 6 23.177 6 22.165V8.835C6 7.823 6.852 7 7.898 7H26V5H7.898C5.749 5 4 6.721 4 8.835v13.33C4 24.279 5.749 26 7.898 26H28v-5h1v-7z" fill="currentColor" fill-rule="evenodd"/></symbol><symbol xmlns="http://www.w3.org/2000/svg" viewBox="0 0 32 32" id="wallet-minus-32"><g fill="currentColor" fill-rule="evenodd"><path d="M11 28c-3.86 0-7-3.092-7-6.893 0-3.801 3.14-6.893 7-6.893 3.823 0 6.936 3.035 6.995 6.786h-.009v.373C17.843 25.05 14.769 28 11 28zm18-17.005V6H10v2h17v2.995h-2.941v2H28V16h-3.941v2h2.983v3h-7.047c-.059-4.854-4.069-8.786-8.995-8.786-1.057 0-2.067.19-3.01.522V6.092c0-1.142.947-2.071 2.114-2.071L27.001 4l-.002-2-16.896.021c-2.268 0-4.113 1.826-4.113 4.071v7.632C3.585 15.322 2 18.035 2 21.107 2 26.011 6.038 30 11 30c4.305 0 7.909-3.003 8.79-7h9.252v-5H30v-7.005h-1z"/><path d="M7 20v2h8v-2z"/></g></symbol><symbol xmlns="http://www.w3.org/2000/svg" viewBox="0 0 32 32" id="wallet-plus-32"><g fill="currentColor" fill-rule="evenodd"><path d="M11 28c-3.86 0-7-3.092-7-6.893 0-3.801 3.14-6.893 7-6.893 3.823 0 6.936 3.035 6.995 6.786h-.009v.373C17.843 25.05 14.769 28 11 28zm18-17.005V6H10v2h17v2.995h-2.941v2H28V16h-3.941v2h2.983v3h-7.047c-.059-4.854-4.069-8.786-8.995-8.786-1.057 0-2.067.19-3.01.522V6.092c0-1.142.947-2.071 2.114-2.071L27.001 4l-.002-2-16.896.021c-2.268 0-4.113 1.826-4.113 4.071v7.632C3.585 15.322 2 18.035 2 21.107 2 26.011 6.038 30 11 30c4.305 0 7.909-3.003 8.79-7h9.252v-5H30v-7.005h-1z"/><path d="M12 17h-2v3H7v2h3v3h2v-3h3v-2h-3z"/></g></symbol><symbol xmlns="http://www.w3.org/2000/svg" viewBox="0 0 32 32" id="world-32"><g fill="currentColor" fill-rule="evenodd"><path d="M16 3C8.82 3 3 8.82 3 16s5.82 13 13 13 13-5.82 13-13S23.18 3 16 3m0 2c6.065 0 11 4.935 11 11s-4.935 11-11 11S5 22.065 5 16 9.935 5 16 5"/><path d="M16.937 24.304a2.19 2.19 0 01-.32-.026c-.84-.138-1.876-.84-2.03-3.4-.15-2.478-1.146-2.912-2.297-3.413-.98-.427-2.321-1.011-2.28-2.958.02-.866.299-1.56.83-2.061 1.03-.973 2.675-.913 4.269-.855 2.444.086 3.29-.052 3.463-1.055.059-.343.03-.584-.087-.713-.478-.532-2.357-.41-3.368-.342-1.234.08-1.979.13-2.47-.391a1.152 1.152 0 01-.305-.937c.114-.903.921-1.514 1.857-2.221.659-.497 1.403-1.061 1.716-1.62a1 1 0 011.745.978c-.497.887-1.368 1.565-2.157 2.162 1.56-.087 3.455-.092 4.468 1.033.377.419.782 1.173.57 2.39-.5 2.896-3.392 2.789-5.505 2.714-1.066-.037-2.402-.086-2.825.312-.046.044-.19.18-.2.649-.011.55.089.65 1.077 1.08 1.303.569 3.27 1.426 3.495 5.127.08 1.298.397 1.56.4 1.563.174-.023.994-.658 1.587-2.12.059-.145.129-.305.204-.48.417-.961.987-2.278.987-3.928 0-1.025.93-1.981 2.369-2.435 1.864-.588 4.512-.292 6.335 2.313a1 1 0 11-1.637 1.147c-1.163-1.661-2.64-1.77-3.418-1.693-.988.103-1.587.576-1.662.745.012 1.988-.68 3.588-1.14 4.647-.067.159-.131.305-.186.438-.698 1.718-2.02 3.35-3.486 3.35m-9.909-.093a1 1 0 01-.528-1.85c.41-.254.666-.562.76-.915.33-1.217-1.25-2.839-3.52-3.614a1 1 0 11.645-1.892c3.414 1.166 5.436 3.701 4.806 6.028-.227.846-.794 1.57-1.637 2.093-.164.101-.346.15-.526.15"/></g></symbol><symbol xmlns="http://www.w3.org/2000/svg" viewBox="0 0 32 32" id="youtube-32"><g fill="currentColor" fill-rule="evenodd"><path d="M4 4v24h24V4H4zM2 2h28v28H2V2z" fill-rule="nonzero"/><path d="M14.214 18.238v-4.861l4.674 2.439-4.674 2.422zm10.263-5.703s-.17-1.192-.688-1.717c-.657-.69-1.395-.692-1.733-.733-2.421-.175-6.052-.175-6.052-.175h-.008s-3.63 0-6.052.175c-.338.04-1.075.044-1.733.733-.519.525-.688 1.717-.688 1.717s-.173 1.4-.173 2.8v1.312c0 1.4.173 2.8.173 2.8s.17 1.192.688 1.718c.658.688 1.522.667 1.907.739 1.384.132 5.882.174 5.882.174s3.635-.006 6.056-.181c.338-.04 1.076-.044 1.733-.732.519-.526.688-1.718.688-1.718s.173-1.4.173-2.8v-1.312c0-1.4-.173-2.8-.173-2.8z"/></g></symbol></svg>