<svg xmlns="http://www.w3.org/2000/svg" xmlns:xlink="http://www.w3.org/1999/xlink">
    <symbol xmlns="http://www.w3.org/2000/svg" viewBox="0 0 20 20" id="accident-20">
        <path d="M7 2v5H2v6h5v5h5.999v-5H18V7h-5.001V2H7zM3.999 9H9V4h2v5h5v2h-5v5H9v-5H3.999V9z" fill="currentColor" fill-rule="evenodd"/>
    </symbol>
    <symbol xmlns="http://www.w3.org/2000/svg" viewBox="0 0 20 20" id="arrow-enclosed-20">
        <g fill="currentColor" fill-rule="evenodd">
            <path d="M10 17c-3.86 0-7-3.14-7-7s3.14-7 7-7 7 3.14 7 7-3.14 7-7 7m0-16c-4.962 0-9 4.038-9 9s4.038 9 9 9 9-4.038 9-9-4.038-9-9-9"/>
            <path d="M9.783 7.697L11.049 9H5v2h6.049l-1.266 1.304 1.434 1.393L14.81 10l-3.593-3.696z"/>
        </g>
    </symbol>
    <symbol xmlns="http://www.w3.org/2000/svg" viewBox="0 0 20 20" id="arrows-apart-20">
        <path d="M8.071.83L.48 7.461 8.071 14.3V11h5.933v-.799l2.487 2.301-2.487 2.32v-.796H9.003v2h3.001v3.247l7.512-6.784-7.512-6.69V9H6.07v.855L3.527 7.488 6.07 5.17V6h4.934V4H8.071z" fill="currentColor" fill-rule="evenodd"/>
    </symbol>
    <symbol xmlns="http://www.w3.org/2000/svg" viewBox="0 0 16 18" id="attach-20">
        <defs>
            <path d="M6.846 13.19c1.18 2.204 2.534 2.745 4.434 1.858 1.901-.886 2.357-2.27 1.45-4.54L9.65 3.904l1.812-.845 3.102 6.654c1.307 3.261.475 5.79-2.438 7.148-2.913 1.358-5.385.37-7.067-2.776L1.182 5.772l-.04-.102C.457 3.654 1.207 2.01 3.2 1.082 5.188.155 6.932.628 8.058 2.432l.058.106 3.876 8.313.045.112c.468 1.432.087 2.636-1.16 3.218-1.248.582-2.416.1-3.213-1.177l-.058-.107-3.08-6.604 1.813-.845 3.053 6.546c.28.439.406.483.639.375.233-.109.279-.233.122-.73L6.331 3.443c-.572-.886-1.216-1.047-2.286-.548-1.068.499-1.35 1.085-1.026 2.085l3.827 8.211z" id="ada"/>
        </defs>
        <g fill="none" fill-rule="evenodd">
            <path d="M-2-1h20v20H-2z"/>
            <use fill="currentColor" fill-rule="nonzero" xlink:href="#ada"/>
        </g>
    </symbol>
    <symbol xmlns="http://www.w3.org/2000/svg" viewBox="0 0 20 20" id="bankid-20">
        <path d="M15.627 15.852h1.533c1.183 0 1.533.876 1.417 1.6-.1.706-.667 1.514-1.7 1.514H15.16l.467-3.114zm1 2.374c.517 0 .817-.253.9-.808.067-.404-.067-.808-.633-.808h-.3l-.25 1.633.283-.017zm-2.6-2.374h1.083l-.483 3.098h-1.083zm-3.3 0h.934l-.234 1.532.9-.825h1.15l-1.15 1.027.917 1.38H12.06l-.717-1.11h-.017l-.166 1.11h-.933zm-3.116.708h.933l-.05.32c.3-.253.517-.354.817-.354.517 0 .767.32.683.858l-.25 1.582h-.933l.2-1.313c.033-.235-.033-.353-.217-.353-.15 0-.283.084-.416.252L8.16 18.95h-.933l.383-2.39zm-.883 2.423c-.467.034-.7-.017-.8-.219A1.54 1.54 0 015.11 19c-.533 0-.716-.27-.666-.59.016-.15.1-.285.25-.403.283-.253 1.016-.286 1.3-.488.016-.219-.067-.303-.334-.303-.316 0-.566.1-1.016.404l.1-.707c.383-.286.75-.404 1.183-.404.55 0 1.033.219.933.825l-.1.69c-.033.235-.033.32.233.32l-.266.64zm-.8-1.06c-.25.151-.717.134-.767.454-.016.152.067.27.217.27s.333-.068.467-.169c-.017-.05 0-.118.016-.219l.067-.336zm-4.35-2.071h1.8c.767 0 .95.388.9.758-.05.286-.233.505-.583.64.433.168.6.42.533.824-.083.505-.517.876-1.083.876h-2.05l.483-3.098zm1.183 1.297c.35 0 .517-.186.55-.404.034-.236-.066-.404-.416-.404h-.317l-.133.808h.316zm-.2 1.346c.367 0 .567-.151.617-.454.033-.253-.1-.421-.45-.421h-.35l-.133.875h.317zM12.594 2H8.128l-.6 3.82h.766c.417 0 .817-.184.984-.47a.505.505 0 00.083-.236c0-.152-.1-.286-.217-.354-.3-.218-.35-.454-.35-.622v-.085c.067-.403.6-.841 1.317-.841.433 0 .75.1.95.286.166.168.25.404.2.64-.067.286-.35.521-.517.64-.433.302-.383.572-.35.656.083.235.433.387.7.387h1.167c1.583.017 2.433.74 2.15 2.457-.25 1.582-1.45 2.272-2.884 2.29l-.6 3.652h.834c3.55 0 6.432-2.306 7.016-5.925C19.493 3.801 16.66 2 12.594 2zm-5.15 4.14h-.8c-.366 0-.85-.201-1-.589-.05-.134-.15-.589.467-1.026.217-.152.367-.32.383-.455a.353.353 0 00-.1-.353c-.116-.118-.383-.202-.716-.202-.567 0-.967.336-1 .572-.033.185.117.32.233.404.35.27.434.657.217 1.027-.233.37-.717.623-1.233.623h-.817c-.067.454-1.166 7.523-1.25 8.079h4.4c.017-.236.217-1.582.483-3.35l.733-4.73z" fill="currentColor" fill-rule="evenodd"/>
    </symbol>
    <symbol xmlns="http://www.w3.org/2000/svg" viewBox="0 0 20 20" id="bills-coins-20">
        <g fill="currentColor" fill-rule="evenodd">
            <path d="M14.518 11.197l-3.911-.849c-.174-1.769-1.652-3.16-3.466-3.16a3.488 3.488 0 00-3.026 1.774l-.734-.15 1.176-5.437 11.102 2.382-1.141 5.44zm-7.377.99c-.827 0-1.5-.673-1.5-1.5s.673-1.5 1.5-1.5 1.5.673 1.5 1.5-.673 1.5-1.5 1.5zM3.024 1L1 10.364l2.664.547c.117 1.824 1.624 3.276 3.477 3.276 1.34 0 2.494-.766 3.082-1.876l5.84 1.267 1.96-9.359L3.024 1z"/>
            <path d="M10.79 17.088c-.283 0-.49-.095-.725-.363a.448.448 0 01-.057-.087l-.053-.13c-.015-.028-.015-.186-.015-.27 0-.461.389-.85.85-.85.461 0 .851.389.851.85 0 .46-.39.85-.851.85m0-3.7a2.853 2.853 0 00-2.85 2.85c0 .287 0 .674.195 1.1.108.29.291.574.464.744a2.802 2.802 0 002.191 1.006 2.853 2.853 0 002.851-2.85 2.853 2.853 0 00-2.851-2.85"/>
        </g>
    </symbol>
    <symbol xmlns="http://www.w3.org/2000/svg" viewBox="0 0 20 20" id="boat-20">
        <g fill="currentColor">
            <path d="M6.237 5.48c-.353.903-1.1 3.195-1.155 3.336L3.218 8.09c.028-.07.775-2.363 1.168-3.368.023-.054.023-.054.053-.118a2.22 2.22 0 01.818-.916c.71-.455 1.804-.647 3.594-.687h2.327c1.775.035 2.873.228 3.585.69a2.249 2.249 0 01.82.939l-.013-.028.02.044.026.058.055.133c.562 1.655.944 2.745 1.142 3.254l-1.864.724c-.208-.534-.585-1.606-1.136-3.23a263.09 263.09 0 01-.02-.06l-.025-.054c0-.003 0-.003-.013-.029l.01.022a.17.17 0 00-.015-.026.26.26 0 00-.077-.07c-.304-.197-1.113-.34-2.515-.368H8.873c-1.42.032-2.229.175-2.535.371a.254.254 0 00-.078.069c-.01.015-.015.024-.012.017-.015.034-.015.034-.011.023zM1.106 17.257l1.088-1.678c.396.257.867.26 1.243.022a5.337 5.337 0 015.874-.02c.394.256.866.26 1.241.023a5.333 5.333 0 015.873-.023c.397.258.867.26 1.267.008l1.068 1.69a3.143 3.143 0 01-3.422-.02c-1.14-.736-2.554-.73-3.702.025a3.14 3.14 0 01-3.413-.025c-1.14-.737-2.553-.732-3.701.023a3.138 3.138 0 01-3.416-.025zm2.801-7.262l-.126.01c-.068 0-.138.04-.186.12a.307.307 0 00-.032.243l1.624 3.413-1.804.863c-.685-1.433-.547-1.162-1.64-3.447a2.31 2.31 0 01.141-2.108A2.224 2.224 0 013.69 8.006L10 7.145l6.365.87a2.192 2.192 0 011.756 1.077c.385.638.432 1.423.116 2.16l-1.612 3.392-1.804-.864c.688-1.436.531-1.137 1.595-3.355a.329.329 0 00-.014-.31.199.199 0 00-.16-.104l-.104-.01L10 9.164l-6.093.832z"/>
            <path d="M9 2a1 1 0 112 0v2a1 1 0 11-2 0V2zm0 7h2v5H9z"/>
        </g>
    </symbol>
    <symbol xmlns="http://www.w3.org/2000/svg" viewBox="0 0 20 20" id="breifcase-first-aid-20">
        <g fill="currentColor" fill-rule="evenodd">
            <path d="M11 8H9v2H7v2h2v2h2v-2h2v-2h-2z"/>
            <path d="M17 15.5c0 .271-.229.5-.5.5H16V6h.5c.271 0 .5.229.5.5v9zm-3 .5H6V6h8v10zM4 16h-.5a.507.507 0 01-.5-.5v-9c0-.271.229-.5.5-.5H4v10zM8 4h4V3H8v1zm8.5 0H14V1H6v3H3.5A2.503 2.503 0 001 6.5v9C1 16.878 2.121 18 3.5 18h13c1.379 0 2.5-1.122 2.5-2.5v-9C19 5.122 17.879 4 16.5 4z"/>
        </g>
    </symbol>
    <symbol xmlns="http://www.w3.org/2000/svg" viewBox="0 0 20 20" id="briefcase-20">
        <g fill="none" fill-rule="evenodd">
            <path d="M0 0h20v20H0z"/>
            <path d="M14 2v3h2.5A2.5 2.5 0 0119 7.5v8a2.5 2.5 0 01-2.5 2.5h-13A2.5 2.5 0 011 15.5v-8A2.5 2.5 0 013.5 5H6V2h8zm3 7.999L14.333 12H5.667L3 10.001V15.5a.5.5 0 00.5.5h13a.5.5 0 00.5-.5V9.999zM16.5 7h-13a.5.5 0 00-.5.5v.001L6.333 10h7.334L17 7.5a.5.5 0 00-.5-.5zM12 4H8v1h4V4z" fill="currentColor" fill-rule="nonzero"/>
        </g>
    </symbol>
    <symbol xmlns="http://www.w3.org/2000/svg" viewBox="0 0 20 20" id="calendar-20">
        <path d="M16 6H4V4.33c0-.181.161-.326.345-.33H6v1h2V4h4v1h2V4h1.634c.205.004.366.149.366.33V6zm0 9.662a.331.331 0 01-.346.338H4.345A.33.33 0 014 15.662V8h12v7.662zM15.654 2H14V1h-2v1H8V1H6v1H4.325C3.021 2.026 2 3.05 2 4.33v11.332A2.317 2.317 0 004.345 18h11.309A2.317 2.317 0 0018 15.662V4.33c0-1.28-1.021-2.304-2.346-2.33z" fill="currentColor" fill-rule="evenodd"/>
    </symbol>
    <symbol xmlns="http://www.w3.org/2000/svg" viewBox="0 0 20 20" id="calendar-check-20">
        <g fill="currentColor" fill-rule="evenodd">
            <path d="M16 6H4V4.33c0-.181.161-.326.346-.33H6v1h2V4h4v1h2V4h1.634c.205.004.366.149.366.33V6zm0 9.662a.331.331 0 01-.346.338H4.346A.331.331 0 014 15.662V8h12v7.662zM15.654 2H14V1h-2v1H8V1H6v1H4.325C3.021 2.026 2 3.05 2 4.33v11.332A2.317 2.317 0 004.346 18h11.308A2.317 2.317 0 0018 15.662V4.33c0-1.28-1.021-2.304-2.346-2.33z"/>
            <path d="M14.484 9.709l-1.41-1.418-3.914 3.892-1.448-1.48-1.424 1.405 2.858 2.908z"/>
        </g>
    </symbol>
    <symbol xmlns="http://www.w3.org/2000/svg" viewBox="0 0 20 20" id="calendar-cross-20">
        <g fill="currentColor" fill-rule="evenodd">
            <path d="M16 6H4V4.33c0-.181.161-.326.346-.33H6v1h2V4h4v1h2V4h1.634c.205.004.366.149.366.33V6zm0 9.662a.331.331 0 01-.346.338H4.346A.331.331 0 014 15.662V8h12v7.662zM15.654 2H14V1h-2v1H8V1H6v1H4.325C3.021 2.026 2 3.05 2 4.33v11.332A2.317 2.317 0 004.346 18h11.308A2.317 2.317 0 0018 15.662V4.33c0-1.28-1.021-2.304-2.346-2.33z"/>
            <path d="M7.965 15.45L10 13.415l2.035 2.035 1.414-1.414L11.414 12l2-2.001L12 8.586l-2 2-2-2L6.586 10l2 2-2.035 2.036z"/>
        </g>
    </symbol>
    <symbol xmlns="http://www.w3.org/2000/svg" viewBox="0 0 20 20" id="car-20">
        <g transform="translate(0 1)" fill="currentColor" fill-rule="evenodd">
            <path d="M3 9.066l.992-3.094 1.524-2.997a.697.697 0 01.063-.063c.111-.1.28-.209.525-.32C6.908 2.23 8.18 2.002 10 2c1.819-.001 3.09.228 3.894.591.246.111.415.22.527.321a.59.59 0 01.063.063l1.519 2.988L17 9.07V15h2V8.758l-1.142-3.559-1.631-3.21C15.882 1.39 14.623-.003 9.999 0 5.375.003 4.12 1.387 3.774 1.988l-1.638 3.22L1 8.754V15h2V9.066z" fill-rule="nonzero"/>
            <path fill-rule="nonzero" d="M11.978 5.003l-.396-.916 1.836-.794 1.604 3.71H6v-2zM2 16.003v-2h16v2zm0-3v-2h10v2zm11 0v-2h5v2zM1 7a1 1 0 110-2h1.5a1 1 0 110 2H1zm16.5 0a1 1 0 010-2H19a1 1 0 010 2h-1.5z"/>
            <circle cx="5.5" cy="8.75" r="1.25"/>
            <circle cx="14.5" cy="8.75" r="1.25"/>
            <path d="M17 17.5a1 1 0 01-1-1v-2h3v2a1 1 0 01-1 1h-1zm-15 0a1 1 0 01-1-1v-2h3v2a1 1 0 01-1 1H2z" fill-rule="nonzero"/>
        </g>
    </symbol>
    <symbol xmlns="http://www.w3.org/2000/svg" viewBox="0 0 20 20" id="card-20">
        <g fill="currentColor" fill-rule="evenodd">
            <path d="M16.697 14H3.317C3.156 14 3 13.846 3 13.727V8h13.997v5.76a.205.205 0 01-.062.15.32.32 0 01-.238.09zm0-9c.083 0 .17.038.233.103a.22.22 0 01.067.17V6H3v-.728C3 5.153 3.155 5 3.318 5h13.379zm2.299.305a2.175 2.175 0 00-.628-1.592A2.342 2.342 0 0016.697 3H3.317C2.063 3 1 4.04 1 5.272v8.455C1 14.96 2.062 16 3.318 16h13.379a2.31 2.31 0 001.675-.7 2.171 2.171 0 00.625-1.573l-.001-8.422z"/>
            <path d="M3.996 11h4V9h-4z"/>
        </g>
    </symbol>
    <symbol xmlns="http://www.w3.org/2000/svg" viewBox="0 0 20 20" id="card-block-20">
        <g fill="currentColor" fill-rule="evenodd">
            <path d="M10.008 12H2.992C3.004 12 3 4.009 3 4.009 3 4.002 15.006 4 15.006 4 14.999 4 15 9.063 15 9.063h2V4.005A2 2 0 0015.006 2H2.994A2.003 2.003 0 001 4.009v7.982C1 13.101 1.9 14 2.992 14h7.016v-2zm0 0H2.992C3.004 12 3 4.009 3 4.009 3 4.002 15.006 4 15.006 4 14.999 4 15 9.063 15 9.063h2V4.005A2 2 0 0015.006 2H2.994A2.003 2.003 0 001 4.009v7.982C1 13.101 1.9 14 2.992 14h7.016v-2z" fill-rule="nonzero"/>
            <path d="M3.996 10h3V8h-3z"/>
            <path d="M14.5 17a3.5 3.5 0 100-7 3.5 3.5 0 000 7zm0 2a5.5 5.5 0 110-11 5.5 5.5 0 010 11z" fill-rule="nonzero"/>
            <path fill-rule="nonzero" d="M10.086 10.5l7.414 7.414 1.414-1.414L11.5 9.086zM1.5 7h15V5h-15z"/>
        </g>
    </symbol>
    <symbol xmlns="http://www.w3.org/2000/svg" viewBox="0 0 20 20" id="chat-20">
        <path d="M12.998 2h-6A6.505 6.505 0 00.5 8.498a6.505 6.505 0 006.498 6.498h.804l4.196 4.154V13h-2v1.356l-1.374-1.36H6.998A4.503 4.503 0 012.5 8.498 4.503 4.503 0 016.998 4h6a4.503 4.503 0 014.498 4.498 4.503 4.503 0 01-4.498 4.498v2a6.505 6.505 0 006.498-6.498A6.505 6.505 0 0012.998 2" fill="currentColor" fill-rule="evenodd"/>
    </symbol>
    <symbol xmlns="http://www.w3.org/2000/svg" viewBox="0 0 20 20" id="check-20">
        <path d="M14.907 5.1l-6.64 6.614-2.943-2.98L3.9 10.137l4.353 4.41 8.063-8.03z" fill="currentColor" fill-rule="evenodd"/>
    </symbol>
    <symbol xmlns="http://www.w3.org/2000/svg" viewBox="0 0 20 20" id="check-enclosed-20">
        <g fill="currentColor">
            <path d="M10 3c-3.859 0-7 3.14-7 7s3.141 7 7 7 7-3.14 7-7-3.141-7-7-7m0 16c-4.963 0-9-4.038-9-9s4.037-9 9-9 9 4.038 9 9-4.037 9-9 9"/>
            <path d="M8.854 14.247l-3.56-3.604L6.72 9.238l2.149 2.176L13.507 6.8l1.41 1.418z"/>
        </g>
    </symbol>
    <symbol xmlns="http://www.w3.org/2000/svg" viewBox="0 0 20 20" id="chevron-20">
        <path d="M8.014 4.6L6.6 6.014l4 4-4 4 1.414 1.414 4.001-4 1.413-1.415L12.015 8.6z" fill="currentColor" fill-rule="evenodd"/>
    </symbol>
    <symbol xmlns="http://www.w3.org/2000/svg" viewBox="0 0 20 20" id="chevron-down-20">
        <path d="M15.6 8.014L14.186 6.6l-4 4-4-4-1.414 1.414 4 4.001 1.415 1.413 1.413-1.413z" fill="currentColor" fill-rule="evenodd"/>
    </symbol>
    <symbol xmlns="http://www.w3.org/2000/svg" viewBox="0 0 20 20" id="chevron-left-20">
        <path d="M12.186 15.6l1.414-1.414-4-4 4-4-1.414-1.414-4.001 4-1.413 1.415L8.185 11.6z" fill="currentColor" fill-rule="evenodd"/>
    </symbol>
    <symbol xmlns="http://www.w3.org/2000/svg" viewBox="0 0 20 20" id="chevron-right-20">
        <path d="M8.014 4.6L6.6 6.014l4 4-4 4 1.414 1.414 4.001-4 1.413-1.415L12.015 8.6z" fill="currentColor" fill-rule="evenodd"/>
    </symbol>
    <symbol xmlns="http://www.w3.org/2000/svg" viewBox="0 0 20 20" id="chevron-up-20">
        <path d="M4.6 12.186L6.014 13.6l4-4 4 4 1.414-1.414-4-4.001-1.415-1.413L8.6 8.185z" fill="currentColor" fill-rule="evenodd"/>
    </symbol>
    <symbol xmlns="http://www.w3.org/2000/svg" viewBox="0 0 20 20" id="clipboard-20">
        <g fill="currentColor" fill-rule="evenodd">
            <path d="M16 16.662a.331.331 0 01-.346.338H4.346A.331.331 0 014 16.662V4.33c0-.181.161-.326.346-.33H9v1H7v2h6V5h-2V4h4.634c.205.004.366.149.366.33v12.332zM11 2V1H9v1H4.325C3.021 2.027 2 3.05 2 4.33v12.332A2.317 2.317 0 004.346 19h11.308A2.317 2.317 0 0018 16.662V4.33c0-1.28-1.021-2.303-2.346-2.33H11z"/>
            <path d="M6 11h8V9H6zm0 4h8v-2H6z"/>
        </g>
    </symbol>
    <symbol xmlns="http://www.w3.org/2000/svg" viewBox="0 0 20 20" id="clock-20">
        <g fill="currentColor">
            <path d="M10 1c-4.961 0-9 4.039-9 9s4.039 9 9 9 9-4.039 9-9-4.039-9-9-9zm0 2c3.873 0 7 3.127 7 7s-3.127 7-7 7a6.99 6.99 0 01-7-7c0-3.873 3.127-7 7-7z"/>
            <path d="M11 9.465l3.305 2.203-1.11 1.664L9 10.535V5h2z"/>
        </g>
    </symbol>
    <symbol xmlns="http://www.w3.org/2000/svg" viewBox="0 0 20 20" id="coins-20">
        <g fill="none" fill-rule="evenodd">
            <path d="M0 0h20v20H0z"/>
            <path d="M9 17v2H1v-2h8zm10 0v2h-8v-2h8zM9 14v2H1v-2h8zm10 0v2h-8v-2h8zm-4-8a4 4 0 110 8 4 4 0 010-8zm-6 5v2H1v-2h8zm6-3a2 2 0 100 4 2 2 0 000-4zM9 8v2H1V8h8zm2-3v2H3V5h8zM9 2v2H1V2h8z" fill="currentColor" fill-rule="nonzero"/>
        </g>
    </symbol>
    <symbol xmlns="http://www.w3.org/2000/svg" viewBox="0 0 20 20" id="contentcard-20">
        <g fill="none" fill-rule="evenodd">
            <path d="M0 0h20v20H0z"/>
            <path d="M19 3v14H1V3h18zm-2 2H3v10h14V5zm-7 2a3 3 0 013 3h-2a1 1 0 10-1 1v2a3 3 0 110-6z" fill="currentColor" fill-rule="nonzero"/>
        </g>
    </symbol>
    <symbol xmlns="http://www.w3.org/2000/svg" viewBox="0 0 20 20" id="cross-20">
        <path d="M14.014 4.6l-4 4-4-4L4.6 6.014l3.999 4-3.999 4 1.414 1.414 4-4 4 4 1.414-1.414-4-4 4-4z" fill="currentColor" fill-rule="evenodd"/>
    </symbol>
    <symbol xmlns="http://www.w3.org/2000/svg" viewBox="0 0 20 20" id="cross-enclosed-20">
        <g fill="currentColor" fill-rule="evenodd">
            <path d="M10 3c-3.859 0-7 3.14-7 7s3.141 7 7 7 7-3.14 7-7-3.141-7-7-7m0 16c-4.963 0-9-4.038-9-9s4.037-9 9-9 9 4.038 9 9-4.037 9-9 9"/>
            <path d="M14.425 13.01L11.414 10l3-3L13 5.586l-3 3-3-3L5.586 7l3 3-3.011 3.01 1.414 1.415 3.01-3.011 3.012 3.01z"/>
        </g>
    </symbol>
    <symbol xmlns="http://www.w3.org/2000/svg" viewBox="0 0 20 20" id="document-20">
        <g fill="currentColor" fill-rule="evenodd">
            <path d="M3 1v18h14l-.005-14.414L13.415 1H3zm2 2h7.585l2.41 2.415L15 17H5V3z"/>
            <path d="M7 8h6V6H7zm0 3h6V9H7zm0 3h6v-2H7z"/>
        </g>
    </symbol>
    <symbol xmlns="http://www.w3.org/2000/svg" viewBox="0 0 20 20" id="dog-20">
        <g fill="currentColor">
            <path d="M10.538 14.629l-.459 1.946a3.092 3.092 0 01-2.396-3.005 3.088 3.088 0 013.087-3.087 3.2 3.2 0 011.814.584l-1.137 1.646a1.212 1.212 0 00-.677-.23c-.598 0-1.087.485-1.087 1.087 0 .507.355.94.855 1.059zM7.541 17v2H3v-3.24a1.74 1.74 0 011.753-1.752H7v2H5V17h2.541zM3.883 4.409l-.023.113c-.038.29.028.615.208.914.407.72 1.33.962 2.075.54l.986 1.74c-1.695.962-3.843.397-4.788-1.27a3.432 3.432 0 01-.454-2.247l.35-1.79h2.621A4.64 4.64 0 018.197.999c2.427 0 4.59 1.879 4.803 4.342v.556c0 1.293-1.04 2.415-2.5 2.415S8 7.19 8 5.897V5h2v.897c0 .221.18.415.5.415s.5-.194.5-.415l.004-.468c-.117-1.32-1.394-2.43-2.807-2.43a2.63 2.63 0 00-2.09 1.02l-.3.39H3.882z"/>
            <path d="M5 9h2v5.44H5zm12.014 3h2a3.922 3.922 0 01-3.914 3.915v-2A1.922 1.922 0 0017.014 12z"/>
            <path d="M9.85 8.183l.863-1.804.624.3.112.062c2.787 1.809 4.526 4.915 4.526 8.284 0 1.167-.184 2.29-.548 3.31L15.19 19H7.476v-2h6.266c.154-.62.233-1.285.233-1.975 0-2.66-1.367-5.122-3.562-6.572l-.564-.27z"/>
        </g>
    </symbol>
    <symbol xmlns="http://www.w3.org/2000/svg" viewBox="0 0 20 20" id="ellipsis-enclosed-20">
        <g fill="currentColor" fill-rule="evenodd">
            <path d="M12.75 16.436v.004h-.009c-.842.36-1.769.56-2.741.56-.972 0-1.899-.2-2.741-.56H7.16v-.047a7.042 7.042 0 01-3.6-3.652A6.954 6.954 0 013 10c0-.972.2-1.898.56-2.74a7.034 7.034 0 013.6-3.652V3.56h.099a6.98 6.98 0 015.482 0h.009v.005a7.038 7.038 0 013.69 3.695c.36.842.56 1.768.56 2.74 0 .973-.2 1.899-.56 2.74a7.038 7.038 0 01-3.69 3.696m3.69-12.71a8.967 8.967 0 00-12.88 0 8.963 8.963 0 000 12.548c.055.056.11.112.166.166A8.962 8.962 0 0010 19a8.962 8.962 0 006.274-2.56c.056-.054.111-.11.166-.166a8.965 8.965 0 000-12.547"/>
            <path d="M7.16 8.801a1.497 1.497 0 00-.85-.24c-.9 0-1.53.63-1.53 1.44 0 .81.72 1.44 1.53 1.44.322 0 .613-.104.85-.275.359-.259.59-.679.59-1.166 0-.507-.211-.943-.59-1.199M10 8.56c-.81 0-1.44.63-1.44 1.44 0 .81.63 1.44 1.44 1.44.81 0 1.44-.63 1.44-1.44 0-.81-.63-1.44-1.44-1.44m3.69 0c-.368 0-.687.109-.94.289a1.39 1.39 0 00-.59 1.15c0 .463.238.86.59 1.123.265.197.592.318.94.318.81 0 1.53-.63 1.53-1.44 0-.81-.72-1.44-1.53-1.44"/>
        </g>
    </symbol>
    <symbol xmlns="http://www.w3.org/2000/svg" viewBox="0 0 20 20" id="external-link-20">
        <g fill="currentColor" fill-rule="evenodd">
            <path d="M12 2v2h2.586l-4.293 4.294 1.414 1.414L16 5.415V8h2V2z"/>
            <path d="M3 3v14h14.001l-.007-7.001-2 .002.005 5H5V5h5V3z"/>
        </g>
    </symbol>
    <symbol xmlns="http://www.w3.org/2000/svg" viewBox="0 0 20 20" id="external-link-inline-20">
        <g fill="currentColor" fill-rule="evenodd">
            <path d="M10.005 4L10 5.75h2.84L8.1 10.5l1.4 1.4 4.75-4.74v2.835H16V4z"/>
            <path d="M4 5v11h11v-4h-2v2H6V7h2V5z"/>
        </g>
    </symbol>
    <symbol xmlns="http://www.w3.org/2000/svg" viewBox="0 0 20 20" id="family-20">
        <g fill="currentColor">
            <path d="M3 19H1v-5.469c0-2.316 1.454-4.145 3.846-4.519l.308 1.976C3.768 11.205 3 12.171 3 13.531V19z"/>
            <path d="M8.538 6C6.892 6 5.78 5.18 5.18 3.974l1.791-.89c.286.575.75.918 1.566.918h4.147l.177.778a5.5 5.5 0 11-1.191-2.356l-1.516 1.305A3.5 3.5 0 1011 6.009c0-.001-.82-.004-2.462-.008zm10.48 13h-2v-1.375c0-.817-.813-1.613-2.104-1.936l.485-1.94c2.098.524 3.619 2.015 3.619 3.876V19zM8 19h2v-1.375c0-.817.813-1.613 2.104-1.936l-.485-1.94C9.521 14.273 8 15.764 8 17.625V19z"/>
            <path d="M13.5 16a3.5 3.5 0 110-7 3.5 3.5 0 010 7zm0-2a1.5 1.5 0 100-3 1.5 1.5 0 000 3z"/>
        </g>
    </symbol>
    <symbol xmlns="http://www.w3.org/2000/svg" viewBox="0 0 20 20" id="flag-20">
        <path d="M15 11.588c-1.655.159-2.846-.291-4.195-.804C9.273 10.202 7.547 9.56 5 9.74v-5.9c2.12-.338 3.55.233 5.052.847 1.376.563 2.914 1.187 4.948 1.039v5.86zm.795-7.991c-2.067.43-3.42-.12-4.986-.76C9.253 2.2 7.501 1.499 5 1.82V1H3v18.033h2v-7.287c2.184-.186 3.605.343 5.094.908 1.26.478 2.55.969 4.223.969.577 0 1.199-.058 1.88-.195l.803-.162V3.344l-1.205.253z" fill="currentColor" fill-rule="evenodd"/>
    </symbol>
    <symbol xmlns="http://www.w3.org/2000/svg" viewBox="0 0 20 20" id="gear-20">
        <g fill="currentColor" fill-rule="evenodd">
            <path d="M10.001 11.31a1.088 1.088 0 111.087-1.087c0 .599-.487 1.087-1.087 1.087m0-4.174a3.09 3.09 0 00-3.087 3.087 3.09 3.09 0 003.087 3.087 3.09 3.09 0 003.087-3.087 3.09 3.09 0 00-3.087-3.087"/>
            <path d="M15.123 10.861l-.244.649a6.495 6.495 0 01-1.119 1.892l-.455.538.947 1.636-1.503.879-.958-1.654-.715.159c-.808.179-1.515.158-2.124.006l-.731-.183-.968 1.672-1.503-.879.964-1.665-.501-.542c-.541-.586-.881-1.155-1.067-1.79l-.211-.718H3V9.134h1.879l.244-.649a6.508 6.508 0 011.119-1.892l.455-.537-.948-1.636 1.504-.88.958 1.654.715-.159a4.688 4.688 0 012.124-.006l.731.183.968-1.672 1.504.88-.964 1.664.5.542c.542.587.881 1.155 1.067 1.79l.212.718h1.934v1.727h-1.879zm3.879 2V7.134h-2.49a6.358 6.358 0 00-.772-1.293l1.241-2.143L12.024.8l-1.246 2.153a6.77 6.77 0 00-1.552.002L7.978.8 3.021 3.698l1.255 2.168a8.648 8.648 0 00-.749 1.268H1v5.727h2.49c.198.447.454.876.772 1.293L3.02 16.297l4.958 2.898 1.247-2.153c.507.058 1.037.06 1.552-.002l1.247 2.155 4.958-2.898-1.256-2.168c.287-.403.539-.83.749-1.268h2.527z"/>
        </g>
    </symbol>
    <symbol xmlns="http://www.w3.org/2000/svg" viewBox="0 0 20 20" id="globe-20">
        <g fill="currentColor" fill-rule="evenodd">
            <path fill-rule="nonzero" d="M2.293 1.707L3.707.293l4.036 4.035-1.415 1.415zm9.5 9.5l1.414-1.414 4.038 4.037-1.415 1.415zM9 15h2v3H9z"/>
            <path fill-rule="nonzero" d="M7 19v-2h6v2zm6.5-11.439a3.5 3.5 0 10-7-.122 3.5 3.5 0 007 .122zm2 .035a5.5 5.5 0 11-11-.192 5.5 5.5 0 0111 .192z"/>
            <path d="M14.516 12.19c-2.534 2.446-6.62 2.412-9.11-.077l-.081-.083a6.509 6.509 0 01.16-9.192L4.095 1.4a8.5 8.5 0 1011.81 12.228l-1.39-1.438z"/>
        </g>
    </symbol>
    <symbol xmlns="http://www.w3.org/2000/svg" viewBox="0 0 20 20" id="gravestones-20">
        <g fill="currentColor">
            <path d="M5 12.437c0-2.082 1.028-3.68 2.685-4.813.958-.655 1.906-1.028 2.574-1.194l.241-.06.241.06c.668.166 1.616.539 2.574 1.194C14.972 8.757 16 10.355 16 12.437V19H5v-6.563zm5.163-3.87a6.834 6.834 0 00-1.348.708C7.659 10.065 7 11.09 7 12.437V17h7v-4.563c0-1.347-.66-2.372-1.815-3.162a6.834 6.834 0 00-1.685-.832 7.026 7.026 0 00-.337.123z"/>
            <path d="M3 13.004h2.5v2H1V9.088C1 6.994 2.017 5.383 3.66 4.24c.95-.663 1.892-1.04 2.556-1.208l.247-.063.246.063c.664.17 1.603.55 2.552 1.214.298.208.578.435.837.681a5.79 5.79 0 011.454 2.147l-1.87.71a3.804 3.804 0 00-.961-1.407 5.249 5.249 0 00-.607-.493 6.714 6.714 0 00-1.654-.837 6.715 6.715 0 00-1.658.835C3.656 6.678 3 7.717 3 9.087v3.916zM13.652 3.14a6.199 6.199 0 00-1.201.603c-.366.24-.68.51-.928.81l-1.54-1.277a6.118 6.118 0 011.372-1.206c.874-.572 1.736-.897 2.346-1.043l.23-.055.232.055c.611.144 1.474.468 2.35 1.038C18.042 3.062 19 4.481 19 6.34v6.044h-4.315v-2H17V6.339c0-1.097-.568-1.94-1.58-2.598a6.202 6.202 0 00-1.486-.7c-.08.025-.175.058-.282.099z"/>
        </g>
    </symbol>
    <symbol xmlns="http://www.w3.org/2000/svg" viewBox="0 0 20 20" id="growth-arrow-20">
        <path d="M12.007 5v2.001h2.586l-4.587 4.585-2.999-2.999L1.3 14.293l1.414 1.414 4.293-4.293 2.999 3 6.001-5.999V11h1.999V5z" fill="currentColor" fill-rule="evenodd"/>
    </symbol>
    <symbol xmlns="http://www.w3.org/2000/svg" viewBox="0 0 20 20" id="heart-20">
        <path d="M6.127 4.015c-.809 0-1.618.3-2.22.902A3.115 3.115 0 003 7.137c0 .848.322 1.636.907 2.22L10 15.452l6.093-6.093A3.112 3.112 0 0017 7.138c0-.847-.322-1.636-.907-2.221-1.204-1.204-3.238-1.203-4.441 0L10 6.572 8.348 4.917a3.135 3.135 0 00-2.221-.902zM10 18.279l-7.507-7.507A5.097 5.097 0 011 7.138a5.1 5.1 0 011.493-3.635 5.147 5.147 0 017.269 0l.238.239.238-.24a5.146 5.146 0 017.269 0A5.1 5.1 0 0119 7.139c0 1.38-.53 2.672-1.493 3.634L10 18.279z" fill="currentColor" fill-rule="evenodd"/>
    </symbol>
    <symbol xmlns="http://www.w3.org/2000/svg" viewBox="0 0 20 20" id="heartbeat-20">
        <path d="M3.395 3.392A1.29 1.29 0 014.325 3c.354 0 .684.14.93.392l1.248 1.284 1.249-1.284c.491-.504 1.369-.504 1.859 0 .526.54.526 1.453.001 1.993L6.503 8.58 3.395 5.385a1.458 1.458 0 010-1.993zm3.108 8.059l4.543-4.672c1.281-1.318 1.281-3.463-.001-4.782C9.855.773 7.769.7 6.503 1.82A3.266 3.266 0 004.326 1h-.001c-.899 0-1.738.354-2.364.998C.68 3.316.68 5.46 1.961 6.778l4.542 4.673zM18.57 13l-3.55-5.915-4.92 7.874-1.988-3.97L5.514 15h-4.51v2H6.6l1.288-1.989 2.018 4.03 5.079-8.126L17.436 15h1.568v-2z" fill="currentColor" fill-rule="evenodd"/>
    </symbol>
    <symbol xmlns="http://www.w3.org/2000/svg" viewBox="0 0 20 20" id="house-20">
        <g fill="currentColor" fill-rule="evenodd">
            <path d="M10.002 1.75L2 7.867v9.142h2V8.855l6.002-4.588L16 8.855v8.154h2V7.867z"/>
            <path d="M7 10.009v7h2v-5h2v5h2v-7z"/>
        </g>
    </symbol>
    <symbol xmlns="http://www.w3.org/2000/svg" viewBox="0 0 20 20" id="house-sun-20">
        <g fill="currentColor" fill-rule="evenodd">
            <path d="M16 1h-2c0 2.757 2.243 5 5 5V4c-1.682 0-3-1.318-3-3zm-4.327 5.913l1.414 1.414 2.12-2.12-1.414-1.414zM10 3h3V1h-3zm7 7h2V7h-2zM8.002 5.741L1 11.094V19h2v-6.918L8.002 8.26l5 3.823V19h2v-7.906z"/>
            <path d="M5 19h2v-4h2v4h2v-6H5z"/>
        </g>
    </symbol>
    <symbol xmlns="http://www.w3.org/2000/svg" viewBox="0 0 20 20" id="id-card-20">
        <g fill="currentColor">
            <path d="M17 14.2c0 .394-.344.8-.8.8-7.717.02-11.85.02-12.4 0-.347 0-.8-.39-.8-.8V5.8c0-.441.359-.8.8-.8h12.4c.441 0 .8.359.8.8v8.4zM3.8 3a2.794 2.794 0 00-2.672 2.008A2.77 2.77 0 001 5.8v8.4C1 15.813 2.313 17 3.8 17h12.4c1.613 0 2.8-1.25 2.8-2.8V5.8C19 4.256 17.744 3 16.2 3H3.8z"/>
            <path d="M7.5 7v1c-.55 0-1 .45-1 1 0 .551.45 1 1 1s1-.449 1-1c0-.55-.45-1-1-1V7zm0 0V6c1.655 0 3 1.345 3 3 0 1.656-1.345 3-3 3s-3-1.344-3-3c0-1.655 1.345-3 3-3v1z"/>
            <path d="M12.5 15h-2a3 3 0 00-6 0h-2a5 5 0 1110 0zM12 9h4V7h-4zm0 3h4v-2h-4z"/>
        </g>
    </symbol>
    <symbol xmlns="http://www.w3.org/2000/svg" viewBox="0 0 20 20" id="info-enclosed-20">
        <g fill="currentColor" fill-rule="evenodd">
            <path d="M10 17c-3.859 0-7-3.14-7-7 0-1.128.274-2.19.75-3.135C4.903 4.577 7.268 3 10 3s5.097 1.577 6.25 3.865c.476.945.75 2.007.75 3.135 0 3.86-3.141 7-7 7m6.25-13.462a8.96 8.96 0 00-12.5 0A8.97 8.97 0 001 10c0 4.962 4.037 9 9 9s9-4.038 9-9a8.97 8.97 0 00-2.75-6.462"/>
            <path d="M9 8.8V15h2V8.8zm1-4.05a1.25 1.25 0 100 2.5 1.25 1.25 0 000-2.5"/>
        </g>
    </symbol>
    <symbol xmlns="http://www.w3.org/2000/svg" viewBox="0 0 20 20" id="institution-20">
        <path d="M3 16h2V8H3zm-2 3h18v-2H1zM10 .848L2.721 5H1v2h2.252L10 3.151 16.789 7H19V5.022h-1.693zM7 16h2V8H7zm4 0h2V8h-2zm4 0h2V8h-2z" fill="currentColor" fill-rule="evenodd"/>
    </symbol>
    <symbol xmlns="http://www.w3.org/2000/svg" viewBox="0 0 20 20" id="letter-20">
        <g fill="currentColor">
            <path d="M3 15h14V5H3v10zM19 3v14H1V3h18z"/>
            <path d="M10.038 9.375L3.678 4 2.322 5.472l7.72 6.625 7.636-6.627-1.358-1.468zm7.695 5.125l-3.5-4-1.466 1.36 3.5 4zm-14 1.36l3.5-4-1.466-1.36-3.5 4z"/>
        </g>
    </symbol>
    <symbol xmlns="http://www.w3.org/2000/svg" viewBox="0 0 20 20" id="login-device-20">
        <g fill="none" fill-rule="evenodd">
            <path d="M0 0h20v20H0z"/>
            <g transform="translate(4 2)" fill="currentColor">
                <path d="M2-1h8a3 3 0 013 3v12a3 3 0 01-3 3H2a3 3 0 01-3-3V2a3 3 0 013-3zm0 2a1 1 0 00-1 1v12a1 1 0 001 1h8a1 1 0 001-1V2a1 1 0 00-1-1H2z" fill-rule="nonzero"/>
                <circle cx="3.5" cy="8.5" r="1.5"/>
                <circle cx="3.5" cy="12.5" r="1.5"/>
                <circle cx="8.5" cy="8.5" r="1.5"/>
                <circle cx="8.5" cy="12.5" r="1.5"/>
                <path fill-rule="nonzero" d="M2 5h8V3H2z"/>
            </g>
        </g>
    </symbol>
    <symbol xmlns="http://www.w3.org/2000/svg" viewBox="0 0 20 20" id="logout-20">
        <g fill="currentColor" fill-rule="evenodd">
            <path d="M14.782 7.697L16.047 9h-6.05v2h6.05l-1.265 1.303 1.434 1.394L19.808 10l-3.592-3.696-1.434 1.393zm2.217 2.282l.02.02-.02.023v-.043z"/>
            <path d="M8.907 16a5.83 5.83 0 01-4.176-1.75c-2.313-2.344-2.313-6.157 0-8.5A5.83 5.83 0 018.907 4a5.83 5.83 0 014.176 1.75l1.424-1.405A7.818 7.818 0 008.907 2a7.818 7.818 0 00-5.6 2.345c-3.077 3.118-3.077 8.191 0 11.31A7.818 7.818 0 008.907 18a7.818 7.818 0 005.6-2.345l-1.423-1.405A5.83 5.83 0 018.908 16"/>
        </g>
    </symbol>
    <symbol xmlns="http://www.w3.org/2000/svg" viewBox="0 0 20 20" id="menu-20">
        <path d="M3 6h14V4H3zm0 5h14V9H3zm0 5h14v-2H3z" fill="currentColor" fill-rule="evenodd"/>
    </symbol>
    <symbol xmlns="http://www.w3.org/2000/svg" viewBox="0 0 20 20" id="minpension-20">
        <path d="M18.935 8.836l-6.054 6.132-.792-.17 2.376-6.814-5.657 6.984-.793-.227 2.15-7.154-6.336 7.381-.566-.454L5.98 7.19l-4.922 4.713C1.962 15.934 5.583 19 9.882 19c4.98 0 9.053-4.032 9.053-8.972.113-.397.056-.795 0-1.192zm-13.409 2.84l5.77-6.928.736.284-2.093 6.984 5.77-7.212.736.284-2.489 7.382 4.752-4.997C17.633 3.726 14.126 1 10.052 1 5.073 1 1 5.032 1 9.972c0 .17 0 .397.057.567l6.166-5.791.736.227-2.433 6.7z" fill="currentColor" fill-rule="evenodd"/>
    </symbol>
    <symbol xmlns="http://www.w3.org/2000/svg" viewBox="0 0 20 20" id="notification-envelope-20">
        <g fill="currentColor">
            <path d="M3 15h14V5H3v10zM19 3v14H1V3h18z"/>
            <path d="M10.038 9.375L3.678 4 2.322 5.472l7.72 6.625 7.636-6.627-1.358-1.468zm7.695 5.125l-3.5-4-1.466 1.36 3.5 4zm-14 1.36l3.5-4-1.466-1.36-3.5 4z"/>
        </g>
    </symbol>
    <symbol xmlns="http://www.w3.org/2000/svg" viewBox="0 0 20 20" id="notification-flag-20">
        <path d="M15 11.588c-1.655.159-2.846-.291-4.195-.804C9.273 10.202 7.547 9.56 5 9.74v-5.9c2.12-.338 3.55.233 5.052.847 1.376.563 2.914 1.187 4.948 1.039v5.86zm.795-7.991c-2.067.43-3.42-.12-4.986-.76C9.253 2.2 7.501 1.499 5 1.82V1H3v18.033h2v-7.287c2.184-.186 3.605.343 5.094.908 1.26.478 2.55.969 4.223.969.577 0 1.199-.058 1.88-.195l.803-.162V3.344l-1.205.253z" fill="currentColor" fill-rule="evenodd"/>
    </symbol>
    <symbol xmlns="http://www.w3.org/2000/svg" viewBox="0 0 20 20" id="notification-swish-20">
        <path d="M7.041 17.452l.341-.42c2.318.652 4.869-.193 6.425-2.095 2.082-2.558 1.725-6.424-.892-8.566l-.476-.357 2.164-2.535.438.329C16.904 5.288 18 7.534 18 10c0 4.438-3.562 8-8 8a8.063 8.063 0 01-2.959-.548zm-2.027-1.205A8.002 8.002 0 012 10c0-4.438 3.562-8 8-8 1.151 0 2.246.219 3.233.712l-.361.398c-2.488-.774-5.122-.068-6.739 1.952-2.082 2.618-1.665 6.366.952 8.567l.476.357-2.164 2.589-.383-.328z" fill="currentColor" fill-rule="evenodd"/>
    </symbol>
    <symbol xmlns="http://www.w3.org/2000/svg" viewBox="0 0 20 20" id="paper-20">
        <path d="M3 1v18h14l-.005-12.414L11.414 1H3zm2 2h4v6h5.996L15 17H5V3zm6 .415L14.581 7H11V3.415z" fill="currentColor" fill-rule="evenodd"/>
    </symbol>
    <symbol xmlns="http://www.w3.org/2000/svg" viewBox="0 0 20 20" id="pdf-doc-20">
        <g fill="currentColor" fill-rule="evenodd">
            <path fill-rule="nonzero" d="M4 17V3h7.586L14 5.414V7h2V4.586L12.414 1H2v18h14.002l-.009-4.002-2 .004.005 1.998z"/>
            <path d="M6 8.05v5.942h1.207v-1.683h.875c1.14 0 1.93-.842 1.93-2.1 0-1.292-.808-2.159-1.98-2.159H6zm1.181 3.17V9.156h.901c.451 0 .774.408.774 1.02 0 .629-.323 1.046-.774 1.046h-.9zm3.562-3.17V14h1.904c1.505 0 2.508-1.198 2.508-2.992 0-1.776-1.003-2.958-2.508-2.958h-1.904zm1.198 4.802V9.197h.689c.799 0 1.326.732 1.326 1.82 0 1.104-.527 1.835-1.326 1.835h-.689zm5.27-.969h1.718V10.77h-1.717V9.164h1.929V8.05h-3.128V14h1.198v-2.117z"/>
        </g>
    </symbol>
    <symbol xmlns="http://www.w3.org/2000/svg" viewBox="0 0 20 20" id="pencil-20">
        <g fill="currentColor">
            <path d="M2 1v18h14.001l-.007-6.001-2 .002.005 4H4v-14h9V1z"/>
            <path d="M16.432 6.317l-.739-.739L10 11.272v.739h.739l5.693-5.694zm-4.865 7.694H8v-3.568l7.693-7.693 3.568 3.567-7.694 7.694z"/>
        </g>
    </symbol>
    <symbol xmlns="http://www.w3.org/2000/svg" viewBox="0 0 20 20" id="pension-20">
        <g fill="currentColor">
            <path d="M10 5.275L4.321 16h11.356L9.999 5.275zM10 1l9 17H1l9-17z"/>
            <path d="M7 10V8h6v2zm-2.5 4v-2h11v2z"/>
        </g>
    </symbol>
    <symbol xmlns="http://www.w3.org/2000/svg" viewBox="0 0 20 20" id="pension-capital-20">
        <path d="M14.619 14l1.058 2H4.32l1.059-2H3.118L1 18h18l-2.118-4zm1.733-1l-2.117-4h-8.47l-2.118 4zM10 1L6.293 8h7.412z" fill="currentColor" fill-rule="evenodd"/>
    </symbol>
    <symbol xmlns="http://www.w3.org/2000/svg" viewBox="0 0 20 20" id="pension-occupational-20">
        <path d="M16.353 13l-2.118-4h-8.47l-2.118 4zm-1.734 1l1.059 2H4.322l1.058-2H3.118L1 18h18l-2.118-4zM10 1L6.294 8h2.262L10 5.274 11.442 8h2.263z" fill="currentColor" fill-rule="evenodd"/>
    </symbol>
    <symbol xmlns="http://www.w3.org/2000/svg" viewBox="0 0 20 20" id="pension-private-20">
        <g fill="currentColor" fill-rule="evenodd">
            <path d="M5.297 13h9.406v-2H5.297zm.997-5h7.412L9.999 1.001z"/>
            <path d="M5.91 13l2.117-4H5.764l-2.118 4zm10.443 0l-2.118-4H11.97l2.118 4zm-1.734 1l1.059 2H4.322l1.059-2H3.118L1 18h18l-2.118-4z"/>
        </g>
    </symbol>
    <symbol xmlns="http://www.w3.org/2000/svg" viewBox="0 0 20 20" id="pension-state-20">
        <path d="M5.764 9l-2.117 4H5.91l1.06-2h6.06l1.06 2h2.262l-2.118-4zm.53-1h2.263l1.442-2.724L11.442 8h2.264L9.999 1zm-3.177 6L1 18h18l-2.118-4z" fill="currentColor" fill-rule="evenodd"/>
    </symbol>
    <symbol xmlns="http://www.w3.org/2000/svg" viewBox="0 0 20 20" id="percent-20">
        <path d="M14.5 18a3.5 3.5 0 100-7 3.5 3.5 0 000 7zm0-2a1.5 1.5 0 110-3 1.5 1.5 0 010 3zm-9-7a3.5 3.5 0 100-7 3.5 3.5 0 000 7zm0-2a1.5 1.5 0 110-3 1.5 1.5 0 010 3zm9.214-4.618l-11 14 1.572 1.236 11-14z" fill="currentColor"/>
    </symbol>
    <symbol xmlns="http://www.w3.org/2000/svg" viewBox="0 0 20 20" id="phone-20">
        <path d="M5.122 4.791c-.258.844-.638 3.224 1.395 7.102 1.417 2.704 2.9 4.001 3.894 4.613 1.253.772 2.095.7 2.365.555l1.686-.909c.037-.02.091-.175.066-.22l-1.523-2.905a.138.138 0 00-.188-.055l-1.846.996h-.24c-.582-.002-1.745-.361-3-2.756-1.265-2.414-.899-3.576-.568-4.054l.13-.185 1.835-.992c.046-.026.086-.183.068-.216L7.672 2.857a.128.128 0 00-.08-.07.125.125 0 00-.101.011l-1.689.91c-.202.11-.487.45-.68 1.083m10.234 13.026l-1.682.906c-1.092.59-2.682.361-4.255-.609-1.194-.735-2.959-2.26-4.576-5.344-2.358-4.5-1.853-7.465-1.528-8.531.316-1.033.88-1.81 1.591-2.193l1.684-.908A2.004 2.004 0 018.144.982c.522.16.949.515 1.202 1l1.522 2.903c.489.928.084 2.258-.843 2.758l-1.304.704c.009.237.087.85.684 1.988.569 1.088 1.016 1.506 1.242 1.662l1.275-.689a2.017 2.017 0 011.554-.154c.52.16.947.512 1.201.995l1.524 2.907c.245.468.293 1.033.135 1.55-.159.52-.516.96-.98 1.21z" fill="currentColor" fill-rule="evenodd"/>
    </symbol>
    <symbol xmlns="http://www.w3.org/2000/svg" viewBox="0 0 20 20" id="phone-broken-20">
        <g fill="currentColor">
            <path d="M3 4.319C3 3.628 3.625 3 4.308 3h6.384C11.375 3 12 3.628 12 4.319V15.68c0 .691-.624 1.319-1.308 1.319H4.308A1.31 1.31 0 013 15.681V4.32zM4.308 19h6.384C12.482 19 14 17.474 14 15.681V4.32C14 2.525 12.482 1 10.692 1H4.308C2.518 1 1 2.525 1 4.319V15.68A3.31 3.31 0 004.308 19z"/>
            <path d="M11.02 6.002H6.621L5.587 4.019 3.85 5l1.558 3.002H9.02V9.8l4.061 3.049-.014-2.512-2.047-1.536zM9 14.499a1.5 1.5 0 11-3 .001 1.5 1.5 0 013-.001zM16 11V9h3v2zm-.42-2.954l-.97-1.75 2.624-1.454.97 1.75zm-.974 5.483l1.03-1.715 2.571 1.545-1.03 1.715z"/>
        </g>
    </symbol>
    <symbol xmlns="http://www.w3.org/2000/svg" viewBox="0 0 20 20" id="pin-20">
        <g fill="currentColor" fill-rule="evenodd">
            <path d="M5.5 7.538C5.5 5.036 7.519 3 10 3s4.5 2.036 4.5 4.538c0 1.177-.473 2.325-1.315 3.216L10 13.96l-3.167-3.189C5.973 9.863 5.5 8.715 5.5 7.538zm9.121 4.607c1.212-1.28 1.879-2.917 1.879-4.607C16.5 3.933 13.584 1 10 1S3.5 3.933 3.5 7.538c0 1.69.667 3.326 1.896 4.625L9.207 16H4v2h12v-2h-5.207l3.828-3.855z"/>
            <path d="M10 8.501c-.57 0-1-.43-1-1A.978.978 0 0110 6.5c.57 0 1 .43 1 1.001h2A2.969 2.969 0 0010 4.5c-1.682 0-3 1.318-3 3.001 0 1.682 1.318 3 3 3v-2z"/>
        </g>
    </symbol>
    <symbol xmlns="http://www.w3.org/2000/svg" viewBox="0 0 20 20" id="plus-20">
        <path d="M9 4v5H4v2h5v5h2.001v-5H16V9h-4.999V4z" fill="currentColor" fill-rule="evenodd"/>
    </symbol>
    <symbol xmlns="http://www.w3.org/2000/svg" viewBox="0 0 20 20" id="print-20">
        <g fill="none" fill-rule="evenodd">
            <path d="M0 0h20v20H0z"/>
            <path d="M5 15H1V9.5A3.5 3.5 0 014.5 6H5V1h10v5h.5A3.5 3.5 0 0119 9.5V15h-4v4H5v-4zm0-2v-2h10v2h2V9.5A1.5 1.5 0 0015.5 8h-11A1.5 1.5 0 003 9.5V13h2zm2-7h6V3H7v3zm0 7v4h6v-4H7z" fill="currentColor" fill-rule="nonzero"/>
        </g>
    </symbol>
    <symbol xmlns="http://www.w3.org/2000/svg" viewBox="0 0 20 20" id="radio-enclosed-20">
        <g fill="currentColor" fill-rule="evenodd">
            <path d="M10 3c-3.859 0-7 3.14-7 7s3.141 7 7 7 7-3.14 7-7-3.141-7-7-7m0 16c-4.963 0-9-4.038-9-9s4.037-9 9-9 9 4.038 9 9-4.037 9-9 9"/>
            <path d="M10 11.44c-.81 0-1.44-.63-1.44-1.44 0-.81.63-1.44 1.44-1.44.81 0 1.44.63 1.44 1.44 0 .81-.63 1.44-1.44 1.44"/>
        </g>
    </symbol>
    <symbol xmlns="http://www.w3.org/2000/svg" viewBox="0 0 20 20" id="radio-round-20">
        <g fill="currentColor" fill-rule="evenodd">
            <path d="M10 17c-3.859 0-7-3.14-7-7s3.141-7 7-7 7 3.14 7 7-3.141 7-7 7m0-16c-4.963 0-9 4.038-9 9s4.037 9 9 9 9-4.038 9-9-4.037-9-9-9"/>
            <path d="M10 11.56A1.58 1.58 0 018.44 10c0-.846.714-1.56 1.56-1.56.846 0 1.56.714 1.56 1.56A1.58 1.58 0 0110 11.56m0-6A4.445 4.445 0 005.56 10 4.445 4.445 0 0010 14.44 4.445 4.445 0 0014.44 10 4.445 4.445 0 0010 5.56"/>
        </g>
    </symbol>
    <symbol xmlns="http://www.w3.org/2000/svg" viewBox="0 0 20 20" id="screen-20">
        <path d="M17 12.5c0 .271-.229.5-.5.5h-13a.507.507 0 01-.5-.5v-8c0-.271.229-.5.5-.5h13c.271 0 .5.229.5.5v8zM3.5 2A2.503 2.503 0 001 4.5v8C1 13.878 2.122 15 3.5 15H9v1H5v2h10v-2h-4v-1h5.5c1.378 0 2.5-1.122 2.5-2.5v-8C19 3.122 17.878 2 16.5 2h-13z" fill="currentColor" fill-rule="evenodd"/>
    </symbol>
    <symbol xmlns="http://www.w3.org/2000/svg" viewBox="0 0 20 20" id="search-20">
        <path d="M17.638 18.954l-3.804-3.803 1.317-1.316 3.803 3.803zM8.354 2.862a5.499 5.499 0 00-5.492 5.493 5.499 5.499 0 005.492 5.492 5.499 5.499 0 005.493-5.492 5.499 5.499 0 00-5.493-5.493m0 12.847C4.3 15.71 1 12.41 1 8.355 1 4.299 4.3 1 8.354 1c4.056 0 7.355 3.3 7.355 7.355 0 4.055-3.3 7.354-7.355 7.354" fill="currentColor" fill-rule="evenodd"/>
    </symbol>
    <symbol xmlns="http://www.w3.org/2000/svg" viewBox="0 0 20 20" id="share-20">
        <g fill="none" fill-rule="evenodd">
            <path d="M0 0h20v20H0z"/>
            <path d="M15 1a3 3 0 11-1.911 5.313L7.94 9.402a3.014 3.014 0 010 1.196l5.149 3.09a3 3 0 11-1.03 1.716l-5.149-3.09a3 3 0 110-4.627l5.15-3.089A3 3 0 0115 1zm0 14a1 1 0 100 2 1 1 0 000-2zM5 9a1 1 0 100 2 1 1 0 000-2zm10-6a1 1 0 100 2 1 1 0 000-2z" fill="currentColor" fill-rule="nonzero"/>
        </g>
    </symbol>
    <symbol xmlns="http://www.w3.org/2000/svg" viewBox="0 0 20 20" id="shield-20">
        <g fill="currentColor" fill-rule="evenodd">
            <path d="M15 1H5c0 1.53-1.438 3-3 3v6.794c0 4.644 8 8.306 8 8.306s8-3.537 8-8.306V4c-1.47 0-3-1.5-3-3m-1.517 2A5.605 5.605 0 0016 5.517v5.277c0 2.314-3.624 4.85-5.99 6.079C7.638 15.614 4 13.051 4 10.794V5.55A5.299 5.299 0 006.55 3h6.933"/>
            <path fill-rule="nonzero" d="M6.5 7.414L7.914 6l5.657 5.657-1.414 1.414z"/>
            <path fill-rule="nonzero" d="M12.157 6l1.414 1.414-5.657 5.657L6.5 11.657z"/>
        </g>
    </symbol>
    <symbol xmlns="http://www.w3.org/2000/svg" viewBox="0 0 20 20" id="star-20">
        <defs>
            <path id="cxa" d="M18 17.493V0H0v17.493z"/>
        </defs>
        <g transform="translate(1 1.1)" fill="none" fill-rule="evenodd">
            <mask id="cxb" fill="#fff">
                <use xlink:href="#cxa"/>
            </mask>
            <path d="M9 11.82c.21 0 .42.065.597.196l2.441 1.815-.95-2.955a.999.999 0 01.36-1.11l2.498-1.842-3.065.007h-.002a1 1 0 01-.953-.698L9 4.311l-.926 2.922a1.01 1.01 0 01-.955.698l-3.065-.007 2.5 1.841a.999.999 0 01.358 1.111l-.95 2.955 2.441-1.815c.178-.13.387-.197.597-.197m4.944 5.674a.998.998 0 01-.596-.197L9 14.066l-4.348 3.23a1 1 0 01-1.548-1.109l1.684-5.238-4.38-3.226A1.001 1.001 0 011 5.918h.002l5.388.012L8.047.698a1 1 0 011.906 0L11.61 5.93l5.388-.012H17a1 1 0 01.593 1.805l-4.38 3.226 1.683 5.238a.999.999 0 01-.952 1.306" fill="currentColor" mask="url(#cxb)"/>
        </g>
    </symbol>
    <symbol xmlns="http://www.w3.org/2000/svg" viewBox="0 0 20 20" id="suitcase-20">
        <g transform="translate(1 1)" fill="currentColor" fill-rule="evenodd">
            <path d="M2.5 5c-.274 0-.5.226-.5.5v9c0 .274.226.5.5.5h13c.274 0 .5-.226.5-.5v-9c0-.274-.226-.5-.5-.5h-13zm0-2h13C16.879 3 18 4.122 18 5.5v9c0 1.378-1.121 2.5-2.5 2.5h-13A2.503 2.503 0 010 14.5v-9C0 4.122 1.121 3 2.5 3z" fill-rule="nonzero"/>
            <path fill-rule="nonzero" d="M3.443 9.3L2.7 7.443 7.057 5.7 7.8 7.557z"/>
            <circle cx="7.5" cy="10.5" r="1.5"/>
            <circle cx="13" cy="8" r="2"/>
            <path fill-rule="nonzero" d="M.086 11.5L1.5 10.086 6.914 15.5 5.5 16.914zM12.5 16.914L11.086 15.5l5.414-5.414 1.414 1.414zM14 4.5h-2C12 3.151 10.684 2 9 2S6 3.151 6 4.5H4C4 1.983 6.266 0 9 0s5 1.983 5 4.5z"/>
        </g>
    </symbol>
    <symbol xmlns="http://www.w3.org/2000/svg" viewBox="0 0 20 20" id="sustainability-20">
        <g fill="none" fill-rule="evenodd">
            <path d="M0 0h20v20H0z"/>
            <g fill="currentColor" fill-rule="nonzero">
                <path d="M8.66 19.644l7.2-12.134-1.72-1.02-7.2 12.133z"/>
                <path d="M17 10c0 1.934-1.866 4-3.042 4-.734 0-1.31-.249-1.793-.77l-1.467 1.359c.864.932 1.972 1.411 3.26 1.411C16.287 16 19 12.996 19 10c0-1.856-.168-4.55-.504-8.094L18.39.79l-1.095.23c-3.306.694-5.935 1.746-7.885 3.172-2.937 2.147-2.541 6.263-.228 8.76l1.467-1.36c-1.594-1.72-1.859-4.47-.059-5.786 1.487-1.087 3.493-1.95 6.019-2.578C16.869 6.16 17 8.42 17 10z"/>
                <path d="M11.923 6.615l-1.846.77L12 12h4v-2h-2.667zm-2.146 9.899L6.31 12.228l-1.555 1.258 3.469 4.286z"/>
                <path d="M5.45 11.095c.889.814.926 1.61.512 2.119l1.553 1.26c1.066-1.314.973-3.309-.716-4.854-1.153-1.055-2.663-1.79-4.516-2.216l-.924-.212-.26.911c-1.094 3.814-1.094 6.332.275 7.622 1.015.958 2.43.958 4.08.177l-.857-1.808c-.983.466-1.544.466-1.852.176-.557-.525-.616-2.095.02-4.662 1.098.355 1.99.852 2.684 1.487z"/>
            </g>
        </g>
    </symbol>
    <symbol xmlns="http://www.w3.org/2000/svg" viewBox="0 0 20 20" id="tag-20">
        <g fill="currentColor" fill-rule="evenodd">
            <path d="M3.414 11.004L9 16.59l8.004-8.003L17 5.419l-2.415-2.415L11.418 3l-8.004 8.003zm5.586 8a.997.997 0 01-.707-.293l-7-7a.999.999 0 010-1.414l9.004-9.004A1 1 0 0111.004 1h.001l3.996.004c.265 0 .518.105.706.293l3 3a1 1 0 01.293.706l.004 3.996c0 .266-.106.52-.293.708L9.707 18.71a.997.997 0 01-.707.293z"/>
            <path d="M13 8.5c-.484 0-.87-.194-1.161-.532a1.046 1.046 0 01-.242-.388C11.5 7.388 11.5 7.194 11.5 7c0-.823.677-1.5 1.5-1.5s1.5.677 1.5 1.5-.677 1.5-1.5 1.5"/>
        </g>
    </symbol>
    <symbol xmlns="http://www.w3.org/2000/svg" viewBox="0 0 20 20" id="text-1-round-20">
        <g fill="currentColor" fill-rule="evenodd">
            <path d="M10 17c-3.86 0-7-3.14-7-7s3.14-7 7-7 7 3.14 7 7-3.14 7-7 7m0-16c-4.962 0-9 4.038-9 9s4.038 9 9 9 9-4.038 9-9-4.038-9-9-9"/>
            <path d="M10.926 5.705H8.288v1.403h1.007v5.614h-1.15V14.1h3.968v-1.38h-1.187z"/>
        </g>
    </symbol>
    <symbol xmlns="http://www.w3.org/2000/svg" viewBox="0 0 20 20" id="text-2-round-20">
        <g fill="currentColor" fill-rule="evenodd">
            <path d="M10 3c-3.86 0-7 3.14-7 7s3.14 7 7 7 7-3.14 7-7-3.14-7-7-7m0 16c-4.962 0-9-4.038-9-9s4.038-9 9-9 9 4.038 9 9-4.038 9-9 9"/>
            <path d="M9.307 8.175H7.88c-.012-1.643.85-2.59 2.267-2.59 1.967 0 2.89 2.386 1.523 4.617l-1.427 2.338h2.183v1.56h-4.63v-.384l2.483-4.186c.239-.408.515-.887.515-1.379 0-.684-.252-1.032-.72-1.032-.503 0-.767.361-.767 1.056"/>
        </g>
    </symbol>
    <symbol xmlns="http://www.w3.org/2000/svg" viewBox="0 0 20 20" id="text-3-round-20">
        <g fill="currentColor" fill-rule="evenodd">
            <path d="M10 3c-3.86 0-7 3.14-7 7s3.14 7 7 7 7-3.14 7-7-3.14-7-7-7m0 16c-4.962 0-9-4.038-9-9s4.038-9 9-9 9 4.038 9 9-4.038 9-9 9"/>
            <path d="M9.083 11.641c.024.624.42 1.032.996 1.032.563 0 .947-.504.947-1.27-.024-1.345-1.115-1.536-1.991-1.345v-.252l1.188-2.674H7.872V5.704h4.545v.252l-1.427 2.94c1.128.226 1.643 1.33 1.643 2.493 0 1.703-1.007 2.831-2.53 2.831-1.476 0-2.471-1.03-2.507-2.579h1.487z"/>
        </g>
    </symbol>
    <symbol xmlns="http://www.w3.org/2000/svg" viewBox="0 0 20 20" id="thumbs-up-20">
        <g fill="none" fill-rule="evenodd">
            <path d="M0 0h20v20H0z"/>
            <path d="M9.826 1.333a1 1 0 011.293-.17c.515.338.925.926 1.296 1.767a1 1 0 01.047.677l-1.03 3.615H18a1 1 0 011 1v2.667a1 1 0 01-.09.416l-3.25 7.11a1 1 0 01-.91.585H5a1 1 0 01-1-1V8.222a1 1 0 01.255-.667zM1.011 18.99l.005-5.492.006-5.5 2 .008-.011 10.992H3l-1.989-.008zm9.328-15.231L6 8.605V17h8.108L17 10.671V9.222h-6.893a1 1 0 01-.962-1.274l1.194-4.19zm.2-.7l-.104.362c.024.047.049.096.073.148l.37-.413-.34-.097z" fill="currentColor" fill-rule="nonzero"/>
        </g>
    </symbol>
    <symbol xmlns="http://www.w3.org/2000/svg" viewBox="0 0 20 20" id="thumbup-20">
        <g fill="none" fill-rule="evenodd">
            <path d="M0 0h20v20H0z"/>
            <path d="M9.826 1.333a1 1 0 011.293-.17c.515.338.925.926 1.296 1.767a1 1 0 01.047.677l-1.03 3.615H18a1 1 0 011 1v2.667a1 1 0 01-.09.416l-3.25 7.11a1 1 0 01-.91.585H5a1 1 0 01-1-1V8.222a1 1 0 01.255-.667zM1.011 18.99l.005-5.492.006-5.5 2 .008-.011 10.992H3l-1.989-.008zm9.328-15.231L6 8.605V17h8.108L17 10.671V9.222h-6.893a1 1 0 01-.962-1.274l1.194-4.19zm.2-.7l-.104.362c.024.047.049.096.073.148l.37-.413-.34-.097z" fill="currentColor" fill-rule="nonzero"/>
        </g>
    </symbol>
    <symbol xmlns="http://www.w3.org/2000/svg" viewBox="0 0 20 20" id="trash-20">
        <path d="M4 6l1 12h10l1-12H4zm2.174 2h7.652l-.666 8H6.84l-.666-8zm5.672-5H4v2h12V3zM8 3h4V1H8z" fill="currentColor" fill-rule="evenodd"/>
    </symbol>
    <symbol xmlns="http://www.w3.org/2000/svg" viewBox="0 0 20 20" id="triangle-20">
        <path d="M6 5.75v8.509l7.025-4.255L6 5.75zM4 2.2l12.886 7.804L4 17.808V2.2z" fill="currentColor"/>
    </symbol>
    <symbol xmlns="http://www.w3.org/2000/svg" viewBox="0 0 20 20" id="umbrella-20">
        <path d="M10 8.814a5.007 5.007 0 00-3.5-1.443c-.657 0-1.297.132-1.889.376.972-2.019 3.002-3.412 5.343-3.412 2.32 0 4.386 1.402 5.395 3.396a4.946 4.946 0 00-1.849-.36A5.007 5.007 0 0010 8.814zM11 1H9v1.4c-3.937.482-7 3.902-7 8.042v.967h1.689s.001-.156.182-.475c.536-.95 1.568-1.563 2.629-1.563 1.022 0 1.932.525 2.5 1.39V16c0 .292-.224.53-.5.53S8 16.292 8 16H6c0 1.394 1.122 2.53 2.5 2.53 1.325 0 2.402-1.053 2.484-2.374l.016-5.42c.562-.834 1.516-1.366 2.5-1.366 1.094 0 2.077.584 2.629 1.562.1.176.171.476.171.476H18v-.967c0-4.112-3.057-7.51-7-8.03V1z" fill="currentColor" fill-rule="evenodd"/>
    </symbol>
    <symbol xmlns="http://www.w3.org/2000/svg" viewBox="0 0 20 20" id="user-20">
        <path d="M10.014 15.85c-3.61 0-5.294-.482-5.947-.745.168-1.383.859-4.848 3.517-6.139.73.577 1.633.934 2.623.934a4.22 4.22 0 002.462-.797c2.457 1.374 3.127 4.647 3.29 5.994-.682.28-2.368.753-5.945.753zM10.207 3c1.286 0 2.33 1.1 2.33 2.45 0 1.351-1.044 2.45-2.33 2.45-1.285 0-2.331-1.099-2.331-2.45C7.876 4.1 8.922 3 10.206 3zm7.806 12.617c-.008-.246-.235-5.674-4.006-8.077a4.485 4.485 0 00.53-2.09c0-2.454-1.942-4.45-4.33-4.45C7.82 1 5.876 2.996 5.876 5.45c0 .692.168 1.34.444 1.925-4.05 2.303-4.297 7.99-4.305 8.242L2 16.052l.309.307c.35.35 1.947 1.491 7.705 1.491s7.354-1.14 7.705-1.49l.309-.308-.015-.435z" fill="currentColor" fill-rule="evenodd"/>
    </symbol>
    <symbol xmlns="http://www.w3.org/2000/svg" viewBox="0 0 20 20" id="wallet-20">
        <path d="M18 9h-1V6H4v2h11v1h-1v2h2v1h-2v2h1v1H3.89a.89.89 0 01-.89-.89V5.89A.89.89 0 013.89 5H16V3H3.89A2.893 2.893 0 001 5.89v8.22A2.893 2.893 0 003.89 17H17v-3h1V9z" fill="currentColor" fill-rule="evenodd"/>
    </symbol>
    <symbol xmlns="http://www.w3.org/2000/svg" viewBox="0 0 20 20" id="wallet-minus-20">
        <g fill="currentColor" fill-rule="evenodd">
            <path d="M6 17c-2.206 0-4-1.794-4-4s1.794-4 4-4 4 1.794 4 4-1.794 4-4 4zM19 7h-1V4H6v2h10v1h-1v2h2v1h-2v2h1v1h-4c0-3.309-2.691-6-6-6-.341 0-.674.035-1 .09v-3.2A.89.89 0 015.89 3H17V1H5.89A2.893 2.893 0 003 3.89v3.922A5.999 5.999 0 000 13c0 3.309 2.691 6 6 6 2.607 0 4.824-1.673 5.65-4H18v-3h1V7z"/>
            <path d="M3 14h6v-2H3z"/>
        </g>
    </symbol>
    <symbol xmlns="http://www.w3.org/2000/svg" viewBox="0 0 20 20" id="wallet-plus-20">
        <g fill="currentColor" fill-rule="evenodd">
            <path d="M6 17c-2.206 0-4-1.794-4-4s1.794-4 4-4 4 1.794 4 4-1.794 4-4 4zM19 7h-1V4H6v2h10v1h-1v2h2v1h-2v2h1v1h-4c0-3.309-2.691-6-6-6-.341 0-.674.035-1 .09v-3.2A.89.89 0 015.89 3H17V1H5.89A2.893 2.893 0 003 3.89v3.922A5.999 5.999 0 000 13c0 3.309 2.691 6 6 6 2.607 0 4.824-1.673 5.65-4H18v-3h1V7z"/>
            <path d="M7 10H5v2H3v2h2v2h2v-2h2v-2H7z"/>
        </g>
    </symbol>
    <symbol xmlns="http://www.w3.org/2000/svg" viewBox="0 0 20 20" id="world-20">
        <g fill="currentColor" fill-rule="evenodd">
            <path d="M10 1a9 9 0 100 18 9 9 0 000-18m0 2c3.86 0 7 3.14 7 7s-3.14 7-7 7-7-3.14-7-7 3.14-7 7-7"/>
            <path d="M10.254 16.645c-.09 0-.18-.007-.27-.021-.566-.094-1.537-.56-1.662-2.639-.092-1.528-.643-1.768-1.407-2.101-.671-.292-1.796-.782-1.763-2.336.016-.685.242-1.238.67-1.643.808-.762 2.013-.717 3.18-.676 1.701.062 2.012-.065 2.082-.476.032-.178.008-.246.008-.247-.239-.243-1.62-.153-2.075-.124-.913.059-1.515.099-1.954-.366a1.209 1.209 0 01-.292-.897c.093-.755.73-1.237 1.405-1.746.43-.326.92-.696 1.104-1.027a1 1 0 111.744.979c-.219.391-.526.721-.857 1.015.905.017 1.83.186 2.418.84.307.341.637.949.47 1.914-.391 2.269-2.735 2.19-4.125 2.133-.576-.019-1.536-.055-1.734.132-.007.008-.04.07-.043.232-.003.131.018.174.018.175.05.07.358.204.543.285.912.397 2.436 1.062 2.604 3.813.018.288.053.49.088.627.194-.189.466-.545.696-1.11l.143-.337c.278-.641.658-1.52.658-2.599 0-.848.729-1.624 1.856-1.98 1.334-.42 3.372-.222 4.73 1.719a1 1 0 11-1.637 1.147c-.605-.864-1.335-1.05-1.842-1.054h-.017c-.54 0-.943.201-1.092.326-.034 1.42-.524 2.551-.821 3.236l-.125.295c-.634 1.559-1.671 2.511-2.701 2.511"/>
        </g>
    </symbol>
</svg>