<svg width="648" height="124" viewBox="0 0 648 124" xmlns="http://www.w3.org/2000/svg"><title>Artboard 1</title><g fill="#005AA0" fill-rule="evenodd"><path d="M191.916 20.604v22.333c0 3.124-.133 3.324-4.985 4.586v1.196h19.277v-1.197c-4.786-1.263-4.985-1.53-4.985-4.586V14.82h-14.29v1.197c4.852 1.264 4.984 1.463 4.984 4.587zM207.306 24.31h2.666c3.137 0 3.372-.236 3.372-3.373v-2.744c0-3.137-.235-3.372-3.372-3.372h-2.666c-3.137 0-3.372.236-3.372 3.373v2.744c0 3.137.235 3.372 3.372 3.372zM330.097 24.31h2.666c3.137 0 3.372-.236 3.372-3.373v-2.744c0-3.137-.235-3.372-3.372-3.372h-2.666c-3.137 0-3.372.236-3.372 3.373v2.744c0 3.137.235 3.372 3.372 3.372zM38.157 34.1H36.96c-4.585 11.564-8.374 11.298-14.955 11.298H18.12V8.64c0-3.123.132-3.322 4.984-4.585V2.86H3.43v1.195c4.786 1.263 4.984 1.53 4.984 4.586V42.94c0 3.124-.133 3.324-4.984 4.586v1.196h33.93l.797-14.62zM47.896 10.237h2.26c2.66 0 2.858-.2 2.858-2.858V5.052c0-2.66-.2-2.858-2.858-2.858h-2.26c-2.66 0-2.858.2-2.858 2.858V7.38c0 2.657.2 2.857 2.858 2.857zM50.688 30.775c-7.578 0-10.37 2.46-10.37 9.438 0 7.178 2.592 9.173 8.774 9.173 3.987 0 7.976-1.33 10.103-2.66.93 1.995 3.19 2.66 6.447 2.66 1.75 0 3.68-.18 5.9-.466.48-.062 1.172-.2 2.41-.2h15.444v-1.195c-4.786-1.263-4.985-1.53-4.985-4.586V19.61c2.527-.2 4.986-.4 7.445-.4 3.523 0 3.922.798 3.922 4.12v19.61c0 3.123-.133 3.323-4.985 4.585v1.196h19.276v-1.195c-4.786-1.263-4.985-1.53-4.985-4.586V22.865c0-7.112-5.118-8.707-9.438-8.707-3.922 0-9.57 1.794-12.563 4.452v-3.79h-12.96v1.197c4.85 1.262 4.983 1.46 4.983 4.585v22.333c0 1.998-.06 2.8-1.37 3.448-.897.43-1.597.465-1.965.494-3.186.25-3.736-1.343-3.736-4.14V24.327c0-6.647-3.79-10.17-10.37-10.17-8.706 0-16.483 2.527-16.483 9.04 0 2.86 1.263 4.454 4.587 4.454S50.42 25.658 50.42 23c0-2.593-.93-3.324-4.32-3.856v-.2s3.522-.2 5.98-.2c6.182 0 6.648.266 6.648 6.913v5.118h-8.04zm8.042 13.493v.532c-1.263.4-2.725.598-4.055.598-3.523 0-4.652-.798-4.652-5.317 0-6.114.332-6.58 8.707-6.646v10.834zM60.59 10.237h2.26c2.66 0 2.86-.2 2.86-2.858V5.052c0-2.66-.2-2.858-2.86-2.858h-2.26c-2.658 0-2.857.2-2.857 2.858V7.38c0 2.657.2 2.857 2.858 2.857zM122.666 46.262c-4.187 0-7.776-1.73-10.834-8.375h-1.196l.2 9.904c1.795.533 7.245 1.596 11.366 1.596 8.175 0 12.562-3.988 12.562-10.768 0-13.36-17.48-9.97-17.48-17.348 0-2.792 2.326-3.988 5.117-3.988 3.923 0 6.448 1.396 9.107 7.245h1.197l-.465-9.57s-4.986-.8-8.51-.8c-8.972 0-13.093 3.324-13.093 10.436 0 13.96 17.215 9.837 17.215 17.348 0 2.727-2.26 4.322-5.186 4.322zM134.193 48.72h19.276v-1.195c-4.787-1.263-4.986-1.53-4.986-4.586V18.015l7.444-1.695v-1.496h-7.444V8.776c0-3.922.93-4.12 3.855-4.12h4.582v-.8C154.064 1.2 150.544.202 147.42.202c-4.653 0-8.242 2.593-8.242 8.775V42.94c0 3.124-.133 3.324-4.985 4.586v1.195zM175.862 10.237h2.26c2.66 0 2.858-.2 2.858-2.858V5.052c0-2.66-.2-2.858-2.858-2.858h-2.26c-2.66 0-2.858.2-2.858 2.858V7.38c0 2.657.2 2.857 2.858 2.857z"/><path d="M171.107 49.386c11.964 0 15.885-1.728 15.885-17.282 0-15.553-3.523-17.946-15.885-17.946-11.964 0-16.816 2.326-16.816 17.946 0 15.222 4.92 17.282 16.817 17.282zm0-32.37c5.65 0 5.915 1.53 5.915 15.09 0 13.89-.598 14.423-5.915 14.423-6.18 0-6.846-.533-6.846-14.425 0-13.693.332-15.088 6.847-15.088zM163.167 10.237h2.26c2.66 0 2.858-.2 2.858-2.858V5.052c0-2.66-.2-2.858-2.858-2.858h-2.26c-2.66 0-2.858.2-2.858 2.858V7.38c0 2.657.198 2.857 2.857 2.857zM226.854 46.262c-4.188 0-7.776-1.73-10.834-8.375h-1.197l.2 9.904c1.794.533 7.245 1.596 11.365 1.596 8.176 0 12.563-3.988 12.563-10.768 0-13.36-17.48-9.97-17.48-17.348 0-2.792 2.327-3.988 5.118-3.988 3.922 0 6.448 1.396 9.106 7.245h1.196l-.465-9.57s-4.985-.8-8.508-.8c-8.973 0-13.094 3.324-13.094 10.436 0 13.96 17.215 9.837 17.215 17.348 0 2.727-2.26 4.322-5.184 4.322zM345.74 9.772H348c2.66 0 2.86-.2 2.86-2.858V4.587c0-2.66-.2-2.858-2.86-2.858h-2.26c-2.658 0-2.857.198-2.857 2.857v2.327c0 2.658.2 2.858 2.858 2.858zM356.974 48.72h17.08v-1.195c-4.786-1.263-4.984-1.53-4.984-4.586V19.61c2.525-.2 4.984-.4 7.444-.4 3.523 0 3.92.798 3.92 4.12v19.61c0 3.123-.132 3.323-4.983 4.585v1.196h18.274v-1.195c-3.86-1.11-3.982-1.53-3.982-4.586V22.865c0-7.112-5.118-8.707-9.44-8.707-3.92 0-9.57 1.794-12.56 4.452v-3.79H354.78v1.197c4.852 1.262 4.985 1.46 4.985 4.585v22.333c0 2.502-.092 3.13-2.618 3.927-.738.24-1.784.226-2.367.043-2.657-.837-2.79-1.472-2.79-3.97V14.823H337.7v1.196c4.85 1.262 4.984 1.46 4.984 4.585v22.333c0 3.124-.133 3.324-4.985 4.586v1.196H356.973zM249.085 10.237h2.26c2.66 0 2.858-.2 2.858-2.858V5.052c0-2.66-.2-2.858-2.858-2.858h-2.26c-2.66 0-2.858.2-2.858 2.858V7.38c0 2.657.2 2.857 2.858 2.857zM261.78 10.237h2.26c2.66 0 2.858-.2 2.858-2.858V5.052c0-2.66-.2-2.858-2.858-2.858h-2.26c-2.66 0-2.858.2-2.858 2.858V7.38c0 2.657.2 2.857 2.858 2.857zM436.434 30.775c-7.577 0-10.37 2.46-10.37 9.438 0 7.178 2.593 9.173 8.775 9.173 3.987 0 7.975-1.33 10.102-2.66.93 1.995 3.19 2.66 6.447 2.66 2.126 0 5.565-.665 7.892-.665h15.888v-1.197c-4.786-1.263-4.985-1.53-4.985-4.586V14.82h-14.29v1.197c4.852 1.263 4.984 1.462 4.984 4.586v22.333c0 2.22-.15 2.975-1.94 3.64-.664.248-2.137.55-3.507.01-1.367-.726-1.653-1.827-1.653-3.848v-18.41c0-6.647-3.788-10.17-10.37-10.17-8.706 0-16.483 2.527-16.483 9.04 0 2.86 1.263 4.454 4.587 4.454 3.323 0 4.652-1.994 4.652-4.653 0-2.593-.93-3.324-4.32-3.856v-.2s3.523-.2 5.982-.2c6.18 0 6.647.266 6.647 6.913v5.118h-8.04zm8.042 13.493v.532c-1.262.4-2.725.598-4.054.598-3.523 0-4.652-.798-4.652-5.317 0-6.114.332-6.58 8.707-6.646v10.834zM297.686 18.613L286.13 30.71l9.63 14.425c.265.465.464.798.464 1.063 0 .73-1.263.734-3.855 1.332v1.193h19.407l.002-.004h17.218v-1.197c-4.786-1.263-4.985-1.53-4.985-4.586V14.82h-14.29v1.197c4.852 1.263 4.984 1.462 4.984 4.586v22.333c0 2.294-.08 3.01-2.038 3.73-.996.344-2.15.515-2.62.435-1.656-.28-2.378-.726-3.458-2.166L294.237 26.92s5.64-6.647 7.636-8.508c1.33-1.263 2.393-2.06 5.45-2.393v-1.196H294.96v1.195c2.66.065 3.855.33 3.855 1.062 0 .335-.398.866-1.13 1.53z"/><path d="M290.516 48.724v-.002h.002v-1.196c-4.786-1.263-4.985-1.53-4.985-4.586V.865h-14.29v.002h-.003v1.196c4.852 1.263 4.985 1.462 4.985 4.586v36.29c0 1.366-.025 2.173-.46 2.754-.172.23-.412.42-.734.6l.002-.005c-.082.05-.167.088-.25.13-.157.075-.33.148-.522.22-.927.302-1.862.23-2.347.2-2.175-.135-2.688-1.673-2.688-4.103v-18.41c0-6.646-3.788-10.168-10.37-10.168-8.706 0-16.483 2.525-16.483 9.04 0 2.857 1.263 4.452 4.587 4.452 3.322 0 4.65-1.994 4.65-4.653 0-2.593-.93-3.324-4.32-3.856v-.2s3.524-.2 5.983-.2c6.18 0 6.647.266 6.647 6.913v5.118h-8.042c-7.577 0-10.37 2.46-10.37 9.438 0 7.178 2.593 9.173 8.775 9.173 3.988 0 7.976-1.33 10.103-2.66.93 1.995 3.19 2.66 6.447 2.66 1.31 0 2.72-.1 4.278-.27.95-.105 1.953-.38 3.484-.392h15.922zm-30.597-4.456v.532c-1.263.4-2.726.598-4.055.598-3.523 0-4.652-.798-4.652-5.317 0-6.114.332-6.58 8.707-6.646v10.834zM476.27 24.31h2.665c3.137 0 3.372-.236 3.372-3.373v-2.744c0-3.137-.235-3.372-3.372-3.372h-2.666c-3.138 0-3.373.236-3.373 3.373v2.744c0 3.137.236 3.372 3.372 3.372zM414.838 40.878h-11.5c-2.26 0-3.122-.93-3.122-2.194 0-.997.19-2.162.47-3.28 2.128.53 4.45.687 7.906.687 10.967 0 14.755-1.927 14.755-10.368 0-3.855-.997-6.58-2.99-8.375l6.646-1.33v-1.195c-5.915-.332-13.56-.665-18.41-.665-7.844 0-14.89 1.66-14.89 11.565 0 4.52 1.197 7.31 4.453 8.84-3.324 3.456-4.056 5.878-3.923 8.773.09 1.925.997 4.054 3.257 5.25-1.994 2.66-3.07 4.576-3.08 6.388-.026 3.79 1.962 5.234 9.1 5.234h10.434c7.91 0 10.733-2.2 10.733-10.864 0-6.22-2.195-8.465-9.84-8.465zm-6.313-23.662c3.788 0 4.852.798 4.852 8.31 0 6.978-.465 7.51-4.852 7.51-3.922 0-4.853-.532-4.853-7.51 0-7.978 1.13-8.31 4.853-8.31zm3.122 39.936h-5.583c-5.052 0-6.58-1.01-6.58-3.987 0-1.27.065-1.985.132-3.846.73.132 1.53.198 2.393.198h9.37c5.194 0 6.647.44 6.647 3.582 0 3.202-.93 4.052-6.38 4.052zM493.095 103.4V83.325c0-7.112-5.117-8.707-9.438-8.707-3.39 0-8.11 1.328-11.234 3.455v-16.75h-14.29v1.196c4.853 1.264 4.985 1.463 4.985 4.587v36.29c0 3.125-.133 3.325-4.985 4.587v1.196h19.276v-1.196c-4.787-1.263-4.987-1.53-4.987-4.586v-23.33c2.526-.2 4.986-.4 7.444-.4 3.523 0 3.922.8 3.922 4.122v19.608c0 3.124-.134 3.324-4.987 4.586v1.196h19.276v-1.196c-4.785-1.26-4.985-1.527-4.985-4.585zM289.655 74.62c-11.963 0-16.816 2.325-16.816 17.945 0 15.22 4.918 17.28 16.815 17.28 11.965 0 15.886-1.727 15.886-17.28S302.02 74.62 289.656 74.62zm0 32.368c-6.18 0-6.846-.532-6.846-14.424 0-13.692.332-15.088 6.845-15.088 5.65 0 5.915 1.53 5.915 15.088 0 13.893-.598 14.424-5.915 14.424zM336.443 104.86h-8.705c-9.04 0-9.172-1.86-9.172-14.223 0-9.57.797-11.432 5.05-11.432 3.723 0 5.585 0 9.373.2v.2c-4.388.332-4.588 2.127-4.588 3.855 0 3.124 1.595 4.587 4.52 4.587 3.456 0 4.72-1.197 4.72-4.786 0-4.718-5.65-8.64-13.694-8.64-7.577 0-15.354 2.26-15.354 17.348 0 12.03 4.387 17.88 15.155 17.88 4.186 0 8.638-.665 12.692-4.32v-.667z"/><path d="M371.073 103.4V83.325c0-7.112-5.117-8.707-9.438-8.707-3.39 0-8.11 1.328-11.234 3.455v-16.75h-14.29v1.196c4.854 1.264 4.986 1.463 4.986 4.587v36.29c0 3.125-.133 3.325-4.985 4.587v1.196h19.277v-1.196c-4.786-1.263-4.986-1.53-4.986-4.586v-23.33c2.527-.2 4.987-.4 7.445-.4 3.523 0 3.922.8 3.922 4.122v19.608c0 3.124-.133 3.324-4.986 4.586v1.196h19.277v-1.196c-4.784-1.26-4.984-1.527-4.984-4.585zM223.292 75.3h-2.666c-3.137 0-3.372.234-3.372 3.37v2.745c0 3.137.235 3.372 3.372 3.372h2.666c3.137 0 3.372-.235 3.372-3.372V78.67c0-3.136-.235-3.37-3.372-3.37zM214.545 103.225V75.3H200.35v1.162c4.82 1.254 4.952 1.676 4.952 4.78v21.983c0 3.103-.132 3.45-4.95 4.704v1.237h19.145v-1.238c-4.754-1.254-4.952-1.668-4.952-4.705zM26.864 91.103c4.786 1.263 4.985 1.53 4.985 4.586v9.704c-1.464.864-3.59 1.13-5.384 1.13-12.496 0-12.628-1.53-12.628-21.07 0-18.412.73-19.475 12.494-19.475 8.308 0 10.102 3.588 13.692 10.833l1.33-.266-1.518-11.56c-2.563-.973-7.72-2.332-13.37-2.332-19.675 0-22.998 2.193-22.998 24.06 0 19.94 2.79 23.132 22 23.132 3.855 0 11.63-.798 16.084-2.127V95.69c0-3.125-.368-3.324 4.484-4.587v-1.196H26.863v1.196zM64.215 74.62C52.25 74.62 47.4 76.944 47.4 92.564c0 15.22 4.917 17.28 16.815 17.28 11.964 0 15.886-1.727 15.886-17.28S76.58 74.62 64.216 74.62zm0 32.37c-6.18 0-6.846-.533-6.846-14.425 0-13.692.33-15.088 6.845-15.088 5.65 0 5.916 1.53 5.916 15.088 0 13.892-.598 14.424-5.915 14.424zM56.276 62.655c-2.66 0-2.858.2-2.858 2.858v2.326c0 2.658.2 2.857 2.858 2.857h2.26c2.66 0 2.858-.2 2.858-2.858v-2.327c0-2.66-.2-2.858-2.858-2.858h-2.26zM71.23 62.655h-2.26c-2.658 0-2.856.2-2.856 2.858v2.326c0 2.658.2 2.857 2.857 2.857h2.26c2.66 0 2.86-.2 2.86-2.858v-2.327c0-2.658-.2-2.858-2.86-2.858zM93.286 98.15V78.075l7.444-1.595v-1.195h-7.444v-9.57H92.09l-8.11 6.114v29.71c0 6.115 2.127 8.242 7.843 8.242 4.387 0 8.24-1.794 10.368-3.257v-1.13h-1.925c-6.58 0-6.98-.4-6.98-7.246z"/><path d="M129.843 91.768c0-13.758-3.656-17.148-13.693-17.148-8.44 0-15.288 2.924-15.288 17.148 0 14.89 6.647 18.08 15.288 18.08 5.583 0 9.704-1.397 12.96-4.32v-.665h-9.04c-9.038 0-9.304-1.994-9.238-13.094h19.01v-.002zm-14.092-14.09c3.524 0 4.522 1.062 4.522 10.235v.665l-9.44.2c.2-10.503 1.463-11.1 4.92-11.1zM152.403 74.686c-3.523 0-6.513.997-10.17 2.858V61.326h-14.29v1.196c4.852 1.263 4.985 1.462 4.985 4.586v42.738l8.84-2.46c2.858 1.397 7.444 2.527 10.7 2.527 7.313 0 11.965-3.257 11.965-19.143 0-10.5-3.123-16.084-12.03-16.084zm-3.057 30.64c-2.193 0-4.32-.132-7.112-.464V79.737c2.127-.266 4.652-.465 5.716-.465 5.982 0 6.514.598 6.514 13.825 0 10.568-1.063 12.23-5.118 12.23zM184.336 74.62c-11.964 0-16.816 2.325-16.816 17.945 0 15.22 4.92 17.28 16.816 17.28 11.964 0 15.886-1.727 15.886-17.28S196.7 74.62 184.336 74.62zm0 32.37c-6.18 0-6.846-.533-6.846-14.425 0-13.692.333-15.088 6.846-15.088 5.65 0 5.915 1.53 5.915 15.088.002 13.892-.596 14.424-5.914 14.424zM228.258 86.185c0 4.52 1.197 7.31 4.453 8.84-3.323 3.456-4.452 6.846-4.452 9.903 0 1.927.997 4.054 3.257 5.25-1.994 2.66-3.257 6.182-3.257 8.376 0 3.79 1.994 5.25 9.24 5.25h10.434c7.91 0 11.3-2.99 11.3-12.694 0-7.643-2.726-8.64-10.37-8.64h-11.5c-2.26 0-3.123-.93-3.123-2.194 0-.997.264-3.057.53-4.52 2.128.532 4.92.798 8.376.798 10.967 0 14.755-1.928 14.755-10.37 0-3.854-.996-6.58-2.99-8.374l6.647-1.33v-1.195c-5.915-.332-13.56-.665-18.41-.665-7.843 0-14.89 1.66-14.89 11.565zm7.777 24.925h9.372c5.384 0 6.646.598 6.646 4.985 0 4.054-.93 4.653-6.38 4.653h-5.584c-5.053 0-6.58-.4-6.58-4.187 0-1.86.065-3.788.132-5.65.73.133 1.53.2 2.393.2zm11.897-25.125c0 6.98-.465 7.51-4.852 7.51-3.922 0-4.853-.53-4.853-7.51 0-7.976 1.13-8.31 4.853-8.31 3.79.002 4.852.8 4.852 8.31zM409.59 85.988v-.2c8.974-1.594 12.763-2.28 12.763-11.43 0-7.54-1.13-10.135-13.16-10.135-1.13 0-2.393 0-3.722.066l-20.737.332v1.396c4.852 1.263 4.985.66 4.985 4.185V103.8c0 2.723-.133 2.923-4.985 4.186v1.196c5.915 0 16.218.332 21.8.332 14.974 0 16.684-.83 16.684-12.86 0-9.836-3.39-9.868-13.626-10.666zm-10.168-18.374h3.922c7.976 0 8.64.53 8.64 8.008 0 8.328-1.927 8.97-8.706 8.97h-3.855V67.615zm4.985 38.976c-2.127 0-3.523-.066-4.985-.133v-18.54h3.257c9.438 0 10.17.923 10.17 8.937-.002 8.804-.8 9.736-8.443 9.736zM442.917 74.62c-11.964 0-16.816 2.325-16.816 17.945 0 15.22 4.92 17.28 16.817 17.28 11.964 0 15.886-1.727 15.886-17.28S455.28 74.62 442.917 74.62zm0 32.37c-6.18 0-6.846-.533-6.846-14.425 0-13.692.334-15.088 6.847-15.088 5.65 0 5.915 1.53 5.915 15.088 0 13.892-.598 14.424-5.915 14.424zM515.16 76.48c4.785 1.263 4.983 1.53 4.983 4.586v23.33c-2.592.2-5.25.4-7.71.4-3.256 0-3.655-.865-3.655-4.188V75.284h-14.29v1.196c4.85 1.263 4.984 1.462 4.984 4.586v20.007c0 7.112 4.852 8.774 9.172 8.774 3.922 0 9.837-1.794 12.83-4.453v3.788h12.492v-1.196c-4.852-1.263-4.517-1.462-4.517-4.586V81.067c0-3.124.132-3.323 4.984-4.586v-1.195H515.16v1.195zM541.71 81.732c0-2.792 2.327-3.988 5.118-3.988 3.922 0 6.448 1.396 9.107 7.245h1.196l-.464-9.572s-4.984-.798-8.508-.798c-8.973 0-13.094 3.323-13.094 10.435 0 13.958 17.215 9.837 17.215 17.348 0 2.725-2.26 4.32-5.186 4.32-4.188 0-7.777-1.728-10.834-8.374h-1.197l.2 9.903c1.794.532 7.245 1.595 11.365 1.595 8.176 0 12.563-3.988 12.563-10.768 0-13.36-17.48-9.97-17.48-17.348z"/><path d="M572.644 103.4V61.326h-14.29v1.196c4.85 1.263 4.984 1.462 4.984 4.586V103.4c0 3.124-.133 3.324-4.985 4.586v1.196h19.275v-1.196c-4.785-1.263-4.984-1.53-4.984-4.586zM597.765 70.403h2.26c2.66 0 2.857-.2 2.857-2.858V65.22c0-2.66-.2-2.86-2.857-2.86h-2.26c-2.66 0-2.858.2-2.858 2.86v2.325c0 2.66.2 2.858 2.858 2.858zM585.07 70.403h2.26c2.66 0 2.858-.2 2.858-2.858V65.22c0-2.66-.2-2.86-2.858-2.86h-2.26c-2.66 0-2.858.2-2.858 2.86v2.325c0 2.66.2 2.858 2.858 2.858zM588.14 91.236c-7.577 0-10.37 2.46-10.37 9.438 0 7.178 2.593 9.173 8.775 9.173 3.987 0 7.976-1.33 10.103-2.66.93 1.995 3.19 2.66 6.447 2.66 1.75 0 3.68-.18 5.9-.466.48-.06 1.172-.198 2.41-.198h15.444v-1.196c-4.787-1.263-4.986-1.53-4.986-4.586V80.07c2.526-.2 4.985-.4 7.444-.4 3.523 0 3.922.8 3.922 4.122V103.4c0 3.124-.133 3.324-4.985 4.586v1.196h19.276v-1.196c-4.785-1.263-4.984-1.53-4.984-4.586V83.327c0-7.112-5.118-8.707-9.438-8.707-3.922 0-9.57 1.795-12.563 4.453v-3.79h-12.96v1.197c4.85 1.263 4.983 1.462 4.983 4.586V103.4c0 1.998-.06 2.8-1.37 3.448-.897.428-1.597.465-1.965.494-3.186.25-3.736-1.343-3.736-4.14V84.788c0-6.648-3.79-10.17-10.37-10.17-8.706 0-16.483 2.526-16.483 9.04 0 2.858 1.262 4.453 4.586 4.453 3.324 0 4.652-1.994 4.652-4.653 0-2.592-.93-3.323-4.32-3.855v-.2s3.523-.2 5.982-.2c6.18 0 6.647.266 6.647 6.913v5.118h-8.04zm8.044 13.493v.53c-1.263.4-2.725.6-4.055.6-3.524 0-4.653-.8-4.653-5.318 0-6.115.332-6.58 8.707-6.647v10.834z"/></g></svg>